<svg width="400" height="400" viewBox="0 0 400 400" fill="none" xmlns="http://www.w3.org/2000/svg">
<rect width="400" height="400" fill="white"/>
<circle cx="103" cy="102" r="96" fill="white"/>
<g style="mix-blend-mode:multiply">
<path d="M85.1796 160.312C78.3016 134.742 79.9064 76.0822 141.35 46C145.553 72.0712 140.204 131.433 85.1796 160.312Z" fill="url(#paint0_linear)"/>
</g>
<g opacity="0.8">
<path d="M84.8514 160.462C71.959 145.515 54.057 105.6 85.5883 65.5172C96.8466 81.6663 112.461 123.264 84.8514 160.462Z" fill="url(#paint1_linear)"/>
</g>
<circle cx="203.5" cy="202.5" r="196.5" fill="white"/>
<g style="mix-blend-mode:multiply">
<path d="M167.024 321.858C152.945 269.52 156.23 149.449 281.997 87.875C290.601 141.24 279.651 262.746 167.024 321.858Z" fill="url(#paint2_linear)"/>
</g>
<g opacity="0.8">
<path d="M166.352 322.164C139.963 291.57 103.32 209.869 167.86 127.824C190.905 160.879 222.865 246.025 166.352 322.164Z" fill="url(#paint3_linear)"/>
</g>
<defs>
<linearGradient id="paint0_linear" x1="112.436" y1="46" x2="112.436" y2="160.312" gradientUnits="userSpaceOnUse">
<stop stop-color="#5EE0A1"/>
<stop offset="1" stop-color="#16BD6D"/>
</linearGradient>
<linearGradient id="paint1_linear" x1="66.1703" y1="74.8724" x2="103.157" y2="151.643" gradientUnits="userSpaceOnUse">
<stop stop-color="#5EE0A1"/>
<stop offset="1" stop-color="#16BD6D"/>
</linearGradient>
<linearGradient id="paint2_linear" x1="222.815" y1="87.875" x2="222.815" y2="321.858" gradientUnits="userSpaceOnUse">
<stop stop-color="#5EE0A1"/>
<stop offset="1" stop-color="#16BD6D"/>
</linearGradient>
<linearGradient id="paint3_linear" x1="128.114" y1="146.973" x2="203.82" y2="304.113" gradientUnits="userSpaceOnUse">
<stop stop-color="#5EE0A1"/>
<stop offset="1" stop-color="#16BD6D"/>
</linearGradient>
</defs>
</svg>
