<svg xmlns="http://www.w3.org/2000/svg" xmlns:xlink="http://www.w3.org/1999/xlink" viewBox="0 0 400 400"><defs><style>.cls-1{fill:#03a2e8;}.cls-2{fill:#046296;}.cls-3{fill:url(#radial-gradient);}.cls-4{fill:#e9e9e9;opacity:0.15;}</style><radialGradient id="radial-gradient" cx="199.99" cy="199.99" r="133.57" gradientUnits="userSpaceOnUse"><stop offset="0" stop-color="#f7931e"/><stop offset="1" stop-color="#eac71c"/></radialGradient></defs><g id="Layer_2" data-name="Layer 2"><g id="Layer_1-2" data-name="Layer 1"><rect class="cls-1" width="400" height="400"/><polygon class="cls-2" points="400 196.61 400 400 237.74 400 91.65 278.08 282.19 99.36 400 196.61"/><path class="cls-3" d="M333.56,200a133,133,0,0,1-6.59,41.5c-.18.57-.36,1.13-.56,1.7a133.64,133.64,0,1,1,7.15-43.2Z"/><path class="cls-4" d="M146.81,315.47c-4-3.23-6.73-9.52-9.9-13.57-4-5.12-8-10.27-11.81-15.51-20.63-28.21-39-63.68-31.11-99.79,3.47-15.89,6.32-25.21,15-38.82C121.5,128,138.2,104,146.81,93.69,154.8,84.12-12.76,185.65,146.81,315.47Z"/></g></g></svg>