
<svg width="400" height="400" viewBox="0 0 400 400" fill="none" xmlns="http://www.w3.org/2000/svg">
<rect width="400" height="400" fill="#22ACE8"/>
<mask id="mask0" mask-type="alpha" maskUnits="userSpaceOnUse" x="0" y="0" width="400" height="400">
<rect width="400" height="400" fill="#C1E4FF"/>
</mask>
<g mask="url(#mask0)">
<rect x="-104" y="-124" width="540" height="540" fill="#EC1A2E"/>
</g>
<path d="M159 399L86 309L317 160L400 287V399H159Z" fill="#CF1628"/>
<path d="M75.0469 144L89.0469 158L283.047 111L309.047 100V77L302.047 68L89.0469 122L75.0469 131V144Z" fill="white"/>
<path d="M94.2494 156.488H309.682C316.764 156.488 322.483 162.211 322.483 169.296V301.742C322.483 308.827 316.764 314.55 309.682 314.55H94.2494C87.1682 314.55 81.4487 308.827 81.4487 301.742V169.296C81.4487 162.211 87.1682 156.488 94.2494 156.488Z" fill="black"/>
<path d="M317.58 96.8056L314.04 73.6413V73.3688C313.223 70.0986 311.044 67.3733 308.32 65.7382C305.597 64.1031 302.056 63.5581 299.06 64.3756L145.997 103.346H144.635V103.619L77.3631 120.787C74.0948 121.605 71.3713 123.785 69.7372 126.51C68.103 129.236 67.5583 132.778 68.3754 135.776L79.5419 159.485C80.359 162.483 82.5379 164.936 85.2614 166.571C87.4403 167.661 89.6191 168.479 91.7979 168.206C92.615 168.206 93.7044 167.934 94.5215 167.934L310.772 111.522C313.495 110.977 320.304 108.251 317.58 96.8056ZM247.313 85.3597L298.516 72.2787L289.528 101.984L241.593 113.974L247.313 85.3597ZM218.443 119.697L160.704 133.868L166.151 105.799L224.163 91.0827L218.443 119.697ZM84.9891 152.672L90.9809 125.148L143.001 111.794L137.554 139.591L84.9891 152.672Z" fill="black"/>
<path d="M96.9727 191.915L107.595 164.118L306.414 164.936L311.589 170.931L292.251 199.546H96.9727V191.915Z" fill="white"/>
<path d="M105.416 162.211C103.237 164.391 102.147 167.116 102.147 170.114L90.7085 197.639C90.9809 200.364 92.0703 203.089 94.2491 204.997C95.8832 206.359 97.7897 207.449 99.9686 207.994C100.786 208.267 101.603 208.267 102.42 208.267L296.881 207.722C299.06 207.722 306.142 206.904 305.869 196.276L309.137 175.292L311.589 175.019C311.589 172.022 312.678 169.296 310.499 167.116C308.32 164.936 312.95 163.846 309.954 163.846H162.883L161.793 163.574V163.846L105.416 162.211ZM258.752 170.659H308.048L293.613 194.641L247.585 194.368L258.752 170.659ZM225.252 194.096L169.692 193.551L180.586 170.659H236.419L225.252 194.096ZM96.9727 193.006L108.412 170.659H158.525L147.631 193.551L96.9727 193.006Z" fill="black"/>
<path d="M200 215L207.746 238.839H232.811L212.533 253.572L220.279 277.411L200 262.678L179.721 277.411L187.467 253.572L167.189 238.839H192.254L200 215Z" fill="#EC1A2E"/>
<path d="M206.891 239.464L199.85 217.712V261.216L218.285 274.66L211.244 252.907L229.679 239.464L206.891 239.464Z" fill="url(#paint0_linear)" fill-opacity="0.1"/>
<defs>
<linearGradient id="paint0_linear" x1="216.781" y1="246.127" x2="198.462" y2="246.127" gradientUnits="userSpaceOnUse">
<stop stop-color="white"/>
<stop offset="1" stop-color="white" stop-opacity="0"/>
</linearGradient>
</defs>
</svg>

