<svg xmlns="http://www.w3.org/2000/svg" viewBox="0 0 400 400"><defs><style>.cls-1{fill:#16bd6b;}.cls-2{fill:#108749;}.cls-3{fill:#f6f9f9;}.cls-4{fill:#ececef;}.cls-5{fill:#dddddf;}.cls-6{fill:#262626;}</style></defs><g id="Layer_2" data-name="Layer 2"><g id="Layer_1-2" data-name="Layer 1"><rect class="cls-1" width="400" height="400"/><polygon class="cls-2" points="400 193.34 400 400 197.76 400 100.28 299.4 297.81 101.84 400 193.34"/><path class="cls-3" d="M200,254.53l51.86-37.68,47.23,15.63,12.26,51.87a142.41,142.41,0,0,1-12.59,14.41,139,139,0,0,1-53.21,33.34L200,304Z"/><path d="M200,254.53l-51.87-37.69,19.81-61H232l19.81,61Z"/><path class="cls-3" d="M148.12,216.84,200,254.53V304l-45.46,28.1a139.12,139.12,0,0,1-53.31-33.37,142.43,142.43,0,0,1-12.49-14.29l12.21-52.36Z"/><path d="M245.54,332.1a140.82,140.82,0,0,1-91,0L200,304Z"/><path class="cls-4" d="M167.93,155.87l-19.81,61-47.18,15.27L60.35,196.85a138.52,138.52,0,0,1,25.36-77.23l53.39-4Z"/><path class="cls-3" d="M232,155.87H167.93L139.1,115.62l20.31-49.35a141.15,141.15,0,0,1,81.2,0l20.68,49.54Z"/><path class="cls-4" d="M299.08,232.48l-47.23-15.63-19.81-61,29.25-40.05,53.13,4a138.59,138.59,0,0,1,25.21,77.31Z"/><path d="M88.73,284.47A138.67,138.67,0,0,1,60.31,200c0-1.05,0-2.1,0-3.14l40.59,35.26Z"/><path d="M85.71,119.62a141.16,141.16,0,0,1,15.51-18.39,139,139,0,0,1,58.19-35L139.1,115.62Z"/><path d="M314.42,119.83l-53.13-4L240.61,66.28a139,139,0,0,1,58.14,35A140.6,140.6,0,0,1,314.42,119.83Z"/><path d="M339.63,197.14c0,1,0,1.9,0,2.85a138.63,138.63,0,0,1-28.33,84.35l-12.26-51.86Z"/><path class="cls-4" d="M200,254.53l51.86-37.68,47.23,15.63,12.26,51.87a142.41,142.41,0,0,1-12.59,14.41,139,139,0,0,1-53.21,33.34L200,304Z"/><path class="cls-5" d="M299.08,232.48l-47.23-15.63-19.81-61,29.25-40.05,53.13,4a138.59,138.59,0,0,1,25.21,77.31Z"/><path class="cls-6" d="M314.42,119.83l-53.13-4L240.61,66.28a139,139,0,0,1,58.14,35A140.6,140.6,0,0,1,314.42,119.83Z"/><path class="cls-6" d="M339.63,197.14c0,1,0,1.9,0,2.85a138.63,138.63,0,0,1-28.33,84.35l-12.26-51.86Z"/><path class="cls-6" d="M200,339.67a140,140,0,0,0,45.55-7.57L200,304Z"/><path class="cls-4" d="M261.29,115.82,240.61,66.28a140.2,140.2,0,0,0-40.62-6v95.56h32Z"/><path class="cls-6" d="M232,155.87H200v98.66l51.86-37.69Z"/></g></g></svg>