<svg width="400" height="400" viewBox="0 0 400 400" fill="none" xmlns="http://www.w3.org/2000/svg">
<rect width="400" height="400" fill="#222222"/>
<path d="M73.7113 217H82.5113V182H73.7113V217ZM97.5898 195.6H97.6898L111.04 217H119.59V182H111.19L111.09 201.35L99.3398 182H89.1898V217H97.5898V195.6ZM126.299 217H139.249C151.199 217 157.399 209.1 157.399 199.5C157.399 189.95 151.099 182 139.249 182H126.299V217ZM135.099 209.45V189.55H138.249C145.049 189.55 147.899 194.35 147.899 199.5C147.899 204.7 145.049 209.45 138.249 209.45H135.099ZM168.558 217H177.358V202.2L190.008 182H180.408L173.258 193.95H173.158L166.108 182H155.908L168.558 202.25V217ZM187.866 217H192.466L204.066 182H199.416L187.866 217Z" fill="#EC1A2E"/>
<path d="M208.526 217H223.326C231.776 217 236.376 212.75 236.376 206.95C236.376 202.3 232.976 199.4 229.376 198.6V198.5C232.026 197.85 234.926 194.95 234.926 191.1C234.926 186.4 231.276 182 222.926 182H208.526V217ZM217.326 196V188.85H221.726C224.526 188.85 226.076 190.35 226.076 192.45C226.076 194.45 224.526 196 221.726 196H217.326ZM217.326 210.15V202.3H222.526C226.076 202.3 227.376 204.45 227.376 206.3C227.376 208.2 226.076 210.15 222.526 210.15H217.326ZM241.094 217H267.094V209.4H249.894V202.8H260.794V195.7H249.894V189.6H266.544V182H241.094V217ZM283.1 217.75C291.7 217.75 296.8 212.45 296.8 206.45C296.8 200.75 292.95 198.05 288.65 196.45L283.55 194.65C280.9 193.7 280.2 192.65 280.2 191.25C280.2 189.85 281.55 188.45 284.15 188.45C286.85 188.45 290.1 189.85 291.75 191L296.45 185C293.55 182.8 288.75 181.25 284.45 181.25C275 181.25 271.15 187.1 271.15 191.9C271.15 196.85 273.75 200.2 279.25 202.15L283.85 203.8C286.6 204.8 287.45 205.85 287.45 207.35C287.45 208.9 285.9 210.45 283.05 210.45C280.45 210.45 277.3 209.45 274.3 206.95L269.5 213.35C272.4 215.7 276.95 217.75 283.1 217.75ZM309.493 217H318.293V189.6H328.893V182H298.943V189.6H309.493V217Z" fill="#F6F6F6"/>
</svg>
