<svg xmlns="http://www.w3.org/2000/svg" viewBox="0 0 400 400"><defs><style>.cls-1{fill:#e9e9e9;}.cls-2{fill:#c9c9c9;}.cls-3{fill:#754c24;}.cls-4{fill:#d3b97d;}.cls-5{fill:#ebf0f3;}.cls-6{fill:#efdcb4;}.cls-7{fill:#666;}.cls-8{fill:#3a556a;}.cls-9{fill:#333;}.cls-10{fill:#64798a;}</style></defs><g id="Layer_2" data-name="Layer 2"><g id="Layer_1-2" data-name="Layer 1"><rect class="cls-1" width="400" height="400"/><polygon class="cls-2" points="400 301.54 400 400 248.62 400 251.4 278 265.48 207.8 323.04 194.18 400 301.54"/><path class="cls-3" d="M201.23,29.56c-22.95,0-41.77,17.61-41.77,39.44s18.82,39.12,41.77,39.12,41.82-17.57,41.82-39.26S224.18,29.56,201.23,29.56Z"/><path class="cls-4" d="M220.65,128.21V110.58l-19.42-6.74h0l-19.41,6.74v17.63l-9,4.55V152H231V133.4Z"/><path class="cls-5" d="M220.69,128.21a20.93,20.93,0,0,1-38.92,0l-5.37,2.71v75.37h50.49v-75Z"/><path d="M181.77,128.21c0,8.54,1,45.9,16.66,78H125.81l3.81-40.31a22,22,0,0,1,11.94-17.49l32.77-16.25Z"/><path d="M276.65,206.29H204c15.65-32.13,16.66-69.54,16.66-78l7.39,3.71,32.82,16.48a22.11,22.11,0,0,1,12,17.54Z"/><path class="cls-6" d="M201.23,40.76c-17.44,0-31.58,19.62-31.58,43.79s14.14,43.74,31.58,43.74,31.58-19.56,31.58-43.74S218.67,40.76,201.23,40.76Z"/><path class="cls-7" d="M232.12,150.57,224.18,157l3.44,6.56c-9.45,35.12-23.77,42.69-23.77,42.69,15.65-32.13,16.66-69.54,16.66-78v-1.79l7.39,5.5Z"/><path class="cls-7" d="M198.43,206.29s-15-7.11-24.42-42.27l4.27-7-7.21-5,3.26-19.83,7.39-5.5v1.79C181.77,136.79,182.87,174.07,198.43,206.29Z"/><path class="cls-3" d="M234.14,68.77a110.73,110.73,0,0,1-15.24,0c-5.78-3.26-14.36-9.18-16.11-14.83a21.87,21.87,0,0,0,4.59,13c-22.95-5.33-29.47-18.73-29.47-18.73L195.68,35h15.74L227.9,48.25Z"/><path class="cls-8" d="M115.53,198.4l-4.59-.46,2.61-27a40.43,40.43,0,0,1,16.25-28.6l8.91-6.57,2.89,3.91-9.22,6.51a35.64,35.64,0,0,0-14.33,25.25Z"/><path d="M97.82,206.3l.76,10.76L111.6,400H290.86l13-182.94.76-10.76Z"/><polygon class="cls-9" points="282.58 245.26 271.52 400 130.94 400 119.88 245.26 282.58 245.26"/><circle class="cls-10" cx="141.37" cy="136.61" r="8.31"/><rect class="cls-9" x="76.94" y="194.19" width="246.1" height="22.86"/></g></g></svg>