<svg xmlns="http://www.w3.org/2000/svg" xmlns:xlink="http://www.w3.org/1999/xlink" viewBox="0 0 400 400"><defs><style>.cls-1{fill:#fff;}.cls-1,.cls-11,.cls-12,.cls-13,.cls-14,.cls-16,.cls-17,.cls-18,.cls-20,.cls-3,.cls-31,.cls-32,.cls-33,.cls-34,.cls-35,.cls-36,.cls-4,.cls-5,.cls-6,.cls-7,.cls-8,.cls-9{fill-rule:evenodd;}.cls-2{fill:#a51220;}.cls-3{fill:#7c1120;}.cls-4{fill:#ff8a64;}.cls-5{fill:#754748;}.cls-6{fill:#804e4f;}.cls-7{fill:#1a1a1a;}.cls-8{fill:#333;}.cls-9{fill:#f58460;}.cls-10{mask:url(#mask);}.cls-11{fill:#532a3a;}.cls-12{fill:#fbd1d5;}.cls-13{fill:#773c34;}.cls-14{fill:#666;}.cls-15{mask:url(#mask-2);}.cls-16{fill:#ccc;}.cls-17{fill:#bfbfbf;}.cls-18{fill:#b3b3b3;}.cls-19{mask:url(#mask-3);}.cls-20{fill:gray;}.cls-21{mask:url(#mask-4);}.cls-22,.cls-24,.cls-28{fill:none;stroke:#e6e6e6;stroke-width:2.8px;}.cls-22{stroke-dasharray:7.08 2.83;}.cls-23{mask:url(#mask-8);}.cls-24{stroke-dasharray:6.82 2.73;}.cls-25{mask:url(#mask-9);}.cls-26{mask:url(#mask-10);}.cls-27{mask:url(#mask-12);}.cls-28{stroke-dasharray:6.83 2.73;}.cls-29{mask:url(#mask-13);}.cls-30{mask:url(#mask-14);}.cls-31{fill:#d13845;}.cls-32{fill:#e03c4a;}.cls-33{fill:#3c4259;}.cls-34{fill:#33394d;}.cls-35{fill:#8a463c;}.cls-36{fill:#32213b;}</style><mask id="mask" x="186.18" y="321.92" width="13.71" height="15.3" maskUnits="userSpaceOnUse"><g id="mask0"><path class="cls-1" d="M186.18,321.92h13.71v15.3H186.18Z"/></g></mask><mask id="mask-2" x="62.91" y="182.45" width="39.58" height="41.02" maskUnits="userSpaceOnUse"><g id="mask0-2" data-name="mask0"><path class="cls-1" d="M62.91,182.45h39.57v41H62.91Z"/></g></mask><mask id="mask-3" x="100.06" y="68.2" width="21.43" height="19.45" maskUnits="userSpaceOnUse"><g id="mask1"><path class="cls-1" d="M100.06,68.2h21.43V87.65H100.06Z"/></g></mask><mask id="mask-4" x="71.94" y="100.8" width="91.1" height="219.75" maskUnits="userSpaceOnUse"><g id="mask4"><path class="cls-1" d="M95.76,133.29c-1.42,1.67-22.4,56.63-23.82,73.92h0c-.11,1.36,6.08,3.82,6.43,2.87h0c.47-1.28,9.95-23.61,15.56-38.25h0C89.18,197.59,79.79,248.62,77,267.74h0c-.46,3.12,38.33,12.69,39.32,9.76h0c13.42-39.87,0-153.95,0-153.95h0S99.44,129,95.76,133.29m47.6,138.82c.06,1,9.29-.32,9.3-1h0c0-10.58,1.06-44.14.89-69.56h0c1.73,4.4,3.24,8.17,3.37,8.35h0c.29.41,6.14-1.57,6.11-2.18h0c-.12-3.22-11.4-76.56-13.26-77.71h0c-4-2.51-17.8-6.43-17.8-6.43h0c.95,2.9,9.18,112.27,11.39,148.5"/></g></mask><mask id="mask-8" x="70.43" y="123.55" width="114.55" height="154.5" maskUnits="userSpaceOnUse"><g id="mask6"><path class="cls-1" d="M95.76,133.29c-1.42,1.67-22.4,56.63-23.82,73.92h0c-.11,1.36,6.08,3.82,6.43,2.87h0c.47-1.28,9.95-23.61,15.56-38.25h0C89.18,197.59,79.79,248.62,77,267.74h0c-.46,3.12,38.33,12.69,39.32,9.76h0c13.42-39.87,0-153.95,0-153.95h0S99.44,129,95.76,133.29m47.6,138.82c.06,1,9.29-.32,9.3-1h0c0-10.58,1.06-44.14.89-69.56h0c1.73,4.4,3.24,8.17,3.37,8.35h0c.29.41,6.14-1.57,6.11-2.18h0c-.12-3.22-11.4-76.56-13.26-77.71h0c-4-2.51-17.8-6.43-17.8-6.43h0c.95,2.9,9.18,112.27,11.39,148.5"/></g></mask><mask id="mask-9" x="70.42" y="123.55" width="114.56" height="154.5" maskUnits="userSpaceOnUse"><g id="mask7"><path class="cls-1" d="M95.76,133.29c-1.42,1.67-22.4,56.63-23.82,73.92h0c-.11,1.36,6.08,3.82,6.43,2.87h0c.47-1.28,9.95-23.61,15.56-38.25h0C89.18,197.59,79.79,248.62,77,267.74h0c-.46,3.12,38.33,12.69,39.32,9.76h0c13.42-39.87,0-153.95,0-153.95h0S99.44,129,95.76,133.29m47.6,138.82c.06,1,9.29-.32,9.3-1h0c0-10.58,1.06-44.14.89-69.56h0c1.73,4.4,3.24,8.17,3.37,8.35h0c.29.41,6.14-1.57,6.11-2.18h0c-.12-3.22-11.4-76.56-13.26-77.71h0c-4-2.51-17.8-6.43-17.8-6.43h0c.95,2.9,9.18,112.27,11.39,148.5"/></g></mask><mask id="mask-10" x="70.42" y="123.55" width="114.56" height="154.5" maskUnits="userSpaceOnUse"><g id="mask8"><path class="cls-1" d="M95.76,133.29c-1.42,1.67-22.4,56.63-23.82,73.92h0c-.11,1.36,6.08,3.82,6.43,2.87h0c.47-1.28,9.95-23.61,15.56-38.25h0C89.18,197.59,79.79,248.62,77,267.74h0c-.46,3.12,38.33,12.69,39.32,9.76h0c13.42-39.87,0-153.95,0-153.95h0S99.44,129,95.76,133.29m47.6,138.82c.06,1,9.29-.32,9.3-1h0c0-10.58,1.06-44.14.89-69.56h0c1.73,4.4,3.24,8.17,3.37,8.35h0c.29.41,6.14-1.57,6.11-2.18h0c-.12-3.22-11.4-76.56-13.26-77.71h0c-4-2.51-17.8-6.43-17.8-6.43h0c.95,2.9,9.18,112.27,11.39,148.5"/></g></mask><mask id="mask-12" x="70.31" y="123.55" width="114.76" height="154.5" maskUnits="userSpaceOnUse"><g id="mask10"><path class="cls-1" d="M95.76,133.29c-1.42,1.67-22.4,56.63-23.82,73.92h0c-.11,1.36,6.08,3.82,6.43,2.87h0c.47-1.28,9.95-23.61,15.56-38.25h0C89.18,197.59,79.79,248.62,77,267.74h0c-.46,3.12,38.33,12.69,39.32,9.76h0c13.42-39.87,0-153.95,0-153.95h0S99.44,129,95.76,133.29m47.6,138.82c.06,1,9.29-.32,9.3-1h0c0-10.58,1.06-44.14.89-69.56h0c1.73,4.4,3.24,8.17,3.37,8.35h0c.29.41,6.14-1.57,6.11-2.18h0c-.12-3.22-11.4-76.56-13.26-77.71h0c-4-2.51-17.8-6.43-17.8-6.43h0c.95,2.9,9.18,112.27,11.39,148.5"/></g></mask><mask id="mask-13" x="70.32" y="123.55" width="114.74" height="154.5" maskUnits="userSpaceOnUse"><g id="mask11"><path class="cls-1" d="M95.76,133.29c-1.42,1.67-22.4,56.63-23.82,73.92h0c-.11,1.36,6.08,3.82,6.43,2.87h0c.47-1.28,9.95-23.61,15.56-38.25h0C89.18,197.59,79.79,248.62,77,267.74h0c-.46,3.12,38.33,12.69,39.32,9.76h0c13.42-39.87,0-153.95,0-153.95h0S99.44,129,95.76,133.29m47.6,138.82c.06,1,9.29-.32,9.3-1h0c0-10.58,1.06-44.14.89-69.56h0c1.73,4.4,3.24,8.17,3.37,8.35h0c.29.41,6.14-1.57,6.11-2.18h0c-.12-3.22-11.4-76.56-13.26-77.71h0c-4-2.51-17.8-6.43-17.8-6.43h0c.95,2.9,9.18,112.27,11.39,148.5"/></g></mask><mask id="mask-14" x="208.24" y="30.68" width="91.75" height="308.9" maskUnits="userSpaceOnUse"><g id="mask1-2" data-name="mask1"><path class="cls-1" d="M208.24,339.58H300V30.68H208.24Z"/></g></mask></defs><g id="Layer_2" data-name="Layer 2"><g id="Layer_1-2" data-name="Layer 1"><rect class="cls-2" width="400" height="400"/><polygon class="cls-3" points="400 201.75 400 400 196.42 400 123.25 353.51 113.41 289.98 121.67 263.21 128.43 241.36 196.66 163.1 282.13 121.82 400 201.75"/><path class="cls-4" d="M199.69,178.94H172.28L192.8,335.08l6.89-1.35V178.94Z"/><path class="cls-5" d="M187.7,309.4a1.84,1.84,0,0,0-1.85,1.84h0a1.22,1.22,0,0,1-2.43,0h0a1.84,1.84,0,0,0-1.85-1.84h-2.75s.55,5.48.09,6.19c-2.2,3.37-8.31,8.1-2.35,9,7.21,1.08,11.17-5.41,11.17-5.41v-5Z"/><path class="cls-4" d="M186.81,162.1V331l7.41-1.76,20-167.12Z"/><path class="cls-6" d="M159.39,162.1h54.84l-17.46,159-10.28-.6.32-121.18V308.81h-8.74Z"/><path class="cls-7" d="M159.39,162.1l18.68,146.71h8.74V199.3Z"/><path class="cls-8" d="M159.39,162.1l27.42,37.2V308.81h-.29l0,11.67,10.28.6,17.46-159Z"/><path class="cls-1" d="M179.44,89.3l11.56.38,5.92,77.5H172Z"/><path class="cls-9" d="M168.15,70.28,155.53,81.71,152.29,75l8.92-14.13Z"/><path class="cls-9" d="M166,62.7c0,2.72-3.92,2.43-5.21,3.27-3.55,2.32-6.74,16.3-6.74,16.3l-5.19-1.49s6.88-19.12,10.93-22.62,10.61-7.66,11.08-4.69c.14.92-4.82,5.11-4.87,9.23"/><path class="cls-5" d="M163.84,74.11l-6.32-4.37a1.43,1.43,0,0,1-.65-2.26l12.09-15a1.46,1.46,0,0,1,1.59-.46l6.32,4.38a1.43,1.43,0,0,1,.65,2.26l-12.1,15a1.42,1.42,0,0,1-1.58.45"/><g class="cls-10"><path class="cls-5" d="M186.21,321.92a1.85,1.85,0,0,1,1.85,1.85h0a1.22,1.22,0,1,0,2.43,0h0a1.84,1.84,0,0,1,1.84-1.85h2.76s-.55,5.48-.09,6.19c2.2,3.37,8.3,8.1,2.35,9-7.21,1.08-11.17-5.41-11.17-5.41v-5Z"/></g><path class="cls-9" d="M175.54,78.19c2.71,6.45,1.44,15.86-.12,22.08-1,3.88,16.72.62,16.72.62l-2-31.51s-16.23,5-14.61,8.81"/><path class="cls-1" d="M177.05,90c4.28,2.3,12.8,1.33,14.37-.53l6.14,82.4-22.67-1.17S163,104.37,177.05,90"/><path class="cls-11" d="M234.53,196.15l2.31-.39a5.73,5.73,0,0,1,1-4.13A5.39,5.39,0,0,1,242.1,190c2.49,0,4.26.44,5.26,1.42,1.2,1.18,1.2,3.05,1.2,4.42h2.34c0-1.58,0-4.23-1.9-6.09-1.48-1.46-3.75-2.13-6.94-2.09a7.58,7.58,0,0,0-6,2.46,8.11,8.11,0,0,0-1.5,6"/><path class="cls-8" d="M254.57,194.23l-24.46.59a4.64,4.64,0,0,0-4.56,4.41l-1.23,23.37a4.64,4.64,0,0,0,4.38,4.88l28.3.89a3.42,3.42,0,0,0,3.23-3.66L258,197.39a3.4,3.4,0,0,0-3.46-3.16"/><path class="cls-4" d="M226.65,137.85c11.65-6,16.08,42.62,16.08,42.62s4,7.48,2.46,10.41c-.69,1.3-3.78,2.63-5.65-1.58a6.33,6.33,0,0,1,1-7s-23.61-39.42-13.9-44.41"/><path class="cls-12" d="M243.59,175.29s-13.31-89.06-52.17-85.87l5.5,195,20.59-12.62-3.28-141.15,21.25,48.15Z"/><path class="cls-12" d="M161.3,78.33c2.19-1.9-9.39-9.44-11.81-7.84-60.64,40,5.59,49.72,5.59,49.72L143.72,279.59l33.33,8.76V90c-6.41-.52-9.31-.49-13.59.71-27,7.54-22,4.89-2.16-12.33"/><path class="cls-6" d="M200.59,250.86l13.09.42-.43,13.09L200.17,264Zm.48-14.71,13.09.42-.43,13.09-13.09-.42Zm.47-14.72,13.09.43L214.21,235l-13.09-.43Zm.48-14.71,13.09.43-.42,13.09-13.09-.43ZM202.5,192l13.09.43-.43,13.08-13.09-.42Zm10.7,74-.27,8.59,1.65-1,.25-7.51,2.54.08,0-1.63-2.46-.08.42-13.09,1.73.06,0-1.62-1.63-.06.42-13.09.91,0,0-1.62-.82,0,.42-13.09h.1l0-1.62h0v0l-.68-29.45-13.08-.42.42-12.95,12.35.4,0-1.63L203,175.82l.43-13.1,11.53.38,0-1.63-11.44-.37.42-13.09,10.72.35,0-1.62L204,146.39l.42-13.09,9.9.32,0-1.62-9.81-.32.43-13.09L218,119l-.43,13.09-2.69-.08.72,1.64,1.92.07-.13,4,1.51,3.43.24-7.36,13.09.42-.42,13.09L221.44,147l.73,1.64,9.55.31L231.3,162l-3.27-.1.73,1.64,2.49.09-.17,5.17,1.51,3.43.28-8.55,8.59.28c-.12-.53-.24-1.08-.36-1.64l-8.18-.26.43-13.09,4.49.14c-.15-.54-.3-1.09-.46-1.64l-4-.13.37-11.46c-.48-1.38-1-2.78-1.49-4.17l0,.87-13.09-.42.43-13.09,7.48.24c-.26-.55-.53-1.1-.8-1.65l-6.63-.22.35-10.63c-.51-.75-1-1.49-1.56-2.2L218,117.39,204.93,117l.42-13.09,12.84.41c-.42-.56-.85-1.12-1.29-1.66l-11.49-.37.3-9.56q-.78-.45-1.59-.84l-.34,10.34-12-.39,0,1.63,11.92.39-.42,13.09-11.13-.37,0,1.63,11,.36-.42,13.09-10.23-.33.05,1.62,10.13.33-.43,13.09L193,146l0,1.62,9.24.3-.42,13.09-8.45-.27,0,1.62,8.34.27-.42,13.09-7.55-.24,0,1.62,7.46.24-.42,13-6.67-.22.05,1.63,6.57.21-.43,13.09-5.77-.19,0,1.63,5.68.18L200,219.76l-4.89-.16,0,1.63,4.78.15-.42,13.09-4-.13,0,1.63,3.9.12L199,249.18l-3.1-.1.05,1.63,3,.1-.42,13.08-2.21-.07,0,1.63,2.1.07-.42,13.09-1.31-.05,0,1.63,1.22,0-.12,3.56,1.66-1,.08-2.49,3.78.12,2.52-1.54-6.25-.2.42-13.09Z"/><path class="cls-6" d="M239.61,177l-5-.16.72,1.65.74,0Z"/><path class="cls-6" d="M161.3,78.33c.6-.52.16-1.47-.84-2.54l-.11,3.36,1-.82"/><path class="cls-6" d="M155.56,277.23l.42-13.09,13.09.42-.42,13.09Zm.9-27.8,13.09.42-.43,13.09L156,262.52Zm.47-14.71,13.09.42-.42,13.09-13.09-.42Zm.48-14.72,13.09.43-.42,13.09L157,233.09Zm.48-14.71,13.09.43-.43,13.09-13.09-.43Zm.47-14.71,13.09.43L171,204.09l-13.09-.42Zm.47-14.57,13.09.42-.42,12.95L158.42,189Zm.48-14.71,13.09.42L172,174.81l-13.09-.42Zm-13.23-46.24L146.5,102l13.09.43-.42,13.09Zm13.71,31.52,13.09.43-.43,13.09-13.09-.43Zm.47-14.71,13.09.43-.42,13.09L159.84,145Zm.48-14.71,13.09.42-.42,13.09-13.09-.42Zm.48-14.71,13.09.42L173.88,116l-13.08-.42Zm8.76,184,.23-7.16,6.84.22v-1.62l-6.78-.22.42-13.09,6.36.2V263.2l-6.31-.21.43-13.09,5.88.19v-1.62l-5.83-.19.42-13.09,5.41.18v-1.63l-5.35-.17.42-13.09,4.93.16V219l-4.88-.16.43-13.09,4.45.14v-1.62l-4.4-.14.42-13.09,4,.13v-1.63l-3.92-.12.42-13,3.5.12V175l-3.45-.11.42-13.09,3,.1v-1.62l-3-.1.42-13.09,2.55.08v-1.62l-2.5-.08.43-13.09,2.07.06v-1.62l-2-.06.42-13.09,1.6,0v-1.63l-1.55,0,.43-13.08,1.12,0v-1.62l-1.07,0,.37-11.4-1.62-.12-.37,11.47-13.09-.42.31-9.65-1.64.45-.29,9.14-13.09-.42.18-5.73a3.4,3.4,0,0,1-1.62-.16l-.18,5.84-13.09-.43-.06,1.62,13.09.43L144.46,115l-7.71-.25c1.4.65,2.82,1.24,4.23,1.76l3.43.11,0,1,1.61.48.05-1.47,13.09.43-.42,13.09-4.32-.14-.12,1.62,4.38.14-.42,13.09-4.89-.16-.11,1.62,4.95.16-.43,13.09-5.45-.18-.12,1.62,5.52.18-.42,13.09-6-.19-.12,1.62,6.09.19-.42,13-6.59-.22-.12,1.62,6.66.22-.42,13.09-7.17-.23L149,205l7.22.23-.42,13.09-7.74-.25L148,219.7l7.8.25L155.36,233l-8.3-.27-.12,1.62,8.37.27-.42,13.09-8.88-.28-.12,1.62,8.94.29-.42,13.08-9.45-.3-.11,1.62,9.51.31-.43,13.09-10-.33-.11,1.62,10.08.33-.11,3.43,1.61.42.12-3.8,13.09.43-.22,6.79Z"/><path class="cls-6" d="M145.36,87.21,145.17,93a14.21,14.21,0,0,1,1.69-2l.12-3.76,3.82.12,1.8-1.56L147,85.64l.43-13.09,9.27.3a25.29,25.29,0,0,0-3.21-1.73L148.78,71c-1,.68-2,1.35-3,2l-.41,12.6-13.09-.43,0-1.09c-.6.62-1.16,1.22-1.68,1.81l-.46,13.94-6.3-.2a12.37,12.37,0,0,0,.09,1.62l6.16.2-.3,9.17c.51.41,1,.8,1.59,1.18l.33-10.29.48-14.72Z"/><path class="cls-13" d="M229.66,93.13c-.88-14.26-14.9-16.32-18.25-26.28-.36-1.08-.75-2.12-1.15-3.12-4.3-17.79-19-26-28.72-23.86-10.13,2.27-11.83,9.55-13,15.5l6.15,1.23,15.48,12.78s-.87,18.31,0,24.33c4,27.35,40.59,17,39.51-.58"/><path class="cls-4" d="M175.1,48.33c-9,.44-13.24,30.82-2.16,33.52s16.22-8.65,16.22-8.65c3.75,1.12,8.41-9.68,1.35-7.9,0,0,0-17.71-15.41-17"/><path class="cls-14" d="M108.28,296.74s-1.81,2.87-2.8,2.82c-1.72-.08-3.34-4.07-3.54-5.9-.35-3.21,5.18-10.35,5.18-10.35Z"/><path class="cls-4" d="M161.43,204.5c.4,3.25.58,5.35.58,5.35s3.74,7.05,2.27,9.81c-.66,1.22-3.57,2.46-5.31-1.51s-.17-6.35-.17-6.35a55,55,0,0,0-2.67-6.12c-.37-2.08,2.52-3.34,5.3-1.18"/><g class="cls-15"><path class="cls-16" d="M102.4,188.29c.84,8.94-5,32.69-8.56,34.89-3.87,2.38-31.45-11.07-30.92-15s5.18-20.36,9-24.94c2.12-2.53,30.13,1.38,30.47,5"/></g><path class="cls-17" d="M70.82,199.3c4.7,2.37,18.55,7.88,22.52,6.23s9.06-17.24,9.06-17.24c-.34-3.66-28.35-7.57-30.47-5-3.09,8.33-5.82,13.67-1.11,16.05"/><path class="cls-4" d="M79.48,202.41s-5.18-1-5.64,2.82c-.31,2.49-.45,4-.45,4s-3.83,5.55-2.15,8.75c.75,1.42,4.43,2.86,5.59.88,1.74-3,0-7.25,0-7.25a38.61,38.61,0,0,1,2.62-9.21"/><path class="cls-14" d="M152.66,271.14,124.19,271l22.26-73.7Z"/><path class="cls-14" d="M123.91,339.16s2.25,12.32,2.57,17.55c.16,2.82-9.5,3.53-11.1-2.07s.06-15.51.06-15.51Z"/><path class="cls-18" d="M144.3,196.71c3,14.64-10.29,63.07-21.8,80.79L99.09,192Z"/><path class="cls-16" d="M99.09,192c-3.9,13.07-2.52,52.34,5.88,70.85a285.48,285.48,0,0,0,10.47,76.27l8.47,0-2.62-114.73,21.64-6.22,3.52-20.88Z"/><path class="cls-8" d="M140.8,90.88c-.79-4-5.25-17.09-20.1-16.36-22.42,1.1-21.84,31.7-2.31,38l14.35-20.23Z"/><path class="cls-9" d="M130.61,112l1.44,12.31-7.29,18.3-8.42-18.56,2.08-20.58Z"/><path class="cls-4" d="M137.5,86.06c7.93,3.12,2.52,31.54-8.2,30.61S117.42,104,117.42,104c-3.69-.14-4.59-11.2,1.18-7.47,0,0,5.37-15.83,18.9-10.51"/><g class="cls-19"><path class="cls-8" d="M106.68,87.65c-9.73-3.3-7.74-13-.45-17.57,9.62-6.08,16.16,4.19,15.16,7.59Z"/></g><path class="cls-1" d="M116.3,123.55c2,2.93,11.81,5.63,15.67.06l15.53,80.07-48.41-.3Z"/><path class="cls-20" d="M116.3,123.55S99.44,129,95.76,133.29c-1.42,1.67-22.4,56.63-23.82,73.93-.11,1.35,6.08,3.81,6.43,2.86.47-1.28,9.95-23.61,15.56-38.25C89.19,197.59,79.79,248.62,77,267.74c-.46,3.12,38.33,12.69,39.32,9.76,13.42-39.87,0-153.95,0-153.95"/><g class="cls-21"><path class="cls-22" d="M124.86,100.8V320.56"/></g><path class="cls-20" d="M163,207.75c-.13-3.22-11.4-76.56-13.26-77.71-4-2.51-17.8-6.43-17.8-6.43.95,2.89,9.18,112.27,11.39,148.5.06,1,9.29-.32,9.3-1,.05-13.62,1.73-65.25.4-88.67l-5,5.19s8.5,21.83,8.82,22.27,6.13-1.57,6.11-2.18"/><g class="cls-21"><path class="cls-22" d="M85.34,100.8V320.56"/></g><g class="cls-21"><path class="cls-22" d="M105.1,100.8V320.56"/></g><g class="cls-21"><path class="cls-22" d="M144.62,100.8V320.56"/></g><g class="cls-23"><path class="cls-24" d="M185,175.82c-38.08,0-76.63,0-114.55,0"/></g><g class="cls-25"><path class="cls-24" d="M185,215.31c-38.08-.26-76.63-.27-114.55-.17"/></g><g class="cls-26"><path class="cls-24" d="M185,254.88c-38.08.23-76.63.24-114.55.15"/></g><g class="cls-26"><path class="cls-24" d="M185,254.88c-38.08.23-76.63.24-114.55.15"/></g><g class="cls-27"><path class="cls-28" d="M185.06,136.33c-38.15.32-76.71.33-114.74.2"/></g><g class="cls-29"><path class="cls-28" d="M185.06,175.82c-38.15,0-76.71,0-114.74,0"/></g><path class="cls-16" d="M102.4,188.29c-.15-1.6-5.61-3.25-11.88-4.39-.56-.1-9.51,30.14-11,35.44,6.44,2.88,12.68,4.87,14.36,3.84,3.57-2.2,9.4-26,8.56-34.89"/><path class="cls-18" d="M102.4,188.29a6.5,6.5,0,0,0-3.83,1.47c-2.11,1.56-8.56,31.12-6.79,33.65a3.53,3.53,0,0,0,2.06-.23c3.57-2.2,9.4-26,8.56-34.89"/><path class="cls-17" d="M89.74,183.76,82.44,204c4.52,1.45,8.93,2.4,10.9,1.58,4-1.65,9.06-17.24,9.06-17.24-.15-1.67-6.07-3.39-12.66-4.53"/><g class="cls-30"><path class="cls-13" d="M231.5,330.24h8.9v-11.9h-8.9Z"/><path class="cls-13" d="M257.24,327.87h9V316h-9Z"/><path class="cls-31" d="M273.07,319.52H255.2l-5.54-99.63,12.78-60.25c9.57,1.32,17.26,3.15,17.26,3.15S274.19,314.2,273.07,319.52Z"/><path class="cls-32" d="M226.15,165.55c2.86-8.67,21.68-7.9,36.21-5.91-1.73,14.32-17.57,148.45-18.69,163.45l-14.48-1.59S215.79,197,226.15,165.55Z"/><path class="cls-8" d="M263.5,322.94h2.65s9.32,3.52,12.32,5.63c2,1.4,3.29,3.8-.2,4.32-8.72,1.31-21.88-2-21.88-3.14V322.9s.87,0,.9,0S262,322.9,263.5,322.94Z"/><path class="cls-8" d="M231,325.32h10s14.69,12.82,6,14.13-16-8-16-8Z"/><path class="cls-13" d="M260.92,71.74V118H247V62.08Z"/><path class="cls-1" d="M247.72,82.67a9.54,9.54,0,0,0,.38,2c1.92,7.34,12.7,6,12.82-1.84v-.13c8.33,2.41,4.21,14.52,12.47,16.73,0,0,11.36,82,2.75,87.52-4.22,2.7-23.29,3.65-40.71.35C229.59,186.17,225.48,83.48,247.72,82.67Z"/><path class="cls-33" d="M260.92,79.84s21.61,11.68,22.29,18.36c2,19.65,4.7,64,5.05,96-3.76,2.44-18.82,1.8-18.82,1.8L260.92,82.8Z"/><path class="cls-34" d="M247,78.57c-2.4,4-17.56,122.24-17.56,122.24a35.58,35.58,0,0,1-12-8.43c4.31-49.81,9.2-106.17,9.2-106.17Z"/><path class="cls-33" d="M229.44,200.81,237,92.31l5.67-3.1-8.54-5.5L247,78.57C260.92,153.67,229.44,200.81,229.44,200.81Z"/><path class="cls-13" d="M227.06,195.11c-1.05-1.91-2.66-4.81-4.66-8.39l5.85-6.95c1.79,4.3,3.33,8.3,4.51,11.81,4.84,4.15,7.68,8.64,7.77,9.7C241.78,210.84,226.63,213,227.06,195.11Z"/><path class="cls-33" d="M226.64,86.21c-15.6,0-20,47.54-17.88,64C210,159.63,224.82,199,224.54,198c0,0,10.42-6.48,9.51-9.75-.61-5.34-8.68-35.81-9.05-42.18C223.59,121.73,229.18,90.06,226.64,86.21Z"/><path class="cls-35" d="M266.48,42.7c9.45,2.21,8,35.15-4.2,35.86S247,66.92,247,66.92c-4.18.46-7.21-12.5-.09-9.25C246.9,57.67,250.34,38.94,266.48,42.7Z"/><path class="cls-36" d="M242.63,41.18c4.18-12.58,17.68-3.44,23.83-10.5,7.43,8.53,6.41,13,6,22.14-.61-3.18-2.72-5.59-3.83-5-3.26,8.27-18.27,1.38-19.54,3.63l-1.49,7.26a3.08,3.08,0,0,0-3.49.48C242.37,61,243.39,66,247,66.92v5a11,11,0,0,1-6.71-13.71C234.62,54.68,234.3,43,242.63,41.18Z"/><path class="cls-32" d="M230.35,207.81s8.14-9.36,7.2-13.65c-.6-2.74,8.75,6.82,8.75,6.82l-5.08,14.15Z"/></g></g></g></svg>