<svg xmlns="http://www.w3.org/2000/svg" viewBox="0 0 400 400"><defs><style>.cls-1{fill:#a51220;}.cls-2{fill:#7c1120;}.cls-3{fill:#e9e9e9;}.cls-4{fill:#fff;opacity:0.5;}</style></defs><g id="Layer_2" data-name="Layer 2"><g id="Layer_1-2" data-name="Layer 1"><rect class="cls-1" width="400" height="400"/><path class="cls-2" d="M400,173V400H213.58L66.12,273.07s-.05,0-.05,0l6.8-.83,23.25-2.78,6.92-.83,26.27-3.13,8.37-1,98.44-11.8,1.81-.21,1.27-1.39,59.25-65,3.79-4.2,9.67-10.59,6.36-16,2.39-6,10.15-25.53,4-10.06Z"/><path class="cls-3" d="M110.16,211.33c8.81-8,17.93-15.49,27.46-22.67a26.36,26.36,0,0,1-.86-13.83,30.88,30.88,0,0,1,9.2,7.67c3.17-2.25,6.41-4.49,9.66-6.73a26.11,26.11,0,0,1-1.49-15.57,32.34,32.34,0,0,1,10.45,9.58c3.82-2.51,7.69-4.91,11.54-7.24a30.63,30.63,0,0,1-2.6-15.45,29.4,29.4,0,0,1,12.14,9.77c3.91-2.23,7.82-4.46,11.78-6.59a35,35,0,0,1-3-13.71,25.69,25.69,0,0,1,12.61,8.64q5.32-2.73,10.59-5.23a30.73,30.73,0,0,1-2-11.37,27,27,0,0,1,11.18,7.1c10.64-4.8,21.42-9.15,32.46-12.93-9.16-11.33-19-22.08-28.81-33-22.7,3.57-48.07,11.6-74.72,27.4s-46,34.32-60.18,52.73C100.24,183.87,104.77,197.66,110.16,211.33Z"/><path class="cls-3" d="M332.88,106.42c-10,2.89-19.94,6-29.71,9.4a121.23,121.23,0,0,1,20.24,42.93c10.45-26,11.39-45.07,11.39-45.07A13.36,13.36,0,0,0,332.88,106.42Z"/><path class="cls-3" d="M299.58,111.12c10.78-2.43,21.74-4.31,32.73-5.69a13,13,0,0,0-5.15-4.77s-20.46-10-52.85-12.6A113.77,113.77,0,0,1,299.58,111.12Z"/><path class="cls-3" d="M304.92,193.79a200.93,200.93,0,0,0,17-31.33,341.43,341.43,0,0,0-20.21-35.75c-1.91-2.84-3.85-5.6-5.88-8.3-7.05,2.49-14.07,5.15-21,7.92C289.87,146.29,300.63,169.89,304.92,193.79Z"/><path class="cls-3" d="M234.21,89.24a146.14,146.14,0,0,1,35,30.2c7.44-2.39,14.89-4.52,22.44-6.38-7.08-8.78-14.72-17-22.54-25.27A187.9,187.9,0,0,0,234.21,89.24Z"/><path class="cls-3" d="M273.56,141.94c-2.7-4-5.57-7.89-8.49-11.66-10.92,4.57-21.64,9.35-32.21,14.5a26.69,26.69,0,0,1,2,16.64c-4.59-2.45-8.8-6.65-12.23-11.63-3.36,1.7-6.73,3.49-10.11,5.27a26.06,26.06,0,0,1,1.15,14.32,35.32,35.32,0,0,1-10.53-9.26c-4.08,2.26-8.09,4.55-12.1,6.84a28,28,0,0,1,1.6,12.93,27.45,27.45,0,0,1-10.47-7.58c-4,2.44-8,4.91-12,7.45a32.84,32.84,0,0,1,2.95,13.45,24.89,24.89,0,0,1-11.68-7.73c-3.2,2.08-6.42,4.24-9.57,6.42a36.44,36.44,0,0,1,3.88,15.95,26,26,0,0,1-13.14-9.45c-9.82,7-19.44,14.26-28.82,21.82,1.77,4.05,3.53,8.1,5.47,12.11,9,18.8,20.73,36,32.61,53.1C177.28,283,206.63,275,237.6,256.66c30.4-18.06,51.34-39.61,65.77-60.44C294.34,177.42,285.29,159,273.56,141.94Z"/><path class="cls-3" d="M82.68,246.77q-11.19,10.34-22,21.1A14.21,14.21,0,0,0,66.08,273s16.62,8.19,43.64,11.6A120.55,120.55,0,0,1,82.68,246.77Z"/><path class="cls-3" d="M80.41,241.5a116.3,116.3,0,0,1-8-32.71c-12.93,29.07-14,51.31-14,51.31A13.85,13.85,0,0,0,60.11,267C66.49,258.13,73.21,249.63,80.41,241.5Z"/><path class="cls-3" d="M75,203.36c3.32,10.8,6.63,21.59,10.87,32,5.34-5.78,10.81-11.44,16.55-16.86A147.64,147.64,0,0,1,93,173.31,199.54,199.54,0,0,0,75,203.36Z"/><path class="cls-3" d="M113.58,285.15a192.08,192.08,0,0,0,35.61.41c-18.43-15.26-33.59-36-43.49-58.79-5.83,4.81-11.53,9.74-17.16,14.77,1.13,2.64,2.37,5.22,3.7,7.73A362.09,362.09,0,0,0,113.58,285.15Z"/><path class="cls-4" d="M61.28,266.76s69.22,43,176.32-14.87c36.13-18.54,89.74-79.21,95.8-145.06.51-5.51-33.4,86.38-105,128.9C162.74,274.69,61.28,266.76,61.28,266.76Z"/></g></g></svg>