<svg xmlns="http://www.w3.org/2000/svg" width="400" height="400" viewBox="0 0 400 400" fill="none">
<g clip-path="url(#clip0)">
<rect width="400" height="400" fill="#22ACE8"/>
<mask id="mask0" mask-type="alpha" maskUnits="userSpaceOnUse" x="0" y="0" width="400" height="400">
<rect width="400" height="400" fill="#C1E4FF"/>
</mask>
<g mask="url(#mask0)">
<rect x="-104" y="-124" width="540" height="540" fill="#EC1A2E"/>
</g>
<path d="M180 399L61.5 261L320.5 146.5L400 287V399H180Z" fill="#A51220"/>
<path d="M282.2 79.2L199.6 63L61 261.4L183.2 346.7L321.7 148.3L282.2 79.2Z" fill="url(#paint0_linear)"/>
<circle cx="266.5" cy="100.5" r="7.5" fill="#3496E0"/>
<path d="M262.395 107.064L344.503 -13" stroke="#222222" stroke-width="2"/>
<path d="M147.277 206.613C161.973 217.072 178.029 208.989 186.314 197.349C194.495 185.853 196.977 167.89 182.28 157.431C167.438 146.867 151.279 155.096 143.097 166.591C134.813 178.232 132.435 196.05 147.277 206.613ZM91.2096 249.353L102.705 257.535L250.426 209.219L238.93 201.037L91.2096 249.353ZM153.594 197.737C145.3 191.834 147.296 181.636 152.992 173.633C158.791 165.485 167.669 160.404 175.963 166.307C184.111 172.106 182.218 182.158 176.419 190.306C170.723 198.31 161.742 203.536 153.594 197.737ZM159.792 301.452C174.488 311.912 190.648 303.683 198.829 292.188C207.114 280.547 209.492 262.729 194.795 252.27C179.953 241.707 163.897 249.79 155.613 261.43C147.431 272.926 144.95 290.889 159.792 301.452ZM166.109 292.576C157.815 286.673 159.811 276.476 165.507 268.473C171.307 260.324 180.184 255.243 188.478 261.146C196.627 266.945 194.734 276.997 188.934 285.146C183.239 293.149 174.258 298.375 166.109 292.576Z" fill="url(#paint1_linear)"/>
</g>
<defs>
<linearGradient id="paint0_linear" x1="191.35" y1="63" x2="191.35" y2="346.7" gradientUnits="userSpaceOnUse">
<stop stop-color="white"/>
<stop offset="1" stop-color="#E6E6E6"/>
</linearGradient>
<linearGradient id="paint1_linear" x1="208.763" y1="176.279" x2="133.164" y2="282.501" gradientUnits="userSpaceOnUse">
<stop stop-color="#222222"/>
<stop offset="1" stop-color="#3F3D3D"/>
</linearGradient>
<clipPath id="clip0">
<rect width="400" height="400" fill="white"/>
</clipPath>
</defs>
</svg>
