<svg width="400" height="400" viewBox="0 0 400 400" fill="none" xmlns="http://www.w3.org/2000/svg">
<mask id="mask0" mask-type="alpha" maskUnits="userSpaceOnUse" x="0" y="0" width="400" height="400">
<rect width="400" height="400" fill="#C1E4FF"/>
</mask>
<g mask="url(#mask0)">
<rect x="-104" y="-124" width="540" height="540" fill="#C1E4FF"/>
<path d="M316 496L78 292L306 132L486 324L316 496Z" fill="#7DABCE"/>
<rect x="251.738" y="84" width="192.164" height="112.82" rx="6" transform="rotate(90 251.738 84)" stroke="#163852" stroke-width="8"/>
<rect x="70" y="130.492" width="250.656" height="169.508" rx="10" fill="url(#paint0_linear)"/>
<rect opacity="0.7" x="93.4424" y="130.492" width="14.4262" height="169.508" fill="#163852"/>
<rect opacity="0.7" x="284.59" y="130.492" width="14.4262" height="169.508" fill="#163852"/>
<path d="M202.506 292.787C138.698 292.787 91.6392 300 91.6392 300H202.506H299.016C299.016 300 266.314 292.787 202.506 292.787Z" fill="white" fill-opacity="0.7"/>
<path opacity="0.7" d="M202.506 139.508C138.698 139.508 91.6392 130.492 91.6392 130.492H202.506H299.016C299.016 130.492 266.314 139.508 202.506 139.508Z" fill="white"/>
<line x1="254.435" y1="130.492" x2="254.435" y2="152.131" stroke="#163852"/>
<rect x="235.901" y="152.131" width="34.2623" height="21.6393" rx="2" fill="#F6F6F6"/>
</g>
<defs>
<linearGradient id="paint0_linear" x1="195.328" y1="130.492" x2="195.328" y2="300" gradientUnits="userSpaceOnUse">
<stop stop-color="#2C6693"/>
<stop offset="1" stop-color="#0F2637"/>
</linearGradient>
</defs>
</svg>
