<svg xmlns="http://www.w3.org/2000/svg" xmlns:xlink="http://www.w3.org/1999/xlink" viewBox="0 0 400 400"><defs><style>.cls-1{fill:#1a1a1a;}.cls-2{fill:#333;}.cls-3{fill:#58595c;}.cls-4{fill:#415170;}.cls-5{fill:#545665;}.cls-6{fill:#444554;}.cls-7{fill:#888ebd;}.cls-8{fill:#6f798c;}.cls-9{fill:#999a9d;}.cls-10{fill:#809fce;}.cls-11{fill:#93a9db;}.cls-12{fill:#5373ad;}.cls-13,.cls-14{opacity:0.2;}.cls-15,.cls-22,.cls-27{opacity:0.3;}.cls-16{fill:#5822cc;}.cls-17{fill:#9cb7ee;}.cls-18{fill:#fff;}.cls-19{fill:#9d9d9d;}.cls-20{fill:#4f4f51;}.cls-21,.cls-22{fill:#2f2f30;}.cls-23{fill:#a9abad;}.cls-24{fill:#757685;}.cls-25{opacity:0.4;}.cls-26{opacity:0.1;}.cls-28{fill:#84b3de;}.cls-29{fill:#43619d;}.cls-30{fill:#b3b3b3;}.cls-31{fill:gray;}.cls-32{fill:none;}.cls-33{fill:url(#radial-gradient);}</style><radialGradient id="radial-gradient" cx="86.02" cy="89.1" r="41.36" gradientTransform="translate(0)" gradientUnits="userSpaceOnUse"><stop offset="0" stop-color="#e6e6e6"/><stop offset="1" stop-color="#ccc"/></radialGradient></defs><g id="Layer_2" data-name="Layer 2"><g id="Layer_1-2" data-name="Layer 1"><rect class="cls-1" width="400" height="400"/><polygon class="cls-2" points="400 181.25 400 400 111.55 400 51.99 352.98 303.24 314.92 328.54 117.25 400 181.25"/><polygon class="cls-3" points="317.05 41.72 314.44 38.16 319.36 38.16 317.05 41.72"/><polygon class="cls-3" points="317.57 48.24 316.23 48.24 316.23 34.8 316.9 29.78 317.57 34.8 317.57 48.24"/><rect class="cls-4" x="53.81" y="259.61" width="256.41" height="93.84"/><rect class="cls-5" x="107.66" y="259.61" width="202.56" height="21.73"/><rect class="cls-6" x="107.66" y="259.61" width="202.56" height="5.61"/><rect class="cls-7" x="53.81" y="248.28" width="53.85" height="105.18"/><rect class="cls-8" x="345.63" y="282.54" width="2.07" height="14.97" rx="0.06"/><rect class="cls-8" x="287.4" y="283.14" width="2.07" height="14.97" rx="0.06"/><rect class="cls-9" x="293.22" y="112.65" width="2.07" height="12.45" rx="0.06"/><rect class="cls-9" x="338.6" y="112.65" width="2.07" height="12.45" rx="0.06"/><rect class="cls-8" x="342.88" y="131.82" width="2.07" height="14.97" rx="0.06"/><rect class="cls-8" x="288.8" y="131.82" width="2.07" height="14.97" rx="0.06"/><rect class="cls-10" x="288.8" y="137.87" width="56.15" height="52.99"/><rect class="cls-11" x="288.8" y="137.87" width="9.53" height="52.99"/><rect class="cls-11" x="335.42" y="137.87" width="9.53" height="52.99"/><rect class="cls-4" x="298.34" y="140.07" width="37.08" height="35.29"/><rect class="cls-10" x="292.65" y="190.86" width="49.6" height="162.6"/><rect class="cls-10" x="287.4" y="288.39" width="60.31" height="65.06"/><rect class="cls-12" x="300.77" y="190.86" width="33.84" height="144.03"/><rect class="cls-13" x="288.75" y="178.02" width="56.15" height="12.83"/><g class="cls-14"><rect x="300.77" y="195.57" width="3.99" height="139.32" rx="0.12"/><rect x="308.23" y="195.57" width="3.99" height="139.32" rx="0.12"/><rect x="315.69" y="195.57" width="3.99" height="139.32" rx="0.12"/><rect x="323.15" y="195.57" width="3.99" height="139.32" rx="0.12"/><rect x="330.61" y="195.57" width="3.99" height="139.32" rx="0.12"/></g><g class="cls-14"><ellipse cx="302.95" cy="198.22" rx="2.19" ry="2.66"/><path d="M312.41,198.22a2.23,2.23,0,1,1-2.19-2.65A2.46,2.46,0,0,1,312.41,198.22Z"/><ellipse cx="317.5" cy="198.22" rx="2.19" ry="2.66"/><path d="M327.33,198.22a2.23,2.23,0,1,1-2.18-2.65A2.45,2.45,0,0,1,327.33,198.22Z"/><path d="M334.8,198.22a2.23,2.23,0,1,1-2.19-2.65A2.46,2.46,0,0,1,334.8,198.22Z"/></g><g class="cls-15"><rect x="298.39" y="179.78" width="4.36" height="9.36" rx="0.14"/><rect x="306.54" y="179.76" width="4.36" height="9.36" rx="0.14"/><rect x="314.7" y="179.74" width="4.36" height="9.36" rx="0.14"/><rect x="322.85" y="179.71" width="4.36" height="9.36" rx="0.14"/><rect x="331" y="179.69" width="4.36" height="9.36" rx="0.14"/></g><path class="cls-11" d="M345.07,193.42H289.23a1.29,1.29,0,0,1-1.29-1.28h0a1.28,1.28,0,0,1,1.29-1.28h55.84a1.28,1.28,0,0,1,1.29,1.28h0A1.29,1.29,0,0,1,345.07,193.42Z"/><path class="cls-11" d="M343,226.41H291.88a.86.86,0,0,1-.86-.85h0a.86.86,0,0,1,.86-.86H343a.86.86,0,0,1,.87.86h0A.86.86,0,0,1,343,226.41Z"/><path class="cls-11" d="M343,232.15H291.88a.87.87,0,0,1-.86-.86h0a.86.86,0,0,1,.86-.86H343a.86.86,0,0,1,.87.86h0A.87.87,0,0,1,343,232.15Z"/><path class="cls-11" d="M343.26,253.88H292.11a.85.85,0,0,1-.86-.86h0a.86.86,0,0,1,.86-.86h51.15a.87.87,0,0,1,.87.86h0A.86.86,0,0,1,343.26,253.88Z"/><path class="cls-11" d="M343.26,259.61H292.11a.85.85,0,0,1-.86-.86h0a.85.85,0,0,1,.86-.85h51.15a.86.86,0,0,1,.87.85h0A.86.86,0,0,1,343.26,259.61Z"/><path class="cls-11" d="M347.6,311.77H287.32a.86.86,0,0,1-.87-.86h0a.87.87,0,0,1,.87-.86H347.6a.86.86,0,0,1,.86.86h0A.85.85,0,0,1,347.6,311.77Z"/><path class="cls-11" d="M347.6,319.94H287.32a.86.86,0,0,1-.87-.86h0a.87.87,0,0,1,.87-.86H347.6a.86.86,0,0,1,.86.86h0A.85.85,0,0,1,347.6,319.94Z"/><path class="cls-11" d="M343,281.35H291.88a.86.86,0,0,1-.86-.86h0a.85.85,0,0,1,.86-.86H343a.86.86,0,0,1,.87.86h0A.87.87,0,0,1,343,281.35Z"/><path class="cls-11" d="M347.6,290H287.32a.86.86,0,0,1-.87-.85h0a.86.86,0,0,1,.87-.86H347.6a.85.85,0,0,1,.86.86h0A.85.85,0,0,1,347.6,290Z"/><path class="cls-8" d="M344.8,178H289a1.28,1.28,0,0,1-1.29-1.28h0a1.28,1.28,0,0,1,1.29-1.28H344.8a1.29,1.29,0,0,1,1.29,1.28h0A1.28,1.28,0,0,1,344.8,178Z"/><path class="cls-8" d="M344.8,140.43H289a1.28,1.28,0,0,1-1.29-1.28h0a1.28,1.28,0,0,1,1.29-1.28H344.8a1.28,1.28,0,0,1,1.29,1.28h0A1.29,1.29,0,0,1,344.8,140.43Z"/><rect class="cls-13" x="300.77" y="195.57" width="3.99" height="139.32" rx="0.12"/><rect class="cls-13" x="290.75" y="141.71" width="2.87" height="32.48" rx="0.09"/><rect class="cls-13" x="337.93" y="141.71" width="2.86" height="32.48" rx="0.09"/><rect class="cls-16" x="299.8" y="141.71" width="34.12" height="32.48"/><path class="cls-17" d="M300,158c0-8.74,7.64-15.82,17.06-15.82s17.06,7.08,17.06,15.82-7.63,15.81-17.06,15.81S300,166.68,300,158Z"/><path class="cls-18" d="M302,158c0-7.68,6.72-13.91,15-13.91s15,6.23,15,13.91-6.72,13.9-15,13.9S302,165.63,302,158Z"/><path class="cls-19" d="M303.29,158.42c0-7.69,6.72-13.91,15-13.91a16,16,0,0,1,5.11,1A15.68,15.68,0,0,0,317,144c-8.28,0-15,6.22-15,13.91,0,6,4.15,11,9.9,13C306.86,168.67,303.29,164,303.29,158.42Z"/><path class="cls-13" d="M302,158.19c0-7.82,6.72-14.15,15-14.15s15,6.33,15,14.15-6.72,14.15-15,14.15S302,166,302,158.19Z"/><path class="cls-18" d="M306.72,158.3c0-5.69,5-10.29,11.1-10.29s11.11,4.6,11.11,10.29-5,10.3-11.11,10.3S306.72,164,306.72,158.3Z"/><path class="cls-20" d="M317.67,166.46a8.18,8.18,0,1,1,8.68-8.16A8.44,8.44,0,0,1,317.67,166.46Zm0-15.81a7.66,7.66,0,1,0,8.14,7.65A7.91,7.91,0,0,0,317.67,150.65Z"/><rect class="cls-20" x="317.21" y="144.4" width="0.62" height="6.25" rx="0.02"/><rect class="cls-20" x="317.21" y="165.95" width="0.62" height="6.25" rx="0.02"/><path class="cls-20" d="M325.66,158.3h0A.29.29,0,0,1,326,158H332a.29.29,0,0,1,.29.29h0a.29.29,0,0,1-.29.29H326A.29.29,0,0,1,325.66,158.3Z"/><path class="cls-20" d="M302.72,158.3h0A.29.29,0,0,1,303,158h6.07a.29.29,0,0,1,.29.29h0a.29.29,0,0,1-.29.29H303A.29.29,0,0,1,302.72,158.3Z"/><path class="cls-20" d="M323.27,163.71h0a.33.33,0,0,1,.44,0l4.27,4a.28.28,0,0,1,0,.41h0a.33.33,0,0,1-.44,0l-4.27-4A.28.28,0,0,1,323.27,163.71Z"/><path class="cls-20" d="M307.05,148.47h0a.33.33,0,0,1,.44,0l4.27,4a.28.28,0,0,1,0,.41h0a.31.31,0,0,1-.44,0l-4.27-4A.28.28,0,0,1,307.05,148.47Z"/><path class="cls-20" d="M311.76,163.71h0a.28.28,0,0,1,0,.41l-4.27,4a.33.33,0,0,1-.44,0h0a.28.28,0,0,1,0-.41l4.27-4A.33.33,0,0,1,311.76,163.71Z"/><path class="cls-20" d="M328,148.47h0a.28.28,0,0,1,0,.41l-4.27,4a.31.31,0,0,1-.44,0h0a.28.28,0,0,1,0-.41l4.27-4A.33.33,0,0,1,328,148.47Z"/><path class="cls-21" d="M318.86,158a1.35,1.35,0,1,1-1.34-1.25A1.3,1.3,0,0,1,318.86,158Z"/><path class="cls-21" d="M318.47,152.26a1,1,0,1,1-1-.88A.93.93,0,0,1,318.47,152.26Z"/><rect class="cls-21" x="317.08" y="145.93" width="0.88" height="12.08" rx="0.03"/><path class="cls-22" d="M300.81,153.31V147a6.19,6.19,0,0,0,3.1.84Z"/><path class="cls-22" d="M312.7,142.8l-6.07,2.9a5.07,5.07,0,0,0-.61-2.93Z"/><path class="cls-22" d="M302.59,144.65a1.07,1.07,0,0,1-1.42-.27.92.92,0,0,1,.29-1.32,1.08,1.08,0,0,1,1.42.27A.9.9,0,0,1,302.59,144.65Z"/><path class="cls-22" d="M332.92,153.28v-6.34a6.08,6.08,0,0,1-3.1.84Z"/><path class="cls-22" d="M321,142.76l6.08,2.91a5.1,5.1,0,0,1,.61-2.94Z"/><path class="cls-22" d="M331.14,144.62a1.07,1.07,0,0,0,1.42-.27.91.91,0,0,0-.3-1.32,1.07,1.07,0,0,0-1.42.27A.91.91,0,0,0,331.14,144.62Z"/><path class="cls-22" d="M332.92,162.76v6.33a6.19,6.19,0,0,0-3.1-.84Z"/><path class="cls-22" d="M321,173.27l6.07-2.9a5.07,5.07,0,0,0,.61,2.93Z"/><path class="cls-22" d="M331.14,171.42a1.07,1.07,0,0,1,1.42.27.91.91,0,0,1-.3,1.32,1.08,1.08,0,0,1-1.42-.27A.91.91,0,0,1,331.14,171.42Z"/><path class="cls-22" d="M300.81,162.79v6.34a6.15,6.15,0,0,1,3.1-.85Z"/><path class="cls-22" d="M312.7,173.31l-6.07-2.91a5.1,5.1,0,0,1-.61,2.94Z"/><path class="cls-22" d="M302.59,171.45a1.07,1.07,0,0,0-1.42.27.92.92,0,0,0,.29,1.32,1.07,1.07,0,0,0,1.42-.27A.9.9,0,0,0,302.59,171.45Z"/><path class="cls-17" d="M317,142.13c-9.42,0-17.06,7.08-17.06,15.82s7.64,15.81,17.06,15.81,17.06-7.08,17.06-15.81S326.46,142.13,317,142.13Zm0,29.72c-8.28,0-15-6.22-15-13.9S308.75,144,317,144s15,6.23,15,13.91S325.32,171.85,317,171.85Z"/><rect class="cls-11" x="287.4" y="337.91" width="60.31" height="15.55"/><rect class="cls-10" x="293.5" y="126.75" width="47.34" height="11.12"/><rect class="cls-11" x="293.5" y="126.75" width="8.04" height="11.12"/><rect class="cls-11" x="332.8" y="126.75" width="8.04" height="11.12"/><rect class="cls-13" x="293.45" y="126.75" width="47.34" height="11.12"/><g class="cls-15"><rect x="301.58" y="128.27" width="3.68" height="8.12" rx="0.11"/><rect x="308.46" y="128.25" width="3.68" height="8.12" rx="0.11"/><rect x="315.33" y="128.23" width="3.68" height="8.12" rx="0.11"/><rect x="322.21" y="128.21" width="3.68" height="8.12" rx="0.11"/><rect x="329.08" y="128.19" width="3.68" height="8.12" rx="0.11"/></g><rect class="cls-10" x="304.45" y="87.03" width="25.1" height="16.45"/><rect class="cls-11" x="304.45" y="87.03" width="4.26" height="16.45"/><rect class="cls-11" x="325.28" y="87.03" width="4.26" height="16.45"/><rect class="cls-13" x="304.42" y="87.03" width="25.1" height="16.45"/><g class="cls-15"><rect x="308.73" y="89.29" width="1.95" height="12" rx="0.06"/><rect x="312.38" y="89.26" width="1.95" height="12" rx="0.06"/><rect x="316.02" y="89.23" width="1.95" height="12" rx="0.06"/><rect x="319.66" y="89.2" width="1.95" height="12" rx="0.06"/><rect x="323.31" y="89.17" width="1.95" height="12" rx="0.06"/></g><path class="cls-23" d="M341.79,126.75H292.41a1.66,1.66,0,0,1-1.66-1.66h0a1.65,1.65,0,0,1,1.66-1.65h49.38a1.66,1.66,0,0,1,1.67,1.65h0A1.66,1.66,0,0,1,341.79,126.75Z"/><polygon class="cls-24" points="329.53 103.48 304.27 103.48 295.2 123.44 338.6 123.44 329.53 103.48"/><path class="cls-24" d="M317.68,47.86h-1.57c-.65,4.5-1.73,11.2-3.33,18.92a41.82,41.82,0,0,1-8.62,18.15h25.48A41.82,41.82,0,0,1,321,66.78C319.42,59.05,318.34,52.36,317.68,47.86Z"/><path class="cls-6" d="M310.62,110.69a2.21,2.21,0,1,0-4.34,0c0,.09.07.13.07.21l4.17.07C310.53,110.85,310.62,110.79,310.62,110.69Z"/><path class="cls-6" d="M319.34,110.71a2.2,2.2,0,1,0-4.33,0c0,.08.06.12.07.2l4.17.08C319.26,110.87,319.34,110.81,319.34,110.71Z"/><path class="cls-6" d="M328.07,110.73a2.2,2.2,0,1,0-4.33,0c0,.08.06.13.07.21L328,111C328,110.9,328.07,110.83,328.07,110.73Z"/><path class="cls-6" d="M305.82,118.57a2.21,2.21,0,1,0-4.34,0c0,.08.07.13.08.21l4.17.07C305.74,118.74,305.82,118.68,305.82,118.57Z"/><path class="cls-6" d="M314.55,118.6a2.21,2.21,0,1,0-4.34,0c0,.09.07.13.07.21l4.17.07C314.46,118.76,314.55,118.7,314.55,118.6Z"/><path class="cls-6" d="M323.28,118.62a2.21,2.21,0,1,0-4.34,0c0,.08.07.12.07.2l4.17.08C323.19,118.78,323.28,118.72,323.28,118.62Z"/><path class="cls-6" d="M332.9,118.64a2.2,2.2,0,1,0-4.33,0c0,.08.06.13.07.21l4.17.07C332.82,118.81,332.9,118.75,332.9,118.64Z"/><path class="cls-6" d="M315.79,76.19a1.54,1.54,0,0,0-1.33-1.7,1.57,1.57,0,0,0-1.34,1.7s0,.08.05.13l2.57.05C315.74,76.3,315.79,76.26,315.79,76.19Z"/><path class="cls-6" d="M321.17,76.19a1.37,1.37,0,1,0-2.67,0s0,.08,0,.13l2.57.05C321.12,76.3,321.17,76.26,321.17,76.19Z"/><path class="cls-6" d="M318.33,70.06a1.38,1.38,0,1,0-2.67,0s0,.08,0,.14l2.57,0C318.28,70.17,318.33,70.12,318.33,70.06Z"/><path class="cls-6" d="M312.86,81.82a1.38,1.38,0,1,0-2.67,0c0,.06,0,.09,0,.14l2.57,0C312.81,81.93,312.86,81.89,312.86,81.82Z"/><path class="cls-6" d="M318.24,81.83a1.38,1.38,0,1,0-2.68,0s.05.08.05.13l2.57.05C318.18,81.94,318.23,81.9,318.24,81.83Z"/><path class="cls-6" d="M323.61,81.84a1.37,1.37,0,1,0-2.67,0s0,.08.05.13l2.56,0C323.56,82,323.61,81.91,323.61,81.84Z"/><path class="cls-3" d="M329.74,105.69H304.66a1.06,1.06,0,0,1-1.06-1.06h0a1.06,1.06,0,0,1,1.06-1h25.08a1.06,1.06,0,0,1,1.06,1h0A1.06,1.06,0,0,1,329.74,105.69Z"/><path class="cls-3" d="M329.4,87H304.33a1.05,1.05,0,0,1-1.06-1h0a1.05,1.05,0,0,1,1.06-1H329.4a1.05,1.05,0,0,1,1.06,1h0A1.05,1.05,0,0,1,329.4,87Z"/><polygon class="cls-13" points="73.58 281.82 63.44 281.93 63.44 289.94 73.58 289.74 73.58 281.82"/><polygon class="cls-25" points="73.58 289.74 63.44 289.94 63.44 311.09 73.58 311.09 73.58 289.74"/><polygon class="cls-25" points="73.58 319.45 63.44 319.36 63.44 353.45 73.58 353.45 73.58 319.45"/><polygon class="cls-13" points="73.58 311.09 63.44 311.09 63.44 319.36 73.58 319.45 73.58 311.09"/><path class="cls-25" d="M73.58,255.93a5.08,5.08,0,0,0-10.15,0v26l10.15-.11Z"/><path class="cls-25" d="M95.69,256.2a5.08,5.08,0,0,0-10.14,0v25.48l10.14-.12Z"/><polygon class="cls-13" points="95.69 281.56 85.55 281.68 85.55 289.5 95.69 289.3 95.69 281.56"/><polygon class="cls-25" points="95.69 289.3 85.55 289.5 85.55 311.09 95.69 311.09 95.69 289.3"/><polygon class="cls-13" points="95.69 311.09 85.55 311.09 85.55 319.57 95.69 319.66 95.69 311.09"/><polygon class="cls-25" points="95.69 319.66 85.55 319.57 85.55 353.45 95.69 353.45 95.69 319.66"/><polygon class="cls-26" points="124.38 311.33 116.53 311.36 116.53 319.65 124.38 319.62 124.38 311.33"/><polygon class="cls-27" points="124.38 319.61 116.53 319.65 116.53 353.45 124.38 353.45 124.38 319.61"/><polygon class="cls-26" points="141.5 311.28 133.65 311.31 133.65 319.57 141.5 319.53 141.5 311.28"/><polygon class="cls-27" points="141.5 319.53 133.65 319.57 133.65 353.45 141.5 353.45 141.5 319.53"/><polygon class="cls-26" points="159.34 311.23 151.49 311.25 151.49 319.48 159.34 319.44 159.34 311.23"/><polygon class="cls-27" points="159.34 319.44 151.49 319.48 151.49 353.45 159.34 353.45 159.34 319.44"/><polygon class="cls-26" points="176.47 311.18 168.61 311.2 168.61 319.4 176.47 319.36 176.47 311.18"/><polygon class="cls-27" points="176.47 319.36 168.61 319.4 168.61 353.45 176.47 353.45 176.47 319.36"/><polygon class="cls-26" points="194.3 311.12 186.45 311.15 186.45 319.31 194.3 319.27 194.3 311.12"/><polygon class="cls-27" points="194.3 319.27 186.45 319.31 186.45 353.45 194.3 353.45 194.3 319.27"/><polygon class="cls-26" points="211.43 311.07 203.57 311.09 203.57 319.23 211.43 319.19 211.43 311.07"/><polygon class="cls-27" points="211.43 319.19 203.58 319.23 203.58 353.45 211.43 353.45 211.43 319.19"/><polygon class="cls-27" points="229.27 319.1 221.41 319.14 221.41 353.45 229.27 353.45 229.27 319.1"/><polygon class="cls-26" points="229.27 311.02 221.41 311.04 221.41 319.14 229.27 319.1 229.27 311.02"/><polygon class="cls-26" points="246.39 310.96 238.54 310.99 238.54 319.06 246.39 319.02 246.39 310.96"/><polygon class="cls-27" points="246.39 319.02 238.54 319.05 238.54 353.45 246.39 353.45 246.39 319.02"/><polygon class="cls-26" points="264.23 310.91 256.38 310.93 256.38 318.97 264.23 318.93 264.23 310.91"/><polygon class="cls-27" points="264.23 318.93 256.38 318.97 256.38 353.45 264.23 353.45 264.23 318.93"/><polygon class="cls-27" points="124.38 289.16 116.53 289.16 116.53 311.36 124.38 311.33 124.38 289.16"/><polygon class="cls-27" points="141.5 289.16 133.65 289.16 133.65 311.31 141.5 311.28 141.5 289.16"/><polygon class="cls-27" points="159.34 289.16 151.49 289.16 151.49 311.25 159.34 311.23 159.34 289.16"/><polygon class="cls-27" points="176.47 289.16 168.61 289.16 168.61 311.2 176.47 311.18 176.47 289.16"/><polygon class="cls-27" points="194.3 289.16 186.45 289.16 186.45 311.15 194.3 311.12 194.3 289.16"/><polygon class="cls-27" points="211.43 289.16 203.57 289.16 203.57 311.09 211.43 311.07 211.43 289.16"/><polygon class="cls-27" points="229.27 289.16 221.41 289.16 221.41 311.04 229.27 311.02 229.27 289.16"/><polygon class="cls-27" points="246.39 289.16 238.54 289.16 238.54 310.99 246.39 310.96 246.39 289.16"/><polygon class="cls-27" points="264.23 289.16 256.38 289.16 256.38 310.93 264.23 310.91 264.23 289.16"/><polygon class="cls-27" points="281.35 289.16 273.5 289.16 273.5 310.88 281.35 310.86 281.35 289.16"/><polygon class="cls-26" points="281.35 310.86 273.5 310.88 273.5 318.88 281.35 318.85 281.35 310.86"/><polygon class="cls-27" points="281.35 318.85 273.5 318.88 273.5 353.45 281.35 353.45 281.35 318.85"/><path class="cls-28" d="M288.57,290.06H53.17a.9.9,0,0,1-.9-.89h0a.9.9,0,0,1,.9-.9h235.4a.9.9,0,0,1,.9.9h0A.9.9,0,0,1,288.57,290.06Z"/><path class="cls-28" d="M108.45,282.24H53a.89.89,0,0,1-.9-.89h0a.9.9,0,0,1,.9-.9h55.43a.9.9,0,0,1,.9.9h0A.89.89,0,0,1,108.45,282.24Z"/><polygon class="cls-7" points="125.78 288.27 119.25 288.27 119.25 271.09 122.51 264.68 125.78 271.09 125.78 288.27"/><polygon class="cls-7" points="143.39 288.27 136.86 288.27 136.86 271.09 140.13 264.68 143.39 271.09 143.39 288.27"/><polygon class="cls-7" points="115.95 288.36 110.96 288.36 110.96 281.11 113.45 278.4 115.95 281.11 115.95 288.36"/><polygon class="cls-7" points="133.81 288.36 128.82 288.36 128.82 281.11 131.32 278.4 133.81 281.11 133.81 288.36"/><polygon class="cls-7" points="151.43 288.36 146.44 288.36 146.44 281.11 148.93 278.4 151.43 281.11 151.43 288.36"/><polygon class="cls-7" points="168.84 288.36 163.84 288.36 163.84 281.11 166.34 278.4 168.84 281.11 168.84 288.36"/><polygon class="cls-7" points="186.24 288.36 181.25 288.36 181.25 281.11 183.75 278.4 186.24 281.11 186.24 288.36"/><polygon class="cls-7" points="204.08 288.36 199.09 288.36 199.09 281.11 201.58 278.4 204.08 281.11 204.08 288.36"/><polygon class="cls-7" points="221.87 288.36 216.88 288.36 216.88 281.11 219.37 278.4 221.87 281.11 221.87 288.36"/><polygon class="cls-7" points="239.66 288.36 234.67 288.36 234.67 281.11 237.16 278.4 239.66 281.11 239.66 288.36"/><polygon class="cls-7" points="257.09 288.36 252.1 288.36 252.1 281.11 254.59 278.4 257.09 281.11 257.09 288.36"/><polygon class="cls-7" points="274.7 288.36 269.71 288.36 269.71 281.11 272.2 278.4 274.7 281.11 274.7 288.36"/><polygon class="cls-7" points="161 288.27 154.47 288.27 154.47 271.09 157.74 264.68 161 271.09 161 288.27"/><polygon class="cls-7" points="178.61 288.27 172.08 288.27 172.08 271.09 175.35 264.68 178.61 271.09 178.61 288.27"/><polygon class="cls-7" points="196.22 288.27 189.69 288.27 189.69 271.09 192.96 264.68 196.22 271.09 196.22 288.27"/><polygon class="cls-7" points="213.83 288.27 207.3 288.27 207.3 271.09 210.57 264.68 213.83 271.09 213.83 288.27"/><polygon class="cls-7" points="231.44 288.27 224.91 288.27 224.91 271.09 228.18 264.68 231.44 271.09 231.44 288.27"/><polygon class="cls-7" points="249.06 288.27 242.52 288.27 242.52 271.09 245.79 264.68 249.06 271.09 249.06 288.27"/><polygon class="cls-7" points="266.67 288.27 260.13 288.27 260.13 271.09 263.4 264.68 266.67 271.09 266.67 288.27"/><polygon class="cls-7" points="284.28 288.27 277.75 288.27 277.75 271.09 281.01 264.68 284.28 271.09 284.28 288.27"/><polygon class="cls-13" points="141.63 288.36 138.87 288.36 138.87 278.65 140.25 275.02 141.63 278.65 141.63 288.36"/><polygon class="cls-13" points="159.24 288.36 156.49 288.36 156.49 278.65 157.86 275.02 159.24 278.65 159.24 288.36"/><polygon class="cls-13" points="176.85 288.36 174.09 288.36 174.09 278.65 175.47 275.02 176.85 278.65 176.85 288.36"/><polygon class="cls-13" points="194.46 288.36 191.71 288.36 191.71 278.65 193.09 275.02 194.46 278.65 194.46 288.36"/><polygon class="cls-13" points="212.07 288.36 209.32 288.36 209.32 278.65 210.69 275.02 212.07 278.65 212.07 288.36"/><polygon class="cls-13" points="229.68 288.36 226.93 288.36 226.93 278.65 228.31 275.02 229.68 278.65 229.68 288.36"/><polygon class="cls-13" points="247.29 288.36 244.54 288.36 244.54 278.65 245.92 275.02 247.29 278.65 247.29 288.36"/><polygon class="cls-13" points="264.91 288.36 262.15 288.36 262.15 278.65 263.53 275.02 264.91 278.65 264.91 288.36"/><polygon class="cls-13" points="282.52 288.36 279.76 288.36 279.76 278.65 281.14 275.02 282.52 278.65 282.52 288.36"/><polygon class="cls-13" points="123.77 288.36 121.01 288.36 121.01 278.65 122.39 275.02 123.77 278.65 123.77 288.36"/><rect class="cls-7" x="68.05" y="251.14" width="0.91" height="29.32"/><rect class="cls-7" x="68.07" y="259.96" width="0.86" height="11.67" transform="translate(334.3 197.29) rotate(90)"/><rect class="cls-7" x="90.16" y="251.14" width="0.91" height="29.32"/><rect class="cls-7" x="90.19" y="259.96" width="0.86" height="11.67" transform="translate(356.41 175.18) rotate(90)"/><polygon class="cls-7" points="68.03 319.73 68.03 353.45 68.94 353.45 68.94 319.72 68.03 319.73"/><rect class="cls-7" x="68.03" y="290.06" width="0.91" height="21.25"/><rect class="cls-7" x="68.06" y="292.73" width="0.86" height="11.67" transform="translate(367.05 230.08) rotate(90)"/><rect class="cls-7" x="68.06" y="324.02" width="0.86" height="11.67" transform="translate(398.34 261.37) rotate(90)"/><rect class="cls-7" x="67.82" y="334" width="0.86" height="11.67" transform="translate(408.09 271.58) rotate(90)"/><rect class="cls-7" x="90.14" y="290.06" width="0.91" height="21.25"/><polygon class="cls-7" points="90.14 319.33 90.14 353.45 91.06 353.45 91.06 319.32 90.14 319.33"/><rect class="cls-7" x="90.17" y="292.73" width="0.86" height="11.67" transform="translate(389.16 207.96) rotate(90)"/><rect class="cls-7" x="90.17" y="324.02" width="0.86" height="11.67" transform="translate(420.45 239.25) rotate(90)"/><rect class="cls-7" x="89.93" y="334" width="0.86" height="11.67" transform="translate(430.2 249.47) rotate(90)"/><rect class="cls-4" x="120" y="290.06" width="0.91" height="21.25"/><polygon class="cls-4" points="120 319.33 120 353.45 120.91 353.45 120.91 319.32 120 319.33"/><rect class="cls-4" x="120.02" y="292.73" width="0.86" height="11.67" transform="translate(419.02 178.11) rotate(90)"/><rect class="cls-4" x="120.02" y="324.02" width="0.86" height="11.67" transform="translate(450.31 209.4) rotate(90)"/><rect class="cls-4" x="119.79" y="334" width="0.86" height="11.67" transform="translate(460.06 219.62) rotate(90)"/><rect class="cls-4" x="137.24" y="290.06" width="0.91" height="21.25"/><polygon class="cls-4" points="137.24 319.33 137.24 353.45 138.15 353.45 138.15 319.32 137.24 319.33"/><rect class="cls-4" x="137.26" y="292.73" width="0.86" height="11.67" transform="translate(436.26 160.87) rotate(90)"/><rect class="cls-4" x="137.26" y="324.02" width="0.86" height="11.67" transform="translate(467.55 192.16) rotate(90)"/><rect class="cls-4" x="137.03" y="334" width="0.86" height="11.67" transform="translate(477.3 202.38) rotate(90)"/><rect class="cls-4" x="154.48" y="290.06" width="0.91" height="21.25"/><polygon class="cls-4" points="154.48 319.33 154.48 353.45 155.39 353.45 155.39 319.32 154.48 319.33"/><rect class="cls-4" x="154.5" y="292.73" width="0.86" height="11.67" transform="translate(453.5 143.63) rotate(90)"/><rect class="cls-4" x="154.5" y="324.02" width="0.86" height="11.67" transform="translate(484.79 174.92) rotate(90)"/><rect class="cls-4" x="154.27" y="334" width="0.86" height="11.67" transform="translate(494.54 185.13) rotate(90)"/><rect class="cls-4" x="171.72" y="290.06" width="0.91" height="21.25"/><polygon class="cls-4" points="171.72 319.33 171.72 353.45 172.63 353.45 172.63 319.31 171.72 319.33"/><rect class="cls-4" x="171.74" y="292.73" width="0.86" height="11.67" transform="translate(470.74 126.39) rotate(90)"/><rect class="cls-4" x="171.74" y="324.02" width="0.86" height="11.67" transform="translate(502.03 157.68) rotate(90)"/><rect class="cls-4" x="171.51" y="334" width="0.86" height="11.67" transform="translate(511.78 167.89) rotate(90)"/><rect class="cls-4" x="189.93" y="290.06" width="0.91" height="21.25"/><polygon class="cls-4" points="189.93 319.33 189.93 353.45 190.84 353.45 190.84 319.32 189.93 319.33"/><rect class="cls-4" x="189.95" y="292.73" width="0.86" height="11.67" transform="translate(488.94 108.18) rotate(90)"/><rect class="cls-4" x="189.95" y="324.02" width="0.86" height="11.67" transform="translate(520.23 139.47) rotate(90)"/><rect class="cls-4" x="189.72" y="334" width="0.86" height="11.67" transform="translate(529.98 149.69) rotate(90)"/><rect class="cls-4" x="206.96" y="290.06" width="0.91" height="21.25"/><polygon class="cls-4" points="206.96 319.33 206.96 353.45 207.88 353.45 207.88 319.32 206.96 319.33"/><rect class="cls-4" x="206.99" y="292.73" width="0.86" height="11.67" transform="translate(505.98 91.14) rotate(90)"/><rect class="cls-4" x="206.99" y="324.02" width="0.86" height="11.67" transform="translate(537.27 122.43) rotate(90)"/><rect class="cls-4" x="206.75" y="334" width="0.86" height="11.67" transform="translate(547.02 132.65) rotate(90)"/><rect class="cls-4" x="225" y="290.06" width="0.91" height="21.25"/><polygon class="cls-4" points="225 319.33 225 353.45 225.91 353.45 225.91 319.32 225 319.33"/><rect class="cls-4" x="225.03" y="292.73" width="0.86" height="11.67" transform="translate(524.02 73.11) rotate(90)"/><rect class="cls-4" x="225.03" y="324.02" width="0.86" height="11.67" transform="translate(555.31 104.4) rotate(90)"/><rect class="cls-4" x="224.79" y="334" width="0.86" height="11.67" transform="translate(565.06 114.61) rotate(90)"/><rect class="cls-4" x="242.13" y="290.02" width="0.91" height="21.25"/><polygon class="cls-4" points="242.13 319.3 242.13 353.45 243.04 353.45 243.04 319.28 242.13 319.3"/><rect class="cls-4" x="242.15" y="292.69" width="0.86" height="11.67" transform="translate(541.11 55.95) rotate(90)"/><rect class="cls-4" x="242.15" y="323.98" width="0.86" height="11.67" transform="translate(572.4 87.24) rotate(90)"/><rect class="cls-4" x="241.92" y="333.96" width="0.86" height="11.67" transform="translate(582.15 97.45) rotate(90)"/><rect class="cls-4" x="259.8" y="290.06" width="0.91" height="21.25"/><polygon class="cls-4" points="259.8 319.33 259.8 353.45 260.71 353.45 260.71 319.32 259.8 319.33"/><rect class="cls-4" x="259.82" y="292.73" width="0.86" height="11.67" transform="translate(558.81 38.31) rotate(90)"/><rect class="cls-4" x="259.82" y="324.02" width="0.86" height="11.67" transform="translate(590.1 69.6) rotate(90)"/><rect class="cls-4" x="259.59" y="334" width="0.86" height="11.67" transform="translate(599.85 79.82) rotate(90)"/><rect class="cls-4" x="277.09" y="290.06" width="0.91" height="21.25"/><polygon class="cls-4" points="277.09 319.33 277.09 353.45 278 353.45 278 319.32 277.09 319.33"/><rect class="cls-4" x="277.11" y="292.73" width="0.86" height="11.67" transform="translate(576.11 21.02) rotate(90)"/><rect class="cls-4" x="277.11" y="324.02" width="0.86" height="11.67" transform="translate(607.4 52.31) rotate(90)"/><rect class="cls-4" x="276.88" y="334" width="0.86" height="11.67" transform="translate(617.15 62.53) rotate(90)"/><path class="cls-28" d="M288.57,320H53.17a.9.9,0,0,1-.9-.9h0a.9.9,0,0,1,.9-.89h235.4a.9.9,0,0,1,.9.89h0A.9.9,0,0,1,288.57,320Z"/><path class="cls-28" d="M288.14,311.81H52.75a.9.9,0,0,1-.91-.9h0a.9.9,0,0,1,.91-.89H288.14a.89.89,0,0,1,.9.89h0A.9.9,0,0,1,288.14,311.81Z"/><rect class="cls-5" x="54.13" y="221.53" width="53.53" height="21.73"/><rect class="cls-6" x="54.13" y="221.53" width="53.53" height="5.61"/><polygon class="cls-7" points="71.41 245.77 66.51 245.77 66.51 237.58 68.96 234.53 71.41 237.58 71.41 245.77"/><polygon class="cls-7" points="95.3 245.77 90.39 245.77 90.39 237.58 92.84 234.53 95.3 237.58 95.3 245.77"/><polygon class="cls-7" points="84 244.15 77.47 244.15 77.47 226.96 80.74 220.55 84 226.96 84 244.15"/><polygon class="cls-13" points="82.24 244.24 79.48 244.24 79.48 234.53 80.86 230.9 82.24 234.53 82.24 244.24"/><polygon class="cls-12" points="57.24 202.1 55.91 202.1 55.91 192.17 56.57 188.46 57.24 192.17 57.24 202.1"/><polygon class="cls-7" points="60.75 244.01 52.17 244.01 52.17 218.53 56.46 209.02 60.75 218.53 60.75 244.01"/><polygon class="cls-13" points="58.44 244.15 54.82 244.15 54.82 229.74 56.63 224.37 58.44 229.74 58.44 244.15"/><path class="cls-12" d="M61.61,207.66c0,2.32-2.26,4.2-5,4.2s-5-1.88-5-4.2,5-7.67,5-7.67S61.61,205.34,61.61,207.66Z"/><polygon class="cls-12" points="107.38 202.1 106.05 202.1 106.05 192.17 106.72 188.46 107.38 192.17 107.38 202.1"/><polygon class="cls-7" points="110.89 244.01 102.31 244.01 102.31 218.53 106.6 209.02 110.89 218.53 110.89 244.01"/><polygon class="cls-13" points="108.58 244.15 104.96 244.15 104.96 229.74 106.77 224.37 108.58 229.74 108.58 244.15"/><path class="cls-12" d="M111.75,207.66c0,2.32-2.25,4.2-5,4.2s-5-1.88-5-4.2,5-7.67,5-7.67S111.75,205.34,111.75,207.66Z"/><rect class="cls-29" x="51.84" y="243.26" width="59.11" height="5.02"/><path class="cls-30" d="M280,101.19h-.18a7.63,7.63,0,0,0-7.69-7.69,7.12,7.12,0,0,0-2.68.54,23.12,23.12,0,0,0-45.6,5.36v1.26a19,19,0,0,0-4.47-.54,19.3,19.3,0,0,0-19.32,17.53h98.54A18.62,18.62,0,0,0,280,101.19Z"/><path class="cls-31" d="M223.77,180.77h-.17a7.64,7.64,0,0,0-7.69-7.69,7.17,7.17,0,0,0-2.69.54,23.12,23.12,0,0,0-45.6,5.36v1.26a19,19,0,0,0-4.47-.54,19.29,19.29,0,0,0-19.31,17.53h98.53A18.62,18.62,0,0,0,223.77,180.77Z"/><rect class="cls-32" width="400" height="400"/><path class="cls-33" d="M127.38,89.1a41.07,41.07,0,0,1-2,12.85c0,.17-.11.35-.17.53A41.37,41.37,0,0,1,49.22,108a40.17,40.17,0,0,1-2-4.65,41.36,41.36,0,1,1,80.2-14.24Z"/></g></g></svg>