<svg xmlns="http://www.w3.org/2000/svg" xmlns:xlink="http://www.w3.org/1999/xlink" viewBox="0 0 1102 424"><defs><path d="M20.7 115.63H54v243H20.7v-243zm72.6 0h23.1l69 161.4v-161.4h28.2v243H192l-69.9-165.9v165.9H93.3v-243zm158.4 0h52.8c26.2001 0 44.75 6 55.65 18 10.9 12 16.35 30.6999 16.35 56.1v89.4c0 26.8001-5.35 46.75-16.05 59.85-10.7 13.1-28.4499 19.65-53.25 19.65h-55.5v-243zm53.1 218.7c11.8 0 20.35-2.3 25.65-6.9 5.3-4.6 8.6-10.85 9.9-18.75 1.3-7.9 1.95-19.85 1.95-35.85v-78.9c0-13.8-.85-24.35-2.55-31.65-1.7-7.3-5.25-12.7-10.65-16.2s-13.8-5.25-25.2-5.25h-18.3v193.5h19.2zm142.2-61.5l-52.5-157.2H426l37.2 117.3 36.6-117.3h31.8l-52.2 157.2v85.8H447v-85.8z" id="a"/><path d="M715.5 115.63h33.9v218.7h62.1v24.3h-96v-243zm120.9 0h33.3v243h-33.3v-243zm72.6 0h93.9v24.3h-60v81h46.5v24h-46.5v113.7H909v-243zm117.3 0h94.2v25.2h-60.3v80.4h48.9v24h-48.9v89.1h60.9v24.3h-94.8v-243z" id="b"/><path id="c" d="M523.725 466.31l-22.11-9.045L673.9725 43.7075 696.585 52.25z"/></defs><g fill="none" fill-rule="evenodd"><g transform="translate(-20 -43)"><use fill="#000" xlink:href="#a"/><use fill="#EC1A2E" xlink:href="#a"/></g><g fill="#fff" transform="translate(-20 -43)"><use xlink:href="#b"/><use xlink:href="#b"/></g><g transform="translate(-20 -43)"><use fill="#000" xlink:href="#c"/><use fill="#EC1A2E" xlink:href="#c"/></g></g></svg>