<svg xmlns="http://www.w3.org/2000/svg" viewBox="0 0 781.15 198.56"><defs><style>.logo-svg-cls-1{fill:#212121}.logo-svg-cls-2{fill:#e52232}</style></defs><g id="Layer_2" data-name="Layer 2"><g id="Layer_1-2" data-name="Layer 1"><path class="logo-svg-cls-1" d="M380.11 142.82c-2.89 2.35-5.65 4.89-8.7 7-8.59 6-18.08 8.27-28.46 6.33-10.73-2-17.91-8.38-22.1-18.24-3.51-8.27-4.29-17.07-4.46-25.91-.18-9.06 0-18.13-.07-27.2 0-1.21-.18-2.41-.3-3.91l-6.72-.56c-1.32-2.28-1.44-27.46-.12-30.22h49.75a34.89 34.89 0 01.43 3.77c.05 6.57 0 13.14.07 19.72.11 12.88.22 25.77.43 38.66.14 8.88 6.94 13.3 15.23 10a7.53 7.53 0 005-5.5 26.51 26.51 0 00.71-5.67c.07-9 0-18 0-26.95 0-1-.2-1.94-.35-3.33l-9.28-.55V50.18h52.12a23.87 23.87 0 01.48 3.41c0 31.11.12 62.22-.08 93.32a60.86 60.86 0 01-5.77 26.64c-6.61 13.52-18.15 20.54-32.44 23.21-16.57 3.09-33.17 1.85-49.67-1-3.94-.7-7.84-1.56-11.75-2.39-1-.23-2-.66-3.35-1.1v-30.61c1.39.1 2.53.07 3.63.26a191 191 0 0039.3 2.72 44.5 44.5 0 008.82-1.52 9.81 9.81 0 007.89-8.93c.47-3.73.4-7.53.57-11.3zM298.46 8.64v114.29l7.67.66v29.82c-2.15 1.12-47.21 1.33-50.63.09v-10.17l-.83-.22c-1.42 1.34-2.81 2.71-4.26 4-11.57 10.38-24.69 12.55-39 6.76-9-3.64-14.15-11-17.7-19.71-3-7.25-4.19-14.91-4.7-22.63-.8-12.07-.49-24.13 2.82-35.89 2.22-7.88 5.46-15.42 12-20.59 11.35-8.93 24-10.25 37-4.14 4.12 1.92 7.58 5.28 11.28 8.06a14.85 14.85 0 012.09 2.42l.7-.35V39.38l-9.33-.45c-1.08-2.09-1.4-26.39-.41-30.34a18.92 18.92 0 013.12-.48h46.46a27.09 27.09 0 013.72.53zM255.32 102c0-3.82.12-7.65 0-11.47-.24-6.27-3.53-9.44-9.71-9.62-6.86-.21-10.69 2.7-11 9.12-.33 8-.31 16 0 23.92.25 6.23 4.25 9.4 10.7 9.25 6.26-.14 9.74-3.47 10-9.74.12-3.77.01-7.6.01-11.46zM64.12 153.83v-30.16l7.5-.75V81l-7.4-.73v-30h50.58V61l.85.22c2-1.79 3.95-3.68 6.08-5.33 10.06-7.79 21.22-11 33.75-7.52 11.09 3 17.61 10.9 20.63 21.48a80 80 0 012.8 18.42c.45 10.29.14 20.62.17 30.93 0 1.13.17 2.27.28 3.71l8 .66c.14 10.07.18 20 0 30.15H128.9c-1.33-2.36-1.4-27.58-.08-30.22l6.86-.46a8.19 8.19 0 00.57-2c-.09-10.22.12-20.46-.43-30.66-.46-8.46-8.89-12.53-16.25-8.06-1.73 1-3 3.29-3.82 5.25a13.76 13.76 0 00-.69 5.39c-.07 8.9 0 17.8 0 26.7 0 1 .19 1.94.33 3.28l7.59.62c.29 10 .09 19.9.12 30.14a25.35 25.35 0 01-3.62.57h-52a27.1 27.1 0 01-3.36-.44z"/><path class="logo-svg-cls-2" d="M507.32 83.44h48.39c.22 3.15.46 6.18.63 9.22.44 7.4 1.11 14.75 4 21.7 2.41 5.72 6.34 9.58 12.79 10 5 .37 9.43-1.15 12.5-5.35 4-5.39 5.59-11.66 6.27-18.18.52-5 .71-10.1 1.07-15.16a22.62 22.62 0 01.41-2.3H642a75.68 75.68 0 01-2.91 23.2c-3.79 13.47-10.75 24.95-21.67 33.94-20.41 16.8-55.53 18.82-79.78 4.17-22.88-13.78-31.46-40.47-30.32-61.24zM695 83.48c.11 1.88.27 3.67.31 5.46.14 7.58.59 15.14 3.08 22.37a28.24 28.24 0 003.91 7.69 14.2 14.2 0 0022.75-.36c3.73-5 5.08-11 5.79-17 .59-5 .73-10.09 1.1-15.14.08-1 .3-1.93.48-3.06h48.67a73.1 73.1 0 01-3 23.41c-3.74 13.28-10.55 24.71-21.37 33.53-21.19 17.28-56.78 19.09-80.81 3.92-22.6-14.26-30.47-40.72-29.58-60.8zM780.83 76.49h-48.54c-.14-1.7-.21-3.25-.4-4.78-.8-6.16-1.36-12.37-2.57-18.45a25.24 25.24 0 00-3.76-8.61 14.35 14.35 0 00-24-.15c-4 5.72-5.07 12.39-5.72 19.12-.33 3.31-.37 6.63-.59 9.94a28.35 28.35 0 01-.45 2.87h-48.37c-1.44-15.68 5.36-41.76 25.14-56.56C694 3.09 727.85 2 751.09 16.75S782 58.91 780.83 76.49zM642 76.48h-48.71c-.28-3.75-.47-7.36-.82-11-.63-6.55-1.49-13.07-4.71-19C584 39.67 578 37 570.34 38.75c-4.23 1-7 3.72-9 7.34-2.76 5-3.85 10.42-4.44 16-.49 4.69-.82 9.4-1.24 14.34h-48.58A70 70 0 01510.55 52a63 63 0 0122.5-32.47c23.64-17.9 60.47-17.33 83.4.38a62.81 62.81 0 0122.22 32.68A73.55 73.55 0 01642 76.48z"/><path class="logo-svg-cls-1" d="M51 123l7.42.48c1.32 2.13 1.57 27.39.28 30.51H.4v-30.43l7.69-.56V81l-7.84-.72C-.2 70.29.1 60.37.07 50.16H51z"/><path class="logo-svg-cls-2" d="M512 127.14V152h-80.1v-24.86h8.82c5.71 0 8-2.29 8-8V87.72c0-1.37.23-2.75.36-4.29h47.52c.11 1.36.3 2.56.3 3.77v32.41c0 5 2.49 7.51 7.48 7.53 2.41.01 4.81 0 7.62 0zM496.65 8.74v67.71h-47.87v-31.9c-6.24 2.85-11.2 7.66-18.33 5V23.81a14.28 14.28 0 011.5-1c9.42-4.6 18.84-9.21 28.3-13.74a7.39 7.39 0 013.14-.6q15.11-.07 30.22 0c.89-.04 1.79.14 3.04.27z"/><path class="logo-svg-cls-1" d="M25.75 0a21.19 21.19 0 0121.33 21.43A21.57 21.57 0 0125.74 43 21.66 21.66 0 014.49 21.3 21.35 21.35 0 0125.75 0z"/></g></g></svg>