<svg width="504" height="60" viewBox="0 0 504 60" fill="none" xmlns="http://www.w3.org/2000/svg">
<path fill-rule="evenodd" clip-rule="evenodd" d="M67.968 10.116L69.6542 10.4593C73.598 11.266 74.1295 13.6306 74.1295 15.8367V43.6404C74.1295 45.9301 73.5876 48.1588 69.6542 48.9621L67.968 49.3071V50.1923H87.552V49.3071L85.8658 48.9621C81.9359 48.1588 81.3957 45.9301 81.3957 43.6404V15.8367C81.3957 13.6306 81.9272 11.266 85.8658 10.4593L87.552 10.116V9.23077H67.968V10.116Z" fill="#222222"/>
<path fill-rule="evenodd" clip-rule="evenodd" d="M467.712 9.23077V23.0182H468.545L470.587 17.9141C472.589 12.8937 474.678 10.1735 479.992 10.1735H482.196V43.6436C482.196 45.8114 481.685 48.3818 477.698 49.0213L475.983 49.2949V50.1923H495.722V49.2949L494.01 49.0213C490.027 48.3818 489.517 45.8114 489.517 43.6436V10.1735H491.72C497.032 10.1735 499.123 12.8937 501.128 17.9141L503.162 23.0182H504V9.23077H467.712Z" fill="#222222"/>
<path fill-rule="evenodd" clip-rule="evenodd" d="M450.554 10.1273L452.148 10.3385C455.138 10.7729 457.916 12.2423 457.973 19.9685L458.137 38.5085L442.399 19.8681C437.688 14.2639 435.776 11.9083 434.385 9.40039L434.292 9.23077H419.904V10.1117L420.172 10.1637C423.134 10.7037 424.983 11.91 428.094 15.3265L428.695 15.9739V37.29C428.695 46.4302 425.834 47.891 422.379 48.7564L421.219 49.0454V49.9142H437.337V49.0454L436.18 48.7581C433.102 47.9498 429.916 47.1121 429.859 37.2883L429.697 17.0296L458.165 50.655L458.263 50.7692H459.141V19.965C459.141 12.2285 462.086 10.7573 464.964 10.3385L466.56 10.1273V9.23077H450.554V10.1273Z" fill="#222222"/>
<path fill-rule="evenodd" clip-rule="evenodd" d="M285.022 42.8441C282.33 47.5106 279.038 49.2444 272.876 49.2444H271.174C267.75 49.2444 266.222 47.5541 266.222 43.7607V29.5852L268.729 29.6357C274.881 29.7508 276.567 30.0278 278.47 36.0291L279.163 38.2142H280.008V19.8793H279.162L278.47 22.1289C276.61 28.1075 274.783 28.4055 268.727 28.5188L266.222 28.5693V10.1752H270.551C277.788 10.1752 281.05 11.6999 283.483 16.2253L286.243 21.2873H287.043V9.23077H252.864V10.1142L254.542 10.4575C258.25 11.2207 258.995 13.0155 258.995 15.6624V43.6404C258.995 45.8116 258.491 48.3818 254.555 49.0196L252.864 49.2932V50.1923H288.576V38.1358H287.784L285.022 42.8441Z" fill="#222222"/>
<path fill-rule="evenodd" clip-rule="evenodd" d="M413.466 42.8441C410.779 47.5106 407.49 49.2444 401.325 49.2444H399.622C396.198 49.2444 394.67 47.5541 394.67 43.7607V29.5852L397.177 29.6357C403.329 29.7508 405.019 30.0278 406.913 36.0291L407.615 38.2142H408.453V19.8793H407.613L406.913 22.1289C405.058 28.1075 403.231 28.4055 397.177 28.5188L394.67 28.5693V10.1752H398.999C406.233 10.1752 409.495 11.6999 411.931 16.2253L414.691 21.2873H415.487V9.23077H381.312V10.1142L382.993 10.4575C386.695 11.2207 387.442 13.0155 387.442 15.6624V43.6404C387.442 45.8116 386.937 48.3818 383.007 49.0196L381.312 49.2932V50.1923H417.024V38.1358H416.233L413.466 42.8441Z" fill="#222222"/>
<path fill-rule="evenodd" clip-rule="evenodd" d="M148.288 43.356V10.1672H153.454C163.746 10.1672 169.894 17.4228 169.894 29.5734C169.894 41.9021 164.089 48.9744 153.968 48.9744H152.713C149.041 48.9744 148.288 46.7295 148.288 43.356ZM155.173 9.23077H118.854V10.1256L120.449 10.3368C124.115 10.8681 126.245 12.4259 126.291 18.8196L126.461 38.508L110.679 19.8668C106.062 14.3921 104.045 11.9118 102.651 9.39867L102.556 9.23077H88.1279V10.1118L88.3981 10.162C91.3643 10.7037 93.2207 11.9101 96.3445 15.3268L96.9454 15.9724V37.2912C96.9454 46.43 94.0743 47.8891 90.6094 48.758L89.4474 49.0453V49.9142H105.604V49.0453L104.443 48.758C101.359 47.9497 98.1714 47.1137 98.1108 37.2877L97.9445 17.0282L126.584 50.7692H127.458V17.9023C127.458 12.7686 129.739 10.1672 134.231 10.1672C138.723 10.1672 141 12.7686 141 17.9023V43.4097C141 45.7844 140.451 48.0778 136.461 48.7511L134.82 49.0263V49.9142H155.173C162.205 49.9142 168.1 47.7472 172.223 43.6503C175.937 39.9584 177.984 34.8974 177.984 29.3985C177.984 23.9273 175.935 18.9269 172.219 15.3199C168.117 11.3355 162.221 9.23077 155.173 9.23077Z" fill="#222222"/>
<path fill-rule="evenodd" clip-rule="evenodd" d="M351.04 43.356V10.1672H356.208C366.499 10.1672 372.645 17.4228 372.645 29.5734C372.645 41.9021 366.842 48.9744 356.722 48.9744H355.46C351.794 48.9744 351.04 46.7295 351.04 43.356ZM357.922 9.23077H321.606V10.1256L323.201 10.3368C326.862 10.8664 328.99 12.4242 329.046 18.8196L329.21 38.508L313.425 19.8668C308.701 14.2571 306.786 11.9015 305.395 9.39867L305.302 9.23077H290.88V10.1118L291.147 10.162C294.115 10.7037 295.971 11.9101 299.092 15.3251L299.689 15.9724V37.2912C299.689 46.4317 296.822 47.8926 293.358 48.758L292.194 49.0453V49.9142H308.358V49.0453L307.198 48.758C304.107 47.9497 300.917 47.1137 300.863 37.2877L300.694 17.0282L329.24 50.655L329.338 50.7692H330.211V17.9023C330.211 12.7686 332.49 10.1672 336.984 10.1672C341.474 10.1672 343.751 12.7686 343.751 17.9023V43.4097C343.751 45.7861 343.202 48.0778 339.219 48.7511L337.571 49.0263V49.9142H357.922C364.956 49.9142 370.853 47.7472 374.976 43.6503C378.691 39.9584 380.736 34.8974 380.736 29.3985C380.736 23.9291 378.691 18.9287 374.975 15.3199C370.869 11.3355 364.976 9.23077 357.922 9.23077Z" fill="#222222"/>
<path fill-rule="evenodd" clip-rule="evenodd" d="M236.59 9.23077H218.88V10.1125L220.58 10.4576C224.549 11.2626 225.096 13.4914 225.096 15.776V43.6436C225.096 45.9317 224.549 48.1604 220.58 48.962L218.88 49.3071V50.1923H239.393V49.3088L238.039 49.0248C233.371 48.0541 232.489 47.1079 232.489 43.0668V10.1735H234.231C240.55 10.1735 244.32 14.4446 244.32 21.5963C244.32 28.7461 240.55 33.0138 234.231 33.0138H233.789V34.0123H236.59C245.834 34.0123 252.288 28.9065 252.288 21.5963C252.288 14.3139 245.834 9.23077 236.59 9.23077Z" fill="#222222"/>
<path fill-rule="evenodd" clip-rule="evenodd" d="M210.721 42.8441C208.028 47.5106 204.737 49.2444 198.572 49.2444H196.87C193.443 49.2444 191.914 47.5541 191.914 43.7607V29.5852L194.422 29.6357C200.576 29.7508 202.264 30.0278 204.161 36.0291L204.86 38.2142H205.702V19.8793H204.859L204.161 22.1289C202.309 28.1075 200.478 28.4055 194.422 28.5188L191.914 28.5693V10.1752H196.243C203.48 10.1752 206.746 11.6999 209.182 16.2253L211.94 21.2873H212.74V9.23077H178.56V10.1142L180.238 10.4575C183.942 11.2207 184.687 13.0155 184.687 15.6624V43.6404C184.687 45.8116 184.182 48.3818 180.25 49.0196L178.56 49.2932V50.1923H214.272V38.1358H213.479L210.721 42.8441Z" fill="#222222"/>
<path fill-rule="evenodd" clip-rule="evenodd" d="M0.0625 28.0546C1.03174 12.9176 13.2315 0.833982 28.4211 0.0413818H31.601C47.4369 0.86766 60.0226 13.9649 60.0226 30C60.0226 46.5693 46.5861 60 30.011 60C14.0907 60 1.06534 47.608 0.0625 31.9455V28.0546Z" fill="white"/>
<path fill-rule="evenodd" clip-rule="evenodd" d="M30.2258 32.2324L30.677 32.3245L30.5425 32.7662L30.6015 32.7983L31.271 32.01L31.2379 31.9541L30.2258 32.1641V32.2324ZM30.3003 30.9869L30.3583 31.0221L30.943 30.389L30.9119 30.3321L30.0613 30.4717L30.0592 30.54L30.4256 30.631L30.3003 30.9869ZM28.3652 35.94L27.676 35.939L27.6604 36.0062L27.9316 36.1221L27.7888 36.3797L27.8405 36.4241L28.3859 36.0031L28.3652 35.94ZM29.8295 34.7886L28.9675 34.8155L28.9561 34.8838L29.3079 35.0214L29.1361 35.3586L29.1889 35.401L29.8512 34.8497L29.8295 34.7886ZM30.5259 34.0303L31.003 34.0976L30.8892 34.5652L30.9513 34.5952L31.5991 33.7345L31.5618 33.6807L30.5218 33.9621L30.5259 34.0303ZM28.24 37.4586L28.2255 37.5248L28.4956 37.6438L28.3538 37.9003L28.4055 37.9448L28.9499 37.5228L28.9292 37.4597L28.24 37.4586ZM32.5387 37.5186L33.0034 37.0076L32.9713 36.9507L32.2924 37.0676L32.2903 37.1348L32.5749 37.2052L32.4808 37.4824L32.5387 37.5186ZM32.8792 33.1634L33.6698 32.0731L33.6325 32.0183L32.339 32.3938L32.3442 32.4631L32.9516 32.5376L32.8181 33.1345L32.8792 33.1634ZM30.3842 36.2534L29.5232 36.2514L29.5087 36.3176L29.8554 36.4676L29.6722 36.7986L29.7239 36.8431L30.4059 36.3155L30.3842 36.2534ZM31.9695 30.3517L32.5604 30.51L32.3452 31.0831L32.4031 31.1193L33.3355 30.149L33.3055 30.089L31.9726 30.2845L31.9695 30.3517ZM31.5691 36.3093L32.2665 35.4879L32.2334 35.431L31.1789 35.6514V35.7197L31.6498 35.8159L31.5101 36.2762L31.5691 36.3093ZM33.7298 28.0076L33.7816 28.0521L34.3249 27.629L34.3042 27.5669H33.615L33.6015 27.6331L33.8716 27.75L33.7298 28.0076ZM31.8526 29.161L31.9033 29.2055L32.754 28.5455L32.7333 28.4834L31.656 28.4824L31.6425 28.5497L32.0844 28.74L31.8526 29.161ZM35.3918 34.4979L35.3887 34.5652L35.755 34.6562L35.6308 35.0131L35.6888 35.0472L36.2735 34.4152L36.2424 34.3583L35.3918 34.4979ZM37.9623 28.4307L38.0141 28.4752L38.5584 28.0521L38.5377 27.991H37.8485L37.8351 28.0562L38.1052 28.1731L37.9623 28.4307ZM31.0837 37.591H30.3935L30.38 37.6562L30.6501 37.7741L30.5073 38.0317L30.559 38.0762L31.1054 37.6531L31.0837 37.591ZM36.0293 28.1131L36.081 28.1576L36.7609 27.629L36.7402 27.5669H35.8782L35.8637 27.6331L36.2114 27.7831L36.0293 28.1131ZM34.7078 32.6979L35.1807 32.7879L35.0472 33.2514L35.1072 33.2814L35.7923 32.4507L35.7571 32.3948L34.7067 32.6307L34.7078 32.6979ZM35.369 26.5624L38.8751 26.5686C38.8751 26.5686 39.9824 26.9845 41.4363 27.57C42.1038 27.839 42.4598 28.441 42.4029 29.1279C42.4029 29.1279 42.9772 29.7031 43.297 30.0662C43.6778 30.5069 43.7202 31.1172 43.4212 31.5166C43.1242 31.9076 42.6999 32.0048 42.524 32.0307L42.4888 31.9645C42.7195 31.7338 42.6254 31.3624 42.4215 31.0676C42.2083 30.7603 42.0169 30.7045 41.7985 30.8369C41.7012 30.8969 41.5771 30.9879 41.5771 30.9879L42.1235 31.859L42.1028 31.92C41.6702 32.041 41.071 31.9438 40.7906 31.59C40.7782 31.59 40.7782 31.59 38.0907 31.589L38.0865 31.6603L39.5902 31.9314L39.6347 32.0369L34.4801 38.0959L34.5287 38.1424L36.2838 36.5741L36.2869 37.9428L36.1255 38.3545L36.29 39.3145L36.2321 39.7231L37.8382 41.0928H37.8392C37.8392 41.0928 37.864 41.1052 37.8827 41.1134C37.9003 41.1217 37.921 41.1331 37.9448 41.1465C37.9686 41.159 37.9944 41.1735 38.0213 41.19C38.0493 41.2055 38.0762 41.2262 38.1052 41.2459C38.1362 41.2645 38.1621 41.2914 38.1921 41.3121C38.22 41.3379 38.249 41.3607 38.2759 41.3897C38.3049 41.4155 38.3287 41.4455 38.3556 41.4745C38.3784 41.5066 38.4042 41.5355 38.4239 41.5686C38.4487 41.5997 38.4653 41.6338 38.486 41.6648C38.5015 41.699 38.5222 41.729 38.5346 41.761C38.5501 41.7941 38.5636 41.8252 38.575 41.8541C38.5884 41.8841 38.5967 41.911 38.605 41.9338C38.6143 41.9586 38.6226 41.9814 38.6267 42.0031C38.6381 42.0445 38.6464 42.0662 38.6464 42.0662L38.7157 42.0693C38.7157 42.0693 38.7261 42.0466 38.7406 42.0072C38.7478 41.9876 38.7561 41.9628 38.7602 41.9307C38.7664 41.8986 38.7716 41.8624 38.7695 41.8241C38.7706 41.8034 38.7706 41.7838 38.7706 41.7621C38.7685 41.7424 38.7644 41.7197 38.7633 41.699C38.7581 41.6534 38.7426 41.6079 38.7302 41.5593C38.7116 41.5148 38.694 41.4641 38.666 41.4207C38.6422 41.3741 38.6081 41.3328 38.576 41.2893C38.5398 41.251 38.5046 41.2117 38.4632 41.1807C38.4239 41.1445 38.3794 41.1186 38.337 41.0938C38.2925 41.0721 38.249 41.0514 38.2066 41.0379C38.19 41.0317 38.1735 41.0255 38.1569 41.0224C38.3587 40.9769 38.5584 40.9324 38.7561 40.889H38.7571C38.7571 40.889 38.7581 40.89 38.7592 40.891C38.7768 40.8983 38.7985 40.9107 38.8213 40.9241C38.8461 40.9355 38.8709 40.95 38.8978 40.9686C38.9258 40.9821 38.9537 41.0038 38.9817 41.0224C39.0127 41.04 39.0386 41.0679 39.0686 41.0886C39.0965 41.1145 39.1266 41.1383 39.1535 41.1672C39.1814 41.1931 39.2052 41.2241 39.2321 41.251C39.2549 41.2831 39.2807 41.3131 39.3014 41.3452C39.3252 41.3762 39.3418 41.4103 39.3625 41.4424C39.378 41.4766 39.3998 41.5066 39.4111 41.5386C39.4277 41.5707 39.4411 41.6017 39.4525 41.6307C39.4639 41.6607 39.4732 41.6865 39.4815 41.7114C39.4908 41.7352 39.4991 41.7579 39.5043 41.7797C39.5136 41.82 39.5229 41.8438 39.5229 41.8438L39.5933 41.8469C39.5933 41.8469 39.6036 41.8241 39.6171 41.7838C39.6253 41.7641 39.6326 41.7403 39.6357 41.7072C39.6429 41.6752 39.6481 41.6379 39.646 41.5997C39.646 41.58 39.6471 41.5614 39.6471 41.5386C39.645 41.519 39.6419 41.4962 39.6388 41.4745C39.6347 41.43 39.6191 41.3855 39.6067 41.3359C39.5881 41.2914 39.5705 41.2417 39.5426 41.1972C39.5188 41.1507 39.4856 41.1093 39.4536 41.0669C39.4173 41.0286 39.3811 40.9883 39.3397 40.9572C39.3004 40.9221 39.2549 40.8962 39.2135 40.8703C39.1721 40.8497 39.1317 40.83 39.0914 40.8176C41.9155 40.2062 44.1 39.7934 44.1 39.7934C46.9552 41.4838 46.773 41.3783 47.366 41.7072C48.4547 42.3124 48.4091 44.0886 46.355 44.0886C44.8079 44.0886 41.9444 44.3524 40.1976 44.6907L41.7385 43.2931L41.6888 43.2445C41.6888 43.2445 40.1666 44.3483 38.3556 45.2534L38.3546 45.2545C37.3746 45.6507 35.8958 46.2931 34.3694 46.9717L36.6201 44.8428L36.5694 44.79C36.5694 44.79 33.6946 47.1052 31.656 48.1872C30.4297 48.7407 29.3741 49.2238 28.7791 49.4969C27.9543 49.8724 27.3065 49.9779 26.3845 49.651C24.9191 49.1317 24.3489 48.9279 23.1061 48.4552C22.3827 48.181 22.3289 47.1621 23.0999 46.9169C23.4362 46.8083 24.3148 46.529 24.8984 46.3438C25.154 46.4555 25.4159 46.5714 25.6777 46.6852C26.0916 46.8683 26.5076 47.0483 26.8967 47.22C27.0913 47.3038 27.2796 47.3866 27.4576 47.4652C27.5021 47.4838 27.5456 47.5034 27.589 47.5221C27.6108 47.5303 27.6325 47.5407 27.6542 47.55L27.6842 47.5634L27.6853 47.5645H27.6894L27.6936 47.5666L27.708 47.5769C27.7939 47.6214 27.8498 47.6607 27.9119 47.7134C28.0309 47.8159 28.1106 47.9379 28.1551 48.0548C28.1986 48.1748 28.2079 48.2876 28.2017 48.3817C28.1986 48.4738 28.1789 48.5462 28.1665 48.5969C28.1499 48.6445 28.1427 48.6714 28.1427 48.6714L28.2224 48.7034C28.2224 48.7034 28.2337 48.6755 28.2544 48.6248C28.2731 48.5721 28.301 48.4955 28.3134 48.391C28.3258 48.2876 28.3269 48.1562 28.2865 48.0124C28.2462 47.8697 28.1613 47.7155 28.0309 47.5862C27.9688 47.5231 27.884 47.4559 27.8115 47.4093L27.796 47.401L27.7898 47.3959L27.7753 47.3876L27.7443 47.37C27.7246 47.3576 27.7039 47.3472 27.6832 47.3359C27.6418 47.3121 27.6004 47.2872 27.558 47.2634C27.3893 47.1662 27.2113 47.0648 27.0271 46.9593C26.6587 46.7483 26.2655 46.5248 25.8722 46.2993C25.0019 45.8017 24.1316 45.3052 23.5273 44.9576C23.5273 44.9576 23.5221 44.9545 23.519 44.9534C23.519 44.9534 26.5656 43.9955 30.4494 42.93L31.0734 43.2041L31.0941 43.1638L31.1044 43.1452L30.7391 42.8503L29.7777 42.0766L29.3007 41.9131L28.984 41.0441L28.5525 40.801L28.1303 38.8634L28.0609 38.8779L28.2379 40.9934L27.0313 41.67V38.8728L26.9567 38.8645L26.607 41.8138L24.9802 42.1314L25.5359 38.9245L25.4624 38.909L24.4679 42.1862L22.8722 42.2948L24.0292 38.8717L23.9598 38.8438L22.2585 42.3279H22.2554L20.6825 42.4334L22.5183 38.8231L22.4593 38.7869L19.9446 42.5048L18.2713 42.7676L20.9898 38.761L20.937 38.7186L16.3609 44.0338L16.1146 43.8693L20.2137 37.4431L26.49 35.0979C26.49 35.0979 26.9143 34.9138 27.1596 34.8083C27.2817 34.7555 27.4079 34.7059 27.5414 34.6355C27.6097 34.6045 27.6708 34.5641 27.737 34.5279C27.8001 34.4897 27.8622 34.4472 27.9233 34.4048C28.0433 34.3159 28.1582 34.2217 28.2596 34.1172L28.3362 34.0397C28.36 34.0128 28.3838 33.9859 28.4066 33.959C28.4552 33.9062 28.4966 33.8493 28.538 33.7945C28.5804 33.7397 28.6156 33.6807 28.6529 33.6269C28.687 33.57 28.7191 33.5131 28.7512 33.4593C28.7781 33.4014 28.805 33.3476 28.8309 33.2959C28.8547 33.241 28.8753 33.1872 28.8971 33.1376C28.9333 33.0352 28.9664 32.94 28.9861 32.8552C29.012 32.7703 29.0223 32.6917 29.0368 32.6297C29.0471 32.5676 29.0523 32.52 29.0575 32.4859C29.0616 32.4528 29.0637 32.4352 29.0637 32.4352L28.9902 32.4228C28.9902 32.4228 28.9861 32.4393 28.9788 32.4724C28.9716 32.5055 28.9623 32.5541 28.9468 32.6121C28.9292 32.67 28.9136 32.7414 28.8816 32.8221C28.8557 32.9028 28.8174 32.9917 28.775 33.0848C28.7512 33.1314 28.7253 33.179 28.7005 33.2286C28.6715 33.2772 28.6425 33.3259 28.6125 33.3786C28.5773 33.4272 28.5442 33.4769 28.5069 33.5266C28.4676 33.5752 28.4314 33.6269 28.3879 33.6734C28.3445 33.7231 28.3031 33.7717 28.2544 33.8162L28.183 33.8855L28.1075 33.9507C28.0061 34.0386 27.8933 34.1172 27.7784 34.1886C27.7205 34.2228 27.6604 34.2559 27.6015 34.2869C27.5394 34.3138 27.4814 34.3459 27.4193 34.3697C27.2982 34.4183 27.1668 34.4628 27.0406 34.5072C26.7901 34.5962 26.5563 34.681 26.3545 34.7524C26.1568 34.8238 25.9912 34.8817 25.8743 34.9241L25.4686 34.111L26.2862 33.3921L26.2489 33.3393L24.0695 34.6728L23.5573 33.6476L26.4993 31.469L26.4517 31.409L21.976 34.0831L21.5693 33.0031L25.7863 30.1883L25.7491 30.1303L20.3151 33.1138L20.0585 32.0969L24.6563 29.1776L24.6232 29.1186L18.9936 31.9862L18.8311 30.7862V30.7852L23.4745 28.2838L23.4455 28.2238L17.699 30.6197L17.6721 29.4476L22.3641 27.6155L22.3393 27.5452L16.6466 29.1021L16.7149 27.8214L21.0426 26.8303L21.0281 26.7621L15.4896 27.5214L15.6666 26.4155L19.7418 25.9779V25.9076L14.0491 26.0007L14.135 25.0666L18.6749 25.0355L18.679 24.9672L10.5244 24.3724L10.5109 24.2948L11.8324 23.8376L11.8304 23.7724L8.4516 22.4834L8.45988 22.4121L9.81139 22.3034L9.82381 22.2331L6.90761 20.4331L6.92313 20.3328L8.96695 20.4507L8.99076 20.3855L6.63958 18.18L6.66959 18.1097L7.77274 18.3217L7.80689 18.2669L6.70271 16.8776L6.01764 14.909L6.08697 14.8748L7.14459 16.2072L9.53509 17.58L9.58579 17.5334L8.0449 15.27L7.46539 12.7417L7.53783 12.7097L8.78379 14.579L11.197 16.5424L11.2447 16.4948L9.76689 13.8145L9.25878 10.5466L9.33846 10.5279L10.779 13.3128L13.8069 15.8255L13.8649 15.7779L11.7807 12.4355L11.3109 8.42586L11.3792 8.40517L12.6779 11.9597L16.9674 15.8203L22.3775 18.5897L28.3155 26.8366L30.6253 28.7834L30.6812 28.7297L29.6701 27.4117L29.6763 27.4107L29.6805 27.4097L29.6701 27.4107L32.0482 26.7983L32.0441 26.7238L29.9775 26.6038L29.9723 26.5345L33.0044 25.9934L32.9961 25.9262L29.2127 25.6386L29.2096 25.5662L34.0341 24.7583L35.9506 25.2114L35.9713 25.1452L34.1438 24.3041L31.1499 24.3714L31.1427 24.299L34.3373 23.6969L36.3169 24.3745L36.3438 24.3072L34.5474 23.1683L32.4249 23.0824L32.4238 23.0059L34.803 22.6376L36.882 23.6121L36.9203 23.551L35.2024 21.9393L33.3366 21.9321L33.3293 21.8555L35.6029 21.3476L37.6198 23.0048L37.6653 22.9572L36.1172 20.6907L34.4263 20.3741L34.4335 20.3038L36.5694 20.1755L38.4963 22.5197L38.5553 22.4803L37.1707 19.5631L35.3204 18.96L35.3349 18.8876L37.6923 19.08L39.4805 22.1566L39.5436 22.1276L38.3546 18.5183L36.0355 17.6907L36.0499 17.6183L38.8565 18.1231L40.4201 21.8338L40.4894 21.8131L39.4618 17.6741L36.9782 16.2662L37.0103 16.1969L39.9668 17.3214L41.3784 21.4676L41.4487 21.4521L40.565 16.9252L37.863 14.9555L37.9023 14.8934L41.0493 16.6169L42.2818 20.9793L42.3542 20.9648L41.5812 16.2941L38.7488 13.7803L38.7923 13.7255L42.1069 15.9848L43.0631 20.431L43.1304 20.4166L42.6471 15.691L39.822 12.6362L39.8706 12.5793L43.1428 15.3786L43.863 19.6831L43.9365 19.6779L43.6199 15.1531L40.9458 11.6617L40.9976 11.6141L44.1445 14.9038L44.6423 18.63L44.7106 18.6228L44.5502 14.6845L42.1069 10.9386L42.1618 10.8952L44.9931 14.4797L45.3698 17.1559L45.4422 17.1486L45.3108 14.2862L43.5723 10.4048L43.6333 10.3697L45.7899 14.0462L45.9907 15.5555L46.06 15.5483L46.1625 13.83L45.2622 10.1762L45.3305 10.1514L46.5692 13.2166H46.6385L47.4022 10.1545L47.4778 10.1721L47.2273 13.1845L47.2946 13.2072L49.3912 10.1917L49.4533 10.2279L48.0925 12.9507L48.1401 13.0003L51.3429 10.7141L51.3823 10.7721L46.4957 17.3597C46.4957 17.3597 44.9176 21.5855 44.4043 22.9966C44.3018 23.2759 44.1238 23.4569 43.8568 23.5686C43.7037 23.6297 39.8975 25.1503 39.8975 25.1503L38.8513 26.071L35.3587 26.4828L35.369 26.5624ZM30.0106 0C13.4365 0 0 13.4317 0 30C0 46.5693 13.4365 60 30.0106 60C46.5857 60 60.0212 46.5693 60.0212 30C60.0212 13.4317 46.5857 0 30.0106 0ZM34.4283 30.6921L35.0006 30.8152L34.8237 31.3728L34.8826 31.4059L35.7302 30.4303L35.6971 30.3745L34.4283 30.6248V30.6921ZM36.7878 33.1459L37.0734 33.2162L36.9761 33.4955L37.0341 33.5297L37.5018 33.0228L37.4708 32.9648L36.7909 33.0786L36.7878 33.1459ZM32.2262 42.6093C32.2552 42.6238 32.2831 42.6445 32.3131 42.6631C32.3431 42.6807 32.369 42.7066 32.4011 42.7272C32.428 42.7531 32.458 42.7759 32.4849 42.8038C32.4932 42.81 32.4994 42.8162 32.5066 42.8234C32.5263 42.8431 32.5449 42.8659 32.5677 42.8876C32.5905 42.9176 32.6163 42.9486 32.6381 42.9797C32.6619 43.0097 32.6794 43.0438 32.7012 43.0748C32.7177 43.1069 32.7395 43.1379 32.7519 43.171C32.7684 43.2021 32.7829 43.2321 32.7943 43.261C32.8078 43.2921 32.8171 43.3179 32.8254 43.3417C32.8357 43.3655 32.844 43.3872 32.8492 43.41C32.8616 43.4493 32.8709 43.4731 32.8709 43.4731H32.9402C32.9402 43.4731 32.9495 43.4524 32.963 43.4121C32.9702 43.3914 32.9775 43.3676 32.9806 43.3345C32.9858 43.3014 32.9909 43.2652 32.9889 43.2269C32.9878 43.2083 32.9878 43.1866 32.9878 43.1669C32.9847 43.1441 32.9816 43.1245 32.9785 43.1017C32.9733 43.0552 32.9568 43.0117 32.9423 42.9631C32.9226 42.9176 32.904 42.87 32.8761 42.8266C32.8605 42.7966 32.8399 42.7697 32.8192 42.7428L32.784 42.6983C32.7467 42.659 32.7105 42.6207 32.6681 42.5897C32.6277 42.5555 32.5822 42.5307 32.5408 42.5069C32.4952 42.4852 32.4518 42.4666 32.4083 42.4531C32.3876 42.4469 32.3669 42.4397 32.3462 42.4355C32.3338 42.4334 32.3214 42.4324 32.31 42.4303C32.3017 42.4283 32.2935 42.4283 32.2852 42.4262C32.249 42.4179 32.2127 42.4179 32.1817 42.42C32.1506 42.4179 32.1227 42.4221 32.102 42.4262C32.0575 42.4334 32.0337 42.4397 32.0337 42.4397L32.0285 42.5048V42.509C32.0285 42.509 32.0503 42.5214 32.0854 42.5359C32.1041 42.5431 32.1258 42.5555 32.1496 42.5669C32.1734 42.5793 32.1993 42.5938 32.2262 42.6093ZM34.9489 43.7028C34.8785 43.7255 34.7957 43.7472 34.7036 43.7741C34.5422 43.8197 34.3507 43.8745 34.1375 43.9407C33.9709 43.9893 33.7898 44.0441 33.5974 44.1031C33.5022 44.131 33.4038 44.161 33.3024 44.1921L32.9971 44.2966C32.5842 44.4383 32.1434 44.5903 31.7046 44.7434C31.4231 44.8428 31.1458 44.9483 30.8767 45.0507C30.7226 45.1097 30.5715 45.1676 30.4214 45.2245C30.2838 45.2762 30.1513 45.3279 30.023 45.3786C29.9588 45.4045 29.8957 45.4283 29.8347 45.4531C29.6898 45.509 29.5521 45.5679 29.4228 45.6217L29.3131 45.6683C29.1009 45.7531 28.9116 45.8348 28.7543 45.901C28.6725 45.9362 28.599 45.9683 28.5349 45.9941C28.3476 46.0759 28.241 46.1214 28.241 46.1214L28.2193 46.1317L28.2617 46.2362L28.2824 46.23C28.2824 46.23 28.3931 46.1917 28.5856 46.1234C28.6518 46.1007 28.7274 46.0728 28.8112 46.0428C28.9726 45.9859 29.1651 45.9176 29.3793 45.839L29.5397 45.7779C29.6567 45.7355 29.7798 45.69 29.9081 45.6445L30.0944 45.5793C30.2258 45.5328 30.3624 45.4852 30.5001 45.4324C30.648 45.3797 30.7981 45.3238 30.9513 45.269C31.2224 45.1676 31.5018 45.0641 31.7843 44.9679C32.222 44.8107 32.6598 44.6545 33.0706 44.5076C33.2672 44.4372 33.469 44.3638 33.6626 44.2997C33.8023 44.251 33.9368 44.2055 34.063 44.1621L34.1955 44.1166C34.4087 44.0452 34.596 43.9779 34.7554 43.921C34.8444 43.891 34.922 43.861 34.9923 43.8383L35.3131 43.7193L35.28 43.6107L34.9489 43.7028ZM29.1247 44.7155L29.3721 44.6328C29.6929 44.5314 30.0085 44.4259 30.3117 44.3214C30.4297 44.2821 30.5446 44.2428 30.6543 44.2045L30.7433 44.1734L31.1313 44.0441C31.2948 43.9914 31.4387 43.9407 31.5577 43.8993C31.6136 43.8776 31.6663 43.86 31.7108 43.8445C31.8516 43.7938 31.9302 43.7648 31.9302 43.7648L31.9509 43.7555L31.9188 43.6479L31.8981 43.6531C31.8981 43.6531 31.8143 43.6707 31.6705 43.7048L31.5566 43.7328C31.4252 43.7648 31.2617 43.8041 31.0754 43.8538L30.6791 43.9572C30.5808 43.9852 30.4794 44.0162 30.3738 44.0483L30.2413 44.0897C29.963 44.1745 29.6442 44.2769 29.2934 44.3917C29.0347 44.4776 28.7812 44.5686 28.5349 44.6565L28.3548 44.7207L28.2638 44.7538C28.0019 44.849 27.7556 44.94 27.5435 45.0238C27.4504 45.06 27.3645 45.0952 27.2858 45.1262L27.2217 45.1531L26.9733 45.2524C26.8377 45.3114 26.7591 45.3424 26.7591 45.3424L26.7384 45.3517L26.7777 45.4572C26.7777 45.4572 26.8791 45.4272 27.0209 45.3848C27.0716 45.3693 27.1275 45.3538 27.1906 45.3321L27.3717 45.2783C27.4462 45.2545 27.5249 45.2317 27.6066 45.2038C27.7556 45.1531 27.9212 45.1024 28.0982 45.0466C28.2048 45.0124 28.3165 44.9783 28.4314 44.941C28.6549 44.8686 28.8878 44.7921 29.1247 44.7155ZM34.0206 36.0766L34.0175 36.1438L34.3838 36.2348L34.2586 36.5907L34.3166 36.6259L34.9023 35.9948L34.8702 35.9359L34.0206 36.0766ZM33.3987 35.2034L34.15 34.0852L34.1106 34.0334L32.8316 34.4555L32.8388 34.5207L33.4483 34.5766L33.3355 35.1786L33.3987 35.2034ZM37.389 31.1555L36.5312 31.23L36.5239 31.2972L36.882 31.4162L36.7288 31.7617L36.7847 31.801L37.4159 31.2145L37.389 31.1555ZM33.3852 40.7369L31.6105 38.5707L31.5204 38.61L31.9758 41.19L32.9092 42.2721C32.9092 42.2721 32.9361 42.2855 32.9578 42.2969C32.9775 42.3041 32.9982 42.3155 33.023 42.3269C33.0448 42.3393 33.0717 42.3528 33.0986 42.3693C33.1265 42.3848 33.1555 42.4024 33.1845 42.4221C33.2145 42.4397 33.2414 42.4666 33.2724 42.4862C33.2993 42.5131 33.3314 42.5348 33.3573 42.5638C33.3863 42.5876 33.4121 42.6186 33.438 42.6476C33.4618 42.6786 33.4877 42.7066 33.5104 42.7386C33.5342 42.7697 33.5518 42.8028 33.5736 42.8338C33.5891 42.8669 33.6108 42.8969 33.6243 42.929C33.6398 42.96 33.6553 42.9921 33.6667 43.0221C33.6801 43.05 33.6884 43.0769 33.6977 43.0997C33.7071 43.1245 33.7164 43.1472 33.7215 43.169C33.7329 43.2093 33.7422 43.2321 33.7422 43.2321L33.8116 43.2331C33.8116 43.2331 33.823 43.2103 33.8354 43.171C33.8416 43.1514 33.8488 43.1255 33.853 43.0924C33.8571 43.0614 33.8623 43.0241 33.8602 42.9859V42.9238C33.8561 42.9052 33.854 42.8824 33.8509 42.8617C33.8447 42.8162 33.8281 42.7697 33.8147 42.7231C33.795 42.6786 33.7774 42.63 33.7484 42.5855C33.7236 42.539 33.6884 42.4986 33.6553 42.4562C33.6191 42.4179 33.5818 42.3797 33.5394 42.3497C33.5001 42.3155 33.4546 42.2907 33.4121 42.2648C33.3666 42.2462 33.3242 42.2245 33.2807 42.2131C33.259 42.2059 33.2383 42.1997 33.2186 42.1945H33.2134C33.2372 42.1872 33.2621 42.1821 33.2859 42.1769C33.4587 42.1324 33.6315 42.0879 33.8064 42.0445C33.8126 42.0466 33.8209 42.0507 33.8312 42.0538C33.8488 42.0621 33.8706 42.0724 33.8933 42.0869C33.9171 42.0983 33.943 42.1117 33.9709 42.1283C33.9989 42.1428 34.0268 42.1614 34.0558 42.181C34.0868 42.1976 34.1137 42.2255 34.1438 42.2462C34.1717 42.271 34.2027 42.2928 34.2297 42.3217C34.2586 42.3476 34.2835 42.3776 34.3104 42.4055C34.3342 42.4366 34.36 42.4666 34.3818 42.4976C34.4056 42.5276 34.4242 42.5628 34.4449 42.5938C34.4615 42.6259 34.4832 42.6559 34.4966 42.69C34.5122 42.719 34.5267 42.75 34.538 42.78C34.5515 42.81 34.5598 42.8348 34.5701 42.8597C34.5794 42.8824 34.5877 42.9072 34.5939 42.9269C34.6053 42.9683 34.6146 42.9921 34.6146 42.9921H34.685C34.685 42.9921 34.6943 42.9683 34.7078 42.929C34.715 42.9093 34.7212 42.8845 34.7253 42.8524C34.7295 42.8214 34.7347 42.7831 34.7326 42.7448C34.7326 42.7252 34.7326 42.7045 34.7316 42.6848C34.7284 42.6631 34.7253 42.6424 34.7222 42.6197C34.7171 42.5741 34.7005 42.5297 34.6871 42.481C34.6674 42.4366 34.6488 42.389 34.6198 42.3455C34.596 42.299 34.5618 42.2576 34.5277 42.2162C34.4915 42.1779 34.4542 42.1386 34.4118 42.1086C34.3725 42.0745 34.3269 42.0486 34.2845 42.0238C34.239 42.0041 34.1955 41.9834 34.152 41.971C34.1438 41.969 34.1344 41.9659 34.1262 41.9638C34.6115 41.8428 35.102 41.7228 35.5915 41.6079L34.0041 40.7255L33.3852 40.7369ZM36.348 29.2624L36.7899 29.4538L36.5581 29.8748L36.6098 29.9193L37.4604 29.2593L37.4387 29.1983L36.3625 29.1972L36.348 29.2624ZM20.7425 19.441L18.7297 20.4693L18.62 19.8734L18.5227 19.8828L18.5145 20.8717L18.591 20.909L20.7911 19.5207L20.7425 19.441ZM22.6683 21.8721L19.8525 23.3959L19.7428 22.8L19.6549 22.8093L19.6373 23.7983L19.7149 23.8417L22.718 21.9497L22.6683 21.8721ZM21.7494 20.6255L19.0888 22.0345L18.9801 21.4397L18.886 21.451L18.8735 22.4379L18.947 22.4762L21.7991 20.7052L21.7494 20.6255ZM25.9095 25.4845L23.8988 26.5107L23.788 25.9262L23.699 25.9386L23.6835 26.9141L23.7539 26.9514L25.9581 25.5652L25.9095 25.4845ZM24.8156 24.2886L22.3879 25.5507L22.2782 24.9538L22.184 24.9672L22.1716 25.951L22.243 25.9955L24.8664 24.3683L24.8156 24.2886ZM23.7291 23.1176L20.9733 24.5555L20.8636 23.9586L20.7673 23.9679L20.758 24.959L20.8367 24.9972L23.7777 23.1952L23.7291 23.1176ZM17.2002 21.5948L17.2292 21.4831L11.0387 19.7834L8.2498 17.5179L8.1753 17.5914L10.7562 20.2055L17.2002 21.5948ZM17.3741 20.3338L17.4123 20.2221L12.1708 18.5286L9.58165 16.0966L9.50507 16.1803L11.8293 18.9228L17.3741 20.3338ZM34.1262 28.8186L34.568 29.0121L34.3342 29.4321L34.3859 29.4766L35.2386 28.8197L35.2179 28.7576L34.1407 28.7524L34.1262 28.8186ZM11.0346 22.8517L13.3175 23.5169L17.8304 23.9307L17.8449 23.8117L11.0594 22.74L11.0346 22.8517ZM11.6224 15.0734L11.5386 15.1397L13.4354 17.7486L18.0188 19.2693L18.0612 19.1576L13.8162 17.4093L11.6224 15.0734ZM26.8222 26.7403L25.3807 27.4252L25.272 26.881L25.1809 26.8841L25.1654 27.8276L25.2472 27.8638L26.8719 26.8179L26.8222 26.7403ZM17.283 22.6055L8.70721 20.8376L8.67409 20.9472L10.9 21.7603L17.2582 22.7266L17.283 22.6055ZM19.8028 18.6714L19.8567 18.5638L15.8901 16.6593L13.4747 13.4462L13.3858 13.5093L15.5434 17.0276L19.8028 18.6714ZM36.5591 43.3138C36.5591 43.3138 36.6005 43.3086 36.674 43.2983C36.6978 43.2952 36.7236 43.291 36.7536 43.2848C36.8157 43.2755 36.8902 43.2641 36.973 43.2497C37.1138 43.2238 37.2555 43.1959 37.3942 43.1659C37.5236 43.1379 37.6602 43.1069 37.7988 43.0748L37.8837 43.0552C38.04 43.0221 38.2014 42.9859 38.3494 42.9497C38.5129 42.9103 38.6516 42.8741 38.7623 42.8421C38.8409 42.8214 38.9113 42.7997 38.9703 42.781C39.0013 42.7728 39.0293 42.7634 39.0541 42.7562C39.1245 42.7345 39.1638 42.721 39.1638 42.721L39.1824 42.7128L39.1617 42.6072H39.141C39.141 42.6072 39.0986 42.6093 39.0251 42.6186C39.0003 42.6217 38.9703 42.6259 38.9382 42.63C38.8772 42.6383 38.8037 42.6466 38.723 42.6579C38.5998 42.6766 38.457 42.6993 38.2987 42.7293C38.1455 42.7552 37.9789 42.7903 37.8164 42.8245C37.5225 42.8948 37.1986 42.9838 36.9296 43.0686C36.8426 43.0945 36.7681 43.1214 36.706 43.141L36.6408 43.1638C36.5715 43.1865 36.5312 43.2021 36.5312 43.2021L36.5125 43.2103L36.5384 43.3159L36.5591 43.3138ZM40.1904 41.701C40.1904 41.701 40.2432 41.6979 40.3373 41.6845C40.3663 41.6814 40.3994 41.6762 40.4367 41.6721C40.5153 41.6628 40.6116 41.6524 40.7181 41.6348C41.0659 41.5852 41.485 41.5169 41.872 41.4434L41.9693 41.4238C42.1452 41.3897 42.3191 41.3566 42.4826 41.3193C42.5664 41.3028 42.6471 41.2852 42.7247 41.2697C42.8292 41.249 42.9275 41.2283 43.0165 41.2076C43.1211 41.1848 43.2142 41.1621 43.2908 41.1434L43.3922 41.1197C43.4833 41.0979 43.534 41.0824 43.534 41.0824L43.5547 41.0772L43.536 40.9686L43.5143 40.9697C43.5143 40.9697 43.4615 40.9728 43.3684 40.9831L43.2773 40.9924C43.1966 41.0017 43.0973 41.0121 42.9845 41.0255L42.9524 41.0297C42.8003 41.0503 42.6285 41.0721 42.4453 41.1021C42.2528 41.1352 42.0448 41.1734 41.8441 41.2097L41.8296 41.2138C41.4519 41.2841 41.0338 41.3721 40.684 41.4548C40.5836 41.4797 40.4946 41.5014 40.4201 41.521C40.3787 41.5324 40.3425 41.5417 40.3094 41.549C40.2183 41.5728 40.1676 41.5872 40.1676 41.5872L40.1479 41.5935L40.1697 41.7031L40.1904 41.701ZM37.0682 41.369C37.091 41.3834 37.1169 41.3969 37.1448 41.4124C37.1717 41.4279 37.1997 41.4476 37.2286 41.4672C37.2586 41.4859 37.2845 41.5148 37.3156 41.5334C37.329 41.5479 37.3435 41.5614 37.359 41.5738C37.3725 41.5852 37.387 41.5976 37.3994 41.6131C37.4273 41.6379 37.4511 41.669 37.478 41.699C37.5008 41.729 37.5277 41.7579 37.5474 41.791C37.5701 41.8221 37.5888 41.8562 37.6084 41.8872C37.625 41.9214 37.6457 41.9534 37.6581 41.9845C37.6736 42.0155 37.6871 42.0466 37.6985 42.0766C37.7098 42.1066 37.7192 42.1334 37.7285 42.1562C37.7368 42.18 37.7461 42.2038 37.7502 42.2245C37.7606 42.2659 37.7699 42.2907 37.7699 42.2907L37.8392 42.2928C37.8392 42.2928 37.8495 42.269 37.864 42.2297C37.8713 42.21 37.8785 42.1841 37.8827 42.1521C37.8889 42.121 37.8951 42.0848 37.893 42.0455C37.894 42.0259 37.894 42.0052 37.894 41.9845C37.8909 41.9638 37.8878 41.941 37.8858 41.9193C37.8816 41.8748 37.8661 41.8303 37.8527 41.7817C37.834 41.7372 37.8164 41.6886 37.7895 41.6441C37.7647 41.5955 37.7326 41.5552 37.6995 41.5128C37.6923 41.5045 37.685 41.4962 37.6767 41.4879C37.6488 41.4569 37.6188 41.4279 37.5857 41.4021C37.5463 41.3679 37.5018 41.341 37.4604 41.3162C37.4159 41.2945 37.3725 41.2728 37.329 41.2603C37.3083 41.2541 37.2876 41.2459 37.2669 41.2407C37.2504 41.2376 37.2338 41.2345 37.2173 41.2324H37.2162C37.2131 41.2314 37.21 41.2303 37.21 41.2303C37.1707 41.2231 37.1345 41.2231 37.1034 41.2221C37.0724 41.22 37.0455 41.2231 37.0237 41.2272C36.9792 41.2324 36.9544 41.2376 36.9544 41.2376L36.9503 41.2924H36.9492L36.9482 41.3079C36.9482 41.3079 36.9699 41.3193 37.0061 41.3369C37.0237 41.3452 37.0434 41.3566 37.0682 41.369ZM40.3849 30.9621C40.3891 30.9817 40.3963 31.0024 40.4015 31.021C40.4077 31.0407 40.4108 31.0593 40.4191 31.0748C40.4294 31.0914 40.4367 31.1048 40.4449 31.1193C40.4532 31.1328 40.4605 31.1452 40.4677 31.1555C40.476 31.1669 40.4863 31.1752 40.4936 31.1834C40.5246 31.2145 40.5443 31.229 40.5443 31.229L40.5867 31.1979C40.5867 31.1979 40.5847 31.1741 40.5774 31.14C40.5753 31.1307 40.5743 31.1203 40.5733 31.11C40.5733 31.0986 40.5722 31.0872 40.5722 31.0759C40.5712 31.0531 40.5712 31.0283 40.5753 31.0003C40.5774 30.9724 40.5867 30.9455 40.594 30.9176C40.596 30.9041 40.6022 30.8897 40.6105 30.8783C40.6188 30.8638 40.6209 30.8493 40.6291 30.8369C40.6478 30.811 40.6623 30.7841 40.6788 30.7697C40.6861 30.7603 40.6902 30.7531 40.7109 30.7366L40.7368 30.7148L40.7492 30.7055L40.7513 30.7045C40.7792 30.69 40.8009 30.6693 40.8309 30.6631C40.8589 30.6476 40.8879 30.6445 40.9168 30.6362C40.9324 30.6331 40.9458 30.6362 40.9613 30.6331C40.9758 30.63 40.9913 30.629 41.0058 30.6321C41.0183 30.6331 41.0327 30.6352 41.0327 30.6352C41.0607 30.6362 41.0731 30.6403 41.0865 30.6434C41.1145 30.6486 41.1342 30.6548 41.1548 30.6631C41.1652 30.6662 41.1735 30.6703 41.1838 30.6734C41.1952 30.6786 41.2035 30.6848 41.2128 30.69C41.2459 30.7117 41.2666 30.7221 41.2666 30.7221L41.3204 30.6755C41.3204 30.6755 41.3132 30.6538 41.2966 30.6176C41.2925 30.6062 41.2883 30.5979 41.2821 30.5866C41.2739 30.5762 41.2645 30.5638 41.2532 30.5503C41.2418 30.539 41.2294 30.5234 41.2169 30.51C41.2035 30.4966 41.1869 30.4883 41.1704 30.4748C41.1538 30.4634 41.1373 30.451 41.1176 30.4397C41.099 30.4303 41.0772 30.4231 41.0555 30.4138C41.0327 30.4055 41.0089 30.3983 40.9841 30.3952C40.9593 30.391 40.9344 30.3859 40.9075 30.3848C40.8547 30.3869 40.7999 30.389 40.7471 30.4076C40.6912 30.42 40.6436 30.4531 40.5929 30.48L40.5795 30.4934L40.5774 30.4945L40.5712 30.4997L40.5588 30.511L40.5339 30.5338C40.5195 30.5441 40.4998 30.571 40.4801 30.5959C40.4377 30.6476 40.4211 30.6983 40.4015 30.7469C40.3901 30.7966 40.3777 30.8472 40.3818 30.8938C40.3829 30.9166 40.3829 30.9393 40.3849 30.9621ZM40.507 28.9531L40.5132 28.9748L40.5164 28.9945L40.5402 29.0462C40.5474 29.071 40.5753 29.1124 40.6002 29.1434C40.6147 29.161 40.6281 29.1766 40.6416 29.1869C40.654 29.2014 40.6685 29.2128 40.683 29.2231C40.7068 29.2438 40.7316 29.2562 40.7564 29.2697L40.7823 29.2841C40.8496 29.31 40.9137 29.3245 40.9727 29.3245C40.9727 29.3245 40.9924 29.3224 41.0089 29.3214C41.0431 29.3183 41.0793 29.3162 41.1114 29.3028L41.159 29.2883L41.1724 29.2831L41.1952 29.2717L41.2087 29.2614C41.2428 29.2448 41.3266 29.1807 41.3535 29.1341C41.3877 29.0907 41.4115 29.04 41.426 28.9769L41.4301 28.9583C41.4343 28.9417 41.4384 28.9221 41.4384 28.9014C41.4374 28.8797 41.4363 28.86 41.4363 28.8393C41.4332 28.8083 41.4239 28.7803 41.4167 28.7586L41.4094 28.7348C41.3846 28.6852 41.367 28.6624 41.367 28.6624L41.3546 28.6448L41.2728 28.6759L41.2708 28.6914C41.2708 28.6914 41.2666 28.7214 41.2676 28.7555C41.2656 28.7638 41.2635 28.7721 41.2614 28.7803C41.2594 28.7938 41.2563 28.8093 41.2501 28.8238C41.247 28.8341 41.2407 28.8466 41.2356 28.859C41.2325 28.8662 41.2273 28.8734 41.2231 28.8807L41.2128 28.8993C41.2107 28.9024 41.2056 28.9086 41.2004 28.9138C41.1952 28.9179 41.1921 28.9231 41.1859 28.9293C41.1807 28.9386 41.1673 28.9469 41.1548 28.9562C41.1497 28.9634 41.1424 28.9666 41.129 28.9728L41.1145 28.981L41.1114 28.9831L41.0783 28.9966C41.0607 29.0028 41.0338 29.0069 40.9976 29.0069H40.9955C40.9717 29.0059 40.9448 28.9997 40.9179 28.9893C40.9106 28.9852 40.9023 28.981 40.8951 28.9759C40.8879 28.9728 40.8816 28.9697 40.8816 28.9697C40.8744 28.9614 40.8661 28.9552 40.8578 28.95C40.8547 28.9479 40.8506 28.9469 40.8496 28.9448C40.8454 28.9376 40.8403 28.9324 40.8361 28.9293C40.8309 28.9252 40.8278 28.9221 40.8206 28.9076L40.8009 28.8755L40.7989 28.8683L40.7978 28.8652C40.7916 28.8538 40.7864 28.8393 40.7833 28.8186C40.7802 28.8083 40.7771 28.7959 40.7782 28.7845L40.7771 28.7721C40.7771 28.7638 40.7771 28.7534 40.7792 28.7441C40.7802 28.7379 40.7813 28.7307 40.7813 28.7245C40.7823 28.7172 40.7823 28.71 40.7854 28.7038C40.7875 28.6976 40.7906 28.6893 40.7927 28.6821C40.7947 28.6759 40.7968 28.6686 40.7968 28.6655L40.8144 28.6303C40.8206 28.62 40.8268 28.6107 40.832 28.6014C40.8382 28.5941 40.8434 28.5848 40.8423 28.5828C40.8806 28.5528 40.8992 28.5321 40.8992 28.5321L40.9117 28.5186L40.863 28.4224L40.8444 28.4255C40.8444 28.4255 40.8175 28.4286 40.7637 28.44L40.7451 28.4493C40.7223 28.4597 40.6933 28.4731 40.6674 28.4948C40.6519 28.5083 40.6354 28.5207 40.6188 28.5362C40.6064 28.5466 40.5971 28.56 40.5878 28.5734C40.5826 28.5797 40.5774 28.5869 40.5712 28.5962C40.5339 28.6521 40.5132 28.7028 40.506 28.7524C40.4957 28.7855 40.4946 28.8186 40.4946 28.8486C40.4925 28.8797 40.4988 28.9097 40.5039 28.9397L40.507 28.9531ZM42.9472 30.4862C42.9607 30.4997 42.971 30.5152 42.9834 30.5317C42.9958 30.5452 43.0052 30.5617 43.0165 30.5793C43.0372 30.6114 43.0569 30.6455 43.0714 30.6817C43.0879 30.7169 43.1014 30.7552 43.1107 30.7934C43.12 30.8307 43.1273 30.869 43.1293 30.9093C43.1324 30.929 43.1314 30.9486 43.1324 30.9683C43.1335 30.989 43.1304 31.0097 43.1293 31.0283C43.1242 31.0676 43.1159 31.1059 43.1045 31.1441C43.0993 31.1638 43.0921 31.1814 43.0838 31.1979L43.0569 31.2559L43.1159 31.289L43.15 31.2352C43.1604 31.2145 43.1718 31.1928 43.18 31.1731C43.1976 31.1307 43.2101 31.0872 43.2204 31.0417C43.2235 31.02 43.2297 30.9983 43.2318 30.9745C43.2339 30.9528 43.237 30.929 43.2359 30.9062C43.238 30.8607 43.2349 30.8141 43.2287 30.7697C43.2225 30.7241 43.2132 30.6797 43.1987 30.6362C43.1852 30.5917 43.1687 30.5472 43.148 30.5059C43.1366 30.4862 43.1273 30.4645 43.1149 30.4459C43.1024 30.4252 43.0921 30.4055 43.0776 30.3859C43.0517 30.3476 43.0217 30.3114 42.9907 30.2772L42.9865 30.271C42.7082 30.0083 42.4267 29.7497 42.1514 29.4838L41.9496 29.7228C42.2601 29.9483 42.5633 30.18 42.8706 30.4076C42.8975 30.4324 42.9234 30.4583 42.9472 30.4862ZM28.0382 30.4324L28.0092 30.2121L27.9223 30.2069L27.8271 30.779L27.9036 30.8245L28.9685 30.0797L28.9198 30.0031L28.0382 30.4324ZM27.6346 27.9197L26.6152 28.3666L26.5242 27.9538H26.4362L26.3979 28.74L26.4693 28.7803L27.6791 27.9931L27.6346 27.9197ZM28.2731 31.619L28.2534 31.4038L28.1665 31.3966L28.0702 31.9676L28.1365 32.0183L28.9136 31.4545L28.866 31.379L28.2731 31.619ZM28.775 28.8176L27.5332 29.3679L27.4918 29.0162L27.4048 29.009L27.321 29.7269L27.3914 29.7776L28.8246 28.8983L28.775 28.8176ZM42.7527 41.941C42.6078 41.9617 42.4619 41.9845 42.3191 42.0062C42.1711 42.0279 42.0262 42.0548 41.8989 42.0786C41.8182 42.0921 41.7395 42.1086 41.664 42.1252C41.6112 42.1345 41.5595 42.1448 41.5088 42.1541L41.3515 42.1852C41.2842 42.1976 41.2211 42.2121 41.16 42.2224C41.0203 42.2503 40.8961 42.2772 40.7916 42.301C40.7337 42.3114 40.683 42.3228 40.6374 42.3331L40.418 42.3838L40.4377 42.4934L40.6602 42.4686C40.7068 42.4624 40.7606 42.4562 40.8216 42.4479C40.9261 42.4366 41.0514 42.4221 41.19 42.4014C41.2987 42.3869 41.4167 42.3693 41.5419 42.3517L41.6371 42.3393C41.7333 42.3248 41.8337 42.3114 41.9351 42.2969C42.1028 42.2679 42.2725 42.2462 42.4515 42.2203C42.5633 42.2059 42.6761 42.1893 42.7889 42.1748C42.9027 42.1562 43.0165 42.1397 43.1283 42.1231L43.2214 42.1086L43.6406 42.0445C43.8237 42.0166 43.9965 41.9897 44.158 41.9617C44.2366 41.9493 44.3122 41.9369 44.3836 41.9255C44.5088 41.9069 44.6206 41.8862 44.7178 41.8697C44.7903 41.8562 44.8544 41.8448 44.9093 41.8355L45.1297 41.7962L45.1162 41.6845L45.0945 41.6866C45.0945 41.6866 45.0221 41.6886 44.8927 41.699L44.8286 41.7021C44.7023 41.7103 44.545 41.7217 44.3598 41.7434C44.2801 41.7507 44.1952 41.759 44.1062 41.7683C43.9479 41.7838 43.7834 41.8003 43.6095 41.8221L43.1883 41.8779C43.1066 41.8903 42.7527 41.941 42.7527 41.941ZM24.3489 37.0634L24.3355 37.1307L24.6056 37.2476L24.4628 37.5041L24.5145 37.5486L25.0599 37.1266L25.0381 37.0645L24.3489 37.0634ZM25.6508 48.1231L24.6759 47.6928L25.6218 47.1962L25.5959 47.1321L24.1689 47.5283C24.1109 47.5448 24.0612 47.5883 24.0426 47.6493C24.0105 47.7466 24.0643 47.851 24.1616 47.8821L24.1782 47.8872L25.568 48.3341C25.8008 48.4055 26.0316 48.4872 26.2634 48.5659L26.9588 48.8048L26.9836 48.7397L26.3193 48.4293C26.0968 48.3259 25.8764 48.2214 25.6508 48.1231ZM26.2862 37.0634L26.2737 37.1307L26.5438 37.2476L26.401 37.5041L26.4528 37.5486L26.9981 37.1266L26.9764 37.0645L26.2862 37.0634Z" fill="#EC1A2E"/>
</svg>
