<svg width="304" height="88" viewBox="0 0 304 88" fill="none" xmlns="http://www.w3.org/2000/svg">
<path fill-rule="evenodd" clip-rule="evenodd" d="M0.0918955 41.1468C1.51968 18.946 19.491 1.22337 41.8668 0.0608965H46.551C69.8789 1.27277 88.4187 20.4819 88.4187 44.0001C88.4187 68.3017 68.6256 88 44.2088 88C20.7567 88 1.56917 69.8251 0.0918955 46.8535V41.1468Z" fill="white"/>
<path fill-rule="evenodd" clip-rule="evenodd" d="M44.5255 47.2741L45.1901 47.4091L44.9919 48.057L45.0788 48.104L46.0651 46.9479L46.0164 46.866L44.5255 47.174V47.2741ZM44.6352 45.4473L44.7206 45.4989L45.5819 44.5704L45.5362 44.4869L44.2831 44.6918L44.28 44.7919L44.8197 44.9254L44.6352 45.4473ZM41.7845 52.7119L40.7693 52.7104L40.7464 52.809L41.1458 52.9789L40.9354 53.3567L41.0117 53.4219L41.815 52.8044L41.7845 52.7119ZM43.9416 51.0232L42.6718 51.0626L42.655 51.1628L43.1733 51.3646L42.9202 51.8592L42.998 51.9214L43.9736 51.1127L43.9416 51.0232ZM44.9676 49.9111L45.6703 50.0097L45.5026 50.6955L45.5941 50.7395L46.5484 49.4771L46.4935 49.3982L44.9615 49.8109L44.9676 49.9111ZM41.6001 54.9392L41.5788 55.0363L41.9766 55.2108L41.7678 55.587L41.844 55.6523L42.6459 55.0333L42.6154 54.9407L41.6001 54.9392ZM47.9326 55.0272L48.617 54.2777L48.5698 54.1942L47.5698 54.3657L47.5667 54.4643L47.9859 54.5675L47.8472 54.9741L47.9326 55.0272ZM48.4341 48.6396L49.5988 47.0404L49.5439 46.96L47.6384 47.5108L47.646 47.6124L48.5408 47.7217L48.3442 48.5971L48.4341 48.6396ZM44.7587 53.1716L43.4904 53.1686L43.469 53.2657L43.9797 53.4857L43.7099 53.9712L43.7861 54.0364L44.7907 53.2626L44.7587 53.1716ZM47.0941 44.5158L47.9646 44.7479L47.6475 45.5884L47.7329 45.6416L49.1064 44.2184L49.0622 44.1304L47.0987 44.4171L47.0941 44.5158ZM46.5042 53.2535L47.5316 52.0488L47.4829 51.9654L45.9295 52.2886V52.3887L46.6231 52.5298L46.4173 53.205L46.5042 53.2535ZM49.6872 41.0777L49.7634 41.1429L50.5637 40.5224L50.5332 40.4314H49.518L49.4982 40.5285L49.896 40.6999L49.6872 41.0777ZM46.9219 42.7694L46.9966 42.8347L48.2496 41.8667L48.2192 41.7756L46.6322 41.7741L46.6124 41.8727L47.2633 42.1519L46.9219 42.7694ZM52.1354 50.5968L52.1308 50.6955L52.6705 50.829L52.4876 51.3524L52.5729 51.4025L53.4342 50.4755L53.3885 50.392L52.1354 50.5968ZM55.9221 41.6982L55.9983 41.7635L56.8002 41.1429L56.7697 41.0534H55.7544L55.7346 41.149L56.1325 41.3205L55.9221 41.6982ZM45.7892 55.1334H44.7724L44.7526 55.229L45.1505 55.4019L44.9401 55.7797L45.0163 55.845L45.8212 55.2244L45.7892 55.1334ZM53.0745 41.2325L53.1507 41.2977L54.1522 40.5224L54.1217 40.4314H52.8519L52.8305 40.5285L53.3428 40.7485L53.0745 41.2325ZM51.1278 47.9569L51.8244 48.0889L51.6278 48.7686L51.7162 48.8126L52.7254 47.5942L52.6735 47.5123L51.1262 47.8582L51.1278 47.9569ZM52.1019 38.9581L57.2666 38.9672C57.2666 38.9672 58.8978 39.5771 61.0396 40.4359C62.0228 40.8304 62.5473 41.7134 62.4634 42.7209C62.4634 42.7209 63.3095 43.5644 63.7805 44.097C64.3415 44.7433 64.404 45.6385 63.9634 46.2242C63.5259 46.7977 62.9009 46.9403 62.6418 46.9782L62.5899 46.8811C62.9299 46.5428 62.7912 45.9981 62.4908 45.5657C62.1768 45.1151 61.8948 45.0331 61.5731 45.2273C61.4298 45.3153 61.2469 45.4489 61.2469 45.4489L62.0518 46.7264L62.0213 46.8159C61.3841 46.9934 60.5015 46.8508 60.0884 46.3319C60.0701 46.3319 60.07 46.3319 56.1111 46.3304L56.105 46.4351L58.32 46.8326L58.3856 46.9873L50.7924 55.8738L50.864 55.9421L53.4495 53.6419L53.454 55.6493L53.2162 56.2531L53.4586 57.6611L53.3732 58.2604L55.7392 60.2692C55.7392 60.2692 55.7773 60.2874 55.8047 60.2996C55.8306 60.3117 55.8611 60.3284 55.8962 60.3481C55.9312 60.3663 55.9693 60.3876 56.009 60.4119C56.0501 60.4346 56.0898 60.465 56.1325 60.4938C56.1782 60.5211 56.2163 60.5606 56.2605 60.5909C56.3017 60.6288 56.3444 60.6622 56.384 60.7047C56.4267 60.7426 56.4617 60.7866 56.5014 60.8291C56.5349 60.8761 56.573 60.9186 56.602 60.9672C56.6386 61.0127 56.663 61.0628 56.6934 61.1083C56.7163 61.1583 56.7468 61.2023 56.7651 61.2494C56.788 61.2979 56.8078 61.3434 56.8246 61.3859C56.8444 61.4299 56.8566 61.4694 56.8688 61.5028C56.8825 61.5392 56.8947 61.5725 56.9008 61.6044C56.9175 61.6651 56.9297 61.697 56.9297 61.697L57.0319 61.7015C57.0319 61.7015 57.0471 61.6681 57.0685 61.6105C57.0791 61.5816 57.0913 61.5452 57.0974 61.4982C57.1066 61.4512 57.1142 61.3981 57.1111 61.3419C57.1127 61.3116 57.1127 61.2828 57.1127 61.2509C57.1096 61.2221 57.1035 61.1887 57.102 61.1583C57.0944 61.0916 57.0715 61.0248 57.0532 60.9535C57.0258 60.8883 56.9999 60.8139 56.9587 60.7502C56.9236 60.6819 56.8733 60.6212 56.8261 60.5575C56.7727 60.5014 56.7209 60.4437 56.6599 60.3982C56.602 60.3451 56.5364 60.3072 56.4739 60.2708C56.4084 60.2389 56.3444 60.2085 56.2819 60.1888C56.2575 60.1797 56.2331 60.1706 56.2087 60.1661C56.5059 60.0993 56.8002 60.0341 57.0913 59.9703C57.0913 59.9703 57.0944 59.9719 57.0959 59.9734C57.1218 59.984 57.1538 60.0022 57.1874 60.0219C57.2239 60.0386 57.2605 60.0599 57.3002 60.0872C57.3413 60.1069 57.3825 60.1388 57.4236 60.1661C57.4694 60.1919 57.5075 60.2328 57.5517 60.2632C57.5929 60.3011 57.6371 60.336 57.6767 60.3785C57.7179 60.4164 57.7529 60.4619 57.7926 60.5014C57.8261 60.5484 57.8642 60.5924 57.8947 60.6394C57.9298 60.685 57.9541 60.735 57.9846 60.7821C58.0075 60.8321 58.0395 60.8761 58.0563 60.9232C58.0807 60.9702 58.1005 61.0157 58.1173 61.0582C58.134 61.1022 58.1478 61.1401 58.16 61.1765C58.1737 61.2114 58.1859 61.2448 58.1935 61.2767C58.2072 61.3359 58.2209 61.3708 58.2209 61.3708L58.3246 61.3753C58.3246 61.3753 58.3398 61.3419 58.3596 61.2828C58.3718 61.2539 58.3825 61.219 58.3871 61.1705C58.3978 61.1234 58.4054 61.0688 58.4023 61.0127C58.4023 60.9839 58.4039 60.9565 58.4039 60.9232C58.4008 60.8943 58.3962 60.861 58.3917 60.8291C58.3856 60.7639 58.3627 60.6986 58.3444 60.6258C58.317 60.5605 58.291 60.4877 58.2499 60.4225C58.2148 60.3542 58.166 60.2935 58.1188 60.2313C58.0654 60.1752 58.0121 60.116 57.9511 60.0705C57.8932 60.0189 57.8261 59.981 57.7651 59.943C57.7041 59.9127 57.6447 59.8839 57.5852 59.8657C61.7454 58.969 64.9635 58.3636 64.9635 58.3636C69.1694 60.8428 68.9011 60.688 69.7746 61.1705C71.3783 62.0581 71.3112 64.6632 68.2852 64.6632C66.0062 64.6632 61.7881 65.05 59.2149 65.5462L61.4847 63.4964L61.4116 63.4251C61.4116 63.4251 59.1691 65.044 56.5014 66.3716L56.4998 66.3731C55.0562 66.9542 52.8778 67.8964 50.6293 68.8917L53.9449 65.7692L53.8702 65.6918C53.8702 65.6918 49.6353 69.0874 46.6322 70.6745C44.8258 71.4862 43.2709 72.1947 42.3943 72.5953C41.1794 73.146 40.2251 73.3008 38.8668 72.8213C36.7082 72.0597 35.8682 71.7608 34.0374 71.0674C32.9718 70.6654 32.8926 69.1709 34.0283 68.8113C34.5237 68.652 35.8179 68.2423 36.6777 67.9707C37.0543 68.1346 37.4399 68.3045 37.8256 68.4714C38.4354 68.74 39.0482 69.004 39.6214 69.2558C39.908 69.3787 40.1854 69.5001 40.4476 69.6154C40.5132 69.6427 40.5772 69.6716 40.6412 69.6989C40.6732 69.711 40.7053 69.7262 40.7373 69.7398L40.7815 69.7596L40.783 69.7611H40.7891L40.7952 69.7641L40.8165 69.7793C40.9431 69.8445 41.0254 69.9022 41.1168 69.9796C41.2922 70.1298 41.4095 70.3088 41.4751 70.4802C41.5391 70.6562 41.5528 70.8216 41.5437 70.9597C41.5391 71.0947 41.5102 71.2009 41.4919 71.2753C41.4675 71.3451 41.4568 71.3845 41.4568 71.3845L41.5742 71.4316C41.5742 71.4316 41.5909 71.3906 41.6214 71.3162C41.6489 71.2389 41.69 71.1266 41.7083 70.9734C41.7266 70.8216 41.7281 70.6289 41.6687 70.418C41.6092 70.2087 41.4842 69.9826 41.2922 69.7929C41.2007 69.7004 41.0757 69.6018 40.969 69.5335L40.9461 69.5214L40.937 69.5138L40.9156 69.5016L40.8699 69.4758C40.8409 69.4576 40.8104 69.4425 40.78 69.4258C40.719 69.3909 40.658 69.3545 40.5955 69.3196C40.347 69.1769 40.0848 69.0283 39.8135 68.8735C39.2708 68.564 38.6915 68.2363 38.1122 67.9055C36.8302 67.1757 35.5481 66.4474 34.6579 65.9376C34.6579 65.9376 34.6502 65.9331 34.6457 65.9316C34.6457 65.9316 39.1336 64.5266 44.8547 62.9639L45.774 63.3659L45.8045 63.3067L45.8197 63.2794L45.2816 62.847L43.8654 61.7121L43.1626 61.4724L42.6962 60.1979L42.0605 59.8414L41.4385 56.9996L41.3364 57.0208L41.597 60.1236L39.8196 61.1159V57.0132L39.7098 57.0011L39.1945 61.3268L36.7981 61.7925L37.6168 57.0891L37.5085 57.0664L36.0436 61.873L33.6929 62.0323L35.3972 57.0117L35.2951 56.9708L32.7889 62.0808H32.7843L30.4672 62.2356L33.1715 56.9404L33.0846 56.8873L29.3803 62.3403L26.9153 62.7257L30.92 56.8494L30.8422 56.7872L24.1012 64.5827L23.7384 64.3415L29.7766 54.9164L39.0223 51.4768C39.0223 51.4768 39.6473 51.2068 40.0086 51.052C40.1885 50.9746 40.3745 50.9018 40.5711 50.7986C40.6717 50.7531 40.7617 50.694 40.8592 50.6408C40.9522 50.5847 41.0437 50.5225 41.1336 50.4603C41.3105 50.3298 41.4797 50.1917 41.6291 50.0385L41.7419 49.9247C41.7769 49.8853 41.812 49.8458 41.8455 49.8064C41.9172 49.729 41.9782 49.6455 42.0391 49.5651C42.1016 49.4847 42.1535 49.3982 42.2083 49.3193C42.2586 49.2359 42.3059 49.1524 42.3532 49.0735C42.3928 48.9886 42.4324 48.9097 42.4705 48.8338C42.5056 48.7534 42.5361 48.6745 42.5681 48.6017C42.6215 48.4515 42.6702 48.3119 42.6992 48.1875C42.7373 48.0631 42.7526 47.9478 42.7739 47.8567C42.7891 47.7657 42.7968 47.6959 42.8044 47.6458C42.8105 47.5973 42.8135 47.5715 42.8135 47.5715L42.7053 47.5533C42.7053 47.5533 42.6992 47.5775 42.6885 47.6261C42.6779 47.6746 42.6641 47.746 42.6413 47.8309C42.6154 47.9159 42.5925 48.0206 42.5452 48.1389C42.5071 48.2573 42.4507 48.3877 42.3882 48.5243C42.3532 48.5926 42.315 48.6624 42.2785 48.7352C42.2358 48.8065 42.1931 48.8778 42.1489 48.9552C42.0971 49.0265 42.0483 49.0993 41.9934 49.1722C41.9355 49.2435 41.8821 49.3193 41.8181 49.3876C41.7541 49.4604 41.6931 49.5317 41.6214 49.597L41.5163 49.6986L41.405 49.7942C41.2556 49.9232 41.0894 50.0385 40.9202 50.1432C40.8348 50.1933 40.7464 50.2418 40.6595 50.2873C40.5681 50.3268 40.4827 50.3738 40.3912 50.4087C40.2129 50.48 40.0193 50.5453 39.8333 50.6105C39.4644 50.741 39.1199 50.8654 38.8226 50.9701C38.5314 51.0748 38.2875 51.1597 38.1152 51.222L37.5177 50.0294L38.722 48.9749L38.6671 48.8975L35.4567 50.8533L34.7021 49.3497L39.036 46.1544L38.9659 46.0664L32.3727 49.9884L31.7736 48.4044L37.9857 44.276L37.9308 44.1911L29.926 48.5668L29.548 47.0753L36.321 42.7937L36.2722 42.7072L27.9793 46.913L27.74 45.153L34.5801 41.4828L34.5374 41.3948L26.0723 44.9087L26.0326 43.1897L32.9444 40.5027L32.9078 40.3995L24.5219 42.6829L24.6225 40.8046L30.9977 39.3511L30.9764 39.2509L22.8176 40.3646L23.0783 38.7427L29.0815 38.1009V37.9977L20.6956 38.1343L20.8222 36.7642L27.5098 36.7187L27.5159 36.6185L15.5034 35.7461L15.4836 35.6323L17.4303 34.9617L17.4273 34.8661L12.45 32.9756L12.4622 32.871L14.4531 32.7116L14.4714 32.6085L10.1756 29.9685L10.1984 29.8213L13.2092 29.9943L13.2442 29.8987L9.78072 26.6639L9.82493 26.5608L11.45 26.8718L11.5003 26.7914L9.87372 24.7537L8.86454 21.8664L8.96668 21.8164L10.5246 23.7706L14.0461 25.7839L14.1208 25.7157L11.8509 22.3959L10.9972 18.6878L11.1039 18.6408L12.9393 21.3824L16.4943 24.2621L16.5644 24.1924L14.3875 20.2612L13.639 15.4682L13.7564 15.4409L15.8784 19.5253L20.3389 23.2107L20.4243 23.1409L17.3541 18.2387L16.662 12.3579L16.7626 12.3276L18.6758 17.5408L24.9945 23.2031L32.9642 27.2648L41.7114 39.3602L45.1139 42.2156L45.1962 42.1367L43.7069 40.2038L43.716 40.2023L43.7221 40.2007L43.7069 40.2038L47.21 39.304L47.2039 39.1948L44.1596 39.0188L44.152 38.9171L48.6186 38.1236L48.6064 38.025L43.0331 37.6032L43.0285 37.497L50.1354 36.3121L52.9586 36.9766L52.9891 36.8795L50.297 35.646L45.8868 35.7446L45.8761 35.6384L50.582 34.7554L53.4982 35.7492L53.5379 35.6505L50.8915 33.9801L47.7649 33.8541L47.7634 33.7419L51.268 33.2017L54.3306 34.631L54.387 34.5414L51.8564 32.1776L49.1079 32.167L49.0972 32.0547L52.4464 31.3097L55.4175 33.7403L55.4846 33.6705L53.204 30.3463L50.7131 29.882L50.7238 29.7788L53.8702 29.5907L56.7087 33.0287L56.7956 32.9711L54.7559 28.6925L52.0302 27.8079L52.0516 27.7017L55.5242 27.9839L58.1584 32.4962L58.2514 32.4537L56.4998 27.1601L53.0836 25.9463L53.1049 25.8401L57.2392 26.5805L59.5426 32.0228L59.6447 31.9925L58.131 25.922L54.4724 23.857L54.5196 23.7554L58.8749 25.4046L60.9542 31.4857L61.0579 31.463L59.756 24.8235L55.7757 21.9347L55.8337 21.8437L60.4695 24.3714L62.285 30.7696L62.3918 30.7483L61.253 23.898L57.0807 20.2111L57.1447 20.1307L62.0274 23.4444L63.436 29.9654L63.5351 29.9442L62.8232 23.0135L58.6615 18.5331L58.7331 18.4496L63.5534 22.5553L64.6144 28.8685L64.7226 28.8609L64.2561 22.2245L60.317 17.1038L60.3932 17.034L65.029 21.8588L65.7623 27.3239L65.8629 27.3133L65.6266 21.5372L62.0274 16.0433L62.1082 15.9795L66.279 21.2368L66.8339 25.1619L66.9407 25.1513L66.747 20.9531L64.186 15.2604L64.2759 15.2088L67.4529 20.6011L67.7486 22.8147L67.8507 22.8041L68.0016 20.284L66.6754 14.9251L66.776 14.8887L68.6007 19.3842H68.7029L69.8279 14.8932L69.9392 14.919L69.5703 19.3372L69.6694 19.3706L72.7579 14.9478L72.8493 15.0009L70.8447 18.9943L70.9148 19.0671L75.6329 15.714L75.6909 15.799L68.4925 25.4608C68.4925 25.4608 66.1678 31.6587 65.4116 33.7282C65.2607 34.1379 64.9985 34.4034 64.6052 34.5672C64.3796 34.6567 58.7728 36.8871 58.7728 36.8871L57.2316 38.2374L52.0866 38.8413L52.1019 38.9581ZM44.2084 0C19.7932 0 0 19.6998 0 43.9999C0 68.3015 19.7936 88 44.2088 88C68.6256 88 88.4187 68.3017 88.4187 44.0001C88.4187 19.7 68.6251 0 44.2084 0ZM50.7162 45.0149L51.5592 45.1955L51.2985 46.0133L51.3854 46.0618L52.6339 44.6311L52.5851 44.5491L50.7162 44.9163V45.0149ZM54.1919 48.6138L54.6126 48.717L54.4693 49.1266L54.5547 49.1767L55.2437 48.4333L55.198 48.3483L54.1964 48.5152L54.1919 48.6138ZM47.4722 62.4935C47.5149 62.5148 47.556 62.5451 47.6002 62.5724C47.6444 62.5982 47.6826 62.6361 47.7298 62.6665C47.7695 62.7044 47.8137 62.7378 47.8533 62.7788C47.8655 62.7879 47.8746 62.797 47.8853 62.8076C47.9143 62.8364 47.9417 62.8698 47.9753 62.9016C48.0088 62.9456 48.0469 62.9912 48.0789 63.0367C48.114 63.0807 48.1399 63.1307 48.1719 63.1763C48.1963 63.2233 48.2283 63.2688 48.2466 63.3174C48.271 63.3629 48.2923 63.4069 48.3091 63.4494C48.3289 63.4949 48.3426 63.5328 48.3548 63.5677C48.3701 63.6026 48.3823 63.6345 48.3899 63.6679C48.4082 63.7255 48.4219 63.7604 48.4219 63.7604H48.524C48.524 63.7604 48.5378 63.7301 48.5576 63.6709C48.5682 63.6405 48.5789 63.6056 48.5835 63.5571C48.5911 63.5085 48.5987 63.4554 48.5957 63.3993C48.5942 63.372 48.5942 63.3401 48.5942 63.3113C48.5896 63.2779 48.585 63.2491 48.5804 63.2157C48.5728 63.1474 48.5484 63.0837 48.5271 63.0124C48.4981 62.9456 48.4707 62.8759 48.4295 62.8121C48.4067 62.7681 48.3762 62.7287 48.3457 62.6892L48.2939 62.624C48.239 62.5663 48.1856 62.5102 48.1231 62.4647C48.0637 62.4146 47.9966 62.3782 47.9356 62.3433C47.8685 62.3114 47.8045 62.2841 47.7405 62.2644C47.71 62.2553 47.6795 62.2447 47.649 62.2386C47.6307 62.2356 47.6124 62.2341 47.5957 62.231C47.5835 62.228 47.5713 62.228 47.5591 62.225C47.5057 62.2128 47.4524 62.2128 47.4066 62.2159C47.3609 62.2128 47.3197 62.2189 47.2893 62.225C47.2237 62.2356 47.1886 62.2447 47.1886 62.2447L47.181 62.3403V62.3463C47.181 62.3463 47.213 62.3645 47.2649 62.3858C47.2923 62.3964 47.3243 62.4146 47.3594 62.4313C47.3944 62.4495 47.4326 62.4708 47.4722 62.4935ZM51.483 64.0972C51.3793 64.1306 51.2573 64.1625 51.1217 64.2019C50.8839 64.2687 50.6018 64.3491 50.2878 64.4462C50.0424 64.5175 49.7756 64.5979 49.4921 64.6844C49.3518 64.7254 49.207 64.7694 49.0576 64.8149L48.6079 64.9681C47.9996 65.176 47.3502 65.399 46.7039 65.6236C46.2892 65.7692 45.8807 65.924 45.4843 66.0742C45.2572 66.1607 45.0346 66.2456 44.8136 66.3291C44.6108 66.405 44.4157 66.4808 44.2267 66.5552C44.1322 66.5931 44.0392 66.628 43.9492 66.6644C43.7358 66.7463 43.5331 66.8328 43.3425 66.9117L43.1809 66.98C42.8684 67.1044 42.5894 67.2243 42.3577 67.3214C42.2373 67.3729 42.1291 67.42 42.0346 67.4579C41.7586 67.5778 41.6016 67.6445 41.6016 67.6445L41.5696 67.6597L41.6321 67.813L41.6626 67.8038C41.6626 67.8038 41.8257 67.7477 42.1093 67.6476C42.2068 67.6142 42.3181 67.5732 42.4416 67.5292C42.6794 67.4458 42.9629 67.3456 43.2785 67.2303L43.5148 67.1408C43.687 67.0786 43.8684 67.0118 44.0575 66.9451L44.3319 66.8495C44.5255 66.7812 44.7267 66.7114 44.9294 66.6341C45.1474 66.5567 45.3685 66.4747 45.5941 66.3943C45.9935 66.2456 46.4051 66.0939 46.8213 65.9528C47.4661 65.7222 48.1109 65.4931 48.7161 65.2776C49.0058 65.1745 49.303 65.0667 49.5881 64.9727C49.7939 64.9014 49.9921 64.8346 50.178 64.7709L50.3732 64.7041C50.6872 64.5994 50.9631 64.5008 51.1979 64.4174C51.329 64.3734 51.4433 64.3294 51.547 64.296L52.0196 64.1215L51.9708 63.9622L51.483 64.0972ZM42.9035 65.5826L43.2678 65.4612C43.7404 65.3125 44.2053 65.1578 44.652 65.0045C44.8258 64.9469 44.995 64.8892 45.1566 64.8331L45.2877 64.7876L45.8593 64.5979C46.1002 64.5205 46.3121 64.4462 46.4874 64.3855C46.5697 64.3536 46.6475 64.3279 46.713 64.3051C46.9203 64.2307 47.0362 64.1883 47.0362 64.1883L47.0667 64.1746L47.0194 64.0168L46.9889 64.0244C46.9889 64.0244 46.8655 64.0502 46.6536 64.1003L46.4859 64.1412C46.2923 64.1883 46.0514 64.2459 45.777 64.3187L45.1932 64.4705C45.0483 64.5114 44.899 64.557 44.7435 64.604L44.5483 64.6647C44.1383 64.7891 43.6687 64.9393 43.152 65.1077C42.7709 65.2336 42.3974 65.3672 42.0346 65.4961L41.7693 65.5902L41.6352 65.6387C41.2495 65.7783 40.8867 65.9118 40.5742 66.0347C40.437 66.0879 40.3104 66.1394 40.1946 66.185L40.1001 66.2244L39.7342 66.37C39.5345 66.4565 39.4186 66.5021 39.4186 66.5021L39.3881 66.5157L39.4461 66.6705C39.4461 66.6705 39.5955 66.6265 39.8043 66.5643C39.879 66.5415 39.9613 66.5187 40.0543 66.4869L40.3211 66.408C40.4309 66.3731 40.5467 66.3397 40.6671 66.2987C40.8867 66.2244 41.1306 66.1501 41.3912 66.0681C41.5483 66.0181 41.7129 65.968 41.8821 65.9134C42.2114 65.8072 42.5544 65.6949 42.9035 65.5826ZM50.1155 52.9122L50.111 53.0108L50.6506 53.1443L50.4662 53.6662L50.5515 53.7178L51.4144 52.7923L51.3671 52.7058L50.1155 52.9122ZM49.1994 51.6316L50.3061 49.9915L50.2482 49.9156L48.364 50.5346L48.3746 50.6302L49.2725 50.7122L49.1064 51.5952L49.1994 51.6316ZM55.0776 45.6947L53.8138 45.8039L53.8031 45.9025L54.3306 46.077L54.105 46.5838L54.1873 46.6414L55.1172 45.7811L55.0776 45.6947ZM49.1795 59.7473L46.5652 56.5702L46.4325 56.6279L47.1033 60.4119L48.4783 61.9989C48.4783 61.9989 48.5179 62.0186 48.55 62.0353C48.5789 62.0459 48.6094 62.0626 48.646 62.0793C48.678 62.0975 48.7176 62.1172 48.7573 62.1415C48.7984 62.1643 48.8411 62.1901 48.8838 62.2189C48.928 62.2447 48.9677 62.2841 49.0134 62.313C49.053 62.3524 49.1003 62.3843 49.1384 62.4268C49.1811 62.4617 49.2192 62.5072 49.2573 62.5496C49.2924 62.5952 49.3305 62.6361 49.364 62.6832C49.3991 62.7287 49.425 62.7772 49.457 62.8227C49.4799 62.8713 49.5119 62.9153 49.5317 62.9623C49.5546 63.0079 49.5774 63.0549 49.5942 63.0989C49.614 63.1399 49.6262 63.1793 49.6399 63.2127C49.6536 63.2491 49.6674 63.2825 49.675 63.3143C49.6918 63.3735 49.7055 63.4069 49.7055 63.4069L49.8076 63.4084C49.8076 63.4084 49.8244 63.375 49.8427 63.3174C49.8518 63.2885 49.8625 63.2506 49.8686 63.2021C49.8747 63.1565 49.8823 63.1019 49.8793 63.0458V62.9548C49.8732 62.9274 49.8701 62.8941 49.8655 62.8637C49.8564 62.797 49.832 62.7287 49.8122 62.6604C49.7832 62.5952 49.7573 62.5239 49.7146 62.4586C49.678 62.3903 49.6262 62.3312 49.5774 62.269C49.5241 62.2128 49.4692 62.1567 49.4067 62.1127C49.3488 62.0626 49.2817 62.0262 49.2192 61.9883C49.1521 61.961 49.0896 61.9291 49.0256 61.9124C48.9936 61.9018 48.9631 61.8927 48.9341 61.8851H48.9265C48.9616 61.8745 48.9981 61.8669 49.0332 61.8593C49.2878 61.7941 49.5424 61.7288 49.8 61.6651C49.8091 61.6681 49.8213 61.6742 49.8366 61.6788C49.8625 61.6909 49.8945 61.7061 49.928 61.7273C49.9631 61.744 50.0012 61.7637 50.0424 61.788C50.0835 61.8092 50.1247 61.8365 50.1674 61.8654C50.2131 61.8896 50.2527 61.9306 50.297 61.961C50.3381 61.9974 50.3838 62.0292 50.4235 62.0717C50.4662 62.1096 50.5027 62.1536 50.5424 62.1946C50.5774 62.2401 50.6156 62.2841 50.6476 62.3296C50.6826 62.3736 50.7101 62.4252 50.7406 62.4707C50.7649 62.5178 50.797 62.5618 50.8168 62.6119C50.8396 62.6543 50.861 62.6999 50.8778 62.7439C50.8976 62.7879 50.9098 62.8243 50.925 62.8607C50.9387 62.8941 50.9509 62.9305 50.9601 62.9593C50.9768 63.02 50.9906 63.0549 50.9906 63.0549H51.0942C51.0942 63.0549 51.1079 63.02 51.1278 62.9623C51.1384 62.9335 51.1476 62.8971 51.1537 62.8501C51.1598 62.8045 51.1674 62.7484 51.1643 62.6923C51.1643 62.6634 51.1643 62.6331 51.1628 62.6043C51.1583 62.5724 51.1537 62.5421 51.1491 62.5087C51.1415 62.4419 51.1171 62.3767 51.0973 62.3054C51.0683 62.2401 51.0409 62.1703 50.9982 62.1066C50.9631 62.0383 50.9128 61.9776 50.8625 61.917C50.8092 61.8608 50.7543 61.8032 50.6918 61.7592C50.6339 61.7091 50.5668 61.6712 50.5043 61.6348C50.4372 61.6059 50.3732 61.5756 50.3091 61.5574C50.297 61.5543 50.2832 61.5498 50.271 61.5468C50.986 61.3692 51.7086 61.1932 52.4296 61.0248L50.0912 59.7306L49.1795 59.7473ZM53.544 42.9181L54.1949 43.1988L53.8534 43.8163L53.9297 43.8815L55.1827 42.9136L55.1507 42.824L53.5653 42.8225L53.544 42.9181ZM30.5556 28.5134L27.5906 30.0216L27.429 29.1477L27.2857 29.1613L27.2735 30.6118L27.3863 30.6664L30.6273 28.6303L30.5556 28.5134ZM33.3926 32.079L29.2446 34.3139L29.083 33.4399L28.9534 33.4536L28.9275 34.9041L29.0419 34.9678L33.4658 32.1928L33.3926 32.079ZM32.0389 30.2507L28.1196 32.3172L27.9595 31.4448L27.8208 31.4614L27.8025 32.9089L27.9107 32.965L32.1121 30.3675L32.0389 30.2507ZM38.1671 37.3772L35.2051 38.8823L35.042 38.025L34.9109 38.0432L34.888 39.474L34.9917 39.5286L38.2387 37.4955L38.1671 37.3772ZM36.5558 35.6232L32.9795 37.4743L32.8179 36.5988L32.6791 36.6185L32.6609 38.0614L32.766 38.1267L36.6305 35.7401L36.5558 35.6232ZM34.9551 33.9057L30.8956 36.0147L30.734 35.1392L30.5922 35.1529L30.5785 36.6064L30.6943 36.6625L35.0268 34.0195L34.9551 33.9057ZM25.3375 31.6723L25.3802 31.5085L16.2611 29.0157L12.1527 25.6929L12.043 25.8006L15.8449 29.6347L25.3375 31.6723ZM25.5936 29.8228L25.65 29.659L17.9288 27.1752L14.1147 23.6082L14.0019 23.7311L17.4257 27.7533L25.5936 29.8228ZM50.271 42.2672L50.922 42.5509L50.5774 43.1669L50.6537 43.2322L51.9098 42.2687L51.8793 42.1777L50.2924 42.1701L50.271 42.2672ZM16.255 33.5158L19.6179 34.4914L26.2659 35.0983L26.2872 34.9238L16.2916 33.3519L16.255 33.5158ZM17.1208 22.1077L16.9974 22.2048L19.7916 26.0312L26.5433 28.2616L26.6058 28.0977L20.3526 25.5336L17.1208 22.1077ZM39.5116 39.2191L37.3881 40.2235L37.228 39.4254L37.0939 39.43L37.071 40.8137L37.1915 40.8668L39.5848 39.3329L39.5116 39.2191ZM25.4595 33.1547L12.8265 30.5617L12.7777 30.7225L16.0568 31.9151L25.4229 33.3322L25.4595 33.1547ZM29.1714 27.3846L29.2507 27.2268L23.4076 24.4336L19.8496 19.7211L19.7185 19.8136L22.8969 24.9737L29.1714 27.3846ZM53.855 63.5267C53.855 63.5267 53.9159 63.5192 54.0242 63.504C54.0592 63.4994 54.0973 63.4934 54.1416 63.4843C54.233 63.4706 54.3428 63.4539 54.4647 63.4327C54.6721 63.3948 54.8809 63.3538 55.0852 63.3098C55.2757 63.2688 55.477 63.2233 55.6812 63.1763L55.8062 63.1474C56.0364 63.0989 56.2742 63.0458 56.4922 62.9927C56.7331 62.935 56.9374 62.8819 57.1005 62.8349C57.2163 62.8045 57.32 62.7727 57.4069 62.7454C57.4526 62.7332 57.4938 62.7196 57.5304 62.709C57.634 62.6771 57.692 62.6574 57.692 62.6574L57.7194 62.6452L57.6889 62.4905H57.6584C57.6584 62.4905 57.5959 62.4935 57.4877 62.5072C57.4511 62.5117 57.4069 62.5178 57.3596 62.5238C57.2697 62.536 57.1614 62.5481 57.0425 62.5648C56.8611 62.5921 56.6508 62.6255 56.4175 62.6695C56.1919 62.7074 55.9465 62.759 55.7071 62.8091C55.2742 62.9123 54.7971 63.0427 54.4007 63.1672C54.2727 63.2051 54.1629 63.2445 54.0714 63.2734L53.9754 63.3067C53.8733 63.3401 53.8138 63.3629 53.8138 63.3629L53.7864 63.375L53.8245 63.5298L53.855 63.5267ZM59.2042 61.1614C59.2042 61.1614 59.2819 61.1568 59.4207 61.1371C59.4633 61.1325 59.5121 61.125 59.567 61.1189C59.6828 61.1052 59.8246 61.0901 59.9816 61.0643C60.4938 60.9914 61.1112 60.8913 61.6814 60.7836L61.8247 60.7548C62.0838 60.7047 62.3399 60.6561 62.5808 60.6015C62.7043 60.5772 62.8232 60.5514 62.9375 60.5287C63.0915 60.4983 63.2363 60.468 63.3674 60.4376C63.5214 60.4043 63.6586 60.3709 63.7714 60.3436L63.9208 60.3087C64.0549 60.2768 64.1296 60.2541 64.1296 60.2541L64.1601 60.2465L64.1327 60.0872L64.1006 60.0887C64.1006 60.0887 64.0229 60.0932 63.8857 60.1084L63.7515 60.1221C63.6326 60.1357 63.4863 60.1509 63.3201 60.1706L63.2729 60.1767C63.0488 60.207 62.7957 60.2389 62.5259 60.2829C62.2424 60.3314 61.936 60.3876 61.6402 60.4407L61.6189 60.4468C61.0625 60.5499 60.4466 60.6789 59.9313 60.8003C59.7835 60.8367 59.6524 60.8685 59.5426 60.8974C59.4816 60.9141 59.4283 60.9277 59.3795 60.9383C59.2453 60.9732 59.1706 60.9945 59.1706 60.9945L59.1417 61.0036L59.1737 61.1644L59.2042 61.1614ZM54.605 60.6743C54.6385 60.6956 54.6766 60.7153 54.7178 60.7381C54.7574 60.7608 54.7986 60.7896 54.8413 60.8185C54.8855 60.8458 54.9236 60.8883 54.9693 60.9156C54.9891 60.9368 55.0105 60.9565 55.0333 60.9748C55.0532 60.9914 55.0745 61.0097 55.0928 61.0324C55.134 61.0688 55.169 61.1143 55.2087 61.1583C55.2422 61.2023 55.2818 61.2448 55.3108 61.2934C55.3443 61.3389 55.3718 61.389 55.4007 61.4345C55.4251 61.4845 55.4556 61.5316 55.4739 61.5771C55.4968 61.6226 55.5166 61.6681 55.5334 61.7121C55.5501 61.7561 55.5639 61.7956 55.5776 61.829C55.5898 61.8639 55.6035 61.8988 55.6096 61.9291C55.6248 61.9898 55.6385 62.0262 55.6385 62.0262L55.7407 62.0292C55.7407 62.0292 55.7559 61.9943 55.7773 61.9367C55.7879 61.9079 55.7986 61.8699 55.8047 61.8229C55.8139 61.7774 55.823 61.7243 55.82 61.6666C55.8215 61.6378 55.8215 61.6074 55.8215 61.5771C55.8169 61.5468 55.8123 61.5134 55.8093 61.4815C55.8032 61.4163 55.7803 61.351 55.7605 61.2797C55.7331 61.2145 55.7071 61.1432 55.6675 61.0779C55.6309 61.0066 55.5837 60.9474 55.5349 60.8852C55.5242 60.8731 55.5135 60.861 55.5013 60.8488C55.4602 60.8033 55.416 60.7608 55.3672 60.7229C55.3093 60.6728 55.2437 60.6334 55.1827 60.597C55.1172 60.5651 55.0532 60.5332 54.9891 60.515C54.9586 60.5059 54.9282 60.4938 54.8977 60.4862C54.8733 60.4817 54.8489 60.4771 54.8245 60.4741C54.8199 60.4726 54.8138 60.471 54.8138 60.471C54.7559 60.4604 54.7025 60.4604 54.6568 60.4589C54.6111 60.4559 54.5714 60.4604 54.5394 60.4665C54.4739 60.4741 54.4373 60.4817 54.4373 60.4817L54.4312 60.5621L54.4282 60.5848C54.4282 60.5848 54.4602 60.6015 54.5135 60.6273C54.5394 60.6394 54.5684 60.6561 54.605 60.6743ZM59.4908 45.4109C59.4969 45.4398 59.5075 45.4701 59.5152 45.4974C59.5243 45.5262 59.5289 45.5535 59.5411 45.5763C59.5563 45.6006 59.567 45.6203 59.5792 45.6416C59.5914 45.6613 59.6021 45.6795 59.6127 45.6947C59.6249 45.7113 59.6402 45.7235 59.6508 45.7356C59.6966 45.7811 59.7255 45.8024 59.7255 45.8024L59.788 45.7569C59.788 45.7569 59.785 45.722 59.7743 45.6719C59.7713 45.6582 59.7697 45.6431 59.7682 45.6279C59.7682 45.6112 59.7667 45.5945 59.7667 45.5778C59.7652 45.5444 59.7652 45.508 59.7713 45.4671C59.7743 45.4261 59.788 45.3867 59.7987 45.3457C59.8018 45.326 59.8109 45.3047 59.8231 45.288C59.8353 45.2668 59.8383 45.2455 59.8505 45.2273C59.878 45.1894 59.8993 45.15 59.9237 45.1287C59.9344 45.1151 59.9405 45.1044 59.971 45.0802L60.0091 45.0483L60.0274 45.0347L60.0304 45.0331C60.0716 45.0119 60.1036 44.9815 60.1478 44.9724C60.189 44.9497 60.2316 44.9451 60.2743 44.933C60.2972 44.9284 60.317 44.933 60.3399 44.9284C60.3612 44.9239 60.3841 44.9224 60.4054 44.9269C60.4237 44.9284 60.4451 44.9315 60.4451 44.9315C60.4862 44.933 60.5045 44.9391 60.5243 44.9436C60.5655 44.9512 60.5945 44.9603 60.6249 44.9724C60.6402 44.977 60.6524 44.9831 60.6676 44.9876C60.6844 44.9952 60.6966 45.0043 60.7103 45.0119C60.7591 45.0438 60.7896 45.0589 60.7896 45.0589L60.8689 44.9907C60.8689 44.9907 60.8582 44.9588 60.8338 44.9057C60.8277 44.889 60.8216 44.8769 60.8124 44.8602C60.8003 44.845 60.7865 44.8268 60.7698 44.8071C60.753 44.7904 60.7347 44.7676 60.7164 44.7479C60.6966 44.7282 60.6722 44.716 60.6478 44.6963C60.6234 44.6796 60.599 44.6614 60.5701 44.6447C60.5426 44.6311 60.5106 44.6204 60.4786 44.6068C60.4451 44.5947 60.41 44.584 60.3734 44.5795C60.3368 44.5734 60.3002 44.5658 60.2606 44.5643C60.1829 44.5673 60.1021 44.5704 60.0243 44.5977C59.942 44.6159 59.8719 44.6644 59.7972 44.7039L59.7774 44.7236L59.7743 44.7251L59.7652 44.7327L59.7103 44.7828C59.6889 44.798 59.66 44.8374 59.631 44.8738C59.5685 44.9497 59.5441 45.024 59.5152 45.0953C59.4984 45.1682 59.4801 45.2425 59.4862 45.3108C59.4877 45.3442 59.4877 45.3775 59.4908 45.4109ZM59.6707 42.4645L59.6798 42.4963L59.6844 42.5251L59.7194 42.601C59.7301 42.6374 59.7713 42.6981 59.8078 42.7436C59.8292 42.7694 59.849 42.7922 59.8688 42.8074C59.8871 42.8286 59.9085 42.8453 59.9298 42.8604C59.9649 42.8908 60.0015 42.909 60.038 42.9287L60.0762 42.95C60.1752 42.9879 60.2698 43.0091 60.3566 43.0091C60.3566 43.0091 60.3856 43.0061 60.41 43.0046C60.4603 43 60.5137 42.997 60.5609 42.9773L60.631 42.956L60.6509 42.9485L60.6844 42.9318L60.7042 42.9166C60.7545 42.8923 60.878 42.7982 60.9176 42.73C60.9679 42.6662 61.003 42.5919 61.0243 42.4993L61.0304 42.472C61.0365 42.4478 61.0426 42.4189 61.0426 42.3886C61.0411 42.3567 61.0396 42.3279 61.0396 42.2976C61.035 42.252 61.0213 42.2111 61.0106 42.1792L61 42.1443C60.9634 42.0715 60.9375 42.0381 60.9375 42.0381L60.9192 42.0123L60.7987 42.0578L60.7957 42.0806C60.7957 42.0806 60.7896 42.1246 60.7911 42.1747C60.7881 42.1868 60.785 42.1989 60.782 42.2111C60.7789 42.2308 60.7743 42.2536 60.7652 42.2748C60.7606 42.29 60.7515 42.3082 60.7438 42.3264C60.7393 42.337 60.7317 42.3476 60.7256 42.3582L60.7103 42.3856C60.7073 42.3901 60.6996 42.3992 60.692 42.4068C60.6844 42.4129 60.6798 42.4205 60.6707 42.4296C60.6631 42.4432 60.6432 42.4553 60.6249 42.469C60.6173 42.4796 60.6067 42.4842 60.5868 42.4933L60.5655 42.5054L60.5609 42.5085L60.5121 42.5282C60.4862 42.5373 60.4466 42.5434 60.3932 42.5434H60.3902C60.3551 42.5418 60.3155 42.5327 60.2758 42.5176C60.2652 42.5115 60.253 42.5054 60.2423 42.4978C60.2316 42.4933 60.2225 42.4887 60.2225 42.4887C60.2118 42.4766 60.1996 42.4675 60.1874 42.4599C60.1829 42.4569 60.1768 42.4553 60.1752 42.4523C60.1691 42.4417 60.1615 42.4341 60.1554 42.4296C60.1478 42.4235 60.1432 42.4189 60.1326 42.3977L60.1036 42.3507L60.1005 42.34L60.099 42.3355C60.0899 42.3188 60.0822 42.2976 60.0777 42.2672C60.0731 42.252 60.0685 42.2338 60.0701 42.2171L60.0685 42.1989C60.0685 42.1868 60.0685 42.1716 60.0716 42.158C60.0731 42.1489 60.0746 42.1382 60.0746 42.1291C60.0761 42.1185 60.0761 42.1079 60.0807 42.0988C60.0838 42.0897 60.0883 42.0776 60.0914 42.0669C60.0944 42.0578 60.0975 42.0472 60.0975 42.0427L60.1234 41.9911C60.1326 41.9759 60.1417 41.9622 60.1493 41.9486C60.1585 41.938 60.1661 41.9243 60.1646 41.9213C60.221 41.8773 60.2484 41.8469 60.2484 41.8469L60.2667 41.8272L60.1951 41.6861L60.1676 41.6907C60.1676 41.6907 60.128 41.6952 60.0487 41.7119L60.0213 41.7256C59.9877 41.7407 59.945 41.7605 59.9069 41.7923C59.8841 41.812 59.8597 41.8302 59.8353 41.853C59.817 41.8682 59.8033 41.8879 59.7896 41.9076C59.7819 41.9167 59.7743 41.9273 59.7652 41.941C59.7103 42.0229 59.6798 42.0973 59.6691 42.1701C59.6539 42.2187 59.6524 42.2672 59.6524 42.3112C59.6493 42.3567 59.6585 42.4007 59.6661 42.4447L59.6707 42.4645ZM63.2653 44.713C63.2851 44.7327 63.3003 44.7555 63.3186 44.7798C63.3369 44.7995 63.3506 44.8238 63.3674 44.8496C63.3979 44.8966 63.4268 44.9467 63.4482 44.9998C63.4726 45.0513 63.4924 45.1075 63.5061 45.1636C63.5198 45.2182 63.5305 45.2744 63.5336 45.3335C63.5381 45.3624 63.5366 45.3912 63.5381 45.42C63.5396 45.4504 63.5351 45.4807 63.5336 45.508C63.5259 45.5657 63.5137 45.6218 63.497 45.678C63.4893 45.7068 63.4787 45.7326 63.4665 45.7569L63.4268 45.8418L63.5137 45.8904L63.564 45.8115C63.5793 45.7811 63.5961 45.7493 63.6082 45.7204C63.6342 45.6582 63.6525 45.5945 63.6677 45.5278C63.6723 45.4959 63.6814 45.464 63.6845 45.4291C63.6875 45.3973 63.6921 45.3624 63.6906 45.329C63.6936 45.2622 63.689 45.194 63.6799 45.1287C63.6708 45.062 63.657 44.9967 63.6357 44.933C63.6159 44.8678 63.5915 44.8025 63.561 44.7418C63.5442 44.713 63.5305 44.6811 63.5122 44.6538C63.4939 44.6235 63.4787 44.5947 63.4573 44.5658C63.4192 44.5097 63.375 44.4566 63.3293 44.4065L63.3232 44.3974C62.9131 44.012 62.4985 43.6327 62.093 43.2428L61.7957 43.5933C62.253 43.924 62.6997 44.2639 63.1524 44.5977C63.1921 44.6341 63.2302 44.672 63.2653 44.713ZM41.3028 44.6341L41.2601 44.3109L41.1321 44.3033L40.9918 45.1424L41.1047 45.2091L42.6733 44.1167L42.6016 44.0044L41.3028 44.6341ZM40.7083 40.9487L39.2067 41.6042L39.0726 40.9988H38.943L38.8866 42.1519L38.9918 42.2111L40.7739 41.0565L40.7083 40.9487ZM41.6489 46.3744L41.6199 46.0588L41.4919 46.0482L41.3501 46.8857L41.4477 46.96L42.5925 46.1331L42.5224 46.0224L41.6489 46.3744ZM42.3882 42.2657L40.5589 43.0729L40.4979 42.557L40.3699 42.5464L40.2464 43.5993L40.3501 43.6737L42.4614 42.384L42.3882 42.2657ZM62.9787 61.5134C62.7652 61.5437 62.5503 61.5771 62.3399 61.609C62.1219 61.6408 61.9085 61.6803 61.721 61.7152C61.6021 61.7349 61.4862 61.7592 61.375 61.7834C61.2972 61.7971 61.221 61.8123 61.1463 61.8259L60.9146 61.8714C60.8155 61.8896 60.7225 61.9109 60.6326 61.9261C60.4268 61.967 60.2438 62.0065 60.0899 62.0414C60.0045 62.0565 59.9298 62.0732 59.8627 62.0884L59.5396 62.1628L59.5685 62.3236L59.8963 62.2872C59.9649 62.2781 60.0441 62.269 60.1341 62.2568C60.288 62.2401 60.4725 62.2189 60.6768 62.1885C60.8368 62.1673 61.0106 62.1415 61.1951 62.1157L61.3353 62.0975C61.4771 62.0763 61.625 62.0565 61.7744 62.0353C62.0213 61.9928 62.2713 61.961 62.535 61.923C62.6997 61.9018 62.8659 61.8775 63.032 61.8563C63.1997 61.829 63.3674 61.8047 63.532 61.7804L63.6692 61.7592L64.2866 61.6651C64.5564 61.6241 64.811 61.5847 65.0488 61.5437C65.1647 61.5255 65.276 61.5073 65.3812 61.4906C65.5656 61.4633 65.7303 61.433 65.8736 61.4087C65.9803 61.389 66.0748 61.3723 66.1556 61.3586L66.4803 61.301L66.4604 61.1371L66.4284 61.1401C66.4284 61.1401 66.3217 61.1432 66.1312 61.1583L66.0367 61.1629C65.8507 61.175 65.619 61.1917 65.3461 61.2236C65.2287 61.2342 65.1037 61.2463 64.9726 61.26C64.7394 61.2828 64.497 61.307 64.2409 61.3389L63.6204 61.4208C63.5 61.439 62.9787 61.5134 62.9787 61.5134ZM35.8682 54.3596L35.8484 54.4582L36.2463 54.6297L36.0359 55.0059L36.1122 55.0712L36.9155 54.4522L36.8835 54.3611L35.8682 54.3596ZM37.786 70.5804L36.35 69.9492L37.7433 69.2209L37.7052 69.1269L35.603 69.708C35.5176 69.7323 35.4445 69.796 35.417 69.8855C35.3698 70.0281 35.449 70.1814 35.5923 70.2269L35.6167 70.2345L37.664 70.8899C38.007 70.9946 38.347 71.1144 38.6884 71.2298L39.7129 71.5802L39.7494 71.4847L38.7708 71.0295C38.443 70.8778 38.1183 70.7245 37.786 70.5804ZM38.722 54.3596L38.7037 54.4582L39.1016 54.6297L38.8912 55.0059L38.9674 55.0712L39.7708 54.4522L39.7388 54.3611L38.722 54.3596Z" fill="#EC1A2E"/>
<path d="M96.6438 82.5513H133.399C151.494 82.5513 163.256 73.9968 163.256 61.0526C163.256 49.6843 152.851 42.8182 140.411 40.9047V40.6796C150.816 38.8787 159.637 32.8005 159.637 22.6703C159.637 10.2889 148.215 3.76047 132.834 3.76047H96.6438V6.79954L101.281 7.81257C105.352 8.71303 106.483 11.7521 106.483 15.1289V71.2955C106.483 74.6722 105.352 77.5987 101.281 78.4992L96.6438 79.5122V82.5513ZM127.631 78.7243C122.316 78.7243 119.941 76.1355 119.941 71.5206V43.6061H127.405C139.846 43.6061 149.345 48.5587 149.345 60.9401C149.345 70.7327 142.673 78.7243 130.346 78.7243H127.631ZM119.941 39.554V7.70001H126.048C139.393 7.70001 145.84 15.2414 145.84 23.3456C145.84 33.1382 139.846 39.554 128.762 39.554H119.941Z" fill="#222222"/>
<path d="M194.512 84.2397C205.934 84.2397 214.869 77.261 217.809 67.0182L215.434 66.0052C212.72 70.9578 206.274 75.0099 199.375 75.0099C190.101 75.0099 180.488 67.6936 180.488 53.1736V51.7103H217.131V50.1345C217.131 37.8656 209.214 26.3847 194.625 26.3847C177.435 26.3847 168.613 41.4675 168.613 55.875C168.613 71.9708 179.131 84.2397 194.512 84.2397ZM180.941 47.9959C181.732 37.6405 186.595 30.5493 194.059 30.5493C201.524 30.5493 204.916 37.528 204.916 47.5456L180.941 47.9959Z" fill="#222222"/>
<path d="M240.026 84.2397C253.484 84.2397 261.288 76.0229 261.288 67.0182C261.288 47.4331 234.145 51.4852 234.145 38.541C234.145 33.4759 237.991 30.3242 242.967 30.3242C247.717 30.3242 252.467 32.9131 254.389 42.2554H257.556L258.574 28.5233C256.312 27.9605 249.187 26.3847 243.532 26.3847C229.169 26.3847 223.288 35.2768 223.288 42.2554C223.288 61.5029 250.657 57.7885 250.657 71.2955C250.657 76.6982 246.586 80.3001 240.818 80.3001C234.824 80.3001 228.604 76.6982 225.776 64.9922H222.836V80.9755C224.985 81.9885 232.562 84.2397 240.026 84.2397Z" fill="#222222"/>
<path d="M287.601 84.2397C293.143 84.2397 300.833 81.9885 304 79.5122L302.869 76.8108C301.06 77.5987 297.554 78.2741 295.292 78.2741C286.923 78.2741 285.792 73.2089 285.792 65.555V32.5754H300.607V28.1856H285.792V11.9772H282.512L273.465 28.1856H265.435V32.5754H273.465V69.9448C273.465 80.075 278.554 84.2397 287.601 84.2397Z" fill="#222222"/>
</svg>
