<svg width="77" height="25" viewBox="0 0 77 25" fill="none" xmlns="http://www.w3.org/2000/svg">
  <path d="M0 4.67749H2.0013V19.3872H0V4.67749Z" fill="#EC1A2E"/>
  <path d="M4.90492 4.67749H6.29321L10.44 14.4476V4.67749H12.1348V19.3872H10.8367L6.63577 9.34464V19.3872H4.90492V4.67749Z" fill="#EC1A2E"/>
  <path d="M14.9713 4.67749H18.1445C19.7191 4.67749 20.8309 5.04069 21.48 5.7671C22.1411 6.4935 22.4716 7.62548 22.4716 9.16303V14.5747C22.4716 16.197 22.1471 17.4077 21.498 18.2068C20.861 18.9937 19.7972 19.3872 18.3068 19.3872H14.9713V4.67749ZM18.1625 17.9162C18.8717 17.9162 19.3825 17.777 19.695 17.4985C20.0196 17.2201 20.2179 16.8448 20.29 16.3726C20.3742 15.8883 20.4162 15.1619 20.4162 14.1934V9.41727C20.4162 8.58191 20.3621 7.94631 20.254 7.51047C20.1578 7.06252 19.9475 6.73564 19.6229 6.52982C19.2984 6.3119 18.7936 6.20294 18.1084 6.20294H17.0086V17.9162H18.1625Z" fill="#EC1A2E"/>
  <path d="M27.2557 14.1934L24.1005 4.67749H25.9936L28.2293 11.7781L30.4289 4.67749H32.3401L29.2029 14.1934V19.3872H27.2557V14.1934Z" fill="#EC1A2E"/>
  <path d="M43.8906 4.80215H47.2572C48.5845 4.80215 49.568 5.09895 50.2075 5.69256C50.847 6.2743 51.1668 7.18253 51.1668 8.41724C51.1668 10.2574 50.4669 11.2725 49.0672 11.4625C49.936 11.6643 50.5695 12.0679 50.9677 12.6734C51.3659 13.267 51.565 14.0803 51.565 15.1132C51.565 16.4072 51.2512 17.4164 50.6238 18.1406C50.0084 18.8648 49.0672 19.2269 47.8002 19.2269H43.8906V4.80215ZM47.1486 10.8214C47.9933 10.8214 48.5785 10.6433 48.9043 10.2871C49.2301 9.91907 49.393 9.29578 49.393 8.41724C49.393 7.77614 49.2904 7.30719 49.0853 7.01038C48.8922 6.7017 48.5966 6.50581 48.1984 6.42271C47.8002 6.3396 47.2089 6.29805 46.4246 6.29805H45.9359V10.8214H47.1486ZM47.3115 17.7844C47.9148 17.7844 48.3794 17.6954 48.7052 17.5173C49.0431 17.3273 49.2784 17.0424 49.4111 16.6625C49.5438 16.2826 49.6102 15.7661 49.6102 15.1132C49.6102 14.1871 49.4171 13.4985 49.031 13.0474C48.6449 12.5844 48.0174 12.3529 47.1486 12.3529H45.9359V17.7844H47.3115Z" fill="#222222"/>
  <path d="M53.9255 4.80215H59.6088V6.29805H55.9707V11.0707H58.921V12.4953H55.9707V17.7844H59.645V19.2269H53.9255V4.80215Z" fill="#222222"/>
  <path d="M65.2963 19.3872C64.0655 19.3872 63.1243 19.0132 62.4727 18.2652C61.8332 17.5173 61.4772 16.4903 61.4048 15.1844L63.2148 14.7036C63.2751 15.6296 63.4561 16.3776 63.7578 16.9474C64.0715 17.5173 64.5843 17.8022 65.2963 17.8022C65.8272 17.8022 66.2254 17.6598 66.4909 17.3748C66.7684 17.078 66.9072 16.6566 66.9072 16.1104C66.9072 15.5168 66.7805 15.0241 66.5271 14.6323C66.2737 14.2406 65.8694 13.8072 65.3144 13.3323L62.8528 11.1953C62.3581 10.7679 61.9961 10.3109 61.7668 9.8241C61.5496 9.32546 61.441 8.71998 61.441 8.00765C61.441 6.95102 61.7487 6.13184 62.3641 5.5501C62.9795 4.96836 63.8181 4.67749 64.88 4.67749C66.0384 4.67749 66.9132 4.98023 67.5045 5.58571C68.0957 6.1912 68.4517 7.1291 68.5723 8.39943L66.8348 8.86245C66.7744 8.01952 66.6055 7.37248 66.328 6.92134C66.0625 6.45832 65.5798 6.22681 64.88 6.22681C64.3611 6.22681 63.9629 6.36335 63.6854 6.63641C63.4079 6.89759 63.2691 7.28938 63.2691 7.81176C63.2691 8.23916 63.3415 8.60126 63.4863 8.89806C63.6311 9.183 63.8784 9.47387 64.2284 9.77067L66.7081 11.9077C67.3476 12.4657 67.8544 13.0711 68.2285 13.7241C68.6146 14.3771 68.8076 15.1191 68.8076 15.9502C68.8076 17.0068 68.4819 17.8438 67.8303 18.4611C67.1787 19.0785 66.334 19.3872 65.2963 19.3872Z" fill="#222222"/>
  <path d="M72.5481 6.29805H70.0684V4.80215H77.0007V6.29805H74.5934V19.2269H72.5481V6.29805Z" fill="#222222"/>
  <path fill-rule="evenodd" clip-rule="evenodd" d="M42.3503 0.725868L33.1479 24.0322L31.5703 23.3386L40.7728 0.0322266L42.3503 0.725868Z" fill="#EC1A2E"/>
</svg>
