<svg xmlns="http://www.w3.org/2000/svg" viewBox="0 0 412 376.5"><path d="M184 260.4v.6l2.4 1-1.3 2.4.5.4 5-3.9-.2-.5zm-5.7 100.4l-8.9-3.9 8.6-4.5-.2-.5-13 3.6a1.6 1.6 0 0 0-1.2 1 1.7 1.7 0 0 0 1.1 2.2h.2l12.6 4 6.3 2.2 6.3 2.1.3-.6-6-2.8-6.1-2.8m-11.8-100.4l-.1.6 2.4 1-1.3 2.4.5.4 5-3.9-.2-.5zm167.2 44.3l-4 .6-3.8.6-2.1.4-1.4.3-1.5.3-1.7.3-3.4.7-1.4.3-2 .5.2 1 2-.3 1.5-.1 3.3-.5 3.2-.4.9-.1 2.7-.4 4.7-.7 3-.4 3.1-.5.9-.1 3.8-.6 4.7-.8 2-.3 3-.5 1.7-.3 2-.4-.1-1h-.2l-1.8.2h-.6l-4.3.3-2.3.3-4.5.4-3.8.6-4 .5m-127-119.2l-11.3 5-.3-3.2h-.8l-.8 6.5.7.4 13-8zm-4.5 25.5l-.2-2-.8-.1-.9 5.2.6.4 7-5-.3-.8zm-5.7-33.5l-9.2 4-.9-3.8h-.8l-.3 7.2.6.3 11-7.1zm3.7 22.8l-.3-2h-.8l-.8 5.2.7.4 9.6-6.8-.4-.7zm135.4.5a2.7 2.7 0 0 1 .3.4 4.7 4.7 0 0 1 .3.4 5.6 5.6 0 0 1 .5 1 5 5 0 0 1 .4 1 4.6 4.6 0 0 1 .2 1v.5a4.8 4.8 0 0 1 0 .6 5.6 5.6 0 0 1-.3 1 4 4 0 0 1-.1.5l-.3.6.5.3.3-.5.3-.6a7 7 0 0 0 .4-1.2v-.6a4.2 4.2 0 0 0 .1-.6 6.6 6.6 0 0 0 0-1.3 6.2 6.2 0 0 0-.3-1.2 8.5 8.5 0 0 0-.5-1.2l-.3-.5a3.8 3.8 0 0 0-.3-.5 8.2 8.2 0 0 0-.8-1l-7.6-7.2-1.8 2.2 8.4 6.2a6.6 6.6 0 0 1 .6.7m-22.1-14v.5l.2.4a3.5 3.5 0 0 0 .5.9 3 3 0 0 0 .4.4 3.8 3.8 0 0 0 .4.3 4.5 4.5 0 0 0 .7.5h.2a4.8 4.8 0 0 0 1.7.4 2.2 2.2 0 0 0 .4 0 3 3 0 0 0 .9-.1l.4-.2H319.4l.2-.2a4.1 4.1 0 0 0 1.3-1.1 3.4 3.4 0 0 0 .6-1.5v-.1a2.7 2.7 0 0 0 .1-.5v-.6a3.8 3.8 0 0 0-.2-.7v-.2a5 5 0 0 0-.4-.7l-.1-.2-.8.3a5.7 5.7 0 0 0 0 .6v.3a4 4 0 0 1-.1.3 2.7 2.7 0 0 1-.2.4v.2l-.2.1a.6.6 0 0 1 0 .2l-.2.1a1.2 1.2 0 0 1-.3.3.7.7 0 0 1-.2.1h-.2l-.3.2a2.2 2.2 0 0 1-.7 0 2.5 2.5 0 0 1-.7 0 .8.8 0 0 0-.2-.2h-.1a1.2 1.2 0 0 0-.3-.2.6.6 0 0 0-.1-.2.4.4 0 0 1-.2-.2l-.2-.3a1.8 1.8 0 0 1-.1-.5 1.2 1.2 0 0 1 0-.3v-.1a.6.6 0 0 1 0-.3.6.6 0 0 0 0-.2.5.5 0 0 1 0-.2V184.1l.2-.3a3 3 0 0 1 .2-.3.7.7 0 0 0 0-.2l.6-.4.1-.1-.4-1h-.2l-.7.2-.2.1a3.3 3.3 0 0 0-.7.4l-.5.4a3.2 3.2 0 0 0-.2.3l-.2.2a3.8 3.8 0 0 0-.6 1.5 3 3 0 0 0 0 .8 3.5 3.5 0 0 0 0 .8zm-1.1 18.3l.1.6a4 4 0 0 0 .2.5l.2.4.2.3.3.2a5.3 5.3 0 0 0 .4.5l.4-.3v-.6-.2-.3a3.3 3.3 0 0 1 0-.7 4 4 0 0 1 .1-.8 1 1 0 0 1 .1-.3l.2-.4a3.2 3.2 0 0 1 .5-.6 1.5 1.5 0 0 1 .3-.3l.2-.2.1-.1a4.5 4.5 0 0 1 .7-.4 5.5 5.5 0 0 1 .8-.2h.4a1.4 1.4 0 0 1 .4 0h.8a3.3 3.3 0 0 1 .6.2l.2.1a1.1 1.1 0 0 1 .3.2l.5.3.5-.5-.2-.5a1 1 0 0 0-.2-.3l-.2-.3-.4-.4c0-.2-.2-.2-.4-.3l-.5-.3-.5-.2a2.8 2.8 0 0 0-.7-.2 5.4 5.4 0 0 0-.7-.1 4.6 4.6 0 0 0-1.4.2 5.2 5.2 0 0 0-1.4.7h-.2l-.1.2-.2.2a3.5 3.5 0 0 0-.5.6 4.5 4.5 0 0 0-.7 1.3 5 5 0 0 0-.2 1.4v.6M282 299.5l.6.4.8.5c.3.1.5.5.8.6l.4.4.4.3.7.8c.3.2.4.6.6.9l.6.8c.2.2.3.6.4 1a6.6 6.6 0 0 1 .4.8l.2.7a4.9 4.9 0 0 1 .2.6 4 4 0 0 0 .2.6h.7l.2-.6a2.6 2.6 0 0 0 .1-.7 4.1 4.1 0 0 0 .1-1v-.5-.6a8.2 8.2 0 0 0-.3-1.3 7.7 7.7 0 0 0-.6-1.2 8.1 8.1 0 0 0-.8-1.2l-.2-.2a6.8 6.8 0 0 0-.9-.8 6.6 6.6 0 0 0-2.3-1.3l-.5-.2h-.5a4 4 0 0 0-1-.1 2.7 2.7 0 0 0-.8 0h-.6v.7l.5.3a4.4 4.4 0 0 1 .6.3m28.3 3l1.3-.2 1-.1 2.5-.3 10.5-1.8.9-.1 4.6-1 2.2-.5a130.7 130.7 0 0 0 5.2-1.1l.9-.2 1.3-.3.2-.1-.2-1h-.2l-1.3.1-.8.1-2.7.3h-.3a120 120 0 0 0-10 1.7h-.2c-3.4.6-7.2 1.4-10.4 2.2l-2.4.6-1 .2-1.3.4h-.2l.2 1zm-33 14.6l1-.1.7-.1 2-.4a116.6 116.6 0 0 0 7.5-1.6l.8-.1 4.2-1 3.8-1 1.9-.6.7-.2 1-.3.2-.1-.2-1h-1.2l-.8.2-2 .3a105.8 105.8 0 0 0-18.2 4.3l-.6.2-1 .4h-.2l.3 1zM125.2 93.3l.5-1-36-17.3-22-29.2-.8.6 19.6 32zM102.3 129l-77.9-16-.3 1 20.2 7.4 57.8 8.7zm86.7 37.6l-13.1 6.2-1-5h-.9v8.6l.6.4 14.8-9.5zM51 60.6l-.8.6 17.2 23.7 41.7 13.8.3-1-38.6-15.9zm-5.4 70.7l20.8 6 41 3.7v-1L46 130.1zm209.7 54.2l4 1.7-2 3.8.4.5 7.7-6-.2-.6h-9.7zm-152.1-77.1l.3-1L55.9 92 32.4 69.9l-.7.7 21 25zm-1.6 11.4l.2-1-56.2-15.4-25.3-20.6-.7.6L43 107.2zm59.3 13.8l-25 13.1-1-5.4h-1v9l.7.4 26.7-16.3zm9.8 10.8l-22 11.4-1-5.4-.8.1-.1 9 .6.4 23.8-14.8zm10 10.8l-18.3 9.3-1-5.3-.8.1-.1 8.9.6.3 20-12.6zm-37.8-44.1l-24.2 12.8-1-5.4h-.8l-.1 9 .6.4 26-16.1zm8.3 11.3l-25.5 13.8-1-5.4h-.9l-.1 9 .7.5 27.3-17.2zm-17.5-22.1l-18.3 9.3-1-5.4h-.9v9l.7.4 20-12.6zm141.8 89.2l4 1.8-2 3.8.4.4 7.7-6-.2-.6h-9.7zm-27 104.3l-16-19.7-.9.3 4.2 23.5 8.4 9.8.5.2a5 5 0 0 1 .6.3l.7.4a6 6 0 0 1 .7.5l.8.6.8.7a10.2 10.2 0 0 1 .7.7l.7.8.6 1 .4.8.4.8.3.7a6.5 6.5 0 0 1 .2.7l.2.5h.6a4.5 4.5 0 0 0 .2-.5 3.7 3.7 0 0 0 .2-.7 6 6 0 0 0 0-1v-.6-.6a8.5 8.5 0 0 0-.3-1.2 7.6 7.6 0 0 0-.6-1.3 7.4 7.4 0 0 0-.9-1.1 6.9 6.9 0 0 0-1-1 7 7 0 0 0-1.2-.8 9.6 9.6 0 0 0-1.2-.5l-.6-.2.7-.1 4.7-1.2h.3a3.7 3.7 0 0 1 .5.3l.7.4.8.5.8.6.8.7.7.8.7.8.5.9.5.8a7.5 7.5 0 0 1 .4.8l.3.8a5.7 5.7 0 0 1 .2.6 4.8 4.8 0 0 0 .2.6h.6l.2-.6a3.1 3.1 0 0 0 .2-.7 4.4 4.4 0 0 0 0-1v-.5-.6a6.8 6.8 0 0 0-.4-1.3 7.6 7.6 0 0 0-.6-1.2 8.4 8.4 0 0 0-.8-1.2 8 8 0 0 0-1-1 6.8 6.8 0 0 0-1.2-.8 9 9 0 0 0-1.2-.5h-.2l13.3-3.3-14.5-8zm36.4-87.1l-7.8.7v.6l3.2 1-1.4 3.2.5.4 5.8-5.4zm-36.2 36.8l6.8-10.1-.3-.5-11.7 3.8.1.6 5.5.5-1 5.5zm5.6 8v.5l3.4.9-1.2 3.2.6.3 5.3-5.7-.3-.6zM210 329.8l2.2-.7 8.6-2.9 3-1 .9-.3 3.5-1.2 3.9-1.3 1.4-.5 2-.7.2-.1-.3-1h-.2l-2 .5-1.1.2-4.4 1.1-3.6 1-2.8.8-1.2.4-8.6 2.8-6.9 2.4-1.6.5-.8.3-6.6 2.5-2.3 1-.6.2-2.3.9-2 .8.3 1 2.2-.6 1.5-.5 1.7-.5 2-.6 4.6-1.5 3-1 6.3-2m52.9-9.2l-2.3.7-5.1 1.5-5 1.5-2.6.8-2.8 1-11.7 4-7.5 2.8-4.2 1.5-3.6 1.5-1.7.6c-1.3.5-2.6 1-3.7 1.6l-1 .4-5.1 2.1-2 .8-2.7 1.2h-.2l.4 1h.2l2.7-1 2.1-.7 5.2-1.9 1.4-.5 3.4-1.2 1.7-.6 3.6-1.4 4.1-1.5 7.6-2.7 11.7-4.2 5.4-1.9 3.6-1.2 1.2-.4 5-1.8 2.2-.8 3-1-.4-1zm-24.8-10a8.2 8.2 0 0 1 .8.6l.8.6.8.7a1.6 1.6 0 0 1 .2.1l.5.6.7.8.5 1 .5.8.4.8.3.7a6.3 6.3 0 0 1 .2.7c0 .3.2.5.2.5h.6l.2-.5a2.6 2.6 0 0 0 .2-.7 4.3 4.3 0 0 0 0-1v-1.2a7.8 7.8 0 0 0-.4-1.2 8.4 8.4 0 0 0-.6-1.3 6.4 6.4 0 0 0-.5-.7l-.3-.4a8.9 8.9 0 0 0-1-1 7 7 0 0 0-1.2-.8 7.8 7.8 0 0 0-1.2-.5 5.5 5.5 0 0 0-.6-.1h-.5a4 4 0 0 0-1-.1 3 3 0 0 0-.7 0l-.6.2v.6l.5.2a6 6 0 0 1 .6.3l.7.4m41.4-86l2.6.6-.9 2.5.5.4 4.3-4.6-.3-.6-6.2 1zm-21.4-22.3l5.2 1.1-1.6 5 .5.4 7.7-8.9-.3-.5-11.5 2.3zm8.5-37.5h31.9s10 3.8 23.2 9.1a13.6 13.6 0 0 1 8.8 14.2s5.2 5.2 8.1 8.5c3.5 4 3.9 9.5 1.2 13.2a12.6 12.6 0 0 1-8.2 4.7l-.3-.7c2-2 1.2-5.4-.6-8.1s-3.7-3.3-5.7-2.1c-.9.5-2 1.4-2 1.4l5 7.9-.2.5c-4 1.1-9.3.3-11.9-3h-24.6v.7l13.7 2.4.4 1-46.8 55.1.4.4 16-14.2v12.4l-1.6 3.7 1.5 8.7-.5 3.8L289 297a3.8 3.8 0 0 0 .4.2l.6.3.7.4a7.9 7.9 0 0 1 .7.5l.8.6.8.7.7.8.6.8a9.4 9.4 0 0 1 .6.9l.4.9.4.8.3.7a3.6 3.6 0 0 1 .2.6l.1.6h.7a5.7 5.7 0 0 0 .2-.5 2.6 2.6 0 0 0 .2-.7 3.8 3.8 0 0 0 0-1v-.6-.6a7.9 7.9 0 0 0-.3-1.2 8.3 8.3 0 0 0-.6-1.3 8.6 8.6 0 0 0-.8-1.2 8.8 8.8 0 0 0-1-1 7.6 7.6 0 0 0-1.1-.8 8 8 0 0 0-1.2-.5 3.4 3.4 0 0 0-.5-.1l5.5-1.2a4.3 4.3 0 0 1 .5.3 7.6 7.6 0 0 1 .7.4l.8.5.8.6.7.7.8.8.6.8.5.9.5.9a8.4 8.4 0 0 1 .4.8l.2.7a4.4 4.4 0 0 1 .2.7 5.3 5.3 0 0 0 .2.5h.6a5.3 5.3 0 0 0 .3-.5 2.5 2.5 0 0 0 .1-.7 3.8 3.8 0 0 0 .1-1v-.6-.6a8 8 0 0 0-.4-1.2 8.3 8.3 0 0 0-.5-1.3 9.7 9.7 0 0 0-.8-1.2 9.8 9.8 0 0 0-1-1 7 7 0 0 0-1.2-.7 8 8 0 0 0-1.1-.5c25.7-5.6 45.5-9.3 45.5-9.3 26 15.3 24.3 14.4 29.7 17.4 9.8 5.5 9.4 21.6-9.2 21.6-14 0-40 2.4-56 5.5l14-12.7-.4-.5a243.4 243.4 0 0 1-30.3 18.3c-8.9 3.6-22.3 9.4-36.2 15.6l20.5-19.4-.5-.4s-26.1 21-44.6 30.8c-11.2 5-20.7 9.5-26.1 12a25.7 25.7 0 0 1-21.8 1.3c-13.3-4.7-18.5-6.5-29.8-10.8-6.5-2.5-7-11.8 0-14l16.3-5.2 7 3 11.2 5 5 2.1 1.2.6.6.2.3.1.2.1a9.8 9.8 0 0 1 1.8 1.3 7.6 7.6 0 0 1 2.2 3 7.3 7.3 0 0 1 .4 3 8.3 8.3 0 0 1-.3 2l-.2.7.7.4.3-.8a10.2 10.2 0 0 0 .5-2 8.6 8.6 0 0 0-.2-3.5 9 9 0 0 0-2.3-3.9 12.3 12.3 0 0 0-2-1.6h-.2l-.1-.2-.3-.1-.6-.3-1.1-.7-4.8-2.8-10.5-6L159 332h-.1s27.7-8.7 63-18.3l5.6 2.4.2-.3v-.2l-3.2-2.7-8.7-7-4.4-1.5-2.8-7.9-4-2.2-3.8-17.6-.6.2 1.6 19.2-11 6.1v-25.4h-.7l-3.2 26.7-14.7 3 5-29.2-.7-.1-9 29.7-14.5 1 10.5-31-.6-.3-15.4 31.6-14.3 1 16.7-32.8-.6-.4-22.8 33.8-15.2 2.4 24.7-36.4-.5-.4L94 323.7l-2.2-1.5 37.2-58.4 57-21.3 6.1-2.6 3.5-1.6 1.8-1 1.7-1.1a25.1 25.1 0 0 0 3-2.6l.7-.7.7-.8a18.2 18.2 0 0 0 1.1-1.5c.4-.5.8-1 1-1.5l1-1.5.7-1.5.6-1.4a23.2 23.2 0 0 0 .8-2.6l.4-2 .2-1.3v-.5h-.6v.4c0 .4-.2.7-.4 1.3a17.6 17.6 0 0 1-.6 1.9 22.3 22.3 0 0 1-1 2.3l-.6 1.4-.8 1.3-1 1.4c-.2.5-.7.9-1.1 1.3l-1.2 1.3-.7.6-.7.6a22 22 0 0 1-3 2.2 32 32 0 0 1-3.2 1.6l-3.5 1.3-6.2 2.2-4.4 1.5-3.6-7.3 7.4-6.6-.4-.5-19.6 12.2-4.7-9.3 26.7-19.8-.4-.6-40.7 24.4-3.6-9.9 38.3-25.5-.4-.6-49.3 27.1-2.4-9.2 41.8-26.5-.3-.6-51.1 26-1.5-10.8 42.2-22.8-.3-.5-52.2 21.7-.2-10.6 42.5-16.7-.2-.6-51.7 14.2.6-11.7 39.3-9-.1-.6-50.3 6.9 1.6-10 37-4v-.6l-51.7.8.8-8.5 41.2-.3v-.6l-74-5.4-.2-.7 12-4.1v-.6L22 128l.1-.7 12.3-1v-.6L8 109.3l.1-.9 18.6 1 .2-.6-21.3-20 .2-.6 10 1.9.4-.5L6.2 77-.1 59l.7-.2 9.6 12L32 83.5l.4-.5-14-20.5-5.2-23 .6-.3 11.3 17 22 17.8.4-.4L34 49.2l-4.7-29.7.8-.2 13 25.3 27.5 22.8.6-.4-19-30.4L48.1.2l.6-.2 11.8 32.3 39 35 49 25.2 54 75 21 17.6.5-.5-9.2-12 21.6-5.5v-.7l-18.8-1v-.7l27.5-4.9v-.6l-34.4-2.6v-.7l43.7-7.3 17.4 4 .2-.5-16.6-7.6-27.2.6v-.7l29-5.5 18 6.2.2-.6-16.3-10.4-19.3-.7v-.7l21.6-3.3 19 8.8.3-.6L265 123h-17v-.7l20.6-4.7 18.3 15 .4-.4-14-20.6-15.3-2.9v-.6l19.4-1.2 17.5 21.3.6-.3-12.6-26.5-16.8-5.5v-.7l21.5 1.8 16.2 28 .6-.3-10.8-32.8-21-7.5v-.7l25.6 4.6 14.2 33.7.6-.2-9.3-37.6-22.6-12.8.3-.6L308.4 81l12.8 37.7.6-.2-8-41.1-24.6-17.9.4-.5 28.6 15.6 11.2 39.6.6-.1-7-42.4-25.7-22.9.4-.5L327.8 69l8.6 40.4.7-.2-4.4-43L307 38.5l.5-.5 29.7 25.5 6.5 39h.7l-2.9-41-24.3-31.8.5-.4L346.3 59l4.5 33.8h.6L350 57l-22.2-34 .5-.4L354 55.3l3.4 24.2h.7l-1.2-26L341 18.1l.6-.3 19.5 33.4 1.9 13.7.6-.1 1-15.6-8.3-33.2.7-.2 11.2 27.8h.6l7-27.8.7.2-2.3 27.3.6.2 19-27.4.6.4L382 41.3l.4.5L411.6 21l.4.5-44.3 59.9-19 51.2a8.5 8.5 0 0 1-5 5.2l-36 14.3-9.5 8.4-31.8 3.7zm-6 55.7l4.3.8-1.2 4.2.6.3 6.2-7.5-.3-.5-9.6 2.1zm12-41.6l.5.4 6.2-4.8-.2-.6h-7.8l-.2.6 3.2 1.4zm-44.9 86h-6.3v.7l2.4 1-1.3 2.4.4.4 5-3.8zm62.5-83.2l.5.4 4.9-3.8-.2-.6h-6.3v.6l2.4 1.1zm-23.4 55.2v.6l3.4.8-1.2 3.2.6.4 5.3-5.8-.3-.5zm-32.1-48.5l.5.4 7.7-6-.2-.6h-9.8l-.1.6 4 1.7zm17-10.5l.5.4 5-3.8-.3-.6h-6.2l-.2.6 2.5 1zM232 253.5l6.3-7.4-.3-.6-9.6 2v.7l4.3.8-1.3 4.2zm3.6-54.1l5.4 1.4-2 5.2.6.4 8.4-8.9-.2-.5-12.2 1.8zM221.3 253h-7.8l-.1.6 3.1 1.4-1.6 3 .4.4 6.2-4.8zm22.7-28l7.2-10-.4-.4-11.7 3.4v.6l5.5.7-1.2 5.4zm-3.1 39.5l4.2-4.6-.3-.5-6.2 1v.6l2.6.7-.8 2.5zm-39-.5l-.2.6 2.5 1-1.3 2.4.4.4 5-3.8-.2-.6zm20.7-31.2l4.3.6-1 4.3.6.3 5.9-7.9-.4-.5-9.4 2.6zm-6.3 6.9l-7.8.3-.2.6 3.2 1.2-1.5 3 .5.5 6-5zM203 250.2h-6.3l-.1.6 2.4 1-1.3 2.4.5.4 5-3.8zm17.6-45l.5.3 5.3-5.8-.3-.5-7.7 1.3v.6l3.4.8zm-.7 11.3l4 .8-1.1 4 .5.3 6-7.1-.2-.6-9.2 2z" fill="#337e81"/></svg>