<svg xmlns="http://www.w3.org/2000/svg" viewBox="0 0 3500 416"><defs><clipPath clipPathUnits="userSpaceOnUse" id="a"><path d="M3540 2593.97l87.82-17.85c205.41-41.95 233.09-164.91 233.09-279.63V850.699c0-119.062-28.22-234.957-233.09-276.726L3540 556.031V510h1020v46.031l-87.82 17.942c-204.69 41.769-232.82 157.664-232.82 276.726V2296.49c0 114.72 27.68 237.68 232.82 279.63l87.82 17.85V2640H3540v-46.03" clip-rule="evenodd"/></clipPath><clipPath clipPathUnits="userSpaceOnUse" id="b"><path d="M0 0h26250v3120H0z"/></clipPath><clipPath clipPathUnits="userSpaceOnUse" id="c"><path d="M24360 2640v-716.95h43.4l106.4 265.41c104.2 261.07 213 402.52 489.8 402.52h114.8V850.531c0-112.726-26.6-246.383-234.3-279.636l-89.3-14.227V510h1028.1v46.668l-89.2 14.227c-207.4 33.253-234 166.91-234 279.636V2590.98h114.7c276.7 0 385.6-141.45 490-402.52l105.9-265.41h43.7V2640h-1890" clip-rule="evenodd"/></clipPath><clipPath clipPathUnits="userSpaceOnUse" id="d"><path d="M0 0h26250v3120H0z"/></clipPath><clipPath clipPathUnits="userSpaceOnUse" id="e"><path d="M23466.3 2593.38l83.1-10.98c155.7-22.59 300.4-99 303.4-500.76l8.5-964.08-819.7 969.3c-245.4 291.42-345 413.91-417.4 544.32l-4.8 8.82H21870v-45.81l13.9-2.7c154.3-28.08 250.6-90.81 412.6-268.47l31.4-33.66V1180.92c0-475.291-149-551.248-329-596.248l-60.4-15.031v-45.18h839.5v45.18l-60.3 14.937c-160.3 42.031-326.2 85.594-329.2 596.432l-8.5 1053.45 1482.7-1748.519 5.2-5.941h45.7v1601.82c0 402.3 153.4 478.8 303.3 500.58l83.1 10.98V2640h-833.7v-46.62" clip-rule="evenodd"/></clipPath><clipPath clipPathUnits="userSpaceOnUse" id="f"><path d="M0 0h26250v3120H0z"/></clipPath><clipPath clipPathUnits="userSpaceOnUse" id="g"><path d="M14844.9 892.109c-140.2-242.66-311.7-332.816-632.6-332.816h-88.6c-178.4 0-258 87.895-258 285.152v737.125l130.6-2.63c320.4-5.98 408.2-20.39 507.3-332.45l36.2-113.63h44v953.41h-44.1l-36.1-116.97c-96.8-310.89-192-326.39-507.4-332.28l-130.5-2.63v956.5h225.5c376.9 0 546.8-79.28 673.6-314.6l143.7-263.23h41.6V2640H13170v-45.94l87.4-17.85c193.1-39.69 231.9-133.02 231.9-270.66V850.699c0-112.902-26.2-246.554-231.2-279.719l-88.1-14.226V510h1860v626.94h-41.2l-143.9-244.831" clip-rule="evenodd"/></clipPath><clipPath clipPathUnits="userSpaceOnUse" id="h"><path d="M0 0h26250v3120H0z"/></clipPath><clipPath clipPathUnits="userSpaceOnUse" id="i"><path d="M21534.7 892.109c-139.9-242.66-311.3-332.816-632.3-332.816h-88.7c-178.4 0-258 87.895-258 285.152v737.125l130.6-2.63c320.4-5.98 408.4-20.39 507.1-332.45l36.5-113.63h43.7v953.41h-43.8l-36.4-116.97c-96.6-310.89-191.8-326.39-507.1-332.28l-130.6-2.63v956.5h225.5c376.7 0 546.7-79.28 673.6-314.6l143.7-263.23h41.5V2640h-1780v-45.94l87.6-17.85c192.8-39.69 231.7-133.02 231.7-270.66V850.699c0-112.902-26.3-246.554-231-279.719l-88.3-14.226V510h1860v626.94h-41.2l-144.1-244.831" clip-rule="evenodd"/></clipPath><clipPath clipPathUnits="userSpaceOnUse" id="j"><path d="M0 0h26250v3120H0z"/></clipPath><clipPath clipPathUnits="userSpaceOnUse" id="k"><path d="M7723.35 865.484V2591.31h269.03c536.08 0 856.26-377.3 856.26-1009.12 0-641.1-302.32-1008.858-829.47-1008.858h-65.39c-191.2 0-230.43 116.738-230.43 292.152M8081.94 2640H6190.32v-46.53l83.06-10.98c190.93-27.63 301.86-108.64 304.3-441.11l8.84-1023.79-821.99 969.34c-240.44 284.68-345.51 413.66-418.12 544.34l-4.95 8.73H4590v-45.81l14.07-2.61c154.49-28.17 251.18-90.9 413.88-268.57l31.29-33.57V1180.86c0-475.219-149.53-551.094-330-596.274l-60.52-14.941v-45.184h841.47v45.184l-60.43 14.941c-160.62 42.031-326.66 85.504-329.82 596.454l-8.66 1053.5L6592.92 480h45.54v1709.08c0 266.95 118.78 402.23 352.74 402.23 233.94 0 352.54-135.28 352.54-402.23V862.695c0-123.484-28.59-242.738-236.38-277.75l-85.5-14.312v-46.172h1060.08c366.26 0 673.26 112.687 888 325.723C9163.4 1042.16 9270 1305.34 9270 1591.28c0 284.5-106.69 544.52-300.24 732.09C8756.1 2530.55 8449.01 2640 8081.94 2640" clip-rule="evenodd"/></clipPath><clipPath clipPathUnits="userSpaceOnUse" id="l"><path d="M0 0h26250v3120H0z"/></clipPath><clipPath clipPathUnits="userSpaceOnUse" id="m"><path d="M18283.3 865.484V2591.31h269.2c536 0 856.1-377.3 856.1-1009.12 0-641.1-302.2-1008.858-829.3-1008.858h-65.8c-190.9 0-230.2 116.738-230.2 292.152M18641.8 2640h-1891.5v-46.53l83.1-10.98c190.7-27.54 301.5-108.55 304.4-441.11l8.6-1023.79-822.2 969.34c-246 291.7-345.8 414.2-418.2 544.34l-4.9 8.73H15150v-45.81l13.9-2.61c154.6-28.17 251.3-90.9 413.8-268.48l31.1-33.66V1180.86c0-475.309-149.3-551.274-329.7-596.274l-60.6-14.941v-45.184h841.8v45.184l-60.4 14.941c-161 42.031-327.1 85.504-329.9 596.454l-8.9 1053.5 1486.8-1748.599 5.1-5.941h45.5v1709.08c0 266.95 118.7 402.23 352.7 402.23 233.9 0 352.5-135.28 352.5-402.23V862.695c0-123.574-28.6-242.738-236-277.75l-85.9-14.312v-46.172h1060c366.3 0 673.5 112.687 888.2 325.723 193.5 191.976 300 455.156 300 741.096 0 284.41-106.5 544.43-300.1 732.09-213.8 207.18-520.8 316.63-888.1 316.63" clip-rule="evenodd"/></clipPath><clipPath clipPathUnits="userSpaceOnUse" id="n"><path d="M0 0h26250v3120H0z"/></clipPath><clipPath clipPathUnits="userSpaceOnUse" id="o"><path d="M12322.4 2640H11400v-45.85l88.6-17.94c206.7-41.87 235.1-157.76 235.1-276.56V850.531c0-118.976-28.4-234.875-235.1-276.558l-88.6-17.942V510h1068.4v45.941l-70.5 14.77c-243.2 50.473-289.1 99.68-289.1 309.816V2590.98h90.7c329.1 0 525.5-222.1 525.5-593.98 0-371.8-196.4-593.71-525.5-593.71h-23v-51.93h145.9c481.4 0 817.6 265.5 817.6 645.64 0 378.68-336.2 643-817.6 643" clip-rule="evenodd"/></clipPath><clipPath clipPathUnits="userSpaceOnUse" id="p"><path d="M0 0h26250v3120H0z"/></clipPath><clipPath clipPathUnits="userSpaceOnUse" id="q"><path d="M10975 892.109c-140.2-242.66-311.6-332.816-632.7-332.816h-88.6c-178.6 0-258.16 87.895-258.16 285.152v737.125l130.56-2.63c320.6-5.98 408.5-20.39 507.3-332.45l36.4-113.63h43.8v953.41h-43.9l-36.3-116.97c-96.5-310.89-191.8-326.39-507.3-332.28l-130.56-2.63v956.5H10221c376.9 0 547-79.28 673.9-314.6l143.6-263.23h41.7V2640H9300v-45.94l87.38-17.85c192.91-39.69 231.73-133.02 231.73-270.66V850.699c0-112.902-26.3-246.554-231.11-279.719l-88-14.226V510h1860v626.94h-41.3L10975 892.109" clip-rule="evenodd"/></clipPath><clipPath clipPathUnits="userSpaceOnUse" id="r"><path d="M0 0h26250v3120H0z"/></clipPath><clipPath clipPathUnits="userSpaceOnUse" id="s"><path d="M1590 30c845 0 1530 685.004 1530 1530 0 845-685 1530-1530 1530-844.996 0-1530-685-1530-1530C60 715.004 745.004 30 1590 30z"/></clipPath><clipPath clipPathUnits="userSpaceOnUse" id="t"><path d="M0 0h26250v3120H0z"/></clipPath><clipPath clipPathUnits="userSpaceOnUse" id="u"><path d="M1574.26 1443.91l23.5-4.78-7.01-22.97 3.08-1.67 34.87 40.99-1.73 2.91-52.71-10.93zm3.88 64.77l3.02-1.83 30.45 32.92-1.61 2.96-44.31-7.26-.1-3.55 19.07-4.73zm-100.79-257.56l-35.89.06-.81-3.5 14.12-6.03-7.44-13.39 2.7-2.31 28.4 21.89zm76.27 59.87l-44.9-1.4-.59-3.55 18.32-7.15-8.94-17.54 2.74-2.21 34.5 28.68zm36.27 39.43l24.85-3.49-5.93-24.32 3.23-1.56 33.75 44.76-1.95 2.8-54.16-14.64zm-119.06-178.27l-.75-3.44 14.06-6.19-7.38-13.34 2.69-2.31 28.35 21.95-1.07 3.28zm223.89-3.12l24.21 26.58-1.68 2.95-35.35-6.08-.11-3.49 14.82-3.66-4.9-14.42zm17.74 226.47l41.18 56.7-1.94 2.85-67.38-19.53.27-3.6 31.64-3.87-6.95-31.04zm-129.95-160.68l-44.85.11-.75-3.45 18.05-7.79-9.53-17.22 2.69-2.31 35.52 27.43zm82.57 306.89l30.78-8.23-11.22-29.8 3.02-1.88 48.57 50.45-1.57 3.13-69.42-10.17zm-20.86-309.8l36.33 42.72-1.73 2.96-54.92-11.46v-3.55l24.53-5.01-7.28-23.93zm112.54 431.7l2.7-2.32 28.29 22-1.07 3.23h-35.9l-.7-3.44 14.06-6.08zm-97.77-59.98l2.64-2.32 44.3 34.32-1.07 3.23-56.11.05-.7-3.49 23.01-9.9zm184.33-277.52l-.16-3.5 19.08-4.73-6.47-18.56 3.02-1.78 30.45 32.87-1.61 2.96zm133.89 315.5l2.69-2.32 28.35 22-1.08 3.17h-35.89l-.71-3.38 14.07-6.08zm-358.26-476.34h-35.96l-.7-3.39 14.07-6.13-7.44-13.4 2.7-2.31 28.45 22zm257.57 492.85l2.7-2.32 35.41 27.49-1.08 3.23h-44.9l-.75-3.44 18.11-7.8zm-68.82-238.41l24.63-4.68-6.95-24.1 3.12-1.56 35.68 43.19-1.83 2.91-54.71-12.27zm34.44 319.04l182.6-.32s57.67-21.62 133.4-52.07c34.77-13.98 53.31-45.29 50.34-81.01 0 0 29.92-29.91 46.57-48.79 19.84-22.92 22.05-54.66 6.47-75.42-15.47-20.34-37.57-25.39-46.73-26.74l-1.83 3.45c12.02 11.99 7.11 31.31-3.51 46.63-11.1 15.98-21.07 18.89-32.44 12-5.07-3.12-11.54-7.85-11.54-7.85l28.46-45.3-1.08-3.17c-22.53-6.29-53.73-1.24-68.34 17.16-.65 0-.65 0-140.62.06l-.22-3.72 78.32-14.09 2.31-5.49-268.46-315.06 2.53-2.43 91.41 81.55.17-71.16-8.41-21.41 8.57-49.92-3.02-21.25 83.65-71.224h.05s1.3-.645 2.26-1.074c.92-.43 2-1.024 3.24-1.723a65.125 65.125 0 003.99-2.258c1.45-.808 2.85-1.883 4.36-2.906 1.62-.969 2.97-2.367 4.53-3.442 1.46-1.347 2.97-2.527 4.37-4.035 1.51-1.343 2.75-2.906 4.15-4.41 1.18-1.668 2.53-3.176 3.55-4.894 1.3-1.618 2.16-3.391 3.24-5.004.81-1.778 1.88-3.336 2.53-5.004.81-1.723 1.51-3.336 2.1-4.84.7-1.563 1.14-2.961 1.57-4.145.48-1.289.91-2.472 1.13-3.601.59-2.152 1.02-3.281 1.02-3.281l3.62-.164s.53 1.183 1.29 3.23c.37 1.02.81 2.313 1.02 3.98.33 1.668.6 3.551.49 5.54.05 1.078.05 2.097.05 3.226-.11 1.024-.32 2.207-.38 3.281-.27 2.368-1.08 4.735-1.72 7.262-.97 2.316-1.89 4.949-3.34 7.211-1.24 2.418-3.02 4.57-4.69 6.832-1.89 1.988-3.72 4.035-5.88 5.648-2.05 1.883-4.36 3.227-6.58 4.516-2.31 1.133-4.57 2.207-6.78 2.906-.87.325-1.73.645-2.59.809 10.51 2.367 20.91 4.68 31.21 6.937h.05s.05-.054.11-.105c.92-.379 2.04-1.023 3.23-1.723 1.29-.593 2.59-1.343 3.99-2.312 1.46-.699 2.91-1.828 4.37-2.797 1.61-.914 2.96-2.367 4.52-3.445 1.46-1.344 3.02-2.582 4.42-4.086 1.46-1.348 2.7-2.961 4.1-4.36 1.18-1.668 2.53-3.226 3.61-4.894 1.24-1.613 2.1-3.391 3.18-5.055.81-1.777 1.94-3.336 2.53-5.004.87-1.668 1.57-3.281 2.16-4.789.59-1.558 1.08-2.902 1.51-4.195.48-1.238.92-2.422 1.19-3.551.48-2.098.96-3.336.96-3.336l3.67-.16s.54 1.184 1.24 3.281c.43 1.024.81 2.262.97 3.981.38 1.668.65 3.605.54 5.593 0 1.024.05 1.993.05 3.176-.11 1.024-.27 2.207-.43 3.336-.22 2.313-1.02 4.625-1.67 7.207-.97 2.313-1.89 4.895-3.34 7.207-1.24 2.422-2.97 4.574-4.64 6.778-1.88 1.992-3.77 4.089-5.92 5.703-2.06 1.828-4.43 3.175-6.58 4.519-2.16 1.074-4.26 2.098-6.36 2.742 147.09 31.796 260.87 53.256 260.87 53.256 148.7-87.896 139.22-82.412 170.1-99.517 56.7-31.469 54.33-123.832-52.66-123.832-80.58 0-229.71-13.715-320.69-31.305l80.25 72.672-2.59 2.527s-79.28-57.394-173.6-104.465l-.06-.054c-51.04-20.602-128.06-54.008-207.56-89.297l117.23 110.707-2.64 2.746s-149.73-120.391-255.91-176.66c-63.87-28.778-118.85-53.899-149.84-68.102-42.96-19.527-76.7-25.012-124.72-8.015-76.32 27.003-106.02 37.601-170.75 62.187-37.67 14.254-40.48 67.242-.32 79.988 17.52 5.649 63.27 20.172 93.67 29.801 13.32-5.808 26.95-11.832 40.59-17.75 21.56-9.519 43.23-18.883 63.49-27.812 10.13-4.356 19.94-8.661 29.21-12.746 2.32-.969 4.58-1.993 6.85-2.961 1.13-.43 2.26-.969 3.39-1.454l1.57-.699.05-.051h.22l.21-.109.76-.539c4.47-2.312 7.38-4.355 10.62-7.098 6.2-5.328 10.34-11.675 12.66-17.754 2.27-6.238 2.75-12.101 2.43-17-.16-4.785-1.19-8.55-1.84-11.187-.86-2.473-1.23-3.871-1.23-3.871l4.14-1.668s.6 1.453 1.68 4.086c.96 2.746 2.42 6.726 3.07 12.16.64 5.379.7 12.211-1.4 19.687-2.11 7.422-6.53 15.438-13.31 22.161-3.24 3.281-7.66 6.781-11.43 9.199l-.81.43-.32.269-.76.43-1.62.918c-1.02.644-2.1 1.183-3.18 1.773-2.15 1.238-4.31 2.528-6.52 3.766-8.78 5.054-18.05 10.328-27.65 15.816-19.19 10.973-39.67 22.594-60.15 34.321-45.33 25.871-90.65 51.695-122.13 69.769 0 0-.27.16-.43.215 0 0 158.68 49.812 360.95 105.219l32.51-14.254 1.07 2.097.54.965-19.02 15.332-50.07 40.239-24.85 8.5-16.5 45.183-22.47 12.645-21.99 100.752-3.61-.75 9.21-110.01-62.84-35.18v145.46l-3.88.43-18.22-153.366-84.73-16.516L1330 1095.93l-3.83.8-51.8-170.414-83.11-5.648 60.26 178.002-3.61 1.45-88.61-181.171h-.16l-81.93-5.488 95.62 187.739-3.08 1.88-130.97-193.33-87.151-13.664 141.591 208.344-2.75 2.2-238.337-276.388-12.828 8.555L1052.8 1172.96l326.89 121.95s22.1 9.57 34.87 15.06c6.36 2.74 12.94 5.33 19.89 8.98 3.56 1.62 6.74 3.71 10.19 5.6 3.29 1.99 6.52 4.19 9.7 6.4 6.25 4.62 12.23 9.52 17.52 14.95l3.98 4.04c1.24 1.4 2.48 2.79 3.67 4.19 2.53 2.75 4.69 5.71 6.85 8.56 2.2 2.85 4.03 5.92 5.98 8.71 1.77 2.96 3.45 5.92 5.12 8.72 1.4 3.01 2.8 5.81 4.15 8.49 1.24 2.85 2.32 5.65 3.44 8.23 1.89 5.33 3.62 10.28 4.64 14.69 1.35 4.41 1.89 8.5 2.64 11.73.54 3.22.81 5.7 1.08 7.47.22 1.73.32 2.64.32 2.64l-3.82.65s-.22-.86-.6-2.59c-.37-1.72-.86-4.25-1.67-7.26-.91-3.01-1.72-6.72-3.39-10.92-1.35-4.2-3.34-8.82-5.55-13.66-1.24-2.42-2.59-4.89-3.88-7.48-1.52-2.53-3.02-5.06-4.59-7.8-1.83-2.52-3.55-5.11-5.49-7.69-2.05-2.53-3.94-5.22-6.2-7.64-2.27-2.58-4.42-5.11-6.95-7.42l-3.72-3.61-3.94-3.39c-5.28-4.57-11.16-8.66-17.14-12.37-3.02-1.77-6.14-3.49-9.22-5.11-3.23-1.4-6.25-3.06-9.48-4.3-6.3-2.53-13.15-4.84-19.73-7.15-13.04-4.63-25.22-9.04-35.73-12.75-10.3-3.72-18.92-6.73-25.01-8.93l-21.13 42.28 42.58 37.38-1.94 2.75-113.51-69.34-26.68 53.3 153.24 113.29-2.48 3.12-233.11-139.05-21.19 56.16 219.64 146.37-1.94 3.01-283.02-155.14-13.37 52.88 239.47 151.81-1.72 3.06-293.21-149.11-8.461 62.4v.05l241.841 130.07-1.51 3.12-299.296-124.58-1.402 60.95 244.378 95.26-1.3 3.66-296.492-80.96 3.558 66.6 225.404 51.53-.76 3.55-288.46-39.48 9.215 57.5 212.255 22.76v3.65l-296.497-4.84 4.472 48.58 236.453 1.61.215 3.55-424.718 30.93-.7 4.04 68.828 23.78-.109 3.39-175.976 67.02.429 3.71 70.395 5.65.644 3.66-151.886 93.6.808 5.22 106.449-6.14 1.243 3.39-122.457 114.69 1.562 3.66 57.457-11.03 1.777 2.85-57.511 72.25-35.68 102.36 3.613 1.78 55.082-69.29 124.504-71.38 2.645 2.42-80.258 117.7-30.18 131.47 3.77 1.67 64.894-97.21 125.692-102.1 2.48 2.48-76.969 139.38-26.464 169.93 4.152.97 75.027-144.81 157.703-130.67 3.02 2.48-108.551 173.8-24.469 208.51 3.555 1.07 67.645-184.83 223.406-200.76 281.785-144 309.27-428.84 120.3-101.24 2.91 2.8-52.66 68.53.32.05.22.06-.54-.06 123.86 31.85-.22 3.87-107.63 6.24-.27 3.61 157.92 28.13-.43 3.5-197.05 14.95-.17 3.77 251.28 42.01 99.82-23.56 1.07 3.44-95.18 43.73-155.93-3.49-.37 3.76 166.38 31.31 103.11-35.23 1.4 3.49-93.57 59.23-110.54 4.46-.06 3.99 123.91 19.14 108.29-50.67 1.99 3.18-89.47 83.81-97.18.37-.38 3.98 118.42 26.42 105.04-86.18 2.38 2.47-80.63 117.87-88.07 16.46.37 3.65 111.25 6.68 100.36-121.9 3.07 2.04-72.12 151.7-96.37 31.36.76 3.76 122.78-10 93.13-159.98 3.29 1.51-61.93 187.68-120.78 43.04.75 3.76 146.17-26.25 81.44-192.96 3.61 1.08-53.52 215.23-129.35 73.21 1.67 3.6 153.99-58.47 73.52-215.61 3.66.81-46.03 235.4-140.73 102.42 2.05 3.23 163.9-89.62 64.2-226.85 3.77.76-40.26 242.87-147.52 130.72 2.26 2.85 172.64-117.48 49.8-231.2 3.51.75-25.18 245.73-147.14 158.85 2.53 2.96 170.43-145.57 37.52-223.83 3.82.27-16.49 235.29-139.28 181.55 2.7 2.48L2299.2 2345l25.92-193.76 3.56.38-8.36 204.79-127.25 194.78 2.86 2.26 147.46-186.39 19.62-139.17 3.77.38-6.84 148.85-90.55 201.83 3.18 1.83 112.32-191.18 10.46-78.49 3.61.38 5.34 89.35-46.9 190 3.56 1.29 64.52-159.39h3.61l39.78 159.23 3.93-.92-13.04-156.64 3.5-1.19 109.2 156.81 3.23-1.88-70.87-141.59 2.48-2.58 166.81 118.88 2.05-3.01-254.51-342.55s-82.19-219.75-108.93-293.12c-5.33-14.52-14.6-23.94-28.51-29.75-7.98-3.17-206.21-82.25-206.21-82.25l-54.5-47.88-181.9-21.4zM1563.05 3120C699.816 3120 0 2421.55 0 1560 0 698.395 699.816 0 1563.05 0 2426.34 0 3126.1 698.395 3126.1 1560c0 861.55-699.76 1560-1563.05 1560zm230.09-1595.99l29.81-6.4-9.22-28.99 3.07-1.73 44.15 50.73-1.73 2.91-66.08-13.02zm122.89-127.6l14.88-3.65-5.07-14.53 3.02-1.77 24.36 26.36-1.61 3.01-35.42-5.92zm-237.58-492.094c1.51-.753 2.96-1.828 4.53-2.796 1.56-.915 2.91-2.262 4.57-3.336 1.41-1.344 2.97-2.528 4.37-3.981.43-.324.76-.644 1.13-1.023 1.03-1.02 2-2.203 3.18-3.336 1.19-1.559 2.54-3.172 3.67-4.785 1.24-1.563 2.15-3.336 3.29-4.95.86-1.668 1.99-3.281 2.64-5.004.86-1.613 1.62-3.171 2.21-4.679.7-1.613 1.18-2.957 1.62-4.196.53-1.238.97-2.367 1.23-3.55.65-2.043 1.14-3.282 1.14-3.282h3.61s.48 1.075 1.18 3.176c.38 1.074.76 2.313.92 4.031.27 1.723.54 3.606.43 5.598-.05.965-.05 2.098-.05 3.117-.17 1.184-.33 2.207-.49 3.391-.27 2.422-1.13 4.68-1.88 7.207-1.03 2.367-2 4.844-3.45 7.102-.81 1.558-1.89 2.957-2.97 4.355l-1.83 2.316c-1.94 2.043-3.83 4.032-6.04 5.649-2.1 1.773-4.47 3.062-6.63 4.301-2.37 1.129-4.63 2.097-6.9 2.797-1.07.324-2.15.699-3.23.914-.65.109-1.29.164-1.89.269-.43.109-.86.109-1.29.215-1.89.434-3.77.434-5.39.324-1.62.11-3.07-.109-4.15-.324-2.32-.375-3.56-.699-3.56-.699l-.27-3.387v-.215s1.14-.648 2.97-1.398c.97-.379 2.1-1.024 3.34-1.617 1.24-.645 2.59-1.399 3.99-2.204zm141.8-56.859c-3.66-1.184-7.97-2.312-12.77-3.711-8.41-2.367-18.38-5.219-29.48-8.66-8.68-2.531-18.11-5.383-28.14-8.445-4.96-1.453-10.07-3.016-15.36-4.629l-15.9-5.434c-21.5-7.367-44.46-15.277-67.32-23.238-14.66-5.164-29.1-10.649-43.12-15.977-8.03-3.066-15.89-6.078-23.71-9.035-7.17-2.691-14.07-5.379-20.75-8.015-3.34-1.344-6.63-2.583-9.81-3.875-7.55-2.903-14.71-5.969-21.45-8.766l-5.72-2.422c-11.04-4.41-20.91-8.66-29.1-12.105-4.26-1.829-8.08-3.497-11.43-4.84-9.75-4.25-15.3-6.617-15.3-6.617l-1.14-.536 2.21-5.433 1.08.32s5.77 1.992 15.79 5.543c3.45 1.184 7.39 2.633 11.75 4.195 8.41 2.957 18.44 6.508 29.59 10.598l8.36 3.172c6.09 2.207 12.5 4.574 19.18 6.941l9.71 3.387c6.84 2.422 13.96 4.895 21.12 7.641 7.71 2.742 15.53 5.648 23.5 8.5 14.12 5.269 28.68 10.648 43.39 15.652 22.8 8.176 45.6 16.301 67 23.937 10.24 3.657 20.75 7.477 30.83 10.813 7.28 2.527 14.28 4.895 20.86 7.156l6.9 2.364c11.1 3.714 20.86 7.21 29.16 10.167 4.63 1.563 8.67 3.122 12.34 4.305l16.71 6.188-1.73 5.648zm-303.34-52.664l12.89 4.305c16.7 5.269 33.14 10.757 48.93 16.191 6.15 2.043 12.13 4.086 17.84 6.078l4.64 1.613 20.21 6.723c8.52 2.746 16.01 5.383 22.21 7.531 2.91 1.133 5.66 2.047 7.98 2.852 7.33 2.637 11.42 4.144 11.42 4.144l1.08.485-1.67 5.594-1.08-.27s-4.36-.914-11.86-2.691l-5.93-1.45c-6.84-1.668-15.36-3.714-25.06-6.296l-20.64-5.379c-5.12-1.453-10.4-3.067-15.9-4.735l-6.9-2.148c-14.5-4.414-31.1-9.738-49.37-15.711-13.47-4.465-26.68-9.195-39.51-13.77l-9.38-3.336-4.74-1.718c-13.64-4.95-26.46-9.684-37.51-14.043-4.85-1.883-9.33-3.711-13.42-5.324l-3.34-1.399-12.94-5.164c-7.06-3.066-11.16-4.68-11.16-4.68l-1.07-.484 2.04-5.488s5.28 1.562 12.67 3.765c2.64.809 5.55 1.614 8.84 2.746l9.43 2.797c3.88 1.235 7.98 2.418 12.23 3.871 7.77 2.637 16.39 5.274 25.61 8.176 5.55 1.777 11.37 3.551 17.35 5.488 11.65 3.766 23.77 7.747 36.11 11.727zm255 449.227l-.16-3.5 19.07-4.73-6.52-18.5 3.02-1.83 30.51 32.81-1.67 3.07zm-32.39 45.4l39.12 58.15-2.04 2.69-66.62-21.95.38-3.38 31.74-2.91-5.87-31.31zm207.83 210.49l-44.69-3.87-.37-3.5 18.65-6.18-7.98-17.97 2.91-2.04 32.88 30.5zm-208.54-498.23l-92.43 112.64-4.69-2.04 23.71-134.159 48.62-56.269s1.4-.7 2.53-1.289c1.03-.379 2.11-.969 3.4-1.563 1.13-.645 2.53-1.344 3.93-2.203 1.46-.809 2.97-1.723 4.48-2.746 1.56-.914 2.96-2.313 4.58-3.332 1.4-1.399 3.07-2.531 4.42-4.035 1.51-1.239 2.85-2.852 4.2-4.36 1.24-1.613 2.59-3.066 3.78-4.734 1.23-1.613 2.15-3.332 3.28-4.945.81-1.723 1.94-3.282 2.65-4.95.8-1.617 1.61-3.281 2.2-4.843.71-1.454 1.14-2.852 1.62-4.036.48-1.289.97-2.472 1.24-3.601.59-2.098 1.08-3.281 1.08-3.281l3.61-.055s.59 1.184 1.24 3.226c.32 1.024.7 2.368.92 4.09.21 1.614.48 3.551.37 5.539v3.227c-.21.969-.32 2.152-.48 3.23-.32 2.368-1.19 4.786-1.89 7.207-1.02 2.313-1.94 4.84-3.45 7.157-1.29 2.418-3.12 4.515-4.85 6.722-1.88 1.993-3.83 3.981-6.04 5.539-2.04 1.778-4.41 3.067-6.63 4.414-2.37.969-4.58 2.098-6.84 2.688-1.13.379-2.21.699-3.23.969h-.27c1.24.375 2.53.644 3.77.914 9 2.312 18 4.625 27.11 6.887.32-.11.75-.325 1.29-.485.92-.43 2.05-.969 3.24-1.723 1.24-.589 2.58-1.289 4.04-2.152 1.45-.75 2.91-1.719 4.42-2.742 1.62-.859 3.02-2.313 4.58-3.387 1.46-1.293 3.07-2.422 4.47-3.929 1.51-1.344 2.81-2.903 4.21-4.356 1.24-1.613 2.59-3.176 3.72-4.789 1.24-1.559 2.21-3.387 3.28-5.004.87-1.664 2-3.226 2.7-5 .81-1.508 1.56-3.121 2.16-4.68.7-1.562 1.13-2.851 1.67-4.144.48-1.184.91-2.473 1.24-3.496.59-2.153 1.07-3.387 1.07-3.387h3.67s.49 1.234 1.19 3.281c.37 1.02.69 2.313.91 3.981.22 1.613.49 3.601.38 5.594 0 1.023 0 2.097-.06 3.121-.16 1.129-.32 2.203-.48 3.386-.27 2.368-1.13 4.68-1.83 7.207-1.03 2.317-1.99 4.789-3.51 7.047-1.23 2.422-3.02 4.574-4.79 6.727-1.89 1.988-3.83 4.035-6.04 5.594-2.05 1.777-4.42 3.121-6.63 4.41-2.37 1.023-4.63 2.097-6.9 2.746-.43.105-.91.265-1.34.375 25.27 6.293 50.82 12.535 76.31 18.504l-82.68 45.883zm154.32 596.68l23.01-9.96-12.07-21.89 2.69-2.31 44.31 34.32-1.14 3.17-56.05.05zm-812.79 510.71l-104.836-53.47-5.711 30.98-5.066-.48-.434-51.43 3.988-1.94 114.589 72.2zm100.3-126.42l-146.66-79.24-5.71 30.99-4.58-.49-.92-51.42 4.05-2.26 156.41 98.39zm-47.86 64.82l-138.573-73.26-5.656 30.93-4.906-.59-.649-51.32 3.828-1.99 148.546 92.09zm216.67-252.66l-104.72-53.36-5.77 30.39-4.64-.65-.8-50.73 3.66-1.93 114.8 72.08zm-56.97 62.18l-126.44-65.63-5.72 31.04-4.9-.7-.65-51.15 3.72-2.32 136.63 84.62zm-56.59 60.9l-143.53-74.78-5.72 31.04-5.01-.48-.49-51.54 4.1-1.99 153.18 93.71zm-340.046 79.18l1.508 5.81-322.418 88.38-145.258 117.81-3.879-3.82 134.422-135.94zm9.054 65.57l1.997 5.81-272.997 88.06-134.855 126.47-3.988-4.36 121.058-142.6zm872.512-441.21l23.01-10.06-12.18-21.84 2.69-2.31 44.41 34.16-1.07 3.23-56.11.27zM574.719 1931.71l118.898-34.59 235.051-21.51.754 6.18-353.41 55.73zm30.613 404.47l-4.367-3.44 98.797-135.67L938.477 2118l2.211 5.8-221.09 90.91zm791.658-606.68l-75.08-35.61-5.66 28.3-4.74-.17-.81-49.06 4.26-1.88 84.62 54.39zm-496.834 215.01L453.5 2036.45l-1.723-5.71 115.934-42.28 331.152-50.24zm131.244 204.58l2.8 5.59-206.591 99.03-125.8 167.09-4.633-3.28 112.375-182.95zm872.72-1281.406s2.16.269 5.98.804c1.24.164 2.59.379 4.15.7 3.23.484 7.12 1.078 11.43 1.832 7.33 1.343 14.71 2.796 21.94 4.355 6.73 1.453 13.85 3.066 21.07 4.734l4.42 1.024c8.14 1.719 16.55 3.601 24.25 5.484 8.52 2.043 15.74 3.926 21.51 5.594 4.09 1.078 7.76 2.207 10.83 3.176 1.62.429 3.07.914 4.37 1.289 3.66 1.133 5.71 1.832 5.71 1.832l.97.43-1.08 5.484h-1.08s-2.2-.106-6.03-.59c-1.29-.16-2.86-.375-4.53-.594-3.18-.429-7.01-.859-11.21-1.449-6.41-.969-13.85-2.152-22.1-3.715-7.97-1.344-16.65-3.172-25.11-4.949-15.31-3.656-32.18-8.281-46.2-12.691-4.52-1.348-8.4-2.746-11.64-3.766l-3.39-1.184c-3.61-1.183-5.72-1.992-5.72-1.992l-.96-.429 1.34-5.489zm189.13 83.863s2.75.16 7.65.859c1.51.16 3.24.43 5.18.645 4.09.484 9.1 1.023 14.66 1.937 18.11 2.582 39.94 6.133 60.09 9.953l5.07 1.02c9.16 1.777 18.22 3.5 26.73 5.434 4.37.863 8.57 1.777 12.62 2.582 5.44 1.078 10.56 2.152 15.2 3.23 5.44 1.184 10.29 2.367 14.28 3.332l5.28 1.238c4.74 1.129 7.38 1.938 7.38 1.938l1.08.269-.97 5.649-1.13-.055s-2.75-.16-7.6-.699l-4.74-.484c-4.21-.485-9.38-1.024-15.26-1.723l-1.67-.215c-7.92-1.074-16.87-2.203-26.41-3.766-10.02-1.718-20.85-3.711-31.31-5.593l-.75-.215c-19.68-3.656-41.45-8.231-59.67-12.535-5.23-1.289-9.87-2.418-13.75-3.442-2.15-.59-4.04-1.074-5.76-1.453-4.75-1.238-7.39-1.988-7.39-1.988l-1.02-.324 1.13-5.703zm-162.61 17.266c1.18-.75 2.53-1.45 3.99-2.258 1.4-.809 2.85-1.828 4.36-2.852 1.56-.969 2.91-2.473 4.53-3.441.7-.754 1.45-1.453 2.26-2.098.7-.594 1.46-1.238 2.1-2.047 1.46-1.289 2.7-2.902 4.1-4.465 1.19-1.558 2.59-3.066 3.61-4.785 1.19-1.613 2.16-3.39 3.18-5.004.86-1.773 1.94-3.441 2.59-5.054.81-1.618 1.51-3.231 2.1-4.789.59-1.559 1.08-2.957 1.56-4.141.44-1.238.92-2.477 1.14-3.551.54-2.152 1.02-3.445 1.02-3.445l3.61-.106s.54 1.239 1.3 3.282c.37 1.019.75 2.367.96 4.035.33 1.613.65 3.496.54 5.539.06 1.023.06 2.097.06 3.176-.16 1.074-.33 2.257-.43 3.386-.22 2.313-1.03 4.625-1.73 7.157-.97 2.312-1.88 4.839-3.29 7.152-1.29 2.527-2.96 4.629-4.68 6.832-.38.43-.76.863-1.19 1.293-1.45 1.613-3.02 3.117-4.74 4.465-2.05 1.773-4.37 3.172-6.52 4.465-2.32 1.129-4.59 2.257-6.85 2.902-1.08.324-2.16.754-3.24 1.023-.85.161-1.72.325-2.58.43h-.06c-.16.055-.32.109-.32.109-2.05.375-3.93.375-5.55.43-1.62.106-3.02-.055-4.15-.269-2.32-.27-3.61-.539-3.61-.539l-.22-2.852h-.05l-.05-.805s1.13-.593 3.01-1.508c.92-.429 1.94-1.019 3.24-1.667zm172.74 541.157c.22-1.02.59-2.09.86-3.06.33-1.03.49-2 .92-2.8.54-.86.92-1.56 1.35-2.31.43-.7.81-1.35 1.18-1.89.44-.59.97-1.02 1.35-1.45 1.62-1.61 2.64-2.37 2.64-2.37l2.21 1.62s-.1 1.24-.48 3.01c-.11.48-.16 1.02-.22 1.56 0 .59-.05 1.18-.05 1.77-.06 1.19-.06 2.48.16 3.93.11 1.45.59 2.85.97 4.31.11.69.43 1.45.86 2.04.43.75.54 1.51.97 2.15.97 1.35 1.73 2.75 2.59 3.5.38.48.59.86 1.67 1.72l1.35 1.13.65.48.1.06c1.46.75 2.59 1.83 4.15 2.15 1.46.8 2.96.97 4.48 1.4.8.16 1.5 0 2.31.16.76.16 1.56.21 2.32.05.65-.05 1.4-.16 1.4-.16 1.46-.05 2.1-.27 2.81-.43 1.45-.27 2.47-.59 3.55-1.02.54-.16.97-.38 1.51-.54.59-.27 1.03-.59 1.51-.86 1.73-1.13 2.8-1.67 2.8-1.67l2.81 2.43s-.38 1.12-1.24 3.01c-.22.59-.44 1.02-.76 1.61-.43.54-.91 1.18-1.51 1.88-.59.59-1.24 1.4-1.89 2.1-.69.7-1.56 1.13-2.42 1.83-.86.59-1.72 1.24-2.75 1.83-.97.48-2.1.86-3.23 1.34-1.19.43-2.43.81-3.72.97-1.29.22-2.59.48-3.99.54-2.75-.11-5.6-.22-8.35-1.19-2.91-.64-5.39-2.36-8.04-3.76l-.69-.7-.11-.05-.33-.27-.64-.59-1.3-1.19c-.75-.54-1.78-1.94-2.8-3.22-2.21-2.7-3.07-5.33-4.1-7.86-.59-2.58-1.24-5.21-1.02-7.64.05-1.18.05-2.36.16-3.55zm6.36 104.47l.33-1.13.16-1.02 1.23-2.69c.38-1.3 1.84-3.44 3.13-5.06.76-.91 1.46-1.72 2.16-2.26.64-.75 1.4-1.34 2.15-1.88 1.24-1.08 2.54-1.72 3.83-2.42l1.35-.75c3.5-1.35 6.84-2.1 9.92-2.1 0 0 1.02.1 1.88.16 1.78.16 3.67.27 5.34.97l2.48.75.7.27 1.18.59.71.54c1.77.86 6.14 4.2 7.54 6.61 1.78 2.27 3.02 4.9 3.77 8.18l.22.97c.22.86.43 1.88.43 2.96-.05 1.13-.11 2.15-.11 3.23-.16 1.61-.64 3.06-1.02 4.19l-.38 1.24c-1.29 2.58-2.21 3.76-2.21 3.76l-.65.92-4.25-1.61-.11-.81s-.22-1.56-.16-3.34c-.11-.43-.22-.86-.32-1.29-.11-.7-.27-1.51-.6-2.26-.16-.53-.48-1.18-.75-1.83-.17-.37-.44-.75-.65-1.13l-.54-.97c-.11-.16-.38-.48-.65-.75-.27-.21-.43-.48-.75-.8-.27-.49-.97-.92-1.62-1.4-.27-.38-.64-.54-1.35-.86l-.75-.44-.16-.1-1.73-.7c-.91-.32-2.31-.54-4.2-.54h-.11c-1.24.06-2.64.38-4.04.91-.38.22-.81.43-1.19.7-.38.17-.7.33-.7.33-.37.43-.8.75-1.24 1.02-.16.11-.37.16-.43.27-.21.38-.48.65-.7.81-.27.21-.43.37-.81 1.12l-1.02 1.67-.11.38-.05.16c-.33.59-.6 1.35-.76 2.42-.16.54-.32 1.19-.27 1.78l-.05.64c0 .43 0 .97.11 1.45.05.33.1.7.1 1.03.06.37.06.75.22 1.07.11.33.27.76.38 1.13.11.33.21.7.21.86l.92 1.83c.32.54.64 1.03.91 1.51.33.38.6.86.54.97 2 1.56 2.97 2.63 2.97 2.63l.65.7-2.54 5.01-.97-.16s-1.4-.17-4.2-.76l-.97-.48c-1.19-.54-2.7-1.24-4.05-2.37-.8-.7-1.66-1.34-2.53-2.15-.65-.54-1.13-1.24-1.61-1.94-.27-.32-.54-.7-.87-1.18-1.94-2.91-3.01-5.54-3.39-8.12-.54-1.73-.6-3.45-.6-5.01-.1-1.61.22-3.17.49-4.73zm127.09-79.72c.71-.7 1.24-1.51 1.89-2.37.65-.7 1.13-1.56 1.73-2.47 1.07-1.67 2.1-3.45 2.85-5.33.86-1.83 1.56-3.82 2.05-5.81.49-1.94.86-3.93.97-6.03.16-1.01.11-2.04.16-3.06.06-1.08-.1-2.15-.16-3.12-.27-2.05-.7-4.03-1.29-6.03-.27-1.02-.65-1.93-1.08-2.79l-1.4-3.01 3.07-1.73 1.78 2.8c.54 1.08 1.13 2.21 1.56 3.23.92 2.2 1.56 4.46 2.1 6.83.16 1.13.49 2.26.6 3.5.1 1.13.27 2.37.21 3.55.11 2.37-.05 4.78-.38 7.1-.32 2.36-.8 4.68-1.56 6.94-.7 2.31-1.56 4.62-2.64 6.78-.59 1.02-1.08 2.15-1.72 3.12-.65 1.07-1.19 2.09-1.94 3.11-1.35 2-2.92 3.88-4.53 5.65l-.22.33c-14.5 13.66-29.16 27.11-43.49 40.93l-10.51-12.42c16.17-11.73 31.96-23.78 47.96-35.62 1.41-1.28 2.75-2.63 3.99-4.08zm-776.51 2.8l-1.51 11.45-4.52.27-4.97-29.75 3.99-2.36 55.47 38.73-2.54 3.98zm-21.02 130.66l-53.09-23.24-4.74 21.46h-4.58l-2-40.88 3.72-2.1 63.01 40.94zm33.25-192.37l-1.02 11.19-4.53.38-5.01-29.69 3.45-2.64 40.48 29.32-2.48 3.92zm26.15 145.67l-64.68-28.61-2.16 18.29-4.52.38-4.37-37.34 3.66-2.63 74.66 45.72zm728-682.414c-7.54-1.074-15.15-2.257-22.58-3.39-7.71-1.129-15.26-2.528-21.89-3.766-4.2-.699-8.3-1.558-12.23-2.418-2.75-.484-5.45-1.023-8.09-1.508l-8.19-1.613c-3.5-.644-6.79-1.398-9.97-1.937-7.27-1.454-13.74-2.852-19.19-4.086-3.01-.539-5.66-1.133-8.03-1.668l-11.42-2.637 1.02-5.703 11.59 1.293c2.42.32 5.23.644 8.41 1.074 5.44.594 11.96 1.344 19.18 2.422 5.66.754 11.81 1.668 18.33 2.582l4.96.644c5.01.754 10.24 1.454 15.52 2.208 8.73 1.503 17.57 2.636 26.9 3.98 5.82.754 11.69 1.613 17.57 2.367 5.93.969 11.86 1.828 17.68 2.688l4.85.754 21.83 3.336c9.53 1.453 18.54 2.851 26.94 4.304 4.1.645 8.04 1.289 11.75 1.883 6.53.965 12.35 2.043 17.41 2.902 3.78.7 7.12 1.293 9.97 1.778l11.48 2.043-.7 5.808-1.13-.105s-3.77-.11-10.51-.649l-3.34-.16c-6.57-.429-14.77-1.023-24.41-2.152-4.16-.375-8.57-.805-13.21-1.289-8.25-.809-16.82-1.668-25.87-2.797l-21.94-2.906c-4.26-.645-22.69-3.282-22.69-3.282zM1268.17 1192.7l-.7-3.5 14.07-6.07-7.44-13.34 2.7-2.32 28.4 21.95-1.13 3.23zm67.81-575.102l-50.77 22.379 49.26 25.82-1.35 3.336-74.32-20.602c-3.02-.863-5.61-3.121-6.58-6.297-1.67-5.054 1.13-10.488 6.2-12.101l.86-.27 72.38-23.238c12.13-3.711 24.15-7.961 36.23-12.051l36.22-12.426 1.29 3.391-34.6 16.137c-11.59 5.379-23.07 10.812-34.82 15.922zm33.09 575.102l-.64-3.5 14.06-6.07-7.44-13.34 2.7-2.32 28.4 21.95-1.13 3.23-35.95.05z" clip-rule="evenodd"/></clipPath><clipPath clipPathUnits="userSpaceOnUse" id="v"><path d="M0 0h26250v3120H0z"/></clipPath></defs><g clip-path="url(#a)" transform="matrix(.13333 0 0 -.13333 0 416)"><g clip-path="url(#b)"><path d="M3390 360h1320v2430H3390z" fill="#fff"/></g></g><g clip-path="url(#c)" transform="matrix(.13333 0 0 -.13333 0 416)"><g clip-path="url(#d)"><path d="M24210 360h2190v2430h-2190z" fill="#fff"/></g></g><g clip-path="url(#e)" transform="matrix(.13333 0 0 -.13333 0 416)"><g clip-path="url(#f)"><path d="M21720 330h2730v2460h-2730z" fill="#fff"/></g></g><g clip-path="url(#g)" transform="matrix(.13333 0 0 -.13333 0 416)"><g clip-path="url(#h)"><path d="M13020 360h2160v2430h-2160z" fill="#fff"/></g></g><g clip-path="url(#i)" transform="matrix(.13333 0 0 -.13333 0 416)"><g clip-path="url(#j)"><path d="M19710 360h2160v2430h-2160z" fill="#fff"/></g></g><g clip-path="url(#k)" transform="matrix(.13333 0 0 -.13333 0 416)"><g clip-path="url(#l)"><path d="M4440 330h4980v2460H4440z" fill="#fff"/></g></g><g clip-path="url(#m)" transform="matrix(.13333 0 0 -.13333 0 416)"><g clip-path="url(#n)"><path d="M15000 330h4980v2460h-4980z" fill="#fff"/></g></g><g clip-path="url(#o)" transform="matrix(.13333 0 0 -.13333 0 416)"><g clip-path="url(#p)"><path d="M11250 360h2040v2430h-2040z" fill="#fff"/></g></g><g clip-path="url(#q)" transform="matrix(.13333 0 0 -.13333 0 416)"><g clip-path="url(#r)"><path d="M9150 360h2160v2430H9150z" fill="#fff"/></g></g><g clip-path="url(#s)" transform="matrix(.13333 0 0 -.13333 0 416)"><g clip-path="url(#t)"><path d="M-90-120h3360v3360H-90z" fill="#fff"/></g></g><g clip-path="url(#u)" transform="matrix(.13333 0 0 -.13333 0 416)"><g clip-path="url(#v)"><path d="M-150-150h3426.1v3420H-150z" fill="#ec152c"/></g></g></svg>