<svg width="126" height="43" viewBox="0 0 126 43" fill="none" xmlns="http://www.w3.org/2000/svg">
<path fill-rule="evenodd" clip-rule="evenodd" d="M0.0449219 20.1058C0.739287 9.25771 9.47915 0.597813 20.361 0.0297852H22.639C33.9839 0.621949 43.0002 10.0082 43.0002 21.5C43.0002 33.3747 33.3744 43 21.5 43C10.0947 43 0.763354 34.1191 0.0449219 22.8943V20.1058Z" fill="white"/>
<path fill-rule="evenodd" clip-rule="evenodd" d="M21.6537 23.0998L21.977 23.1658L21.8806 23.4824L21.9228 23.5053L22.4025 22.9404L22.3788 22.9004L21.6537 23.0509V23.0998ZM21.7071 22.2072L21.7486 22.2324L22.1675 21.7787L22.1452 21.7379L21.5358 21.838L21.5344 21.8869L21.7968 21.9522L21.7071 22.2072ZM20.3207 25.7569L19.827 25.7562L19.8159 25.8044L20.0101 25.8874L19.9078 26.072L19.9449 26.1039L20.3356 25.8021L20.3207 25.7569ZM21.3698 24.9318L20.7522 24.951L20.7441 25L20.9961 25.0986L20.8731 25.3403L20.9109 25.3706L21.3853 24.9755L21.3698 24.9318ZM21.8687 24.3883L22.2105 24.4365L22.1289 24.7716L22.1734 24.7931L22.6375 24.1763L22.6108 24.1377L21.8657 24.3394L21.8687 24.3883ZM20.231 26.8452L20.2207 26.8927L20.4142 26.978L20.3126 27.1618L20.3497 27.1937L20.7396 26.8912L20.7248 26.846L20.231 26.8452ZM23.3107 26.8882L23.6435 26.522L23.6206 26.4812L23.1342 26.565L23.1327 26.6132L23.3366 26.6636L23.2691 26.8623L23.3107 26.8882ZM23.5546 23.767L24.121 22.9856L24.0943 22.9463L23.1676 23.2155L23.1713 23.2651L23.6065 23.3185L23.5108 23.7463L23.5546 23.767ZM21.7671 25.9815L21.1503 25.9801L21.14 26.0275L21.3883 26.135L21.2571 26.3722L21.2942 26.4041L21.7827 26.026L21.7671 25.9815ZM22.9029 21.752L23.3262 21.8654L23.172 22.2761L23.2135 22.3021L23.8815 21.6067L23.86 21.5637L22.9051 21.7038L22.9029 21.752ZM22.616 26.0216L23.1157 25.4329L23.092 25.3921L22.3365 25.5501V25.599L22.6738 25.6679L22.5738 25.9979L22.616 26.0216ZM24.164 20.072L24.201 20.1039L24.5903 19.8007L24.5754 19.7562H24.0817L24.072 19.8036L24.2655 19.8874L24.164 20.072ZM22.8191 20.8987L22.8555 20.9305L23.4649 20.4575L23.45 20.4131L22.6783 20.4123L22.6686 20.4605L22.9852 20.5969L22.8191 20.8987ZM25.3546 24.7234L25.3524 24.7716L25.6148 24.8369L25.5259 25.0926L25.5674 25.1171L25.9862 24.6641L25.964 24.6233L25.3546 24.7234ZM27.1961 20.3753L27.2332 20.4071L27.6232 20.1039L27.6083 20.0602H27.1146L27.105 20.1069L27.2985 20.1906L27.1961 20.3753ZM22.2683 26.9401H21.7738L21.7642 26.9868L21.9577 27.0714L21.8554 27.256L21.8924 27.2878L22.2839 26.9846L22.2683 26.9401ZM25.8113 20.1476L25.8484 20.1795L26.3354 19.8007L26.3206 19.7562H25.703L25.6927 19.8036L25.9418 19.9111L25.8113 20.1476ZM24.8646 23.4334L25.2034 23.4979L25.1077 23.8301L25.1507 23.8516L25.6415 23.2562L25.6163 23.2162L24.8638 23.3852L24.8646 23.4334ZM25.3383 19.0363L27.85 19.0408C27.85 19.0408 28.6433 19.3388 29.6849 19.7584C30.1631 19.9512 30.4181 20.3827 30.3773 20.8749C30.3773 20.8749 30.7888 21.2871 31.0179 21.5474C31.2907 21.8632 31.3211 22.3006 31.1068 22.5868C30.8941 22.867 30.5901 22.9367 30.4641 22.9552L30.4389 22.9078C30.6042 22.7425 30.5367 22.4763 30.3907 22.265C30.238 22.0448 30.1008 22.0048 29.9444 22.0997C29.8747 22.1427 29.7857 22.2079 29.7857 22.2079L30.1772 22.8322L30.1623 22.8759C29.8524 22.9627 29.4232 22.893 29.2223 22.6394C29.2134 22.6394 29.2134 22.6394 27.2881 22.6387L27.2851 22.6898L28.3623 22.8841L28.3942 22.9597L24.7015 27.3019L24.7363 27.3353L25.9937 26.2114L25.9959 27.1922L25.8802 27.4873L25.9981 28.1753L25.9566 28.4681L27.1072 29.4497H27.1079C27.1079 29.4497 27.1257 29.4586 27.1391 29.4645C27.1517 29.4705 27.1665 29.4786 27.1835 29.4883C27.2006 29.4971 27.2191 29.5075 27.2384 29.5194C27.2584 29.5305 27.2777 29.5453 27.2985 29.5594C27.3207 29.5728 27.3392 29.592 27.3607 29.6069C27.3807 29.6254 27.4015 29.6417 27.4208 29.6625C27.4415 29.681 27.4586 29.7025 27.4779 29.7233C27.4942 29.7463 27.5127 29.767 27.5268 29.7907C27.5446 29.813 27.5564 29.8374 27.5713 29.8597C27.5824 29.8841 27.5972 29.9056 27.6061 29.9286C27.6172 29.9524 27.6269 29.9746 27.635 29.9954C27.6447 30.0169 27.6506 30.0361 27.6565 30.0524C27.6632 30.0702 27.6691 30.0865 27.6721 30.1021C27.6803 30.1318 27.6862 30.1473 27.6862 30.1473L27.7359 30.1496C27.7359 30.1496 27.7433 30.1332 27.7537 30.1051C27.7588 30.091 27.7648 30.0732 27.7677 30.0502C27.7722 30.0272 27.7759 30.0013 27.7744 29.9739C27.7752 29.959 27.7752 29.9449 27.7752 29.9294C27.7737 29.9153 27.7707 29.899 27.77 29.8841C27.7663 29.8515 27.7551 29.8189 27.7462 29.7841C27.7329 29.7522 27.7203 29.7159 27.7003 29.6847C27.6832 29.6514 27.6588 29.6217 27.6358 29.5906C27.6098 29.5631 27.5846 29.535 27.555 29.5127C27.5268 29.4868 27.4949 29.4682 27.4645 29.4504C27.4326 29.4349 27.4015 29.42 27.3711 29.4104C27.3592 29.406 27.3474 29.4015 27.3355 29.3993C27.4801 29.3667 27.6232 29.3348 27.7648 29.3036H27.7655C27.7655 29.3036 27.7663 29.3044 27.767 29.3051C27.7796 29.3103 27.7952 29.3192 27.8115 29.3289C27.8293 29.337 27.8471 29.3474 27.8663 29.3607C27.8864 29.3704 27.9064 29.3859 27.9264 29.3993C27.9486 29.4119 27.9672 29.4319 27.9887 29.4467C28.0087 29.4653 28.0302 29.4823 28.0495 29.5031C28.0695 29.5216 28.0865 29.5439 28.1058 29.5631C28.1221 29.5861 28.1406 29.6076 28.1555 29.6306C28.1725 29.6528 28.1844 29.6773 28.1992 29.7003C28.2103 29.7248 28.2259 29.7463 28.2341 29.7692C28.2459 29.7922 28.2556 29.8145 28.2637 29.8352C28.2719 29.8567 28.2785 29.8752 28.2845 29.893C28.2911 29.9101 28.2971 29.9264 28.3008 29.942C28.3074 29.9709 28.3141 29.9879 28.3141 29.9879L28.3645 29.9902C28.3645 29.9902 28.3719 29.9739 28.3816 29.9449C28.3875 29.9309 28.3927 29.9138 28.3949 29.8901C28.4001 29.8671 28.4038 29.8404 28.4023 29.813C28.4023 29.7989 28.4031 29.7855 28.4031 29.7692C28.4016 29.7551 28.3994 29.7388 28.3972 29.7233C28.3942 29.6914 28.3831 29.6595 28.3742 29.6239C28.3608 29.592 28.3482 29.5565 28.3282 29.5246C28.3112 29.4912 28.2874 29.4616 28.2645 29.4312C28.2385 29.4037 28.2126 29.3748 28.1829 29.3526C28.1547 29.3274 28.1221 29.3088 28.0925 29.2903C28.0628 29.2755 28.0339 29.2614 28.005 29.2525C30.0282 28.8143 31.5932 28.5185 31.5932 28.5185C33.6386 29.7299 33.5081 29.6543 33.9329 29.8901C34.7128 30.3238 34.6802 31.5967 33.2086 31.5967C32.1003 31.5967 30.0489 31.7858 28.7975 32.0282L29.9014 31.0266L29.8658 30.9918C29.8658 30.9918 28.7753 31.7828 27.4779 32.4315L27.4771 32.4323C26.7751 32.7162 25.7156 33.1766 24.6221 33.6629L26.2346 32.1372L26.1983 32.0994C26.1983 32.0994 24.1388 33.7586 22.6783 34.5341C21.7998 34.9307 21.0436 35.2769 20.6173 35.4726C20.0264 35.7418 19.5623 35.8174 18.9018 35.5831C17.852 35.2109 17.4435 35.0649 16.5531 34.7261C16.0349 34.5296 15.9964 33.7994 16.5487 33.6236C16.7896 33.5458 17.4191 33.3456 17.8372 33.2129C18.0203 33.293 18.2079 33.376 18.3954 33.4576C18.692 33.5888 18.99 33.7178 19.2688 33.8409C19.4081 33.9009 19.5431 33.9602 19.6706 34.0166C19.7025 34.0299 19.7336 34.044 19.7647 34.0574C19.7803 34.0633 19.7959 34.0707 19.8114 34.0774L19.8329 34.087L19.8337 34.0878H19.8366L19.8396 34.0892L19.85 34.0966C19.9115 34.1285 19.9516 34.1567 19.996 34.1945C20.0813 34.2679 20.1384 34.3554 20.1703 34.4392C20.2014 34.5252 20.2081 34.606 20.2036 34.6734C20.2014 34.7394 20.1873 34.7913 20.1784 34.8276C20.1665 34.8617 20.1614 34.881 20.1614 34.881L20.2184 34.904C20.2184 34.904 20.2266 34.884 20.2414 34.8477C20.2548 34.8099 20.2748 34.755 20.2837 34.6801C20.2926 34.606 20.2933 34.5118 20.2644 34.4088C20.2355 34.3065 20.1747 34.196 20.0813 34.1033C20.0368 34.0581 19.976 34.0099 19.9241 33.9765L19.913 33.9706L19.9086 33.9669L19.8982 33.961L19.8759 33.9484C19.8618 33.9395 19.847 33.9321 19.8322 33.9239C19.8025 33.9069 19.7729 33.8891 19.7425 33.872C19.6216 33.8023 19.4941 33.7297 19.3622 33.654C19.0982 33.5028 18.8165 33.3427 18.5348 33.181C17.9113 32.8244 17.2878 32.4686 16.8549 32.2195C16.8549 32.2195 16.8512 32.2173 16.8489 32.2165C16.8489 32.2165 19.0315 31.53 21.8139 30.7664L22.2609 30.9628L22.2757 30.9339L22.2831 30.9206L22.0214 30.7093L21.3327 30.1548L20.9909 30.0376L20.7641 29.4149L20.4549 29.2406L20.1525 27.852L20.1028 27.8624L20.2296 29.3785L19.3651 29.8634V27.8587L19.3118 27.8528L19.0612 29.9664L17.8958 30.194L18.2939 27.8958L18.2412 27.8847L17.5288 30.2333L16.3856 30.3112L17.2144 27.858L17.1648 27.8379L15.946 30.3349H15.9437L14.8169 30.4105L16.1321 27.8231L16.0898 27.7972L14.2883 30.4617L13.0895 30.65L15.0371 27.7786L14.9992 27.7482L11.7209 31.5574L11.5445 31.4396L14.481 26.8341L18.9774 25.1534C18.9774 25.1534 19.2814 25.0215 19.4571 24.9458C19.5445 24.908 19.635 24.8724 19.7306 24.822C19.7796 24.7998 19.8233 24.7709 19.8707 24.7449C19.916 24.7175 19.9604 24.6871 20.0042 24.6567C20.0902 24.5929 20.1725 24.5255 20.2451 24.4506L20.3 24.395C20.317 24.3757 20.3341 24.3564 20.3504 24.3372C20.3852 24.2994 20.4149 24.2586 20.4446 24.2193C20.475 24.18 20.5002 24.1377 20.5268 24.0992C20.5513 24.0584 20.5743 24.0176 20.5973 23.9791C20.6166 23.9376 20.6358 23.899 20.6544 23.8619C20.6714 23.8227 20.6862 23.7841 20.7018 23.7485C20.7278 23.6751 20.7515 23.6069 20.7656 23.5461C20.7841 23.4853 20.7915 23.429 20.8019 23.3845C20.8093 23.34 20.813 23.3059 20.8167 23.2814C20.8197 23.2577 20.8212 23.2451 20.8212 23.2451L20.7685 23.2362C20.7685 23.2362 20.7656 23.2481 20.7604 23.2718C20.7552 23.2955 20.7485 23.3304 20.7374 23.3719C20.7248 23.4134 20.7137 23.4646 20.6907 23.5224C20.6722 23.5802 20.6447 23.644 20.6143 23.7107C20.5973 23.7441 20.5787 23.7782 20.561 23.8138C20.5402 23.8486 20.5194 23.8834 20.4979 23.9213C20.4727 23.9561 20.449 23.9917 20.4223 24.0273C20.3941 24.0621 20.3682 24.0992 20.3371 24.1325C20.3059 24.1681 20.2763 24.203 20.2414 24.2349L20.1903 24.2845L20.1362 24.3312C20.0635 24.3943 19.9827 24.4506 19.9004 24.5018C19.8589 24.5262 19.8159 24.5499 19.7736 24.5722C19.7291 24.5915 19.6876 24.6144 19.6431 24.6315C19.5564 24.6663 19.4623 24.6982 19.3718 24.7301C19.1924 24.7939 19.0248 24.8546 18.8803 24.9058C18.7387 24.957 18.6201 24.9985 18.5363 25.0289L18.2457 24.4461L18.8314 23.9309L18.8047 23.8931L17.2434 24.8487L16.8764 24.114L18.9841 22.5527L18.95 22.5097L15.7436 24.4261L15.4522 23.6521L18.4733 21.6348L18.4466 21.5933L14.5537 23.7315L14.3698 23.0027L17.6637 20.9105L17.64 20.8683L13.607 22.9234L13.4906 22.0634V22.0626L16.8171 20.27L16.7963 20.227L12.6795 21.944L12.6602 21.104L16.0216 19.791L16.0038 19.7406L11.9256 20.8564L11.9745 19.9386L15.0749 19.2283L15.0645 19.1794L11.0967 19.7236L11.2235 18.931L14.143 18.6174V18.567L10.0647 18.6338L10.1263 17.9643L13.3786 17.9421L13.3816 17.8931L7.53966 17.4668L7.53002 17.4112L8.47674 17.0835L8.47526 17.0368L6.05471 16.1131L6.06064 16.0619L7.02886 15.9841L7.03776 15.9337L4.9486 14.6437L4.95972 14.5718L6.42391 14.6563L6.44096 14.6096L4.75658 13.029L4.77808 12.9785L5.56838 13.1305L5.59284 13.0912L4.80181 12.0956L4.31102 10.6847L4.3607 10.6603L5.11837 11.6151L6.83092 12.599L6.86724 12.5656L5.76335 10.9435L5.34819 9.13153L5.40009 9.10855L6.29269 10.4482L8.02154 11.8554L8.05565 11.8212L6.99698 9.90034L6.63297 7.55833L6.69006 7.54499L7.72203 9.54078L9.89126 11.3416L9.93278 11.3075L8.43967 8.91209L8.10309 6.03851L8.15202 6.02368L9.08243 8.57105L12.1554 11.3379L16.0312 13.3225L20.2852 19.2328L21.9399 20.6281L21.9799 20.5895L21.2556 19.645L21.2601 19.6443L21.263 19.6435L21.2556 19.6443L22.9593 19.2054L22.9563 19.152L21.4758 19.066L21.4721 19.0163L23.6443 18.6286L23.6383 18.5804L20.9279 18.3743L20.9257 18.3224L24.3819 17.7434L25.7549 18.0681L25.7698 18.0206L24.4605 17.4179L22.3158 17.4661L22.3106 17.4142L24.5992 16.9827L26.0174 17.4683L26.0367 17.4201L24.7497 16.6039L23.2291 16.5423L23.2284 16.4875L24.9328 16.2235L26.4222 16.9219L26.4496 16.8782L25.2189 15.7231L23.8823 15.7179L23.8771 15.6631L25.5058 15.299L26.9508 16.4867L26.9834 16.4526L25.8743 14.8283L24.6629 14.6014L24.6681 14.551L26.1983 14.4591L27.5787 16.139L27.6209 16.1109L26.629 14.0202L25.3034 13.5879L25.3138 13.5361L27.0027 13.6739L28.2837 15.8788L28.329 15.858L27.4771 13.2714L25.8157 12.6783L25.8261 12.6264L27.8367 12.9882L28.9569 15.6475L29.0066 15.6327L28.2704 12.6664L26.4911 11.6574L26.5141 11.6077L28.6322 12.4136L29.6434 15.385L29.6938 15.3739L29.0607 12.1297L27.125 10.7181L27.1531 10.6736L29.4076 11.9087L30.2906 15.0351L30.3425 15.0247L29.7887 11.6774L27.7596 9.87588L27.7907 9.83658L30.1653 11.4558L30.8503 14.6422L30.8985 14.6318L30.5523 11.2452L28.5284 9.05591L28.5632 9.01514L30.9074 11.0213L31.4234 14.1062L31.476 14.1025L31.2492 10.8597L29.3335 8.35754L29.3706 8.32343L31.625 10.681L31.9816 13.3514L32.0306 13.3463L31.9157 10.5238L30.1653 7.83932L30.2046 7.80818L32.233 10.377L32.5028 12.295L32.5547 12.2898L32.4606 10.2384L31.2151 7.45677L31.2588 7.43156L32.8038 10.0664L32.9476 11.1481L32.9973 11.1429L33.0707 9.91146L32.4257 7.29292L32.4747 7.27513L33.3621 9.47183H33.4117L33.9589 7.27735L34.013 7.28996L33.8336 9.44884L33.8818 9.46515L35.3838 7.30404L35.4282 7.32999L34.4533 9.28129L34.4874 9.31688L36.782 7.67844L36.8101 7.71995L33.3094 12.441C33.3094 12.441 32.1788 15.4696 31.8111 16.4808C31.7377 16.681 31.6102 16.8107 31.419 16.8908C31.3092 16.9345 28.5825 18.0243 28.5825 18.0243L27.833 18.6842L25.3309 18.9792L25.3383 19.0363ZM21.4995 0C9.62585 0 0 9.62603 0 21.4999C0 33.3745 9.62585 42.9998 21.4995 42.9998C33.3739 42.9998 42.999 33.3745 42.999 21.4999C42.999 9.62603 33.3739 0 21.4995 0ZM24.6644 21.9959L25.0744 22.0841L24.9476 22.4837L24.9899 22.5075L25.597 21.8083L25.5733 21.7683L24.6644 21.9477V21.9959ZM26.3547 23.7544L26.5593 23.8049L26.4896 24.005L26.5311 24.0295L26.8662 23.6662L26.844 23.6247L26.3569 23.7063L26.3547 23.7544ZM23.0868 30.5366C23.1075 30.5469 23.1275 30.5618 23.149 30.5751C23.1705 30.5877 23.1891 30.6062 23.2121 30.6211C23.2313 30.6396 23.2528 30.6559 23.2721 30.6759C23.278 30.6804 23.2825 30.6848 23.2877 30.69C23.3018 30.7041 23.3151 30.7204 23.3314 30.736C23.3477 30.7575 23.3663 30.7797 23.3818 30.802C23.3989 30.8235 23.4115 30.8479 23.4271 30.8702C23.4389 30.8932 23.4545 30.9154 23.4634 30.9391C23.4752 30.9614 23.4856 30.9829 23.4938 31.0036C23.5034 31.0259 23.5101 31.0444 23.516 31.0615C23.5234 31.0785 23.5294 31.0941 23.5331 31.1104C23.542 31.1386 23.5486 31.1556 23.5486 31.1556H23.5983C23.5983 31.1556 23.605 31.1408 23.6146 31.1119C23.6198 31.097 23.625 31.08 23.6272 31.0563C23.6309 31.0325 23.6346 31.0066 23.6332 30.9792C23.6324 30.9658 23.6324 30.9502 23.6324 30.9362C23.6302 30.9199 23.628 30.9058 23.6257 30.8895C23.622 30.8561 23.6102 30.825 23.5998 30.7901C23.5857 30.7575 23.5724 30.7234 23.5523 30.6922C23.5412 30.6707 23.5264 30.6515 23.5116 30.6322L23.4864 30.6003C23.4597 30.5721 23.4337 30.5447 23.4033 30.5225C23.3744 30.498 23.3418 30.4802 23.3121 30.4632C23.2795 30.4476 23.2484 30.4342 23.2173 30.4246C23.2024 30.4202 23.1876 30.415 23.1728 30.412C23.1639 30.4105 23.155 30.4098 23.1468 30.4083C23.1409 30.4068 23.135 30.4068 23.129 30.4053C23.1031 30.3994 23.0771 30.3994 23.0549 30.4009C23.0327 30.3994 23.0126 30.4024 22.9978 30.4053C22.9659 30.4105 22.9489 30.415 22.9489 30.415L22.9452 30.4617V30.4646C22.9452 30.4646 22.9607 30.4735 22.986 30.4839C22.9993 30.4891 23.0149 30.498 23.0319 30.5062C23.049 30.5151 23.0675 30.5254 23.0868 30.5366ZM25.0373 31.3202C24.9869 31.3365 24.9276 31.3521 24.8616 31.3713C24.7459 31.404 24.6088 31.4433 24.4561 31.4907C24.3367 31.5256 24.207 31.5648 24.0691 31.6071C24.0009 31.6271 23.9304 31.6486 23.8578 31.6709L23.6391 31.7457C23.3433 31.8473 23.0275 31.9563 22.7131 32.066C22.5115 32.1372 22.3128 32.2128 22.12 32.2862C22.0096 32.3285 21.9013 32.37 21.7938 32.4108C21.6952 32.4478 21.6003 32.4849 21.5084 32.5212C21.4624 32.5398 21.4172 32.5568 21.3735 32.5746C21.2697 32.6146 21.1711 32.6569 21.0784 32.6954L20.9998 32.7288C20.8479 32.7896 20.7122 32.8482 20.5995 32.8956C20.5409 32.9208 20.4883 32.9438 20.4423 32.9623C20.3081 33.0209 20.2318 33.0535 20.2318 33.0535L20.2162 33.0609L20.2466 33.1358L20.2614 33.1314C20.2614 33.1314 20.3408 33.1039 20.4787 33.055C20.5261 33.0387 20.5802 33.0187 20.6403 32.9972C20.7559 32.9564 20.8938 32.9075 21.0473 32.8511L21.1622 32.8074C21.246 32.777 21.3342 32.7444 21.4261 32.7118L21.5596 32.6651C21.6537 32.6317 21.7516 32.5976 21.8502 32.5598C21.9562 32.522 22.0637 32.4819 22.1734 32.4426C22.3677 32.37 22.5678 32.2958 22.7702 32.2269C23.0838 32.1142 23.3974 32.0023 23.6917 31.897C23.8326 31.8466 23.9772 31.7939 24.1158 31.748C24.2159 31.7131 24.3122 31.6805 24.4027 31.6494L24.4976 31.6167C24.6503 31.5656 24.7845 31.5174 24.8987 31.4766C24.9624 31.4551 25.018 31.4336 25.0684 31.4173L25.2983 31.3321L25.2745 31.2542L25.0373 31.3202ZM20.8649 32.046L21.0421 31.9867C21.2719 31.914 21.498 31.8384 21.7153 31.7635C21.7998 31.7354 21.8821 31.7072 21.9606 31.6798L22.0244 31.6575L22.3024 31.5648C22.4195 31.527 22.5226 31.4907 22.6079 31.4611C22.6479 31.4455 22.6857 31.4329 22.7176 31.4218C22.8184 31.3854 22.8747 31.3647 22.8747 31.3647L22.8896 31.358L22.8666 31.2809L22.8518 31.2846C22.8518 31.2846 22.7917 31.2972 22.6887 31.3217L22.6071 31.3417C22.513 31.3647 22.3958 31.3928 22.2624 31.4284L21.9784 31.5026C21.908 31.5226 21.8354 31.5448 21.7597 31.5678L21.6648 31.5975C21.4654 31.6583 21.2371 31.7317 20.9858 31.8139C20.8004 31.8755 20.6188 31.9407 20.4423 32.0037L20.3133 32.0497L20.2481 32.0734C20.0605 32.1416 19.8841 32.2069 19.7321 32.2669C19.6654 32.2929 19.6039 32.3181 19.5475 32.3403L19.5015 32.3596L19.3236 32.4308C19.2265 32.473 19.1702 32.4953 19.1702 32.4953L19.1553 32.5019L19.1835 32.5776C19.1835 32.5776 19.2562 32.5561 19.3577 32.5257C19.394 32.5146 19.4341 32.5034 19.4793 32.4879L19.609 32.4493C19.6624 32.4323 19.7188 32.4159 19.7773 32.3959C19.8841 32.3596 20.0027 32.3233 20.1295 32.2832C20.2058 32.2588 20.2859 32.2343 20.3682 32.2076C20.5283 32.1557 20.6951 32.1009 20.8649 32.046ZM24.3723 25.8548L24.3701 25.903L24.6325 25.9682L24.5428 26.2232L24.5843 26.2484L25.0039 25.7962L24.981 25.7539L24.3723 25.8548ZM23.9267 25.229L24.465 24.4276L24.4368 24.3905L23.5205 24.693L23.5257 24.7397L23.9623 24.7798L23.8815 25.2113L23.9267 25.229ZM26.7854 22.328L26.1708 22.3814L26.1657 22.4296L26.4222 22.5149L26.3124 22.7625L26.3525 22.7907L26.8047 22.3703L26.7854 22.328ZM23.9171 29.1947L22.6457 27.6422L22.5812 27.6704L22.9074 29.5194L23.5761 30.2949C23.5761 30.2949 23.5954 30.3045 23.6109 30.3127C23.625 30.3179 23.6398 30.326 23.6576 30.3342C23.6732 30.3431 23.6925 30.3527 23.7117 30.3646C23.7318 30.3757 23.7525 30.3883 23.7733 30.4024C23.7948 30.415 23.8141 30.4342 23.8363 30.4483C23.8556 30.4676 23.8785 30.4832 23.8971 30.5039C23.9178 30.521 23.9364 30.5432 23.9549 30.564C23.972 30.5862 23.9905 30.6062 24.0068 30.6292C24.0239 30.6515 24.0365 30.6752 24.052 30.6974C24.0631 30.7212 24.0787 30.7427 24.0884 30.7656C24.0995 30.7879 24.1106 30.8109 24.1188 30.8324C24.1284 30.8524 24.1343 30.8717 24.141 30.888C24.1477 30.9058 24.1543 30.9221 24.158 30.9376C24.1662 30.9666 24.1729 30.9829 24.1729 30.9829L24.2225 30.9836C24.2225 30.9836 24.2307 30.9673 24.2396 30.9391C24.244 30.925 24.2492 30.9065 24.2522 30.8828C24.2552 30.8605 24.2589 30.8338 24.2574 30.8064V30.7619C24.2544 30.7486 24.2529 30.7323 24.2507 30.7175C24.2463 30.6848 24.2344 30.6515 24.2248 30.6181C24.2107 30.5862 24.1981 30.5514 24.1773 30.5195C24.1595 30.4861 24.1343 30.4572 24.1106 30.4268C24.0846 30.3994 24.058 30.372 24.0276 30.3505C23.9994 30.326 23.9668 30.3082 23.9364 30.2897C23.9038 30.2763 23.8734 30.2608 23.8422 30.2526C23.8267 30.2474 23.8118 30.243 23.7977 30.2393H23.794C23.8111 30.2341 23.8289 30.2304 23.8459 30.2267C23.9697 30.1948 24.0935 30.1629 24.2188 30.1318C24.2233 30.1332 24.2292 30.1362 24.2366 30.1384C24.2492 30.1444 24.2648 30.1518 24.2811 30.1622C24.2982 30.1703 24.3167 30.18 24.3367 30.1918C24.3567 30.2022 24.3767 30.2155 24.3975 30.2296C24.4197 30.2415 24.439 30.2615 24.4605 30.2763C24.4805 30.2941 24.5028 30.3097 24.5221 30.3305C24.5428 30.349 24.5606 30.3705 24.5799 30.3905C24.5969 30.4127 24.6155 30.4342 24.631 30.4565C24.6481 30.478 24.6614 30.5032 24.6763 30.5254C24.6881 30.5484 24.7037 30.5699 24.7133 30.5944C24.7244 30.6151 24.7348 30.6374 24.743 30.6589C24.7526 30.6804 24.7585 30.6982 24.766 30.716C24.7726 30.7323 24.7786 30.7501 24.783 30.7642C24.7912 30.7938 24.7978 30.8109 24.7978 30.8109H24.8483C24.8483 30.8109 24.8549 30.7938 24.8646 30.7656C24.8698 30.7516 24.8742 30.7338 24.8772 30.7108C24.8801 30.6885 24.8838 30.6611 24.8824 30.6337C24.8824 30.6196 24.8824 30.6048 24.8816 30.5907C24.8794 30.5751 24.8772 30.5603 24.8749 30.544C24.8712 30.5114 24.8594 30.4795 24.8497 30.4446C24.8356 30.4128 24.8223 30.3786 24.8015 30.3475C24.7845 30.3141 24.76 30.2845 24.7356 30.2548C24.7096 30.2274 24.6829 30.1992 24.6525 30.1777C24.6244 30.1533 24.5917 30.1347 24.5613 30.1169C24.5287 30.1029 24.4976 30.088 24.4664 30.0791C24.4605 30.0776 24.4538 30.0754 24.4479 30.0739C24.7956 29.9872 25.147 29.9012 25.4977 29.8189L24.3604 29.1865L23.9171 29.1947ZM26.0396 20.9713L26.3562 21.1085L26.1901 21.4102L26.2272 21.4421L26.8366 20.9691L26.821 20.9254L26.05 20.9246L26.0396 20.9713ZM14.8599 13.9327L13.4179 14.6696L13.3393 14.2426L13.2696 14.2493L13.2637 14.958L13.3186 14.9847L14.8947 13.9898L14.8599 13.9327ZM16.2395 15.6749L14.2223 16.767L14.1437 16.3399L14.0807 16.3466L14.0681 17.0554L14.1237 17.0865L16.2751 15.7305L16.2395 15.6749ZM15.5812 14.7816L13.6752 15.7913L13.5973 15.365L13.5299 15.3732L13.521 16.0805L13.5736 16.1079L15.6168 14.8387L15.5812 14.7816ZM18.5615 18.2638L17.121 18.9993L17.0417 18.5804L16.9779 18.5893L16.9668 19.2884L17.0172 19.3151L18.5963 18.3216L18.5615 18.2638ZM17.7779 17.4068L16.0386 18.3113L15.9601 17.8835L15.8926 17.8931L15.8837 18.5982L15.9348 18.6301L17.8142 17.4639L17.7779 17.4068ZM16.9994 16.5675L15.0252 17.5981L14.9466 17.1703L14.8777 17.177L14.871 17.8872L14.9273 17.9146L17.0343 16.6231L16.9994 16.5675ZM12.3222 15.4762L12.3429 15.3962L7.90812 14.1781L5.91014 12.5545L5.85676 12.6071L7.70572 14.4806L12.3222 15.4762ZM12.4467 14.5725L12.4742 14.4924L8.71917 13.2788L6.86428 11.5358L6.80942 11.5959L8.47452 13.5613L12.4467 14.5725ZM24.4479 20.6533L24.7645 20.7919L24.5969 21.0929L24.634 21.1248L25.2449 20.654L25.2301 20.6095L24.4583 20.6058L24.4479 20.6533ZM7.90515 16.377L9.5406 16.8537L12.7737 17.1503L12.7841 17.065L7.92294 16.2969L7.90515 16.377ZM8.32624 10.8026L8.26619 10.85L9.62511 12.7198L12.9086 13.8096L12.939 13.7296L9.89793 12.4766L8.32624 10.8026ZM19.2154 19.1638L18.1827 19.6546L18.1048 19.2647L18.0396 19.2669L18.0285 19.943L18.087 19.969L19.251 19.2194L19.2154 19.1638ZM12.3815 16.2006L6.23783 14.9335L6.2141 15.0121L7.80877 15.5949L12.3637 16.2873L12.3815 16.2006ZM14.1867 13.3811L14.2253 13.304L11.3836 11.9391L9.65328 9.63641L9.58953 9.68164L11.1353 12.2031L14.1867 13.3811ZM26.1909 31.0414C26.1909 31.0414 26.2205 31.0377 26.2732 31.0303C26.2902 31.0281 26.3087 31.0251 26.3302 31.0207C26.3747 31.014 26.4281 31.0058 26.4874 30.9955C26.5882 30.9769 26.6898 30.9569 26.7891 30.9354C26.8818 30.9154 26.9797 30.8932 27.079 30.8702L27.1398 30.8561C27.2517 30.8324 27.3674 30.8064 27.4734 30.7805C27.5906 30.7523 27.6899 30.7263 27.7692 30.7034C27.8256 30.6885 27.876 30.673 27.9182 30.6596C27.9405 30.6537 27.9605 30.647 27.9783 30.6418C28.0287 30.6263 28.0569 30.6166 28.0569 30.6166L28.0702 30.6107L28.0554 30.5351H28.0406C28.0406 30.5351 28.0102 30.5366 27.9575 30.5432C27.9397 30.5455 27.9182 30.5484 27.8953 30.5514C27.8515 30.5573 27.7989 30.5632 27.741 30.5714C27.6528 30.5847 27.5505 30.6011 27.4371 30.6226C27.3274 30.6411 27.208 30.6663 27.0916 30.6908C26.8811 30.7412 26.649 30.8049 26.4563 30.8657C26.394 30.8843 26.3406 30.9035 26.2961 30.9176L26.2494 30.9339C26.1998 30.9502 26.1708 30.9614 26.1708 30.9614L26.1575 30.9673L26.176 31.0429L26.1909 31.0414ZM28.7923 29.8856C28.7923 29.8856 28.8301 29.8834 28.8976 29.8738C28.9183 29.8715 28.9421 29.8678 28.9687 29.8649C29.0251 29.8582 29.094 29.8508 29.1704 29.8382C29.4195 29.8026 29.7197 29.7537 29.997 29.701L30.0667 29.6869C30.1927 29.6625 30.3173 29.6388 30.4344 29.6121C30.4945 29.6002 30.5523 29.5876 30.6079 29.5765C30.6828 29.5616 30.7532 29.5468 30.817 29.532C30.8918 29.5157 30.9586 29.4994 31.0134 29.486L31.0861 29.469C31.1513 29.4534 31.1876 29.4423 31.1876 29.4423L31.2025 29.4386L31.1891 29.3607L31.1736 29.3615C31.1736 29.3615 31.1357 29.3637 31.069 29.3711L31.0038 29.3778C30.946 29.3845 30.8748 29.3919 30.794 29.4015L30.771 29.4045C30.662 29.4193 30.539 29.4349 30.4077 29.4564C30.2698 29.4801 30.1208 29.5075 29.977 29.5335L29.9666 29.5364C29.696 29.5869 29.3965 29.6499 29.1459 29.7092C29.074 29.727 29.0103 29.7425 28.9569 29.7566C28.9272 29.7648 28.9013 29.7715 28.8776 29.7766C28.8123 29.7937 28.776 29.8041 28.776 29.8041L28.7619 29.8085L28.7775 29.8871L28.7923 29.8856ZM26.5556 29.6476C26.5719 29.658 26.5905 29.6677 26.6105 29.6788C26.6297 29.6899 26.6498 29.704 26.6705 29.7181C26.692 29.7314 26.7106 29.7522 26.7328 29.7655C26.7424 29.7759 26.7528 29.7855 26.7639 29.7944C26.7736 29.8026 26.7839 29.8115 26.7928 29.8226C26.8129 29.8404 26.8299 29.8626 26.8492 29.8841C26.8655 29.9056 26.8848 29.9264 26.8989 29.9501C26.9152 29.9724 26.9285 29.9968 26.9426 30.0191C26.9545 30.0435 26.9693 30.0665 26.9782 30.0888C26.9893 30.111 26.9989 30.1333 27.0071 30.1548C27.0153 30.1763 27.0219 30.1955 27.0286 30.2118C27.0345 30.2289 27.0412 30.2459 27.0442 30.2608C27.0516 30.2904 27.0583 30.3082 27.0583 30.3082L27.1079 30.3097C27.1079 30.3097 27.1153 30.2926 27.1257 30.2645C27.1309 30.2504 27.1361 30.2319 27.1391 30.2089C27.1435 30.1866 27.148 30.1607 27.1465 30.1325C27.1472 30.1184 27.1472 30.1036 27.1472 30.0888C27.145 30.0739 27.1428 30.0576 27.1413 30.0421C27.1383 30.0102 27.1272 29.9783 27.1176 29.9435C27.1042 29.9116 27.0916 29.8767 27.0723 29.8449C27.0545 29.81 27.0316 29.7811 27.0078 29.7507C27.0027 29.7448 26.9975 29.7388 26.9915 29.7329C26.9715 29.7107 26.95 29.6899 26.9263 29.6714C26.8981 29.6469 26.8662 29.6276 26.8366 29.6098C26.8047 29.5943 26.7736 29.5787 26.7424 29.5698C26.7276 29.5654 26.7128 29.5594 26.698 29.5557C26.6861 29.5535 26.6742 29.5513 26.6624 29.5498H26.6616C26.6594 29.549 26.6572 29.5483 26.6572 29.5483C26.629 29.5431 26.6031 29.5431 26.5808 29.5424C26.5586 29.5409 26.5393 29.5431 26.5237 29.5461C26.4919 29.5498 26.4741 29.5535 26.4741 29.5535L26.4711 29.5928H26.4704L26.4696 29.6039C26.4696 29.6039 26.4852 29.6121 26.5111 29.6247C26.5237 29.6306 26.5378 29.6388 26.5556 29.6476ZM28.9317 22.1894C28.9346 22.2035 28.9398 22.2183 28.9435 22.2317C28.948 22.2457 28.9502 22.2591 28.9561 22.2702C28.9636 22.2821 28.9687 22.2917 28.9747 22.3021C28.9806 22.3117 28.9858 22.3206 28.991 22.328C28.9969 22.3362 29.0043 22.3421 29.0095 22.3481C29.0318 22.3703 29.0458 22.3807 29.0458 22.3807L29.0762 22.3584C29.0762 22.3584 29.0748 22.3414 29.0696 22.3169C29.0681 22.3102 29.0673 22.3028 29.0666 22.2954C29.0666 22.2873 29.0659 22.2791 29.0659 22.271C29.0651 22.2546 29.0651 22.2368 29.0681 22.2168C29.0696 22.1968 29.0762 22.1775 29.0814 22.1575C29.0829 22.1479 29.0874 22.1375 29.0933 22.1293C29.0992 22.119 29.1007 22.1086 29.1066 22.0997C29.12 22.0812 29.1304 22.0619 29.1422 22.0515C29.1474 22.0448 29.1504 22.0396 29.1652 22.0278L29.1837 22.0122L29.1926 22.0055L29.1941 22.0048C29.2141 21.9944 29.2297 21.9796 29.2512 21.9751C29.2712 21.964 29.292 21.9618 29.3127 21.9559C29.3239 21.9536 29.3335 21.9559 29.3446 21.9536C29.355 21.9514 29.3661 21.9507 29.3765 21.9529C29.3854 21.9536 29.3958 21.9551 29.3958 21.9551C29.4158 21.9559 29.4247 21.9588 29.4343 21.9611C29.4543 21.9648 29.4684 21.9692 29.4832 21.9751C29.4907 21.9774 29.4966 21.9803 29.504 21.9826C29.5122 21.9863 29.5181 21.9907 29.5248 21.9944C29.5485 22.01 29.5633 22.0174 29.5633 22.0174L29.6019 21.984C29.6019 21.984 29.5967 21.9685 29.5848 21.9425C29.5819 21.9344 29.5789 21.9284 29.5744 21.9203C29.5685 21.9129 29.5618 21.904 29.5537 21.8943C29.5455 21.8862 29.5366 21.8751 29.5277 21.8654C29.5181 21.8558 29.5062 21.8498 29.4944 21.8402C29.4825 21.8321 29.4706 21.8232 29.4566 21.815C29.4432 21.8083 29.4277 21.8031 29.4121 21.7965C29.3958 21.7905 29.3787 21.7854 29.3609 21.7831C29.3431 21.7802 29.3253 21.7765 29.3061 21.7757C29.2683 21.7772 29.229 21.7787 29.1912 21.792C29.1511 21.8009 29.117 21.8246 29.0807 21.8439L29.0711 21.8536L29.0696 21.8543L29.0651 21.858L29.0562 21.8662L29.0384 21.8825C29.0281 21.8899 29.014 21.9092 28.9999 21.927C28.9695 21.964 28.9576 22.0003 28.9435 22.0352C28.9354 22.0708 28.9265 22.1071 28.9295 22.1405C28.9302 22.1568 28.9302 22.1731 28.9317 22.1894ZM29.0192 20.7496L29.0236 20.7652L29.0258 20.7793L29.0429 20.8164C29.0481 20.8342 29.0681 20.8638 29.0859 20.8861C29.0963 20.8987 29.1059 20.9098 29.1155 20.9172C29.1244 20.9276 29.1348 20.9357 29.1452 20.9431C29.1622 20.958 29.18 20.9669 29.1978 20.9765L29.2164 20.9869C29.2646 21.0054 29.3105 21.0158 29.3528 21.0158C29.3528 21.0158 29.3669 21.0143 29.3787 21.0136C29.4032 21.0114 29.4291 21.0099 29.4521 21.0002L29.4862 20.9899L29.4959 20.9861L29.5122 20.978L29.5218 20.9706C29.5463 20.9587 29.6063 20.9127 29.6256 20.8794C29.6501 20.8482 29.6671 20.8119 29.6775 20.7667L29.6805 20.7534C29.6834 20.7415 29.6864 20.7274 29.6864 20.7126C29.6856 20.697 29.6849 20.6829 29.6849 20.6681C29.6827 20.6459 29.676 20.6258 29.6708 20.6103L29.6656 20.5932C29.6478 20.5576 29.6352 20.5413 29.6352 20.5413L29.6263 20.5287L29.5678 20.551L29.5663 20.5621C29.5663 20.5621 29.5633 20.5836 29.5641 20.608C29.5626 20.614 29.5611 20.6199 29.5596 20.6258C29.5581 20.6355 29.5559 20.6466 29.5515 20.657C29.5492 20.6644 29.5448 20.6733 29.5411 20.6822C29.5389 20.6874 29.5351 20.6926 29.5322 20.6977L29.5248 20.7111C29.5233 20.7133 29.5196 20.7178 29.5159 20.7215C29.5122 20.7244 29.5099 20.7281 29.5055 20.7326C29.5018 20.7393 29.4921 20.7452 29.4832 20.7519C29.4795 20.7571 29.4744 20.7593 29.4647 20.7637L29.4543 20.7697L29.4521 20.7711L29.4284 20.7808C29.4158 20.7852 29.3965 20.7882 29.3706 20.7882H29.3691C29.352 20.7875 29.3328 20.783 29.3135 20.7756C29.3083 20.7726 29.3024 20.7697 29.2972 20.766C29.292 20.7637 29.2875 20.7615 29.2875 20.7615C29.2823 20.7556 29.2764 20.7511 29.2705 20.7474C29.2683 20.7459 29.2653 20.7452 29.2645 20.7437C29.2616 20.7385 29.2579 20.7348 29.2549 20.7326C29.2512 20.7296 29.249 20.7274 29.2438 20.717L29.2297 20.694L29.2282 20.6889L29.2275 20.6866C29.223 20.6785 29.2193 20.6681 29.2171 20.6533C29.2149 20.6459 29.2127 20.637 29.2134 20.6288L29.2127 20.6199C29.2127 20.614 29.2127 20.6066 29.2141 20.5999C29.2149 20.5954 29.2156 20.5903 29.2156 20.5858C29.2164 20.5806 29.2164 20.5754 29.2186 20.571C29.2201 20.5665 29.2223 20.5606 29.2238 20.5554C29.2253 20.551 29.2267 20.5458 29.2267 20.5435L29.2393 20.5183C29.2438 20.5109 29.2482 20.5043 29.2519 20.4976C29.2564 20.4924 29.2601 20.4857 29.2594 20.4842C29.2868 20.4627 29.3001 20.4479 29.3001 20.4479L29.309 20.4383L29.2742 20.3693L29.2608 20.3715C29.2608 20.3715 29.2416 20.3738 29.203 20.3819L29.1897 20.3886C29.1734 20.396 29.1526 20.4056 29.1341 20.4212C29.1229 20.4309 29.1111 20.4398 29.0992 20.4509C29.0903 20.4583 29.0837 20.4679 29.077 20.4776C29.0733 20.482 29.0696 20.4872 29.0651 20.4939C29.0384 20.5339 29.0236 20.5702 29.0184 20.6058C29.011 20.6295 29.0103 20.6533 29.0103 20.6748C29.0088 20.697 29.0132 20.7185 29.0169 20.74L29.0192 20.7496ZM30.7673 21.8484C30.7769 21.858 30.7843 21.8691 30.7932 21.881C30.8021 21.8906 30.8088 21.9025 30.817 21.9151C30.8318 21.9381 30.8459 21.9625 30.8563 21.9885C30.8681 22.0137 30.8778 22.0411 30.8844 22.0686C30.8911 22.0952 30.8963 22.1227 30.8978 22.1516C30.9 22.1657 30.8993 22.1798 30.9 22.1938C30.9007 22.2087 30.8985 22.2235 30.8978 22.2368C30.8941 22.265 30.8881 22.2925 30.88 22.3199C30.8763 22.334 30.8711 22.3466 30.8652 22.3584L30.8459 22.4L30.8881 22.4237L30.9126 22.3851C30.92 22.3703 30.9282 22.3547 30.9341 22.3406C30.9467 22.3102 30.9556 22.2791 30.963 22.2465C30.9652 22.2309 30.9697 22.2153 30.9712 22.1983C30.9726 22.1827 30.9749 22.1657 30.9741 22.1494C30.9756 22.1167 30.9734 22.0834 30.9689 22.0515C30.9645 22.0189 30.9578 21.987 30.9474 21.9559C30.9378 21.924 30.9259 21.8921 30.9111 21.8625C30.903 21.8484 30.8963 21.8328 30.8874 21.8195C30.8785 21.8046 30.8711 21.7905 30.8607 21.7765C30.8422 21.749 30.8207 21.7231 30.7984 21.6986L30.7955 21.6942C30.596 21.5058 30.3944 21.3205 30.1972 21.13L30.0526 21.3012C30.275 21.4629 30.4922 21.6289 30.7124 21.792C30.7317 21.8098 30.7502 21.8283 30.7673 21.8484ZM20.0865 21.8098L20.0657 21.6519L20.0034 21.6482L19.9352 22.0582L19.9901 22.0908L20.753 21.557L20.7181 21.5021L20.0865 21.8098ZM19.7973 20.009L19.0671 20.3293L19.0019 20.0335H18.9389L18.9114 20.5969L18.9626 20.6258L19.8292 20.0616L19.7973 20.009ZM20.2548 22.6602L20.2407 22.506L20.1784 22.5008L20.1095 22.91L20.1569 22.9463L20.7137 22.5423L20.6796 22.4882L20.2548 22.6602ZM20.6143 20.6525L19.7247 21.0469L19.695 20.7949L19.6328 20.7897L19.5727 21.3042L19.6231 21.3405L20.6499 20.7104L20.6143 20.6525ZM30.6279 30.0576C30.5241 30.0725 30.4196 30.0888 30.3173 30.1043C30.2113 30.1199 30.1075 30.1392 30.0163 30.1562C29.9585 30.1659 29.9021 30.1777 29.848 30.1896C29.8102 30.1963 29.7731 30.2037 29.7368 30.2104L29.6241 30.2326C29.5759 30.2415 29.5307 30.2519 29.487 30.2593C29.3869 30.2793 29.2979 30.2986 29.223 30.3156C29.1815 30.323 29.1452 30.3312 29.1126 30.3386L28.9554 30.3749L28.9695 30.4535L29.1289 30.4357C29.1622 30.4313 29.2008 30.4268 29.2445 30.4209C29.3194 30.4127 29.4091 30.4024 29.5085 30.3875C29.5863 30.3772 29.6708 30.3646 29.7605 30.352L29.8287 30.3431C29.8977 30.3327 29.9696 30.323 30.0422 30.3127C30.1623 30.2919 30.2839 30.2763 30.4122 30.2578C30.4922 30.2474 30.5731 30.2356 30.6539 30.2252C30.7354 30.2118 30.817 30.2 30.897 30.1881L30.9638 30.1777L31.264 30.1318C31.3952 30.1117 31.519 30.0925 31.6347 30.0725C31.691 30.0636 31.7451 30.0547 31.7963 30.0465C31.886 30.0332 31.9661 30.0183 32.0358 30.0065C32.0877 29.9968 32.1336 29.9887 32.1729 29.982L32.3308 29.9538L32.3212 29.8738L32.3056 29.8752C32.3056 29.8752 32.2537 29.8767 32.1611 29.8841L32.1151 29.8864C32.0246 29.8923 31.912 29.9005 31.7793 29.916C31.7222 29.9212 31.6614 29.9271 31.5976 29.9338C31.4842 29.9449 31.3663 29.9568 31.2418 29.9724L30.94 30.0124C30.8815 30.0213 30.6279 30.0576 30.6279 30.0576ZM17.4435 26.562L17.4339 26.6102L17.6274 26.694L17.5251 26.8779L17.5621 26.9097L17.9528 26.6073L17.9373 26.5628L17.4435 26.562ZM18.3762 34.4881L17.6778 34.1797L18.3554 33.8238L18.3369 33.7779L17.3145 34.0618C17.273 34.0737 17.2374 34.1048 17.2241 34.1485C17.2011 34.2182 17.2396 34.2931 17.3093 34.3154L17.3212 34.3191L18.3168 34.6393C18.4837 34.6905 18.649 34.7491 18.815 34.8054L19.3132 34.9767L19.331 34.93L18.8551 34.7075C18.6957 34.6334 18.5378 34.5585 18.3762 34.4881ZM18.8314 26.562L18.8225 26.6102L19.016 26.694L18.9136 26.8779L18.9507 26.9097L19.3414 26.6073L19.3258 26.5628L18.8314 26.562Z" fill="#EC1A2E"/>
<path d="M61.21 2.47003C54.5 2.47003 49 2.03003 49 2.03003L49.165 12.92H51.035L52.025 9.01503C52.685 6.48503 53.73 4.50503 57.69 4.50503H62.53V35.47C62.53 37.065 62.035 38.44 60 38.88L57.195 39.485V40.97H74.465V39.485L71.66 38.88C69.625 38.44 69.075 37.065 69.075 35.47V4.50503H73.915C77.875 4.50503 78.92 6.48503 79.58 9.01503L80.57 12.92H82.44L82.605 2.03003C82.605 2.03003 77.105 2.47003 70.395 2.47003H61.21Z" fill="#222222"/>
<path d="M102.078 40.97H108.128L119.953 7.80503C120.613 5.88003 121.988 5.00003 123.583 4.45003L125.013 3.95503V2.47003H111.538V3.95503L114.453 4.45003C116.103 4.78003 116.818 5.82503 116.213 7.80503L107.193 37.34H107.083L97.8431 8.08003C97.1281 5.82503 97.7331 4.83503 99.7131 4.45003L102.298 3.95503V2.47003H85.5231V3.95503L87.1181 4.45003C88.5481 4.89003 89.8131 5.77003 90.5281 7.80503L102.078 40.97Z" fill="#222222"/>
</svg>
