<svg width="135" height="136" viewBox="0 0 135 136" fill="none" xmlns="http://www.w3.org/2000/svg">
<mask id="mask0" mask-type="alpha" maskUnits="userSpaceOnUse" x="0" y="0" width="135" height="136">
<rect width="135" height="136" fill="#C4C4C4"/>
</mask>
<g mask="url(#mask0)">
<path d="M134 0H-26V135H134V0Z" fill="#B6D6C6"/>
<path opacity="0.2" d="M43.6251 125.756C55.9912 125.756 66.0159 124.19 66.0159 122.257C66.0159 120.324 55.9912 118.758 43.6251 118.758C31.259 118.758 21.2343 120.324 21.2343 122.257C21.2343 124.19 31.259 125.756 43.6251 125.756Z" fill="black"/>
<path d="M50.1468 73.9192C50.1468 74.7724 49.7947 75.4658 49.3614 75.4658H37.8884C37.455 75.4658 37.1029 74.7724 37.1029 73.9192V68.8219C37.1029 67.9688 37.455 67.2754 37.8884 67.2754H49.3614C49.7947 67.2754 50.1468 67.9688 50.1468 68.8219V73.9192Z" fill="#1A191B"/>
<path d="M44.9577 75.9695H43.0293V122.26H44.9577V75.9695Z" fill="#131214"/>
<path d="M36.4875 75.8214L29.8461 119.332L31.7525 119.623L38.394 76.1124L36.4875 75.8214Z" fill="#131214"/>
<path d="M51.5119 75.8237L49.6055 76.1147L56.2469 119.625L58.1534 119.334L51.5119 75.8237Z" fill="#131214"/>
<path d="M58.9631 118.514H55.4177V120.442H58.9631V118.514Z" fill="#131214"/>
<path d="M45.7676 121.293H42.2195V123.221H45.7676V121.293Z" fill="#131214"/>
<path d="M32.5665 118.514H29.0211V120.442H32.5665V118.514Z" fill="#131214"/>
<path d="M53.4215 77.1829C53.4215 77.7571 52.999 78.223 52.479 78.223H34.7657C34.2456 78.223 33.8231 77.7571 33.8231 77.1829V74.7534C33.8231 74.1792 34.2456 73.7134 34.7657 73.7134H52.479C52.999 73.7134 53.4215 74.1792 53.4215 74.7534V77.1829Z" fill="#131214"/>
<path d="M57.1918 69.9189C57.1918 70.4931 56.7259 70.9589 56.1518 70.9589H31.0985C30.5243 70.9589 30.0585 70.4931 30.0585 69.9189V65.6151C30.0585 65.0409 30.5243 64.5751 31.0985 64.5751H56.1518C56.7259 64.5751 57.1918 65.0409 57.1918 65.6151V69.9189Z" fill="#131214"/>
<path d="M62.549 66.8394C62.549 67.4135 62.0832 67.8794 61.509 67.8794H25.7411C25.1669 67.8794 24.701 67.4135 24.701 66.8394V58.8873C24.701 58.3131 25.1669 57.8473 25.7411 57.8473H61.509C62.0832 57.8473 62.549 58.3131 62.549 58.8873V66.8394Z" fill="#1A191B"/>
<path d="M71.6684 52.5983C71.6684 52.769 71.5303 52.9071 71.3596 52.9071H65.9535C65.7829 52.9071 65.6448 52.769 65.6448 52.5983V48.6115C65.6448 48.4409 65.7829 48.3027 65.9535 48.3027H71.3596C71.5303 48.3027 71.6684 48.4409 71.6684 48.6115V52.5983Z" fill="#131214"/>
<path d="M66.8608 53.3431C66.8608 53.5138 66.6577 53.6519 66.4058 53.6519H63.7271C63.4752 53.6519 63.2721 53.5138 63.2721 53.3431V47.8666C63.2721 47.696 63.4752 47.5579 63.7271 47.5579H66.4058C66.6577 47.5579 66.8608 47.696 66.8608 47.8666V53.3431Z" fill="#1A191B"/>
<path d="M72.4456 47.8422H71.2377V53.3675H72.4456V47.8422Z" fill="#1A191B"/>
<path d="M74.3171 47.1787H71.8416V54.0338H74.3171V47.1787Z" fill="#242325"/>
<path d="M74.3174 47.1786H73.0796V54.0338H74.3174V47.1786Z" fill="#323133"/>
<path d="M54.6296 46.5178C54.6296 47.092 54.1638 47.5579 53.5896 47.5579H33.6635C33.0893 47.5579 32.6234 47.092 32.6234 46.5178V40.9682C32.6234 40.394 33.0893 39.9281 33.6635 39.9281H53.5896C54.1638 39.9281 54.6296 40.394 54.6296 40.9682V46.5178V46.5178Z" fill="#1A191B"/>
<path d="M64.4314 62.6223C64.4314 63.1965 63.9655 63.6624 63.3913 63.6624H23.8587C23.2845 63.6624 22.8186 63.1965 22.8186 62.6223V42.8154C22.8186 42.2412 23.2845 41.7753 23.8587 41.7753H63.3913C63.9655 41.7753 64.4314 42.2412 64.4314 42.8154V62.6223Z" fill="#242325"/>
<path d="M48.9175 62.3298C48.9175 62.5005 48.7793 62.6386 48.6087 62.6386H35.2885C35.1179 62.6386 34.9797 62.5005 34.9797 62.3298V59.0391C34.9797 58.8684 35.1179 58.7303 35.2885 58.7303H48.6087C48.7793 58.7303 48.9175 58.8684 48.9175 59.0391V62.3298Z" fill="#1A191B"/>
<path d="M47.7364 59.6349C47.7364 59.4643 47.5982 59.3262 47.4276 59.3262H36.4665C36.2958 59.3262 36.1577 59.4643 36.1577 59.6349V61.7367C36.1577 61.9073 36.2958 62.0455 36.4665 62.0455H47.4276C47.5982 62.0455 47.7364 61.9073 47.7364 61.7367V59.6349Z" fill="#131214"/>
<path d="M58.5784 57.5385C58.5784 57.7092 58.4402 57.8473 58.2696 57.8473H49.7677C49.5971 57.8473 49.459 57.7092 49.459 57.5385V43.5737C49.459 43.4031 49.5971 43.265 49.7677 43.265H58.2696C58.4402 43.265 58.5784 43.4031 58.5784 43.5737V57.5385Z" fill="#323133"/>
<path d="M56.6986 44.6165C56.6986 44.7546 56.5848 44.8684 56.4467 44.8684H53.4484C53.3103 44.8684 53.1965 44.7546 53.1965 44.6165C53.1965 44.4783 53.3103 44.3646 53.4484 44.3646H56.4467C56.5848 44.3646 56.6986 44.4756 56.6986 44.6165Z" fill="#1A191B"/>
<path d="M56.6988 45.7134C56.6988 45.8515 56.5851 45.9653 56.4469 45.9653H53.4487C53.3105 45.9653 53.1968 45.8515 53.1968 45.7134C53.1968 45.5752 53.3105 45.4615 53.4487 45.4615H56.4469C56.5851 45.4642 56.6988 45.5752 56.6988 45.7134Z" fill="#1A191B"/>
<path d="M56.6988 46.813C56.6988 46.9511 56.5851 47.0649 56.4469 47.0649H53.4487C53.3105 47.0649 53.1968 46.9511 53.1968 46.813C53.1968 46.6749 53.3105 46.5611 53.4487 46.5611H56.4469C56.5851 46.5638 56.6988 46.6749 56.6988 46.813Z" fill="#1A191B"/>
<path d="M56.6988 47.9126C56.6988 48.0508 56.5851 48.1645 56.4469 48.1645H53.4487C53.3105 48.1645 53.1968 48.0508 53.1968 47.9126C53.1968 47.7745 53.3105 47.6608 53.4487 47.6608H56.4469C56.5851 47.6635 56.6988 47.7745 56.6988 47.9126Z" fill="#1A191B"/>
<path d="M56.6988 49.0123C56.6988 49.1505 56.5851 49.2642 56.4469 49.2642H53.4487C53.3105 49.2642 53.1968 49.1505 53.1968 49.0123C53.1968 48.8742 53.3105 48.7604 53.4487 48.7604H56.4469C56.5851 48.7604 56.6988 48.8742 56.6988 49.0123Z" fill="#1A191B"/>
<path d="M56.6988 50.1119C56.6988 50.2501 56.5851 50.3638 56.4469 50.3638H53.4487C53.3105 50.3638 53.1968 50.2501 53.1968 50.1119C53.1968 49.9738 53.3105 49.8601 53.4487 49.8601H56.4469C56.5851 49.8601 56.6988 49.9738 56.6988 50.1119Z" fill="#1A191B"/>
<path d="M56.6988 51.2116C56.6988 51.3497 56.5851 51.4635 56.4469 51.4635H53.4487C53.3105 51.4635 53.1968 51.3497 53.1968 51.2116C53.1968 51.0735 53.3105 50.9597 53.4487 50.9597H56.4469C56.5851 50.9597 56.6988 51.0735 56.6988 51.2116Z" fill="#1A191B"/>
<path d="M56.6987 56.7992C56.6987 56.9698 56.5606 57.1079 56.39 57.1079H50.4557C50.2851 57.1079 50.147 56.9698 50.147 56.7992V56.0679C50.147 55.8972 50.2851 55.7591 50.4557 55.7591H56.39C56.5606 55.7591 56.6987 55.8972 56.6987 56.0679V56.7992Z" fill="#1A191B"/>
<path d="M46.756 23.783L43.319 45.4832C43.2296 46.052 43.6169 46.5855 44.1857 46.6749L46.4256 47.0297C46.9944 47.1191 47.5279 46.7318 47.6173 46.163L51.0543 24.471L46.756 23.783Z" fill="#323133"/>
<path d="M46.7994 44.8955C46.7994 44.2617 46.2848 43.7444 45.6483 43.7444C45.0145 43.7444 44.4972 44.259 44.4972 44.8955C44.4972 45.5293 45.0118 46.0466 45.6483 46.0466C46.2848 46.0439 46.7994 45.5293 46.7994 44.8955Z" fill="#1A191B"/>
<path d="M25.5922 56.7341C30.0169 56.7341 33.6038 53.1472 33.6038 48.7225C33.6038 44.2978 30.0169 40.7109 25.5922 40.7109C21.1675 40.7109 17.5806 44.2978 17.5806 48.7225C17.5806 53.1472 21.1675 56.7341 25.5922 56.7341Z" fill="#201413"/>
<path d="M29.4499 52.5814C31.5812 50.4501 31.5812 46.9946 29.4499 44.8634C27.3186 42.7321 23.8631 42.7321 21.7318 44.8634C19.6005 46.9946 19.6005 50.4501 21.7318 52.5814C23.8631 54.7127 27.3186 54.7127 29.4499 52.5814Z" fill="#4B3C3A"/>
<path d="M24.6009 38.1216C24.6253 37.6801 24.0945 36.9813 23.3334 37.1547L22.7836 35.9982H25.5922H28.4009L27.8511 37.1547C27.0873 36.9786 26.5592 37.6801 26.5835 38.1216H24.6009Z" fill="#D1D3D4"/>
<path d="M26.4752 36.1769H24.7065L24.1296 46.8131H27.0521L26.4752 36.1769Z" fill="#D1D3D4"/>
<path d="M15.915 44.2779C15.5466 44.0369 14.6745 44.1452 14.4443 44.8927L13.1659 44.7898L14.5689 42.3576L15.9719 39.9254L16.6977 40.9817C16.1642 41.5559 16.5054 42.363 16.9009 42.5635L15.915 44.2779Z" fill="#D1D3D4"/>
<path d="M15.1701 41.6859L14.2844 43.2162L23.2088 49.034L24.6687 46.5043L15.1701 41.6859Z" fill="#D1D3D4"/>
<path d="M16.9035 54.8816C16.5108 55.082 16.1696 55.8891 16.7004 56.4633L15.9745 57.5196L14.5716 55.0874L13.1686 52.6552L14.447 52.5523C14.6772 53.2998 15.5466 53.4082 15.9177 53.1671L16.9035 54.8816Z" fill="#D1D3D4"/>
<path d="M14.2844 54.2315L15.1701 55.7618L24.6687 50.9434L23.2088 48.4137L14.2844 54.2315Z" fill="#D1D3D4"/>
<path d="M26.5807 59.3261C26.5564 59.7676 27.0872 60.4664 27.8483 60.2931L28.3981 61.4496H25.5894H22.7808L23.3306 60.2931C24.0944 60.4664 24.6225 59.7676 24.5981 59.3261H26.5807Z" fill="#D1D3D4"/>
<path d="M24.7065 61.2681H26.4752L27.0521 50.632H24.1296L24.7065 61.2681Z" fill="#D1D3D4"/>
<path d="M35.2696 53.1671C35.6406 53.4082 36.51 53.2998 36.7403 52.5523L38.0187 52.6552L36.6157 55.0874L35.2127 57.5196L34.4868 56.4633C35.0204 55.8891 34.6791 55.082 34.2837 54.8816L35.2696 53.1671Z" fill="#D1D3D4"/>
<path d="M36.0144 55.7618L36.8974 54.2315L27.9757 48.4138L26.5159 50.9435L36.0144 55.7618Z" fill="#D1D3D4"/>
<path d="M34.2782 42.5662C34.6709 42.3657 35.0122 41.5586 34.4813 40.9844L35.2072 39.9281L36.6102 42.3603L38.0132 44.7925L36.7348 44.8954C36.5045 44.1479 35.6351 44.0396 35.2641 44.2806L34.2782 42.5662Z" fill="#D1D3D4"/>
<path d="M36.8974 43.2162L36.0144 41.6859L26.5159 46.5043L27.9757 49.034L36.8974 43.2162Z" fill="#D1D3D4"/>
<path d="M25.5923 34.5816C17.7811 34.5816 11.4514 40.914 11.4514 48.7225C11.4514 56.531 17.7838 62.8634 25.5923 62.8634C33.4008 62.8634 39.7331 56.531 39.7331 48.7225C39.7331 40.914 33.4008 34.5816 25.5923 34.5816ZM25.5923 60.507C19.0838 60.507 13.8078 55.2309 13.8078 48.7225C13.8078 42.2141 19.0838 36.938 25.5923 36.938C32.1007 36.938 37.3768 42.2141 37.3768 48.7225C37.3768 55.2309 32.1007 60.507 25.5923 60.507Z" fill="#D1D3D4"/>
<path d="M29.4571 48.7225C29.4571 46.5882 27.7264 44.8575 25.5921 44.8575C23.4579 44.8575 21.7272 46.5882 21.7272 48.7225C21.7272 50.8567 23.4579 52.5875 25.5921 52.5875C27.7264 52.5875 29.4571 50.8567 29.4571 48.7225Z" fill="#D1D3D4"/>
<path d="M25.5923 34.5816C17.7811 34.5816 11.4514 40.914 11.4514 48.7225C11.4514 56.531 17.7838 62.8634 25.5923 62.8634C33.4008 62.8634 39.7331 56.531 39.7331 48.7225C39.7331 40.914 33.4008 34.5816 25.5923 34.5816ZM25.5923 62.0346C18.2415 62.0346 12.2802 56.076 12.2802 48.7225C12.2802 41.3718 18.2388 35.4104 25.5923 35.4104C32.9457 35.4104 38.9043 41.369 38.9043 48.7225C38.9043 56.076 32.943 62.0346 25.5923 62.0346Z" fill="#939598"/>
<path d="M26.786 49.9175C27.446 49.2575 27.446 48.1874 26.786 47.5274C26.126 46.8673 25.0559 46.8673 24.3959 47.5274C23.7358 48.1874 23.7358 49.2575 24.3959 49.9175C25.0559 50.5775 26.126 50.5775 26.786 49.9175Z" fill="#939598"/>
<path d="M54.9683 24.0945C54.9683 20.6927 52.2083 17.9328 48.8065 17.9328C45.4047 17.9328 42.6448 20.6927 42.6448 24.0945C42.6448 27.4963 45.4047 30.2563 48.8065 30.2563C52.2083 30.2563 54.9683 27.4963 54.9683 24.0945Z" fill="#201413"/>
<path d="M53.0046 24.0945C53.0046 21.776 51.1249 19.8964 48.8065 19.8964C46.4881 19.8964 44.6084 21.776 44.6084 24.0945C44.6084 26.4129 46.4881 28.2926 48.8065 28.2926C51.1249 28.2926 53.0046 26.4129 53.0046 24.0945Z" fill="#4B3C3A"/>
<path d="M45.2205 16.3646C45.1203 16.026 44.5353 15.6387 44.0071 15.9746L43.2812 15.2487L45.3993 14.4957L47.5173 13.7428L47.4116 14.7639C46.7887 14.837 46.5774 15.506 46.7156 15.831L45.2205 16.3646Z" fill="#D1D3D4"/>
<path d="M46.1144 14.3982L44.7819 14.8722L47.1924 23.0463L49.3971 22.2636L46.1144 14.3982Z" fill="#D1D3D4"/>
<path d="M40.3209 23.3334C39.9769 23.2495 39.3513 23.5663 39.3784 24.1893L38.3871 24.4547L38.7934 22.2446L39.1996 20.0345L40.0311 20.6385C39.7819 21.2127 40.2559 21.73 40.608 21.7761L40.3209 23.3334Z" fill="#D1D3D4"/>
<path d="M39.0642 21.5783L38.8069 22.9678L47.0921 24.9666L47.5146 22.6671L39.0642 21.5783Z" fill="#D1D3D4"/>
<path d="M43.9042 31.0607C43.6605 31.3153 43.6198 32.0168 44.1751 32.3066L43.9096 33.2979L42.2006 31.8407L40.4916 30.3836L41.4287 29.9637C41.8025 30.4648 42.4877 30.3158 42.7017 30.0342L43.9042 31.0607Z" fill="#D1D3D4"/>
<path d="M41.7563 31.2719L42.8316 32.1901L48.7035 26.0148L46.9241 24.4981L41.7563 31.2719Z" fill="#D1D3D4"/>
<path d="M52.3897 31.8217C52.4899 32.1603 53.0749 32.5476 53.6031 32.2118L54.3289 32.9376L52.2109 33.6906L50.0929 34.4435L50.1985 33.4224C50.8215 33.3493 51.0327 32.6803 50.8946 32.3553L52.3897 31.8217Z" fill="#D1D3D4"/>
<path d="M51.496 33.7881L52.8313 33.3141L50.418 25.1427L48.2161 25.9254L51.496 33.7881Z" fill="#D1D3D4"/>
<path d="M57.2893 24.8528C57.6333 24.9368 58.2589 24.6199 58.2318 23.997L59.2231 23.7315L58.8169 25.9416L58.4106 28.1517L57.5791 27.5505C57.8283 26.9763 57.3543 26.459 57.0022 26.4129L57.2893 24.8528Z" fill="#D1D3D4"/>
<path d="M58.5461 26.6107L58.8034 25.2185L50.5209 23.2224L50.0957 25.5192L58.5461 26.6107Z" fill="#D1D3D4"/>
<path d="M53.706 17.1257C53.9498 16.8711 53.9904 16.1696 53.4352 15.8798L53.7006 14.8885L55.4097 16.3456L57.1187 17.8028L56.1816 18.2226C55.8078 17.7215 55.1226 17.8705 54.9086 18.1522L53.706 17.1257Z" fill="#D1D3D4"/>
<path d="M55.8565 16.9144L54.7786 15.9989L48.9066 22.1742L50.6861 23.6882L55.8565 16.9144Z" fill="#D1D3D4"/>
<path d="M45.0199 13.4339C39.1317 15.5248 36.0549 21.9926 38.1431 27.8808C40.2341 33.769 46.7019 36.8458 52.5901 34.7575C58.4782 32.6666 61.5551 26.1988 59.4668 20.3106C57.3759 14.4197 50.9081 11.3429 45.0199 13.4339ZM51.959 32.9781C47.0513 34.7196 41.6614 32.1547 39.9199 27.247C38.1783 22.3393 40.7433 16.9494 45.651 15.2079C50.5587 13.4664 55.9485 16.0313 57.6901 20.939C59.4316 25.8467 56.8667 31.2365 51.959 32.9781Z" fill="#D1D3D4"/>
<path d="M51.7209 23.0599C51.1494 21.451 49.3808 20.6087 47.7719 21.1802C46.1631 21.7517 45.3208 23.5203 45.8923 25.1291C46.4637 26.738 48.2324 27.5803 49.8412 27.0088C51.45 26.4373 52.2924 24.6687 51.7209 23.0599Z" fill="#D1D3D4"/>
<path d="M59.4673 20.308C57.3764 14.4198 50.9086 11.343 45.0204 13.4313C39.1322 15.5222 36.0554 21.99 38.1436 27.8782C40.2346 33.7664 46.7024 36.8432 52.5905 34.7549C58.4787 32.664 61.5582 26.1962 59.4673 20.308ZM48.8068 34.8362C42.8753 34.8362 38.0651 30.026 38.0651 24.0945C38.0651 18.1629 42.8753 13.3527 48.8068 13.3527C54.7383 13.3527 59.5486 18.1629 59.5486 24.0945C59.5486 30.026 54.7383 34.8362 48.8068 34.8362Z" fill="#939598"/>
<path d="M50.0957 24.0945C50.0957 23.3822 49.5188 22.8053 48.8064 22.8053C48.0941 22.8053 47.5172 23.3822 47.5172 24.0945C47.5172 24.8068 48.0941 25.3837 48.8064 25.3837C49.5188 25.3837 50.0957 24.8068 50.0957 24.0945Z" fill="#939598"/>
<path d="M74 47.2211L134 32V69L74 54.1389V47.2211Z" fill="#DDC025"/>
</g>
</svg>
