<svg xmlns="http://www.w3.org/2000/svg" xmlns:xlink="http://www.w3.org/1999/xlink" viewBox="0 0 24 24">
  <path fill="currentColor" fill-rule="evenodd" d="M12 6.47c2.76 0 5 2.24 5 5 0 .51-.1 1-.24 1.46l3.06 3.06c1.39-1.23 2.49-2.77 3.18-4.53-1.73-4.38-6-7.49-11-7.49-1.27 0-2.49.2-3.64.57l2.17 2.17c.47-.14.96-.24 1.47-.24zM3.42 2.42L2.01 3.84l2.68 2.68A11.738 11.738 0 001 11.47c1.73 4.39 6 7.5 11 7.5 1.52 0 2.97-.3 4.31-.82l3.43 3.43 1.41-1.41L3.42 2.42zM12 16.47c-2.76 0-5-2.24-5-5 0-.77.18-1.5.49-2.14l1.57 1.57c-.03.18-.06.37-.06.57 0 1.66 1.34 3 3 3 .2 0 .38-.03.57-.07l1.57 1.57c-.65.32-1.37.5-2.14.5zm2.97-5.33a2.97 2.97 0 00-2.64-2.64l2.64 2.64z"/>
</svg>
