<svg width="40" height="34" viewBox="0 0 40 34" xmlns="http://www.w3.org/2000/svg">
  <g fill="none" fill-rule="evenodd">
    <path d="M-1 0h42v35H-1z"/>
    <path d="M12.6 33.3c15.1 0 23.3-12.5 23.3-23.3V8.9c1.6-1.2 3-2.6 4.1-4.2-1.5.7-3.1 1.1-4.7 1.3 1.7-1 3-2.6 3.6-4.5-1.6.9-3.3 1.6-5.2 2-1.5-1.6-3.6-2.6-6-2.6-4.5 0-8.2 3.7-8.2 8.2 0 .6.1 1.3.2 1.9-6.8-.3-12.9-3.6-16.9-8.6C2.1 3.6 1.7 5 1.7 6.5c0 2.8 1.4 5.4 3.7 6.8-1.3 0-2.6-.4-3.7-1v.1c0 4 2.8 7.3 6.6 8-.7.2-1.4.3-2.2.3-.5 0-1-.1-1.5-.1 1 3.3 4.1 5.6 7.7 5.7-2.8 2.2-6.3 3.5-10.2 3.5-.7 0-1.3 0-2-.1 3.5 2.2 7.8 3.6 12.5 3.6" fill="#1DA1F2" fill-rule="nonzero"/>
  </g>
</svg>