<svg xmlns="http://www.w3.org/2000/svg" width="80" height="80" viewBox="0 0 80 80" fill="none">
<path d="M39.9998 0C34.7464 -7.82818e-08 29.5445 1.03473 24.6909 3.04513C19.8374 5.05552 15.4274 8.00219 11.7127 11.7169C7.99798 15.4316 5.05131 19.8416 3.04091 24.6952C1.03052 29.5487 -0.00421143 34.7506 -0.00421143 40.004C-0.00421143 45.2574 1.03052 50.4594 3.04091 55.3129C5.05131 60.1664 7.99798 64.5764 11.7127 68.2912C15.4274 72.0059 19.8374 74.9526 24.6909 76.9629C29.5445 78.9733 34.7464 80.0081 39.9998 80.0081C50.6096 80.0081 60.7847 75.7934 68.2869 68.2912C75.7892 60.7889 80.0039 50.6138 80.0039 40.004C80.0039 29.3943 75.7892 19.2191 68.2869 11.7169C60.7847 4.2147 50.6096 1.58097e-07 39.9998 0" fill="#EC1A2E"/>
<path d="M63.1351 55.6143C62.3443 55.1705 62.5864 55.3157 58.7776 53.0563C58.7776 53.0563 55.8726 53.6131 52.1042 54.4281C52.1594 54.446 52.2133 54.4676 52.2656 54.4926C52.3226 54.5285 52.3766 54.569 52.427 54.6137C52.4851 54.6571 52.5392 54.7057 52.5884 54.7589C52.6748 54.8653 52.7429 54.9853 52.7901 55.114C52.8086 55.1746 52.8221 55.2367 52.8305 55.2996L52.8466 55.3803V55.461C52.8485 55.5126 52.843 55.5642 52.8305 55.6143C52.8275 55.6476 52.8193 55.6803 52.8063 55.7111L52.774 55.7918H52.6772C52.6673 55.7655 52.6592 55.7385 52.6529 55.7111C52.6469 55.6784 52.6388 55.646 52.6287 55.6143L52.5884 55.5094C52.5719 55.468 52.5531 55.4276 52.5319 55.3883L52.4674 55.2592L52.3867 55.1301L52.2979 55.001C52.2737 54.9526 52.2253 54.9203 52.1849 54.888L52.0719 54.7831C52.0316 54.7428 51.9993 54.7186 51.959 54.7024C51.9229 54.6735 51.8851 54.6465 51.846 54.6217C51.815 54.6008 51.7826 54.582 51.7492 54.5653C51.7231 54.5503 51.6961 54.5368 51.6685 54.5249L50.8615 54.7024C50.8862 54.7055 50.9105 54.7109 50.9342 54.7186C50.9924 54.7417 51.049 54.7687 51.1036 54.7993C51.1638 54.831 51.2206 54.8689 51.2731 54.9122C51.3283 54.9561 51.3796 55.0047 51.4264 55.0575C51.4713 55.1134 51.5118 55.1728 51.5474 55.235C51.5792 55.2919 51.6062 55.3513 51.6281 55.4125C51.6457 55.4734 51.6592 55.5354 51.6685 55.5981V55.7595C51.6742 55.8078 51.6742 55.8565 51.6685 55.9048C51.6622 55.941 51.6513 55.9762 51.6362 56.0097C51.6268 56.0371 51.616 56.064 51.6039 56.0904H51.5152L51.4829 56.0097C51.4774 55.9768 51.4693 55.9444 51.4587 55.9128L51.4183 55.8079L51.3618 55.6869L51.2973 55.5578C51.2726 55.5134 51.2457 55.4703 51.2166 55.4287L51.1278 55.2996C51.1036 55.2512 51.0552 55.2189 51.0229 55.1866L50.91 55.0817C50.8777 55.0413 50.8293 55.0252 50.7889 55.001C50.7553 54.9724 50.7203 54.9454 50.684 54.9203L50.5791 54.8638C50.5531 54.8487 50.5261 54.8352 50.4984 54.8235L50.4419 54.7912L48.2955 52.9675L48.3762 52.4188L48.1502 51.1438L48.3681 50.5951V48.7714L46.028 50.8614L45.9634 50.7968L52.8305 42.7194L52.774 42.5741L50.7647 42.2191L50.7728 42.1222H54.3717C54.7429 42.5903 55.5418 42.7194 56.1228 42.558L56.147 42.4773L55.4207 41.3153L55.7193 41.1136C56.0098 40.9441 56.268 41.0167 56.5505 41.4283C56.8168 41.8156 56.9459 42.3159 56.6312 42.6226L56.6876 42.7032C57.1583 42.6399 57.5862 42.397 57.8819 42.0254C58.2854 41.4928 58.2208 40.6778 57.7205 40.0888C57.2928 39.6046 56.5263 38.838 56.5263 38.838C56.6069 37.9181 56.1228 37.1192 55.2352 36.7561C53.2985 35.9814 51.8218 35.4246 51.8218 35.4246L47.1496 35.4166L47.1335 35.3117L51.7815 34.763L53.1775 33.5364L58.4548 31.4303C58.6248 31.3637 58.7779 31.2605 58.9034 31.128C59.029 30.9955 59.1238 30.837 59.1811 30.6637C59.867 28.7835 61.9731 23.1511 61.9731 23.1511L68.4851 14.3635L68.4367 14.2828L64.1599 17.3331L64.1034 17.2685L65.919 13.6373L65.8383 13.5889L63.0383 17.6074L62.9576 17.5751L63.2803 13.5647L63.1835 13.5404L62.1668 17.6236H62.0699L60.4238 13.5324L60.3269 13.5647L61.5373 18.4386L61.3921 20.7303L61.3033 20.7383L61.037 18.721L58.1563 13.8229L58.0756 13.8713L60.3915 19.0518L60.569 22.8687H60.4722L59.9719 19.3101L56.1954 14.5249L56.1228 14.5814L59.3828 19.5844L59.5926 24.8295L59.5039 24.8376L58.8422 19.8749L54.6461 15.4852L54.5735 15.5497L58.1401 20.2058L58.5597 26.2417H58.4629L57.5027 20.5124L53.1452 16.7763L53.0806 16.8489L56.849 20.9239L57.4946 27.2181L57.3978 27.2423L56.1228 21.3113L51.7088 18.3014L51.6523 18.3821L55.4288 21.7228L56.4536 27.9524L56.3568 27.9766L54.7187 22.1586L50.5226 19.8588L50.4661 19.9395L54.0651 22.5701L55.2432 28.606L55.1545 28.6302L53.2743 23.0946L49.3284 21.5937L49.288 21.6905L52.5965 23.5707L53.9683 29.0821L53.8795 29.1144L51.7895 24.1678L48.0534 23.49L48.0292 23.5868L51.1198 24.6924L52.7094 29.5017L52.6287 29.5421L50.2402 25.4428L47.1012 25.1846L47.0851 25.2814L49.5462 26.0884L51.4022 29.9778L51.3215 30.0343L48.7393 26.9034L45.8989 27.0728L45.8908 27.1697L48.1502 27.5893L50.2079 30.6153L50.1434 30.6798L47.4563 28.4608L44.4222 29.1386L44.4383 29.2435H46.9237L49.2073 31.398L49.1589 31.4787L46.3911 30.1876L43.2198 30.6718V30.7767L46.0441 30.8896L48.4407 32.4067L48.4084 32.4955L45.7698 31.5917L41.5091 32.3986L41.5172 32.4955L45.5115 32.4067L47.9485 33.5283L47.9162 33.609L45.3663 33.0119L38.935 34.0932V34.182L43.9783 34.5693L43.9945 34.6581L39.9517 35.3843V35.4731L42.7115 35.6345V35.7313L39.5563 36.5544H39.5725H39.5563L40.9039 38.3135L40.8232 38.3942L37.7568 35.7878L29.8327 24.7973L22.6267 21.1015L16.9055 15.9532L15.1706 11.2165L15.0738 11.2407L15.7032 16.5907L18.4791 21.045L18.3984 21.1095L14.3637 17.7607L12.4431 14.0488L12.3382 14.073L13.0161 18.4305L14.985 22.0052L14.9205 22.0617L11.7088 19.4472L10.0465 16.9538L9.9497 16.9941L10.7244 20.3672L12.774 23.3851L12.7094 23.4497L9.52203 21.6179L8.11795 19.8426L8.02112 19.8911L8.93296 22.5136L10.4097 24.3696L10.3612 24.4341L8.89261 24.1517L8.85227 24.2485L11.9832 27.1858L11.9509 27.2746L9.23153 27.1132L9.20732 27.2504L13.0968 29.655L13.0806 29.7438L11.2731 29.889L11.265 29.9859L15.7677 31.7047V31.7854L14.0086 32.3986L14.0247 32.5035L24.8942 33.3024V33.3831L18.8422 33.4315L18.7211 34.6742L26.3064 34.5532V34.65L20.8757 35.231L20.6336 36.7077L28.0171 35.6909L28.0413 35.7797L22.2797 37.1031L22.191 38.8138L29.7762 36.7319L29.8085 36.8287L23.5547 39.2738L23.587 40.8311L31.2529 37.6437L31.2852 37.7244L25.104 41.0571L25.3138 42.6548L32.8184 38.838L32.8668 38.9187L26.734 42.8081L27.081 44.1638L34.3193 40.1856L34.3677 40.2663L28.7514 44.0186L29.292 45.463L35.2634 41.8963L35.3199 41.977L31.3982 44.882L32.0841 46.2538L34.989 44.4785L35.0375 44.5431L33.9481 45.4872L34.4887 46.5766L35.1343 46.3425L36.0461 46.0198L36.5464 45.8342C36.6271 45.81 36.7078 45.7615 36.7885 45.7293C36.8692 45.697 36.9499 45.6486 37.0306 45.6002C37.1843 45.5044 37.33 45.3965 37.4663 45.2774L37.5712 45.1967L37.66 45.0999C37.7228 45.0387 37.782 44.974 37.8375 44.9062C37.9021 44.8497 37.9505 44.7771 37.9989 44.7125L38.1442 44.5189C38.1926 44.4543 38.2249 44.3817 38.2571 44.3171L38.362 44.1235C38.4142 44.0104 38.46 43.8946 38.4992 43.7765C38.5396 43.6716 38.5638 43.5747 38.5799 43.494L38.6283 43.3084L38.6445 43.2439L38.7413 43.26V43.3246L38.709 43.5183C38.701 43.5989 38.6768 43.7038 38.6364 43.8168C38.6057 43.9452 38.568 44.0718 38.5234 44.1961L38.4347 44.4059L38.3298 44.6238C38.2975 44.7045 38.241 44.769 38.1926 44.8497L38.0393 45.0756L37.8698 45.2935L37.773 45.3984L37.6681 45.4953C37.528 45.6362 37.3769 45.7657 37.2162 45.8826L36.9741 46.044L36.7078 46.1892C36.2402 46.3947 35.7722 46.5991 35.3037 46.8025L26.9519 49.9254L21.4809 58.5031L21.8036 58.721L27.9041 51.6361L27.9848 51.6926L24.3536 57.0345L26.5807 56.6875L29.9376 51.7248L30.0183 51.7732L27.5733 56.5826L29.6713 56.4454L31.9388 51.7975L32.0356 51.8378L30.4944 56.397L32.6166 56.2518L33.94 51.8862L34.0449 51.9024L33.3025 56.1791L35.4651 55.7595L35.9332 51.8297H36.0381V55.5659L37.6439 54.6621L37.4018 51.8378L37.4986 51.8217L38.0635 54.4039L38.6364 54.7266L39.0641 55.8886L39.6935 56.1065L40.9685 57.1394L41.4526 57.5267L41.4446 57.5509L41.4123 57.6074L40.5811 57.2443C37.4867 58.0918 34.4064 58.9903 31.3417 59.9395H31.3578L34.4807 61.7309L36.0139 62.6185L36.724 63.022L36.8934 63.1188L36.9741 63.1592L37.0145 63.1834L37.0387 63.1914V63.1995L37.0629 63.2157C37.1676 63.2834 37.2649 63.3618 37.3534 63.4497C37.5154 63.6052 37.6348 63.7997 37.7004 64.0145C37.7448 64.1801 37.7557 64.353 37.7326 64.5229C37.718 64.628 37.691 64.7309 37.6519 64.8295L37.6116 64.9344L37.5067 64.8941L37.539 64.7892C37.5626 64.6968 37.5761 64.6021 37.5793 64.5068C37.5912 64.3592 37.572 64.2107 37.5228 64.071C37.4545 63.8959 37.3436 63.7405 37.2001 63.6191C37.1167 63.5461 37.0245 63.4837 36.9257 63.4335L36.9015 63.4174L36.8531 63.4012L36.7724 63.369L36.5949 63.2883C36.3528 63.1834 36.1107 63.0704 35.8444 62.9655L34.2224 62.2393L33.1815 61.7874L30.7849 62.554C29.7601 62.8767 29.8246 64.2485 30.793 64.6036C32.2405 65.1569 33.6958 65.6896 35.1585 66.2013C35.6742 66.4015 36.2275 66.4865 36.7795 66.4502C37.3315 66.414 37.8689 66.2574 38.354 65.9915L42.1869 64.2485C44.9063 62.8041 48.7393 59.7216 48.7393 59.7216L48.8038 59.7862L45.8182 62.6347C47.8436 61.7228 49.8125 60.8675 51.1198 60.3429C52.6648 59.5589 54.1508 58.6635 55.566 57.6639L55.6306 57.7285L53.5809 59.5844C55.9049 59.1406 59.7217 58.7775 61.7875 58.7775C64.5311 58.7856 64.5876 56.4212 63.1351 55.6143ZM56.1873 39.3141C56.5505 39.6692 56.9297 40.0081 57.3009 40.3631C57.3418 40.4118 57.3795 40.463 57.4139 40.5164C57.4343 40.5422 57.4532 40.5691 57.4704 40.5971L57.5107 40.6778C57.5393 40.7323 57.5636 40.789 57.5833 40.8473C57.5997 40.9053 57.6105 40.9647 57.6156 41.0248C57.6273 41.086 57.6327 41.1482 57.6318 41.2104C57.6337 41.24 57.6337 41.2696 57.6318 41.2992C57.6318 41.3314 57.6156 41.3637 57.6076 41.3879C57.5942 41.4487 57.5753 41.5082 57.5511 41.5655C57.5511 41.5897 57.5269 41.6219 57.5107 41.6462L57.4704 41.7188L57.3897 41.6704L57.422 41.5897C57.4348 41.5664 57.4456 41.5421 57.4542 41.517C57.4692 41.4669 57.48 41.4156 57.4865 41.3637C57.4882 41.3369 57.4882 41.3099 57.4865 41.283V41.2023C57.4833 41.1506 57.4752 41.0992 57.4623 41.049C57.4484 40.9988 57.4295 40.9502 57.4058 40.9038C57.3858 40.8559 57.3615 40.81 57.3332 40.7666C57.3213 40.7442 57.3078 40.7226 57.2928 40.702C57.2779 40.6797 57.2617 40.6581 57.2444 40.6375C57.2116 40.6004 57.1766 40.5654 57.1395 40.5326C56.7361 40.234 56.3326 39.9193 55.913 39.6207L56.1873 39.3141ZM53.9844 38.3296C53.9953 38.2546 54.0229 38.1829 54.0651 38.1198C54.0725 38.1086 54.0806 38.0978 54.0893 38.0875C54.1006 38.0697 54.1141 38.0534 54.1296 38.0391L54.2023 37.9826C54.232 37.9598 54.2646 37.9408 54.2991 37.9262L54.3233 37.91L54.4363 37.8939H54.4605L54.525 38.0149L54.5089 38.0311C54.4838 38.0572 54.4568 38.0815 54.4282 38.1037C54.4274 38.1123 54.4246 38.1205 54.4201 38.1279L54.3959 38.1682L54.3717 38.2086C54.3731 38.2166 54.3731 38.2248 54.3717 38.2328C54.3672 38.244 54.3619 38.2548 54.3556 38.2651C54.3544 38.2731 54.3544 38.2813 54.3556 38.2893C54.3563 38.2973 54.3563 38.3054 54.3556 38.3135C54.3542 38.3269 54.3542 38.3404 54.3556 38.3538V38.37C54.3523 38.386 54.3523 38.4024 54.3556 38.4184C54.3578 38.438 54.3632 38.4571 54.3717 38.4749V38.491L54.404 38.5314C54.4062 38.5434 54.4118 38.5546 54.4201 38.5636C54.4305 38.569 54.439 38.5775 54.4444 38.5879C54.4597 38.596 54.4734 38.6069 54.4847 38.6201H54.5008L54.5331 38.6443C54.5666 38.6578 54.602 38.666 54.638 38.6685C54.6736 38.6687 54.709 38.6633 54.7429 38.6524L54.7913 38.6363L54.8075 38.6282L54.8397 38.604C54.8547 38.5953 54.8683 38.5844 54.8801 38.5717C54.8877 38.5632 54.8958 38.5551 54.9043 38.5475C54.9115 38.5408 54.917 38.5325 54.9204 38.5233L54.9285 38.4991C54.9373 38.4918 54.9455 38.4837 54.9527 38.4749L54.9689 38.4265C54.9763 38.4083 54.9817 38.3893 54.985 38.37V38.3377C54.983 38.3108 54.983 38.2839 54.985 38.257V38.2328L55.098 38.1844L55.1141 38.2086C55.1354 38.2393 55.1543 38.2717 55.1706 38.3054L55.1867 38.3377C55.1987 38.3717 55.2068 38.4068 55.2109 38.4426V38.5233C55.209 38.5508 55.2036 38.5779 55.1948 38.604V38.6282C55.1785 38.7045 55.1454 38.7761 55.098 38.838C55.0458 38.9051 54.9798 38.9602 54.9043 38.9994L54.8882 39.0236L54.8559 39.0317L54.8397 39.0397L54.7752 39.0639C54.731 39.0789 54.6847 39.0871 54.638 39.0882H54.5896C54.5008 39.0857 54.4132 39.0665 54.3314 39.0317L54.2991 39.0155C54.2646 38.9976 54.2321 38.9759 54.2023 38.951C54.1819 38.9367 54.163 38.9205 54.1458 38.9026C54.1252 38.8855 54.1063 38.8666 54.0893 38.8461C54.0562 38.8073 54.029 38.7637 54.0086 38.717L53.9763 38.6443V38.6201L53.9683 38.5959V38.5717C53.9584 38.5321 53.953 38.4915 53.9521 38.4507C53.9568 38.4089 53.9676 38.3681 53.9844 38.3296ZM53.8472 40.9925C53.8699 40.9171 53.9054 40.8461 53.9521 40.7827C53.9713 40.7541 53.9929 40.7271 54.0167 40.702L54.049 40.6778L54.0651 40.6617H54.0812L54.0974 40.6375C54.1627 40.5959 54.2332 40.5634 54.3072 40.5406C54.4086 40.5064 54.5175 40.5008 54.6219 40.5245C54.6551 40.5284 54.6876 40.5365 54.7187 40.5487L54.7994 40.581C54.8217 40.596 54.8433 40.6122 54.864 40.6294C54.8864 40.6443 54.908 40.6604 54.9285 40.6778L54.9769 40.7343L55.0173 40.7827C55.0234 40.7959 55.0288 40.8093 55.0334 40.8231L55.0657 40.9038L54.9931 40.9683C54.968 40.9535 54.9438 40.9373 54.9204 40.9199C54.91 40.914 54.8992 40.9086 54.8882 40.9038L54.8478 40.8876C54.819 40.8769 54.7893 40.8688 54.7591 40.8634C54.7331 40.8542 54.7059 40.8488 54.6784 40.8473H54.6461C54.6274 40.8436 54.6082 40.8436 54.5896 40.8473H54.525C54.4861 40.8567 54.4482 40.8702 54.4121 40.8876C54.3753 40.8995 54.3401 40.9158 54.3072 40.936L54.291 40.9522L54.2588 40.9845C54.2434 40.9958 54.2298 41.0094 54.2184 41.0248C54.1917 41.0523 54.1674 41.082 54.1458 41.1136C54.1377 41.1297 54.1377 41.1539 54.1216 41.1701C54.1122 41.1875 54.1067 41.2068 54.1054 41.2265C54.0915 41.2605 54.0807 41.2956 54.0732 41.3314C54.0694 41.3663 54.0694 41.4015 54.0732 41.4363V41.4767C54.0749 41.4903 54.0776 41.5038 54.0812 41.517C54.0885 41.5435 54.0939 41.5705 54.0974 41.5977L54.0409 41.6381C54.0155 41.6208 53.9912 41.602 53.9683 41.5816L53.936 41.5413L53.9037 41.4928L53.8714 41.4363C53.8616 41.4127 53.8536 41.3885 53.8472 41.3637L53.823 41.283V41.1943C53.8215 41.1262 53.8296 41.0583 53.8472 40.9925ZM17.8335 18.0028L17.9545 17.9221L21.1742 22.207L26.4597 24.7408L26.3871 24.886L20.7062 22.6992L17.8335 18.0028ZM12.6691 21.5776L12.774 21.4646L16.2196 24.7085L23.2077 26.9679L23.1593 27.1132L15.7677 25.233L12.6691 21.5776ZM10.8938 23.4577L10.9907 23.3609L14.7026 26.3789L22.9656 28.6383L22.9253 28.7997L14.3395 26.9437L10.8938 23.4577ZM11.5555 27.9282L11.6039 27.7829L23.0383 30.1392L23.006 30.3006L14.5331 29.0095L11.5555 27.9282ZM23.7645 31.9064L17.7447 31.3577L14.7026 30.47L14.7429 30.3167L23.7807 31.7531L23.7645 31.9064ZM24.0066 25.693L17.9142 23.6675L15.3885 20.1896L15.4934 20.1009L18.4226 23.2157L24.0792 25.5558L24.0066 25.693ZM24.7813 27.8798L24.6764 27.8313L24.6844 26.516L24.8135 26.4999L24.9588 27.2907L27.6459 25.9189L27.7104 26.0319L24.7813 27.8798ZM25.1524 29.9213L25.1686 28.606L25.2977 28.5899L25.4429 29.3807L28.9935 27.5005L29.05 27.6054L25.2573 29.9697L25.1524 29.9213ZM26.2822 31.7934L26.1692 31.7289L26.1934 30.4136L26.3144 30.3974L26.4597 31.1963L30.212 29.1628L30.2765 29.2677L26.2822 31.7934ZM27.775 33.3266L27.662 33.2782L27.6782 31.9548L27.8073 31.9467L27.9525 32.7456L31.6241 30.8251L31.6887 30.93L27.775 33.3266ZM29.6471 34.6581L29.5503 34.6016L29.5664 33.2943L29.6955 33.2701L29.8408 34.069L33.0685 32.3825L33.1492 32.4874L29.6471 34.6581ZM31.6644 35.933L31.5676 35.8846L31.5918 34.5935L31.7048 34.5693L31.8581 35.352L34.5372 33.9802L34.6017 34.0851L31.6644 35.933ZM33.6495 37.1515L33.5446 37.1031L33.5688 35.8443H33.6899L33.8351 36.5705L35.7476 35.6667L35.8121 35.7716L33.6495 37.1515ZM35.2795 38.378L35.1908 38.3216L35.2392 37.2725H35.3522L35.4732 37.8213L36.8369 37.2241L36.8934 37.321L35.2795 38.378ZM36.5142 39.7014L36.4173 39.6369L36.5303 38.6766L36.6513 38.6928L36.6998 39.1608L38.362 38.4265L38.4266 38.5314L36.5142 39.7014ZM37.5067 42.6871L37.4179 42.6226L37.547 41.864H37.66L37.6842 42.1545L38.475 41.8318L38.5396 41.9367L37.5067 42.6871ZM37.192 41.0974L37.0952 41.0329L37.2162 40.2744H37.3372L37.3776 40.5729L38.5476 40.0081L38.6122 40.1049L37.192 41.0974ZM32.6731 50.0625L32.6086 50.0061L32.7942 49.6591L32.4391 49.5057L32.4553 49.417H33.3752L33.3994 49.4977L32.6731 50.0625ZM35.2553 50.0625L35.1908 50.0061L35.3764 49.6591L35.0213 49.5057L35.0375 49.417H35.9574L35.9896 49.4977L35.2553 50.0625ZM35.9332 65.0716L35.0052 64.7488L34.0772 64.4422L32.2212 63.8531L32.2051 63.8451C32.1732 63.836 32.1435 63.8204 32.1179 63.7994C32.0923 63.7783 32.0712 63.7522 32.0561 63.7227C32.041 63.6932 32.0321 63.6609 32.0299 63.6278C32.0278 63.5947 32.0325 63.5616 32.0437 63.5304C32.0553 63.4923 32.076 63.4576 32.1042 63.4294C32.1323 63.4013 32.167 63.3805 32.2051 63.369L34.1175 62.8445L34.1498 62.9251L32.891 63.5868L34.1821 64.1598C34.4887 64.2889 34.7792 64.4341 35.0697 64.5632L35.9574 64.9828L35.9332 65.0716ZM45.7375 48.836L45.6568 48.7876L45.8262 48.3115L45.3421 48.1904V48.1097L46.4718 47.9161L46.5121 47.9968L45.7375 48.836ZM43.7685 46.0278V45.9471L45.4631 45.3823L45.5196 45.4468L44.519 46.9397L44.4383 46.9074L44.5916 46.1005L43.7685 46.0278ZM43.0423 49.5138V49.4251L43.9461 49.2637L43.9864 49.3444L43.3651 50.0222L43.2844 49.9818L43.4135 49.6106L43.0423 49.5138ZM43.1149 43.2842L43.1069 43.1955L44.8256 42.6952L44.8821 42.7678L43.825 44.2203L43.7443 44.1799L43.9219 43.3811L43.1149 43.2842ZM47.5692 46.7299L47.4885 46.6815L47.6499 46.2134L47.1658 46.0924V45.9956L48.2955 45.81L48.3358 45.8907L47.5692 46.7299ZM48.9572 42.3482L49.1589 41.8882L48.6828 41.7268L48.6989 41.6462L49.8367 41.5413L49.8771 41.6219L49.0298 42.4047L48.9572 42.3482ZM50.45 37.321H51.3699L51.3941 37.4017L50.6679 37.9665L50.6033 37.91L50.7889 37.563L50.4339 37.4017L50.45 37.321ZM49.99 44.0347L49.3606 44.7045L49.2799 44.6641L49.409 44.2929L49.0379 44.1961V44.1073L49.9416 43.954L49.99 44.0347ZM49.9336 39.0155L48.8038 39.8951L48.7393 39.8386L49.0459 39.2738L48.4569 39.0155L48.473 38.9268H49.9094L49.9336 39.0155ZM47.8274 36.7561H48.9733L48.9975 36.8368L48.0937 37.5388L48.0292 37.4823L48.2713 37.0385L47.8032 36.8449L47.8274 36.7561ZM47.7064 43.2681L46.8026 44.3736L46.7219 44.3333L46.8995 43.72L46.2701 43.5989V43.494L47.6741 43.1874L47.7064 43.2681ZM47.5854 40.5003L47.6257 40.5729L46.496 41.8721L46.4153 41.8318L46.6574 41.0894L45.8908 40.928V40.8311L47.5854 40.5003ZM46.9721 38.4265L45.8424 39.298L45.7617 39.2415L46.0845 38.6766L45.4873 38.4265L45.5115 38.3377H46.9479L46.9721 38.4265ZM44.8095 36.7561H45.7294L45.7536 36.8368L45.0274 37.4017L44.9628 37.3452L45.1484 36.9982L44.7853 36.8368L44.8095 36.7561ZM44.398 40.121L44.4383 40.2017L43.1956 41.4928L43.1149 41.4444L43.3974 40.6778L42.6065 40.468V40.3793L44.398 40.121ZM41.5575 47.6256V47.5287L42.9697 47.2382L43.01 47.3189L42.082 48.4083L42.0013 48.368L42.1869 47.7466L41.5575 47.6256ZM42.2031 37.9746H43.6314L43.6636 38.0553L42.5339 38.9348L42.4613 38.8703L42.7679 38.3054L42.1789 38.0633L42.2031 37.9746ZM42.1224 44.9788L41.259 46.1247L41.1783 46.0843L41.3235 45.4549L40.6941 45.3742V45.2693L42.0659 44.89L42.1224 44.9788ZM41.6866 42.679L40.799 43.7281L40.7183 43.6796L40.8878 43.0906L40.2906 42.9695V42.8808L41.6382 42.5983L41.6866 42.679ZM40.0728 40.6213L41.2025 40.4357L41.2428 40.5164L40.4682 41.3557L40.3875 41.3072L40.5489 40.8392L40.0647 40.7182L40.0728 40.6213ZM37.1113 48.5616L37.0387 48.5051L37.2323 48.1582L36.8692 47.9968L36.8934 47.9161H37.8133L37.8375 47.9968L37.1113 48.5616ZM37.8617 50.587L37.7972 50.5306L37.9828 50.1916L37.6277 50.0303L37.6439 49.9496H38.5638L38.588 50.0303L37.8617 50.587ZM38.9108 47.1979L38.8301 47.1414L39.0722 46.6895L38.5961 46.512L38.6122 46.4152L39.7581 46.3829L39.7903 46.4636L38.9108 47.1979ZM39.6209 49.1184L39.5483 49.0619L39.7903 48.6181L39.3304 48.4244L39.3546 48.3357H40.5004L40.5246 48.4164L39.6209 49.1184ZM40.7344 50.7646L40.6618 50.7081L40.8555 50.3611L40.4924 50.1997L40.5166 50.119H41.4365L41.4607 50.1997L40.7344 50.7646ZM36.7966 60.2784L36.4819 60.3833L36.2398 60.4559L36.0139 60.5205L35.6911 60.6173L35.6427 60.4801L35.6669 60.464L35.9493 60.351L36.2882 60.2138L36.3689 60.1816L36.7159 60.0444C37.0347 59.9199 37.3548 59.7988 37.6761 59.6813L37.7972 59.6409L38.0393 59.5521C38.362 59.4392 38.701 59.3101 39.0479 59.1971C39.4691 59.0589 39.8914 58.9244 40.3148 58.7936L40.4843 58.7371L40.8878 58.6161L41.4203 58.4789L42.0659 58.3175L42.2111 58.2772L42.5178 58.2126H42.542L42.5904 58.3498L42.5581 58.3579L42.2676 58.4708L42.0659 58.5435L41.501 58.7371L40.9846 58.9066L40.8636 58.9469L40.4036 59.1083C40.0001 59.2455 39.5805 59.3827 39.1528 59.5118L38.8301 59.6248L37.9021 59.9314L37.4583 60.0686L36.7966 60.2784ZM46.6412 58.4628L46.3265 58.5677L45.5761 58.834L45.4066 58.8905L44.866 59.076C44.6078 59.1567 44.3415 59.2616 44.0832 59.3504L42.3645 59.9556L41.259 60.3591L40.6538 60.577C40.4682 60.6576 40.2906 60.7141 40.1131 60.7787L39.871 60.8594L39.3707 61.045L39.1609 61.1257C38.9088 61.2164 38.6559 61.3051 38.4024 61.392L38.1038 61.5049L37.7004 61.6421L37.6681 61.6502L37.6116 61.513L37.6439 61.4969L38.0393 61.3355L38.3298 61.2064L39.0722 60.8917L39.2174 60.8352L39.7661 60.6092L40.0163 60.5124L40.5489 60.3026L41.1541 60.0686C41.5172 59.9395 41.8803 59.7942 42.2596 59.6651L43.9864 59.068L44.3899 58.9308L44.7772 58.8098L45.5035 58.5919L46.2539 58.374L46.5767 58.2772L47.0205 58.1481L47.0689 58.2933L46.6412 58.4628ZM42.6872 56.6875L42.6953 56.5907C42.7273 56.5836 42.7596 56.5782 42.7921 56.5745C42.827 56.5701 42.8622 56.5701 42.897 56.5745C42.9426 56.5683 42.9887 56.5683 43.0342 56.5745H43.0665L43.1149 56.5907C43.1422 56.5973 43.1692 56.6054 43.1956 56.6149C43.2563 56.632 43.3157 56.6535 43.3731 56.6794C43.4329 56.7119 43.4897 56.7497 43.5426 56.7924C43.6007 56.8359 43.6547 56.8845 43.704 56.9377L43.7443 56.9941C43.7746 57.0293 43.8016 57.0671 43.825 57.1071C43.8569 57.1667 43.8839 57.2288 43.9057 57.2927C43.9276 57.3529 43.9438 57.4151 43.9541 57.4783L43.9703 57.559V57.6397C43.9706 57.6886 43.9652 57.7373 43.9541 57.7849C43.9539 57.8205 43.9485 57.8559 43.938 57.8899L43.9057 57.9705H43.8089L43.7847 57.8899C43.7769 57.8592 43.7661 57.8295 43.7524 57.8011C43.7413 57.7626 43.7278 57.7249 43.7121 57.6881C43.6963 57.6464 43.6774 57.6059 43.6556 57.5671C43.634 57.5226 43.6097 57.4795 43.5829 57.438L43.5023 57.3169L43.4054 57.1959L43.3247 57.1152C43.3184 57.1032 43.3102 57.0923 43.3005 57.0829L43.1875 56.978C43.1553 56.9457 43.1069 56.9134 43.0665 56.8973C43.0301 56.8712 42.9924 56.847 42.9535 56.8247L42.8486 56.7682L42.7679 56.7279L42.6872 56.6875ZM45.4873 55.9613C45.4982 55.9634 45.509 55.9661 45.5196 55.9693C45.5805 55.989 45.6399 56.0133 45.6971 56.042C45.7573 56.0738 45.8141 56.1116 45.8666 56.1549C45.9244 56.1957 45.9784 56.2416 46.028 56.2921C46.0746 56.3468 46.1152 56.4063 46.149 56.4696C46.1807 56.5265 46.2077 56.5859 46.2297 56.6472C46.2507 56.7076 46.2669 56.7697 46.2781 56.8328L46.2943 56.9134V56.9941C46.2961 57.0427 46.2934 57.0913 46.2862 57.1394C46.2832 57.1753 46.275 57.2107 46.262 57.2443L46.2297 57.325H46.1409C46.1288 57.2987 46.1181 57.2717 46.1087 57.2443C46.1087 57.212 46.0925 57.1797 46.0764 57.1475L46.036 57.0426C46.0196 57.0011 46.0008 56.9607 45.9796 56.9215C45.9578 56.8772 45.9335 56.834 45.9069 56.7924L45.8262 56.6714L45.7375 56.5423C45.7052 56.4938 45.6649 56.4616 45.6245 56.4293L45.5115 56.3244C45.4752 56.2957 45.4375 56.2687 45.3986 56.2437C45.3301 56.194 45.2571 56.1508 45.1807 56.1146C45.1547 56.0969 45.1278 56.0808 45.1 56.0662C45.089 56.0643 45.0782 56.0616 45.0677 56.0581L44.3737 56.2276L44.2769 56.2518L44.3576 56.276C44.4185 56.2989 44.4778 56.3259 44.5351 56.3567C44.592 56.3867 44.646 56.4218 44.6965 56.4616C44.7553 56.5041 44.8094 56.5528 44.8579 56.6068C44.9031 56.6597 44.9436 56.7164 44.979 56.7763C45.014 56.8354 45.0437 56.8975 45.0677 56.9619C45.0879 57.0226 45.104 57.0846 45.1161 57.1475L45.1323 57.2282V57.3089C45.1336 57.3547 45.1309 57.4006 45.1242 57.446C45.1193 57.4817 45.1112 57.5168 45.1 57.5509C45.0914 57.5786 45.0806 57.6056 45.0677 57.6316H44.9709L44.9467 57.5509C44.9379 57.5207 44.9271 57.491 44.9144 57.4622L44.8741 57.3573L44.8176 57.2282L44.753 57.1071L44.6723 56.978C44.6481 56.9296 44.5997 56.8973 44.5755 56.857C44.5402 56.817 44.5025 56.7793 44.4625 56.744L44.3495 56.6391C44.3173 56.5987 44.2688 56.5826 44.2366 56.5584L44.1236 56.4858L44.0187 56.4293L43.938 56.3889L43.8654 56.3567L42.6227 54.9203L42.0094 51.4827L42.1305 51.4263L44.5029 54.3151L45.3259 54.299L47.4401 55.4771L45.4873 55.9613ZM49.2477 55.0656L49.2557 54.9849L49.3526 54.9768C49.3874 54.9729 49.4226 54.9729 49.4575 54.9768C49.5031 54.9731 49.549 54.9731 49.5946 54.9768H49.6027L49.6753 54.9929L49.756 55.0171C49.8806 55.0588 49.9958 55.1246 50.0949 55.2108C50.1391 55.2442 50.1796 55.2821 50.216 55.3238L50.2483 55.3561C50.2939 55.4085 50.3345 55.4653 50.3693 55.5255C50.4007 55.5853 50.4277 55.6473 50.45 55.7111C50.4686 55.7717 50.4821 55.8338 50.4903 55.8967L50.4984 55.9774V56.0581C50.502 56.1067 50.4993 56.1555 50.4903 56.2033C50.4866 56.2392 50.4784 56.2744 50.4661 56.3082L50.4258 56.3889H50.3451L50.3128 56.3082C50.3047 56.2751 50.2939 56.2427 50.2805 56.2114L50.2402 56.1065L50.1918 55.9855L50.1192 55.8564L50.0385 55.7272C50.0113 55.6826 49.9816 55.6395 49.9497 55.5981L49.8448 55.4852C49.8277 55.4671 49.8088 55.4509 49.7883 55.4368C49.7687 55.4188 49.7498 55.3999 49.7318 55.3803L49.6189 55.2996L49.5059 55.2189L49.401 55.1624L49.3203 55.122L49.2396 55.0817L49.2477 55.0656ZM52.2011 56.9699L52.0558 57.0184L51.9428 57.0506L51.6685 57.1313C51.2812 57.2367 50.8911 57.3309 50.4984 57.4138L50.3854 57.438C50.0186 57.5261 49.65 57.6068 49.2799 57.68L48.9894 57.7204L48.8765 57.7365L48.7232 57.7607H48.6989L48.6667 57.6155L48.6909 57.6074L48.8361 57.559L48.9168 57.5267L49.2235 57.4299C49.5785 57.3169 50.0143 57.1959 50.4016 57.1071L51.0471 56.978L51.612 56.8812L51.9025 56.8489L52.0155 56.8328L52.1768 56.8166H52.2011L52.2253 56.9619L52.2011 56.9699ZM53.5729 55.6062H53.5486L53.5164 55.461H53.5406L53.7342 55.4045C53.9007 55.3602 54.0675 55.3171 54.2345 55.2754C54.7405 55.1567 55.249 55.0491 55.7597 54.9526H55.7758L56.5827 54.8073L57.2525 54.7105H57.3009L57.6883 54.6621L57.8093 54.646L58.003 54.6298H58.0352L58.0594 54.7751H58.0272L57.8416 54.8315L57.7044 54.8638L57.3413 54.9445L56.9539 55.0252L56.6312 55.0978L55.9453 55.235L55.8162 55.2592C55.1815 55.3784 54.5438 55.4807 53.9037 55.5659L53.7665 55.582L53.5729 55.6143V55.6062ZM59.867 55.7918L59.6088 55.8322L59.1649 55.9128C58.8349 55.9711 58.504 56.025 58.1724 56.0742L57.6076 56.1549L57.4946 56.1711L57.0346 56.2437L56.5908 56.3002L55.8968 56.4051L55.5014 56.4616L55.3723 56.4777L54.9043 56.5423L54.4201 56.6068L54.2023 56.631L53.9037 56.6633L53.8795 56.5181L54.17 56.4535L54.3717 56.4051L54.864 56.3082L55.1222 56.2518L55.332 56.2114L55.5418 56.1711L55.8484 56.1146C56.0179 56.0823 56.2115 56.042 56.4133 56.0177L56.9862 55.929L57.5672 55.8483L58.1321 55.7676L58.7938 55.703L59.1246 55.6627L59.754 55.6143L59.8347 55.6062L60.1091 55.5901H60.1333L60.1494 55.7353L59.867 55.7918Z" fill="white"/>
</svg>
