<svg viewBox="0 0 70 44" fill="currentColor" xmlns="http://www.w3.org/2000/svg">
  <path d="M18.25 43.05C26.35 43.05 33.06 36.03 33.06 27.5C33.06 18.9 26.4 11.94 18.3 11.94C10.15 11.94 3.44 18.9 3.44 27.5C3.44 30.89 4.55 34.28 6.43 37.03L6.32 37.14C2.99 33.34 1.11 28.14 1.11 22.53C1.11 10.95 10.04 1.36 21.02 1.36C24.63 1.36 28.07 2.29 30.95 3.99L31.45 3.11C28.4 1.36 24.68 0.37 20.97 0.37C9.37 0.37 0 10.25 0 22.53C0 35.33 8.38 43.05 18.25 43.05ZM55.19 43.05C63.29 43.05 70 36.03 70 27.5C70 18.9 63.34 11.94 55.25 11.94C47.09 11.94 40.38 18.9 40.38 27.5C40.38 30.89 41.49 34.28 43.38 37.03L43.27 37.14C39.94 33.34 38.05 28.14 38.05 22.53C38.05 10.95 46.98 1.36 57.96 1.36C61.57 1.36 65.01 2.29 67.89 3.99L68.39 3.11C65.34 1.36 61.62 0.37 57.91 0.37C46.32 0.37 36.94 10.25 36.94 22.53C36.94 35.33 45.32 43.05 55.19 43.05Z" />
</svg>
