<svg viewBox="0 0 32 32" xmlns="http://www.w3.org/2000/svg">
  <mask id="c71ee793c74e" fill="#fff">
    <circle r="16" cx="16" cy="16" />
  </mask>
  <g mask="url(#c71ee793c74e)">
    <!-- horizontals -->
    <rect fill="#722391" width="32" height="100%" />
    <rect fill="#152b9d" width="32" height="83.3%" />
    <rect fill="#70c23b" width="32" height="66.6%" />
    <rect fill="#ecfc5a" width="32" height="50%" />
    <rect fill="#e0a93f" width="32" height="33.3%" />
    <rect fill="#c13124" width="32" height="16.6%" />
    <!-- obliques-->
    <g transform="translate(1.25 -3) rotate(-45 19 19)">
      <rect fill="#222222" width="19" height="19" />
      <rect fill="#62411d" width="16.6" height="16.6" />
      <rect fill="#a1daec" width="14.2" height="14.2" />
      <rect fill="#efbcce" width="11.8" height="11.8" />
      <rect fill="#f7f7f7" width="9.4" height="9.4" />
      <rect fill="#ecfc5a" width="7" height="7" />
    </g>
    <path fill="#ffffff" d="M25.29 22.24c-.32-.17-.22-.12-1.73-1.02l-3.32.7-.85-.74.03-.22-.1-.5.1-.23v-.73l-.94.84-.02-.03 2.73-3.23-.02-.06-.8-.14v-.04h1.43c.15.2.47.24.7.18v-.03l-.28-.47s.27-.27.45.05c.1.15.16.35.03.47l.02.04a.73.73 0 0 0 .48-.28c.16-.2.13-.54-.06-.77-.17-.2-.48-.5-.48-.5a.8.8 0 0 0-.51-.83l-1.36-.54h-1.86v-.04l1.84-.22.56-.5s1.9-.64 2.26-.94c.36-.3 1.24-3.2 1.24-3.2l1.97-2.74-.08-1.17h-.05l-.21.97-.99.83.1-.9-.54-1.15-.04.05.16 1.06-.56 1.09-.62-1.01-1.09-.9-.03.05.76 1.1.07 1.28-1.44-.86-1.24-.2-.02.04 1.08.45.73 1.27-1.65-.48-1.05-.2-.03.04 1 .35.65.94-2.34-.09v.04l1.27.85-2.18.58v.04l1.07.43-2.03.79v.04l1 .5-2.04.96v.04l1.2.47-1.75.8.54.7-.04.03-1.22-1.04-3.15-4.4-2.86-1.47L6.9 6.38l-.7-1.9-.03.01.25 2.14 1.1 1.78-.03.03L5.9 7.1l-.76-1.48h-.05l.27 1.75.79 1.43-.03.02-1.28-1.04-.66-1-.04.02.31 1.34.82 1.21-.03.03-1.27-.74-.55-.7-.04.01L3.73 9l.59.74-.02.03-.59-.11-.01.03 1.24 1.18v.03l-1.1-.06v.06l1.55.96-.01.03-.72.06V12l1.79.69v.03l-.7.25V13l4.33.32v.03l-2.41.02-.05.5 3.02-.05v.04l-2.16.23-.1.59 2.94-.41v.04l-2.28.53-.04.68 3.02-.83.01.04-2.49.97.02.63 3.05-1.28v.04l-2.45 1.33.08.64 2.99-1.53.02.03-2.44 1.56.14.54 2.88-1.6.01.04-2.23 1.5.21.58 2.38-1.43.02.04-1.56 1.16.28.55 1.15-.71.02.02-.43.38.21.44.26-.1.36-.13.2-.07.1-.04.1-.06c.06-.03.11-.08.17-.13l.04-.03.03-.04a.76.76 0 0 0 .08-.07l.06-.08.06-.08a.48.48 0 0 0 .04-.08l.04-.08a1.36 1.36 0 0 0 .1-.25l.01-.07v-.03h.05v.03l-.02.08c0 .03 0 .08-.03.12 0 .05-.02.1-.04.15l-.04.09-.04.08-.05.1-.06.08-.07.09-.04.04-.04.04c-.05.06-.12.1-.18.15l-.1.07-.1.06-.56.24-3.32 1.25-2.18 3.43.13.09 2.43-2.83.03.02-1.45 2.13.9-.13 1.33-1.99.03.02-.97 1.92.83-.05.9-1.86.04.01-.61 1.83.84-.06.53-1.75h.04l-.3 1.72.86-.17.19-1.57h.04v1.5l.64-.37-.1-1.13h.04l.23 1.03.22.13.17.46.26.09.7.57-.02.03-.33-.15c-1.23.34-2.46.7-3.68 1.08h.01l1.24.72.9.51c.35.2.48.45.35.77l-.04-.02c.07-.2.02-.46-.23-.58l-1.5-.66-.95.3c-.4.14-.38.68 0 .83l1.74.63c.67.22.85.12 1.28-.08 1.7-.8 2.45-1.22 4.13-2.5l.02.02-1.18 1.14c.8-.37 1.59-.71 2.1-.92.62-.31 1.21-.67 1.77-1.07l.03.03-.82.74c.93-.18 2.45-.33 3.27-.33 1.1 0 1.11-.94.54-1.26l-.01.01Zm-7.67.3-.49-.57-.24-1.38.04-.02.95 1.15h.33l.84.47-1.43.35Z" />
  </g>
</svg>
